<svg xmlns="http://www.w3.org/2000/svg" viewBox="0 0 600 750" width="600" height="750"><rect width="600" height="750" fill="#0e0d0b"/><rect x="14" y="14" width="572" height="722" fill="none" stroke="#e8e2d6" stroke-width="0.6" opacity="0.14"/><ellipse cx="195.5" cy="545.3" rx="120.4" ry="129.9" fill="#e8e2d6" opacity="0.1" transform="rotate(-23.3 254.9 411.6)"/><ellipse cx="220.2" cy="590.4" rx="69.1" ry="63.6" fill="#e8e2d6" opacity="0.1" transform="rotate(12.8 254.9 411.6)"/><ellipse cx="302.9" cy="606.9" rx="62" ry="52.5" fill="#e8e2d6" opacity="0.1" transform="rotate(-15.5 254.9 411.6)"/><ellipse cx="256.3" cy="326.2" rx="60.5" ry="95.2" fill="#e8e2d6" opacity="0.1" transform="rotate(-18 254.9 411.6)"/><ellipse cx="198.7" cy="437.4" rx="157.7" ry="213.2" fill="#e8e2d6" opacity="0.1" transform="rotate(-19.5 254.9 411.6)"/><ellipse cx="290.7" cy="586.7" rx="55.5" ry="70.9" fill="#e8e2d6" opacity="0.1" transform="rotate(-2.6 254.9 411.6)"/><ellipse cx="285.4" cy="353.7" rx="135.6" ry="168.3" fill="#e8e2d6" opacity="0.1" transform="rotate(-4.2 254.9 411.6)"/><ellipse cx="293.3" cy="587.9" rx="139.1" ry="121" fill="#e8e2d6" opacity="0.1" transform="rotate(24 254.9 411.6)"/><ellipse cx="186.1" cy="549.1" rx="174" ry="254.1" fill="#e8e2d6" opacity="0.1" transform="rotate(-3.9 254.9 411.6)"/><path d="M 134.9 299.1 C 262 369.1, 316 541.6, 374.9 661.7" stroke="#e8e2d6" stroke-width="1.3" fill="none" opacity="0.5"/><path d="M 134.9 299.1 C 235.5 383.3, 273 631.4, 374.9 763.7" stroke="#e8e2d6" stroke-width="1.3" fill="none" opacity="0.6"/><path d="M 134.9 299.1 C 174 461.8, 234.8 560.2, 374.9 654.3" stroke="#e8e2d6" stroke-width="1.3" fill="none" opacity="0.5"/><path d="M 254.9 411.6 C 273.3 471, 239.6 600.3, 181.8 674.1" stroke="#c0392b" stroke-width="1.6" fill="none" opacity="0.85"/><circle cx="313.9" cy="528.7" r="0.9" fill="#e8e2d6" opacity="0.3"/><circle cx="492.2" cy="726.1" r="1.3" fill="#e8e2d6" opacity="0.2"/><circle cx="150.1" cy="602.5" r="0.9" fill="#e8e2d6" opacity="0.2"/><circle cx="531.5" cy="403.8" r="1.5" fill="#e8e2d6" opacity="0.1"/><circle cx="324.7" cy="138.8" r="1.4" fill="#e8e2d6" opacity="0.2"/><circle cx="561.8" cy="176.5" r="0.6" fill="#e8e2d6" opacity="0.1"/><circle cx="197.7" cy="122.9" r="1.5" fill="#e8e2d6" opacity="0.3"/><circle cx="114.9" cy="103.3" r="0.8" fill="#e8e2d6" opacity="0.2"/><circle cx="575.5" cy="230.1" r="0.9" fill="#e8e2d6" opacity="0.2"/><circle cx="184.8" cy="343" r="1.1" fill="#e8e2d6" opacity="0.1"/><circle cx="228.1" cy="147.3" r="1.8" fill="#e8e2d6" opacity="0.2"/><circle cx="139.3" cy="17.2" r="1.7" fill="#e8e2d6" opacity="0.2"/><circle cx="73.9" cy="631.7" r="1.2" fill="#e8e2d6" opacity="0.2"/><circle cx="230.5" cy="348.1" r="1" fill="#e8e2d6" opacity="0.2"/><circle cx="329.7" cy="680.6" r="0.6" fill="#e8e2d6" opacity="0.2"/><circle cx="218.8" cy="725.1" r="0.7" fill="#e8e2d6" opacity="0.2"/><circle cx="115.9" cy="744" r="1.4" fill="#e8e2d6" opacity="0.3"/><circle cx="280.1" cy="252.4" r="0.7" fill="#e8e2d6" opacity="0.3"/></svg>