<svg xmlns="http://www.w3.org/2000/svg" viewBox="0 0 600 600" width="600" height="600"><rect width="600" height="600" fill="#0e0d0b"/><rect x="14" y="14" width="572" height="572" fill="none" stroke="#e8e2d6" stroke-width="0.6" opacity="0.14"/><ellipse cx="294.6" cy="372.4" rx="164.7" ry="229.4" fill="#e8e2d6" opacity="0.1" transform="rotate(-0.1 246.6 280.2)"/><ellipse cx="283.3" cy="347.6" rx="163" ry="167.4" fill="#e8e2d6" opacity="0.1" transform="rotate(13.6 246.6 280.2)"/><ellipse cx="263.7" cy="443.5" rx="49.8" ry="70.4" fill="#e8e2d6" opacity="0.1" transform="rotate(-9.1 246.6 280.2)"/><ellipse cx="217.5" cy="274.1" rx="154.9" ry="147.4" fill="#e8e2d6" opacity="0.1" transform="rotate(-18.9 246.6 280.2)"/><ellipse cx="215.1" cy="438.5" rx="149.6" ry="173.9" fill="#e8e2d6" opacity="0.1" transform="rotate(14 246.6 280.2)"/><ellipse cx="310.9" cy="334.6" rx="51.1" ry="70.7" fill="#e8e2d6" opacity="0.1" transform="rotate(21 246.6 280.2)"/><ellipse cx="269.5" cy="259.6" rx="151.9" ry="125.6" fill="#e8e2d6" opacity="0.1" transform="rotate(0 246.6 280.2)"/><ellipse cx="218.4" cy="268.9" rx="138.4" ry="202.2" fill="#e8e2d6" opacity="0.1" transform="rotate(1.9 246.6 280.2)"/><ellipse cx="297.1" cy="374.6" rx="62" ry="57.4" fill="#e8e2d6" opacity="0.1" transform="rotate(0.2 246.6 280.2)"/><path d="M 126.6 190.2 C 142.5 298.4, 239.1 422.6, 366.6 569.5" stroke="#e8e2d6" stroke-width="1.3" fill="none" opacity="0.8"/><path d="M 126.6 190.2 C 210.8 316.3, 238.7 320.7, 366.6 484.9" stroke="#e8e2d6" stroke-width="1.3" fill="none" opacity="0.6"/><path d="M 126.6 190.2 C 175.3 294.7, 228.2 453.2, 366.6 579.5" stroke="#e8e2d6" stroke-width="1.3" fill="none" opacity="0.7"/><path d="M 246.6 280.2 C 300.4 302.7, 330.5 407.9, 321.9 490.2" stroke="#c0392b" stroke-width="1.6" fill="none" opacity="0.85"/><circle cx="353.5" cy="375.1" r="0.7" fill="#e8e2d6" opacity="0.3"/><circle cx="120.3" cy="34.8" r="1.2" fill="#e8e2d6" opacity="0.2"/><circle cx="19.6" cy="288.9" r="0.8" fill="#e8e2d6" opacity="0.2"/><circle cx="69.9" cy="198.7" r="0.6" fill="#e8e2d6" opacity="0.2"/><circle cx="401.7" cy="497" r="1.2" fill="#e8e2d6" opacity="0.1"/><circle cx="19.7" cy="105.2" r="1" fill="#e8e2d6" opacity="0.2"/><circle cx="361.8" cy="186.3" r="1" fill="#e8e2d6" opacity="0.1"/><circle cx="539.1" cy="143.9" r="1.7" fill="#e8e2d6" opacity="0.2"/><circle cx="92.6" cy="498.6" r="1.1" fill="#e8e2d6" opacity="0.2"/><circle cx="252.4" cy="529.7" r="1.5" fill="#e8e2d6" opacity="0.2"/><circle cx="574.9" cy="415.3" r="1" fill="#e8e2d6" opacity="0.2"/><circle cx="459.6" cy="553.9" r="0.7" fill="#e8e2d6" opacity="0.2"/><circle cx="320.3" cy="155" r="0.6" fill="#e8e2d6" opacity="0.2"/><circle cx="555.9" cy="446.3" r="1" fill="#e8e2d6" opacity="0.3"/><circle cx="425.1" cy="180.2" r="1.6" fill="#e8e2d6" opacity="0.2"/><circle cx="555.8" cy="6.7" r="1.7" fill="#e8e2d6" opacity="0.2"/><circle cx="346.9" cy="66.1" r="1.5" fill="#e8e2d6" opacity="0.3"/><circle cx="82.7" cy="548.4" r="1.7" fill="#e8e2d6" opacity="0.3"/></svg>