<svg xmlns="http://www.w3.org/2000/svg" viewBox="0 0 600 760" width="600" height="760"><rect width="600" height="760" fill="#0e0d0b"/><rect x="10" y="10" width="580" height="740" fill="none" stroke="#e8e2d6" stroke-width="0.5" opacity="0.12"/><path d="M 344,90 C 296,220 298,560 266,690" fill="none" stroke="#e8e2d6" stroke-width="1.7" stroke-linecap="round" stroke-linejoin="round" opacity="0.9"/><path d="M 340.49,100.14 l 8.39,11.36" fill="none" stroke="#e8e2d6" stroke-width="0.7" stroke-linecap="round" stroke-linejoin="round" opacity="0.75"/><path d="M 340.49,100.14 l -13.46,4.26" fill="none" stroke="#e8e2d6" stroke-width="0.7" stroke-linecap="round" stroke-linejoin="round" opacity="0.75"/><path d="M 337.16,111.02 l 12.54,15.84" fill="none" stroke="#e8e2d6" stroke-width="0.7" stroke-linecap="round" stroke-linejoin="round" opacity="0.75"/><path d="M 337.16,111.02 l -19.04,6.74" fill="none" stroke="#e8e2d6" stroke-width="0.7" stroke-linecap="round" stroke-linejoin="round" opacity="0.75"/><path d="M 334.01,122.62 l 16.84,20.08" fill="none" stroke="#e8e2d6" stroke-width="0.7" stroke-linecap="round" stroke-linejoin="round" opacity="0.75"/><path d="M 334.01,122.62 l -24.45,9.45" fill="none" stroke="#e8e2d6" stroke-width="0.7" stroke-linecap="round" stroke-linejoin="round" opacity="0.75"/><path d="M 331.02,134.88 l 21.23,24.08" fill="none" stroke="#e8e2d6" stroke-width="0.7" stroke-linecap="round" stroke-linejoin="round" opacity="0.75"/><path d="M 331.02,134.88 l -29.65,12.3" fill="none" stroke="#e8e2d6" stroke-width="0.7" stroke-linecap="round" stroke-linejoin="round" opacity="0.75"/><path d="M 328.18,147.77 l 25.63,27.85" fill="none" stroke="#e8e2d6" stroke-width="0.7" stroke-linecap="round" stroke-linejoin="round" opacity="0.75"/><path d="M 328.18,147.77 l -34.64,15.24" fill="none" stroke="#e8e2d6" stroke-width="0.7" stroke-linecap="round" stroke-linejoin="round" opacity="0.75"/><path d="M 325.49,161.26 l 29.97,31.4" fill="none" stroke="#e8e2d6" stroke-width="0.7" stroke-linecap="round" stroke-linejoin="round" opacity="0.75"/><path d="M 325.49,161.26 l -39.41,18.21" fill="none" stroke="#e8e2d6" stroke-width="0.7" stroke-linecap="round" stroke-linejoin="round" opacity="0.75"/><path d="M 322.94,175.29 l 34.23,34.72" fill="none" stroke="#e8e2d6" stroke-width="0.7" stroke-linecap="round" stroke-linejoin="round" opacity="0.75"/><path d="M 322.94,175.29 l -43.92,21.16" fill="none" stroke="#e8e2d6" stroke-width="0.7" stroke-linecap="round" stroke-linejoin="round" opacity="0.75"/><path d="M 320.53,189.84 l 38.34,37.81" fill="none" stroke="#e8e2d6" stroke-width="0.7" stroke-linecap="round" stroke-linejoin="round" opacity="0.75"/><path d="M 320.53,189.84 l -48.18,24.05" fill="none" stroke="#e8e2d6" stroke-width="0.7" stroke-linecap="round" stroke-linejoin="round" opacity="0.75"/><path d="M 318.24,204.86 l 42.27,40.67" fill="none" stroke="#e8e2d6" stroke-width="0.7" stroke-linecap="round" stroke-linejoin="round" opacity="0.75"/><path d="M 318.24,204.86 l -52.15,26.85" fill="none" stroke="#e8e2d6" stroke-width="0.7" stroke-linecap="round" stroke-linejoin="round" opacity="0.75"/><path d="M 316.06,220.31 l 45.98,43.29" fill="none" stroke="#e8e2d6" stroke-width="0.7" stroke-linecap="round" stroke-linejoin="round" opacity="0.75"/><path d="M 316.06,220.31 l -55.83,29.51" fill="none" stroke="#e8e2d6" stroke-width="0.7" stroke-linecap="round" stroke-linejoin="round" opacity="0.75"/><path d="M 314,236.16 l 49.44,45.67" fill="none" stroke="#e8e2d6" stroke-width="0.7" stroke-linecap="round" stroke-linejoin="round" opacity="0.75"/><path d="M 314,236.16 l -59.21,32.02" fill="none" stroke="#e8e2d6" stroke-width="0.7" stroke-linecap="round" stroke-linejoin="round" opacity="0.75"/><path d="M 312.03,252.36 l 52.63,47.81" fill="none" stroke="#e8e2d6" stroke-width="0.7" stroke-linecap="round" stroke-linejoin="round" opacity="0.75"/><path d="M 312.03,252.36 l -62.26,34.35" fill="none" stroke="#e8e2d6" stroke-width="0.7" stroke-linecap="round" stroke-linejoin="round" opacity="0.75"/><path d="M 310.16,268.88 l 55.52,49.69" fill="none" stroke="#e8e2d6" stroke-width="0.7" stroke-linecap="round" stroke-linejoin="round" opacity="0.75"/><path d="M 310.16,268.88 l -64.97,36.47" fill="none" stroke="#e8e2d6" stroke-width="0.7" stroke-linecap="round" stroke-linejoin="round" opacity="0.75"/><path d="M 308.37,285.67 l 58.07,51.32" fill="none" stroke="#e8e2d6" stroke-width="0.7" stroke-linecap="round" stroke-linejoin="round" opacity="0.75"/><path d="M 308.37,285.67 l -67.34,38.37" fill="none" stroke="#e8e2d6" stroke-width="0.7" stroke-linecap="round" stroke-linejoin="round" opacity="0.75"/><path d="M 306.66,302.7 l 60.29,52.68" fill="none" stroke="#e8e2d6" stroke-width="0.7" stroke-linecap="round" stroke-linejoin="round" opacity="0.75"/><path d="M 306.66,302.7 l -69.34,40.02" fill="none" stroke="#e8e2d6" stroke-width="0.7" stroke-linecap="round" stroke-linejoin="round" opacity="0.75"/><path d="M 305.02,319.92 l 62.14,53.78" fill="none" stroke="#e8e2d6" stroke-width="0.7" stroke-linecap="round" stroke-linejoin="round" opacity="0.75"/><path d="M 305.02,319.92 l -70.98,41.42" fill="none" stroke="#e8e2d6" stroke-width="0.7" stroke-linecap="round" stroke-linejoin="round" opacity="0.75"/><path d="M 303.45,337.3 l 63.62,54.62" fill="none" stroke="#e8e2d6" stroke-width="0.7" stroke-linecap="round" stroke-linejoin="round" opacity="0.75"/><path d="M 303.45,337.3 l -72.25,42.54" fill="none" stroke="#e8e2d6" stroke-width="0.7" stroke-linecap="round" stroke-linejoin="round" opacity="0.75"/><path d="M 301.92,354.8 l 64.71,55.18" fill="none" stroke="#e8e2d6" stroke-width="0.7" stroke-linecap="round" stroke-linejoin="round" opacity="0.75"/><path d="M 301.92,354.8 l -73.14,43.39" fill="none" stroke="#e8e2d6" stroke-width="0.7" stroke-linecap="round" stroke-linejoin="round" opacity="0.75"/><path d="M 300.44,372.38 l 65.4,55.48" fill="none" stroke="#e8e2d6" stroke-width="0.7" stroke-linecap="round" stroke-linejoin="round" opacity="0.75"/><path d="M 300.44,372.38 l -73.64,43.95" fill="none" stroke="#e8e2d6" stroke-width="0.7" stroke-linecap="round" stroke-linejoin="round" opacity="0.75"/><path d="M 299,390 l 65.69,55.5" fill="none" stroke="#e8e2d6" stroke-width="0.7" stroke-linecap="round" stroke-linejoin="round" opacity="0.75"/><path d="M 299,390 l -73.76,44.22" fill="none" stroke="#e8e2d6" stroke-width="0.7" stroke-linecap="round" stroke-linejoin="round" opacity="0.75"/><path d="M 297.59,407.62 l 65.59,55.25" fill="none" stroke="#e8e2d6" stroke-width="0.7" stroke-linecap="round" stroke-linejoin="round" opacity="0.75"/><path d="M 297.59,407.62 l -73.49,44.2" fill="none" stroke="#e8e2d6" stroke-width="0.7" stroke-linecap="round" stroke-linejoin="round" opacity="0.75"/><path d="M 296.2,425.2 l 65.08,54.74" fill="none" stroke="#e8e2d6" stroke-width="0.7" stroke-linecap="round" stroke-linejoin="round" opacity="0.75"/><path d="M 296.2,425.2 l -72.84,43.89" fill="none" stroke="#e8e2d6" stroke-width="0.7" stroke-linecap="round" stroke-linejoin="round" opacity="0.75"/><path d="M 294.82,442.7 l 64.17,53.96" fill="none" stroke="#e8e2d6" stroke-width="0.7" stroke-linecap="round" stroke-linejoin="round" opacity="0.75"/><path d="M 294.82,442.7 l -71.81,43.28" fill="none" stroke="#e8e2d6" stroke-width="0.7" stroke-linecap="round" stroke-linejoin="round" opacity="0.75"/><path d="M 293.46,460.08 l 62.87,52.92" fill="none" stroke="#e8e2d6" stroke-width="0.7" stroke-linecap="round" stroke-linejoin="round" opacity="0.75"/><path d="M 293.46,460.08 l -70.41,42.39" fill="none" stroke="#e8e2d6" stroke-width="0.7" stroke-linecap="round" stroke-linejoin="round" opacity="0.75"/><path d="M 292.09,477.3 l 61.19,51.63" fill="none" stroke="#e8e2d6" stroke-width="0.7" stroke-linecap="round" stroke-linejoin="round" opacity="0.75"/><path d="M 292.09,477.3 l -68.64,41.22" fill="none" stroke="#e8e2d6" stroke-width="0.7" stroke-linecap="round" stroke-linejoin="round" opacity="0.75"/><path d="M 290.71,494.33 l 59.14,50.08" fill="none" stroke="#e8e2d6" stroke-width="0.7" stroke-linecap="round" stroke-linejoin="round" opacity="0.75"/><path d="M 290.71,494.33 l -66.51,39.78" fill="none" stroke="#e8e2d6" stroke-width="0.7" stroke-linecap="round" stroke-linejoin="round" opacity="0.75"/><path d="M 289.31,511.12 l 56.74,48.29" fill="none" stroke="#e8e2d6" stroke-width="0.7" stroke-linecap="round" stroke-linejoin="round" opacity="0.75"/><path d="M 289.31,511.12 l -64.04,38.08" fill="none" stroke="#e8e2d6" stroke-width="0.7" stroke-linecap="round" stroke-linejoin="round" opacity="0.75"/><path d="M 287.89,527.64 l 54,46.26" fill="none" stroke="#e8e2d6" stroke-width="0.7" stroke-linecap="round" stroke-linejoin="round" opacity="0.75"/><path d="M 287.89,527.64 l -58.65,34.62" fill="none" stroke="#e8e2d6" stroke-width="0.7" stroke-linecap="round" stroke-linejoin="round" opacity="0.5"/><path d="M 286.43,543.84 l 50.94,44" fill="none" stroke="#e8e2d6" stroke-width="0.7" stroke-linecap="round" stroke-linejoin="round" opacity="0.75"/><path d="M 286.43,543.84 l -52.28,30.57" fill="none" stroke="#e8e2d6" stroke-width="0.7" stroke-linecap="round" stroke-linejoin="round" opacity="0.5"/><path d="M 284.94,559.69 l 47.58,41.52" fill="none" stroke="#e8e2d6" stroke-width="0.7" stroke-linecap="round" stroke-linejoin="round" opacity="0.75"/><path d="M 284.94,559.69 l -45.59,26.35" fill="none" stroke="#e8e2d6" stroke-width="0.7" stroke-linecap="round" stroke-linejoin="round" opacity="0.5"/><path d="M 283.39,575.14 l 43.96,38.83" fill="none" stroke="#e8e2d6" stroke-width="0.7" stroke-linecap="round" stroke-linejoin="round" opacity="0.75"/><path d="M 283.39,575.14 l -38.58,21.99" fill="none" stroke="#e8e2d6" stroke-width="0.7" stroke-linecap="round" stroke-linejoin="round" opacity="0.5"/><path d="M 281.79,590.16 l 40.1,35.94" fill="none" stroke="#e8e2d6" stroke-width="0.7" stroke-linecap="round" stroke-linejoin="round" opacity="0.75"/><path d="M 281.79,590.16 l -31.27,17.53" fill="none" stroke="#e8e2d6" stroke-width="0.7" stroke-linecap="round" stroke-linejoin="round" opacity="0.5"/><path d="M 280.13,604.71 l 36.03,32.84" fill="none" stroke="#e8e2d6" stroke-width="0.7" stroke-linecap="round" stroke-linejoin="round" opacity="0.75"/><path d="M 280.13,604.71 l -23.67,13" fill="none" stroke="#e8e2d6" stroke-width="0.7" stroke-linecap="round" stroke-linejoin="round" opacity="0.5"/><path d="M 278.39,618.74 l 31.79,29.56" fill="none" stroke="#e8e2d6" stroke-width="0.7" stroke-linecap="round" stroke-linejoin="round" opacity="0.75"/><path d="M 278.39,618.74 l -15.78,8.47" fill="none" stroke="#e8e2d6" stroke-width="0.7" stroke-linecap="round" stroke-linejoin="round" opacity="0.5"/><path d="M 276.57,632.23 l 27.41,26.1" fill="none" stroke="#e8e2d6" stroke-width="0.7" stroke-linecap="round" stroke-linejoin="round" opacity="0.75"/><path d="M 276.57,632.23 l -7.62,3.98" fill="none" stroke="#e8e2d6" stroke-width="0.7" stroke-linecap="round" stroke-linejoin="round" opacity="0.5"/><path d="M 274.66,645.12 l 22.94,22.46" fill="none" stroke="#e8e2d6" stroke-width="0.7" stroke-linecap="round" stroke-linejoin="round" opacity="0.75"/><path d="M 274.66,645.12 l -5.36,2.7" fill="none" stroke="#e8e2d6" stroke-width="0.7" stroke-linecap="round" stroke-linejoin="round" opacity="0.5"/><path d="M 272.66,657.38 l 18.43,18.64" fill="none" stroke="#e8e2d6" stroke-width="0.7" stroke-linecap="round" stroke-linejoin="round" opacity="0.75"/><path d="M 272.66,657.38 l -5.4,2.61" fill="none" stroke="#e8e2d6" stroke-width="0.7" stroke-linecap="round" stroke-linejoin="round" opacity="0.5"/><path d="M 270.56,668.98 l 13.92,14.64" fill="none" stroke="#e8e2d6" stroke-width="0.7" stroke-linecap="round" stroke-linejoin="round" opacity="0.75"/><path d="M 270.56,668.98 l -5.45,2.51" fill="none" stroke="#e8e2d6" stroke-width="0.7" stroke-linecap="round" stroke-linejoin="round" opacity="0.5"/><path d="M 268.34,679.86 l 9.49,10.46" fill="none" stroke="#e8e2d6" stroke-width="0.7" stroke-linecap="round" stroke-linejoin="round" opacity="0.75"/><path d="M 268.34,679.86 l -5.51,2.38" fill="none" stroke="#e8e2d6" stroke-width="0.7" stroke-linecap="round" stroke-linejoin="round" opacity="0.5"/><circle cx="307.68" cy="324.05" r="0.74" fill="#e8e2d6" opacity="0.5"/><circle cx="298.9" cy="143.85" r="0.83" fill="#e8e2d6" opacity="0.5"/><circle cx="288.02" cy="472.6" r="0.76" fill="#e8e2d6" opacity="0.5"/><circle cx="283.89" cy="179.59" r="1.09" fill="#e8e2d6" opacity="0.5"/><circle cx="296.02" cy="232.2" r="1.19" fill="#e8e2d6" opacity="0.5"/><circle cx="298.59" cy="360.13" r="0.86" fill="#e8e2d6" opacity="0.5"/><circle cx="307.54" cy="335.19" r="1.17" fill="#e8e2d6" opacity="0.5"/><circle cx="302.55" cy="193.68" r="0.7" fill="#e8e2d6" opacity="0.5"/><circle cx="322.34" cy="187.9" r="0.76" fill="#e8e2d6" opacity="0.5"/><circle cx="298.58" cy="200.28" r="1.11" fill="#e8e2d6" opacity="0.5"/><circle cx="230.83" cy="481.21" r="1" fill="#e8e2d6" opacity="0.5"/><circle cx="256.34" cy="456.27" r="0.88" fill="#e8e2d6" opacity="0.5"/><circle cx="264.02" cy="257.33" r="0.8" fill="#e8e2d6" opacity="0.5"/><circle cx="295.05" cy="187.18" r="0.87" fill="#e8e2d6" opacity="0.5"/><circle cx="291.1" cy="176.52" r="0.81" fill="#e8e2d6" opacity="0.5"/><circle cx="237.58" cy="398.93" r="1.09" fill="#e8e2d6" opacity="0.5"/><circle cx="250.35" cy="308.26" r="1.11" fill="#e8e2d6" opacity="0.5"/><circle cx="305.91" cy="232.09" r="0.75" fill="#e8e2d6" opacity="0.5"/><circle cx="241.94" cy="392.9" r="1.2" fill="#e8e2d6" opacity="0.5"/><circle cx="289.52" cy="199.62" r="0.77" fill="#e8e2d6" opacity="0.5"/><circle cx="274.06" cy="254.23" r="0.94" fill="#e8e2d6" opacity="0.5"/><circle cx="288.31" cy="505.82" r="0.94" fill="#e8e2d6" opacity="0.5"/><circle cx="245.48" cy="500.76" r="0.89" fill="#e8e2d6" opacity="0.5"/><circle cx="257.04" cy="322.45" r="0.79" fill="#e8e2d6" opacity="0.5"/><circle cx="286.04" cy="366.92" r="1.14" fill="#e8e2d6" opacity="0.5"/><circle cx="282.5" cy="316.55" r="0.83" fill="#e8e2d6" opacity="0.5"/><circle cx="290.39" cy="248.79" r="0.79" fill="#e8e2d6" opacity="0.5"/><circle cx="307.02" cy="194.48" r="0.89" fill="#e8e2d6" opacity="0.5"/><circle cx="310.45" cy="195.81" r="0.75" fill="#e8e2d6" opacity="0.5"/><circle cx="310.89" cy="181.28" r="1.09" fill="#e8e2d6" opacity="0.5"/><circle cx="286.64" cy="350.35" r="1.03" fill="#e8e2d6" opacity="0.5"/><circle cx="299.21" cy="425.39" r="0.87" fill="#e8e2d6" opacity="0.5"/><circle cx="294.22" cy="343.05" r="0.93" fill="#e8e2d6" opacity="0.5"/><circle cx="311.47" cy="283.96" r="0.72" fill="#e8e2d6" opacity="0.5"/><circle cx="309.95" cy="168.56" r="1.02" fill="#e8e2d6" opacity="0.5"/><circle cx="302.55" cy="265.51" r="1.06" fill="#e8e2d6" opacity="0.5"/><circle cx="286.69" cy="377.92" r="0.82" fill="#e8e2d6" opacity="0.5"/><circle cx="280.74" cy="188.28" r="1" fill="#e8e2d6" opacity="0.5"/><circle cx="239.35" cy="434.45" r="0.96" fill="#e8e2d6" opacity="0.5"/><circle cx="256.8" cy="421.42" r="0.75" fill="#e8e2d6" opacity="0.5"/><circle cx="304.7" cy="176.47" r="0.96" fill="#e8e2d6" opacity="0.5"/><circle cx="282.64" cy="388.81" r="0.74" fill="#e8e2d6" opacity="0.5"/><circle cx="269.69" cy="218.44" r="1.19" fill="#e8e2d6" opacity="0.5"/><circle cx="284.74" cy="499.13" r="0.83" fill="#e8e2d6" opacity="0.5"/><circle cx="293.58" cy="317.08" r="1.1" fill="#e8e2d6" opacity="0.5"/><circle cx="318.05" cy="219.93" r="0.75" fill="#e8e2d6" opacity="0.5"/><circle cx="303.39" cy="169.33" r="1.02" fill="#e8e2d6" opacity="0.5"/><circle cx="325.51" cy="199.55" r="0.93" fill="#e8e2d6" opacity="0.5"/><circle cx="321.59" cy="136.51" r="0.92" fill="#e8e2d6" opacity="0.5"/><circle cx="278.14" cy="457.61" r="0.95" fill="#e8e2d6" opacity="0.5"/><circle cx="295.08" cy="450.96" r="0.94" fill="#e8e2d6" opacity="0.5"/><circle cx="297.36" cy="414.37" r="0.94" fill="#e8e2d6" opacity="0.5"/><circle cx="268.64" cy="251.9" r="0.78" fill="#e8e2d6" opacity="0.5"/><circle cx="311.25" cy="333.78" r="1.03" fill="#e8e2d6" opacity="0.5"/><circle cx="330.65" cy="126.75" r="0.79" fill="#e8e2d6" opacity="0.5"/><circle cx="230.64" cy="460.39" r="0.73" fill="#e8e2d6" opacity="0.5"/><circle cx="316.18" cy="232.34" r="0.77" fill="#e8e2d6" opacity="0.5"/><circle cx="262.6" cy="286.15" r="0.87" fill="#e8e2d6" opacity="0.5"/><circle cx="284.55" cy="210.56" r="1.16" fill="#e8e2d6" opacity="0.5"/><circle cx="310.17" cy="173.69" r="1.15" fill="#e8e2d6" opacity="0.5"/><circle cx="259.97" cy="265.41" r="0.77" fill="#e8e2d6" opacity="0.5"/><circle cx="266.55" cy="502" r="0.77" fill="#e8e2d6" opacity="0.5"/><circle cx="257.89" cy="371.05" r="0.98" fill="#e8e2d6" opacity="0.5"/><circle cx="289.47" cy="285.55" r="0.76" fill="#e8e2d6" opacity="0.5"/><circle cx="298.52" cy="301.02" r="0.75" fill="#e8e2d6" opacity="0.5"/><circle cx="278.01" cy="187.68" r="1.08" fill="#e8e2d6" opacity="0.5"/><circle cx="258.99" cy="301.11" r="0.8" fill="#e8e2d6" opacity="0.5"/><circle cx="267.8" cy="215.37" r="1.03" fill="#e8e2d6" opacity="0.5"/><circle cx="294.78" cy="378.28" r="1.14" fill="#e8e2d6" opacity="0.5"/><circle cx="267.5" cy="299.32" r="1.01" fill="#e8e2d6" opacity="0.5"/><circle cx="248.62" cy="354.66" r="0.82" fill="#e8e2d6" opacity="0.5"/><circle cx="303.77" cy="374.54" r="0.92" fill="#e8e2d6" opacity="0.5"/><circle cx="293.07" cy="472.27" r="0.71" fill="#e8e2d6" opacity="0.5"/><circle cx="287.5" cy="217.23" r="1.05" fill="#e8e2d6" opacity="0.5"/><circle cx="310.89" cy="225.55" r="1.16" fill="#e8e2d6" opacity="0.5"/><circle cx="306.44" cy="342.61" r="0.89" fill="#e8e2d6" opacity="0.5"/><circle cx="295.56" cy="361.36" r="0.9" fill="#e8e2d6" opacity="0.5"/><circle cx="281.84" cy="360.24" r="0.81" fill="#e8e2d6" opacity="0.5"/><circle cx="250.19" cy="454.98" r="0.75" fill="#e8e2d6" opacity="0.5"/><circle cx="260.82" cy="235.13" r="1.16" fill="#e8e2d6" opacity="0.5"/><circle cx="286.9" cy="334.32" r="0.8" fill="#e8e2d6" opacity="0.5"/><circle cx="267.4" cy="426.87" r="1.13" fill="#e8e2d6" opacity="0.5"/><circle cx="300.33" cy="460.76" r="1.16" fill="#e8e2d6" opacity="0.5"/><circle cx="291" cy="472.2" r="0.94" fill="#e8e2d6" opacity="0.5"/><circle cx="300.38" cy="223.26" r="0.99" fill="#e8e2d6" opacity="0.5"/><circle cx="262.28" cy="348.09" r="1.1" fill="#e8e2d6" opacity="0.5"/><circle cx="322.48" cy="144.79" r="0.85" fill="#e8e2d6" opacity="0.5"/><circle cx="299.95" cy="178.26" r="1.06" fill="#e8e2d6" opacity="0.5"/><circle cx="263.01" cy="491.71" r="0.9" fill="#e8e2d6" opacity="0.5"/><circle cx="271.57" cy="492.91" r="1.06" fill="#e8e2d6" opacity="0.5"/><circle cx="261.9" cy="390.13" r="1" fill="#e8e2d6" opacity="0.5"/><circle cx="300.79" cy="216.19" r="0.78" fill="#e8e2d6" opacity="0.5"/><circle cx="274.67" cy="493.07" r="0.78" fill="#e8e2d6" opacity="0.5"/><circle cx="250.29" cy="360.26" r="0.91" fill="#e8e2d6" opacity="0.5"/><circle cx="292.98" cy="328.78" r="1.07" fill="#e8e2d6" opacity="0.5"/><circle cx="314.6" cy="178.54" r="0.92" fill="#e8e2d6" opacity="0.5"/><circle cx="263.14" cy="269.59" r="1" fill="#e8e2d6" opacity="0.5"/><circle cx="294.64" cy="237.11" r="0.77" fill="#e8e2d6" opacity="0.5"/><circle cx="309.3" cy="129.42" r="0.87" fill="#e8e2d6" opacity="0.5"/><circle cx="261.49" cy="460.26" r="0.82" fill="#e8e2d6" opacity="0.5"/><circle cx="277.99" cy="243.79" r="1.05" fill="#e8e2d6" opacity="0.5"/><circle cx="289.35" cy="218.86" r="0.87" fill="#e8e2d6" opacity="0.5"/><circle cx="288.16" cy="491.91" r="1.02" fill="#e8e2d6" opacity="0.5"/><circle cx="255.03" cy="380.77" r="0.85" fill="#e8e2d6" opacity="0.5"/><circle cx="260.21" cy="393.45" r="0.79" fill="#e8e2d6" opacity="0.5"/><circle cx="290.88" cy="386.86" r="1" fill="#e8e2d6" opacity="0.5"/><circle cx="248.16" cy="491.83" r="0.95" fill="#e8e2d6" opacity="0.5"/><circle cx="283.33" cy="401.08" r="0.93" fill="#e8e2d6" opacity="0.5"/><circle cx="275.33" cy="198.62" r="1.04" fill="#e8e2d6" opacity="0.5"/><circle cx="230.8" cy="477.97" r="0.8" fill="#e8e2d6" opacity="0.5"/><circle cx="310.35" cy="130.02" r="0.76" fill="#e8e2d6" opacity="0.5"/><circle cx="308.04" cy="149.1" r="1.17" fill="#e8e2d6" opacity="0.5"/><circle cx="305.74" cy="415.9" r="0.75" fill="#e8e2d6" opacity="0.5"/><circle cx="300.09" cy="182.64" r="1.14" fill="#e8e2d6" opacity="0.5"/><circle cx="323.12" cy="130.04" r="1.14" fill="#e8e2d6" opacity="0.5"/><circle cx="265.02" cy="342.43" r="1.02" fill="#e8e2d6" opacity="0.5"/><circle cx="304.29" cy="211.53" r="0.98" fill="#e8e2d6" opacity="0.5"/><circle cx="313.1" cy="316.48" r="0.83" fill="#e8e2d6" opacity="0.5"/><circle cx="294.36" cy="151.74" r="0.71" fill="#e8e2d6" opacity="0.5"/><circle cx="284.62" cy="406.06" r="0.91" fill="#e8e2d6" opacity="0.5"/><circle cx="318.81" cy="236.87" r="0.8" fill="#e8e2d6" opacity="0.5"/><circle cx="291.32" cy="357.99" r="0.85" fill="#e8e2d6" opacity="0.5"/><circle cx="261.39" cy="306.68" r="0.71" fill="#e8e2d6" opacity="0.5"/><circle cx="233.43" cy="456.87" r="0.99" fill="#e8e2d6" opacity="0.5"/><circle cx="265.2" cy="329.62" r="0.72" fill="#e8e2d6" opacity="0.5"/><circle cx="249.65" cy="461.2" r="0.97" fill="#e8e2d6" opacity="0.5"/><circle cx="331.35" cy="159.11" r="1.13" fill="#e8e2d6" opacity="0.5"/><circle cx="254.23" cy="375.77" r="0.75" fill="#e8e2d6" opacity="0.5"/><circle cx="290.55" cy="474.27" r="1.06" fill="#e8e2d6" opacity="0.5"/><circle cx="322.28" cy="214.13" r="0.99" fill="#e8e2d6" opacity="0.5"/><circle cx="315.12" cy="219.39" r="1.09" fill="#e8e2d6" opacity="0.5"/><circle cx="302.26" cy="227.97" r="1.15" fill="#e8e2d6" opacity="0.5"/><circle cx="250.78" cy="354.97" r="1.2" fill="#e8e2d6" opacity="0.5"/><circle cx="268.81" cy="501.75" r="1.12" fill="#e8e2d6" opacity="0.5"/><circle cx="290.37" cy="193.33" r="1.11" fill="#e8e2d6" opacity="0.5"/><circle cx="312.57" cy="154.9" r="0.84" fill="#e8e2d6" opacity="0.5"/><circle cx="306.45" cy="331.08" r="0.84" fill="#e8e2d6" opacity="0.5"/><circle cx="302.04" cy="149.51" r="0.95" fill="#e8e2d6" opacity="0.5"/><circle cx="316.93" cy="225.64" r="1.08" fill="#e8e2d6" opacity="0.5"/><circle cx="308.48" cy="381.4" r="0.89" fill="#e8e2d6" opacity="0.5"/><circle cx="314.79" cy="146.68" r="1.19" fill="#e8e2d6" opacity="0.5"/><circle cx="270.86" cy="411.11" r="1.12" fill="#e8e2d6" opacity="0.5"/><circle cx="305.52" cy="156.61" r="1.16" fill="#e8e2d6" opacity="0.5"/><circle cx="240.52" cy="456.89" r="1.08" fill="#e8e2d6" opacity="0.5"/><circle cx="289.44" cy="321.41" r="0.86" fill="#e8e2d6" opacity="0.5"/><circle cx="299.47" cy="379.35" r="0.91" fill="#e8e2d6" opacity="0.5"/><circle cx="252.83" cy="400.1" r="0.98" fill="#e8e2d6" opacity="0.5"/><circle cx="303.37" cy="146.97" r="1.02" fill="#e8e2d6" opacity="0.5"/><circle cx="325" cy="148.12" r="0.85" fill="#e8e2d6" opacity="0.5"/><circle cx="263.87" cy="461.31" r="1.17" fill="#e8e2d6" opacity="0.5"/><circle cx="302.07" cy="429.09" r="0.78" fill="#e8e2d6" opacity="0.5"/><circle cx="292.81" cy="344.27" r="1.2" fill="#e8e2d6" opacity="0.5"/><circle cx="315.34" cy="328.29" r="1.08" fill="#e8e2d6" opacity="0.5"/><circle cx="248.83" cy="505.33" r="1.17" fill="#e8e2d6" opacity="0.5"/><circle cx="294.26" cy="185.06" r="1.07" fill="#e8e2d6" opacity="0.5"/><circle cx="304.5" cy="457.12" r="0.92" fill="#e8e2d6" opacity="0.5"/><circle cx="298.76" cy="188.09" r="0.86" fill="#e8e2d6" opacity="0.5"/><circle cx="277.43" cy="365.03" r="0.89" fill="#e8e2d6" opacity="0.5"/><circle cx="231.94" cy="469.87" r="0.95" fill="#e8e2d6" opacity="0.5"/><circle cx="260.99" cy="444.7" r="0.93" fill="#e8e2d6" opacity="0.5"/><circle cx="304.64" cy="293.24" r="0.81" fill="#e8e2d6" opacity="0.5"/><circle cx="262.25" cy="461.73" r="1.09" fill="#e8e2d6" opacity="0.5"/><circle cx="247.88" cy="384.86" r="1.04" fill="#e8e2d6" opacity="0.5"/><circle cx="294.11" cy="441.67" r="1.06" fill="#e8e2d6" opacity="0.5"/><circle cx="302.74" cy="381.44" r="0.96" fill="#e8e2d6" opacity="0.5"/><circle cx="309.88" cy="226.29" r="1.04" fill="#e8e2d6" opacity="0.5"/><circle cx="268.57" cy="510.78" r="1.01" fill="#e8e2d6" opacity="0.5"/><circle cx="257.87" cy="282.67" r="0.84" fill="#e8e2d6" opacity="0.5"/><circle cx="259.31" cy="274.53" r="1.05" fill="#e8e2d6" opacity="0.5"/><circle cx="299.06" cy="345.45" r="0.91" fill="#e8e2d6" opacity="0.5"/><circle cx="275.96" cy="325.89" r="1.19" fill="#e8e2d6" opacity="0.5"/><circle cx="314" cy="159.87" r="1.19" fill="#e8e2d6" opacity="0.5"/><circle cx="314.25" cy="342.45" r="1.08" fill="#e8e2d6" opacity="0.5"/><circle cx="240.41" cy="348.82" r="0.82" fill="#e8e2d6" opacity="0.5"/><circle cx="292.31" cy="178.69" r="0.98" fill="#e8e2d6" opacity="0.5"/><circle cx="270.76" cy="277.69" r="0.91" fill="#e8e2d6" opacity="0.5"/><circle cx="285.04" cy="346.37" r="1.04" fill="#e8e2d6" opacity="0.5"/><circle cx="291.45" cy="448.94" r="1.19" fill="#e8e2d6" opacity="0.5"/><circle cx="277.16" cy="483.86" r="1.11" fill="#e8e2d6" opacity="0.5"/><circle cx="332.61" cy="142.67" r="0.81" fill="#e8e2d6" opacity="0.5"/><circle cx="304.91" cy="273.13" r="0.82" fill="#e8e2d6" opacity="0.5"/><circle cx="306.51" cy="162.96" r="0.89" fill="#e8e2d6" opacity="0.5"/><circle cx="321.96" cy="170.94" r="0.83" fill="#e8e2d6" opacity="0.5"/><circle cx="274.94" cy="439.89" r="1.11" fill="#e8e2d6" opacity="0.5"/><circle cx="264" cy="285.45" r="1.08" fill="#e8e2d6" opacity="0.5"/><circle cx="271.75" cy="425.71" r="0.79" fill="#e8e2d6" opacity="0.5"/><circle cx="291.75" cy="378.27" r="0.7" fill="#e8e2d6" opacity="0.5"/><circle cx="262.25" cy="299.76" r="1.03" fill="#e8e2d6" opacity="0.5"/><circle cx="256.29" cy="354.25" r="1.04" fill="#e8e2d6" opacity="0.5"/><circle cx="305.34" cy="315.26" r="1.07" fill="#e8e2d6" opacity="0.5"/><circle cx="325.79" cy="166.59" r="1.1" fill="#e8e2d6" opacity="0.5"/><circle cx="258.34" cy="436.66" r="0.71" fill="#e8e2d6" opacity="0.5"/><circle cx="301.97" cy="192.7" r="0.99" fill="#e8e2d6" opacity="0.5"/><circle cx="320.73" cy="132.2" r="0.86" fill="#e8e2d6" opacity="0.5"/><circle cx="315.74" cy="131.98" r="0.73" fill="#e8e2d6" opacity="0.5"/><circle cx="256.81" cy="393.48" r="0.87" fill="#e8e2d6" opacity="0.5"/><circle cx="265.98" cy="442.18" r="1.18" fill="#e8e2d6" opacity="0.5"/><circle cx="305.65" cy="394.94" r="1.07" fill="#e8e2d6" opacity="0.5"/><circle cx="272.45" cy="298.3" r="0.84" fill="#e8e2d6" opacity="0.5"/><circle cx="279.97" cy="252.53" r="0.91" fill="#e8e2d6" opacity="0.5"/><circle cx="310.01" cy="180.29" r="0.94" fill="#e8e2d6" opacity="0.5"/><circle cx="233.07" cy="437.68" r="0.74" fill="#e8e2d6" opacity="0.5"/><circle cx="302.75" cy="276.19" r="1.16" fill="#e8e2d6" opacity="0.5"/><circle cx="246.84" cy="381.19" r="0.81" fill="#e8e2d6" opacity="0.5"/><circle cx="260.36" cy="415.67" r="0.8" fill="#e8e2d6" opacity="0.5"/><circle cx="275.51" cy="382.17" r="0.93" fill="#e8e2d6" opacity="0.5"/><circle cx="269.02" cy="507.26" r="1" fill="#e8e2d6" opacity="0.5"/><circle cx="263.98" cy="459.47" r="1.06" fill="#e8e2d6" opacity="0.5"/><circle cx="318.3" cy="125.89" r="1.04" fill="#e8e2d6" opacity="0.5"/><circle cx="253.65" cy="430.82" r="0.72" fill="#e8e2d6" opacity="0.5"/><circle cx="318.59" cy="288.22" r="0.72" fill="#e8e2d6" opacity="0.5"/><circle cx="291.64" cy="271.3" r="0.91" fill="#e8e2d6" opacity="0.5"/><circle cx="315.16" cy="127.48" r="0.84" fill="#e8e2d6" opacity="0.5"/><circle cx="241.89" cy="430.34" r="0.88" fill="#e8e2d6" opacity="0.5"/><circle cx="310.94" cy="134.65" r="1.02" fill="#e8e2d6" opacity="0.5"/><circle cx="309.02" cy="244.38" r="0.77" fill="#e8e2d6" opacity="0.5"/><circle cx="306.01" cy="415.8" r="0.96" fill="#e8e2d6" opacity="0.5"/><circle cx="274.21" cy="448.93" r="1.05" fill="#e8e2d6" opacity="0.5"/><circle cx="298.98" cy="479.89" r="0.78" fill="#e8e2d6" opacity="0.5"/><circle cx="293.6" cy="484.14" r="1.13" fill="#e8e2d6" opacity="0.5"/><circle cx="243.29" cy="437.29" r="1.01" fill="#e8e2d6" opacity="0.5"/><circle cx="285.79" cy="268.44" r="1.09" fill="#e8e2d6" opacity="0.5"/><circle cx="319.54" cy="210.29" r="0.72" fill="#e8e2d6" opacity="0.5"/><circle cx="286.79" cy="393.7" r="0.96" fill="#e8e2d6" opacity="0.5"/><circle cx="270.12" cy="249.89" r="0.88" fill="#e8e2d6" opacity="0.5"/><circle cx="293.68" cy="295.37" r="0.76" fill="#e8e2d6" opacity="0.5"/><circle cx="302.46" cy="332.29" r="1.06" fill="#e8e2d6" opacity="0.5"/><circle cx="324.14" cy="138.8" r="0.81" fill="#e8e2d6" opacity="0.5"/><circle cx="293.35" cy="397.39" r="1.18" fill="#e8e2d6" opacity="0.5"/><circle cx="250.63" cy="358.24" r="0.77" fill="#e8e2d6" opacity="0.5"/><circle cx="306.47" cy="217.61" r="1.06" fill="#e8e2d6" opacity="0.5"/><circle cx="298.32" cy="147.27" r="0.99" fill="#e8e2d6" opacity="0.5"/><circle cx="270.32" cy="288.81" r="0.83" fill="#e8e2d6" opacity="0.5"/><circle cx="273.3" cy="408.25" r="0.89" fill="#e8e2d6" opacity="0.5"/><circle cx="238.09" cy="393.05" r="0.93" fill="#e8e2d6" opacity="0.5"/><circle cx="287.05" cy="442.64" r="1.09" fill="#e8e2d6" opacity="0.5"/><circle cx="315.41" cy="160.84" r="1.07" fill="#e8e2d6" opacity="0.5"/><circle cx="259.94" cy="278.18" r="1.15" fill="#e8e2d6" opacity="0.5"/><circle cx="289.64" cy="178.13" r="0.73" fill="#e8e2d6" opacity="0.5"/><circle cx="274.24" cy="199.11" r="0.72" fill="#e8e2d6" opacity="0.5"/><circle cx="267.96" cy="304.05" r="0.8" fill="#e8e2d6" opacity="0.5"/><circle cx="270.15" cy="330.48" r="0.85" fill="#e8e2d6" opacity="0.5"/><circle cx="286.33" cy="330.83" r="0.82" fill="#e8e2d6" opacity="0.5"/><circle cx="290.74" cy="179.56" r="0.93" fill="#e8e2d6" opacity="0.5"/><circle cx="239.51" cy="399.9" r="0.89" fill="#e8e2d6" opacity="0.5"/><circle cx="280.5" cy="210.16" r="0.75" fill="#e8e2d6" opacity="0.5"/><circle cx="271.83" cy="413.74" r="0.76" fill="#e8e2d6" opacity="0.5"/><circle cx="276.9" cy="246.79" r="0.83" fill="#e8e2d6" opacity="0.5"/><circle cx="289.74" cy="180.98" r="1.1" fill="#e8e2d6" opacity="0.5"/><circle cx="247.73" cy="409.11" r="0.85" fill="#e8e2d6" opacity="0.5"/><circle cx="295.14" cy="422.13" r="1.07" fill="#e8e2d6" opacity="0.5"/><circle cx="290.16" cy="175.91" r="0.81" fill="#e8e2d6" opacity="0.5"/><circle cx="310.61" cy="201.72" r="0.97" fill="#e8e2d6" opacity="0.5"/><circle cx="243.4" cy="501.27" r="0.9" fill="#e8e2d6" opacity="0.5"/><circle cx="256.05" cy="253.94" r="0.85" fill="#e8e2d6" opacity="0.5"/><circle cx="289.47" cy="489.57" r="1.07" fill="#e8e2d6" opacity="0.5"/><circle cx="263.32" cy="253.34" r="1.11" fill="#e8e2d6" opacity="0.5"/><circle cx="323.9" cy="142.68" r="1.01" fill="#e8e2d6" opacity="0.5"/><circle cx="278.38" cy="214.94" r="0.76" fill="#e8e2d6" opacity="0.5"/><circle cx="252.99" cy="439.42" r="0.97" fill="#e8e2d6" opacity="0.5"/><circle cx="256.28" cy="265.89" r="0.89" fill="#e8e2d6" opacity="0.5"/><circle cx="308.37" cy="381.84" r="0.71" fill="#e8e2d6" opacity="0.5"/><circle cx="261.36" cy="415.09" r="0.76" fill="#e8e2d6" opacity="0.5"/><circle cx="264.29" cy="295.88" r="1.16" fill="#e8e2d6" opacity="0.5"/><circle cx="291.61" cy="511.96" r="1.04" fill="#e8e2d6" opacity="0.5"/><circle cx="318.58" cy="267.42" r="1.19" fill="#e8e2d6" opacity="0.5"/><circle cx="286.6" cy="417.09" r="0.72" fill="#e8e2d6" opacity="0.5"/><circle cx="254.55" cy="495.13" r="0.79" fill="#e8e2d6" opacity="0.5"/><circle cx="246.6" cy="382.21" r="0.71" fill="#e8e2d6" opacity="0.5"/><circle cx="269.47" cy="455.28" r="1" fill="#e8e2d6" opacity="0.5"/><circle cx="256.02" cy="402.08" r="0.92" fill="#e8e2d6" opacity="0.5"/><circle cx="244.01" cy="493.76" r="1.14" fill="#e8e2d6" opacity="0.5"/><circle cx="281.9" cy="191.57" r="1.1" fill="#e8e2d6" opacity="0.5"/><circle cx="284" cy="255.69" r="1.14" fill="#e8e2d6" opacity="0.5"/><circle cx="234.08" cy="504.92" r="0.79" fill="#e8e2d6" opacity="0.5"/><circle cx="264.62" cy="349.64" r="0.93" fill="#e8e2d6" opacity="0.5"/><circle cx="308.41" cy="205.44" r="1.1" fill="#e8e2d6" opacity="0.5"/><circle cx="275.96" cy="454.28" r="0.78" fill="#e8e2d6" opacity="0.5"/><circle cx="233.96" cy="408.5" r="1.15" fill="#e8e2d6" opacity="0.5"/><circle cx="253" cy="403.82" r="0.7" fill="#e8e2d6" opacity="0.5"/><circle cx="258.36" cy="449.35" r="0.83" fill="#e8e2d6" opacity="0.5"/><circle cx="317.23" cy="189.87" r="0.72" fill="#e8e2d6" opacity="0.5"/><circle cx="329.03" cy="143.96" r="1.12" fill="#e8e2d6" opacity="0.5"/><circle cx="287.86" cy="265.29" r="1.16" fill="#e8e2d6" opacity="0.5"/><circle cx="300.27" cy="159.07" r="1.02" fill="#e8e2d6" opacity="0.5"/><circle cx="292.02" cy="272.53" r="1.08" fill="#e8e2d6" opacity="0.5"/><circle cx="312.11" cy="120.93" r="0.73" fill="#e8e2d6" opacity="0.5"/><circle cx="275.52" cy="443.93" r="0.82" fill="#e8e2d6" opacity="0.5"/><circle cx="317.49" cy="226.48" r="1.08" fill="#e8e2d6" opacity="0.5"/><circle cx="305.13" cy="434.69" r="1.02" fill="#e8e2d6" opacity="0.5"/><circle cx="299.85" cy="185.2" r="1.06" fill="#e8e2d6" opacity="0.5"/><circle cx="291.64" cy="158.46" r="0.92" fill="#e8e2d6" opacity="0.5"/><circle cx="298.53" cy="411.32" r="0.88" fill="#e8e2d6" opacity="0.5"/><circle cx="303.75" cy="235.03" r="0.94" fill="#e8e2d6" opacity="0.5"/><circle cx="298.3" cy="298.45" r="0.7" fill="#e8e2d6" opacity="0.5"/><circle cx="286.79" cy="383.83" r="1" fill="#e8e2d6" opacity="0.5"/><circle cx="246.7" cy="342.14" r="0.93" fill="#e8e2d6" opacity="0.5"/><circle cx="283.89" cy="331.88" r="1.1" fill="#e8e2d6" opacity="0.5"/><circle cx="308.35" cy="168.44" r="0.78" fill="#e8e2d6" opacity="0.5"/><circle cx="304.73" cy="149.27" r="1.18" fill="#e8e2d6" opacity="0.5"/><circle cx="285.26" cy="382.57" r="0.93" fill="#e8e2d6" opacity="0.5"/><circle cx="296.53" cy="496.44" r="1.02" fill="#e8e2d6" opacity="0.5"/><circle cx="289.75" cy="461.94" r="0.78" fill="#e8e2d6" opacity="0.5"/><circle cx="259.51" cy="478.61" r="1.16" fill="#e8e2d6" opacity="0.5"/><circle cx="278.37" cy="429.48" r="0.98" fill="#e8e2d6" opacity="0.5"/><circle cx="284.97" cy="189.78" r="1" fill="#e8e2d6" opacity="0.5"/><circle cx="317.26" cy="247.54" r="1.01" fill="#e8e2d6" opacity="0.5"/><circle cx="243.24" cy="353.48" r="1.01" fill="#e8e2d6" opacity="0.5"/><circle cx="234.9" cy="474.09" r="1.13" fill="#e8e2d6" opacity="0.5"/><circle cx="312.47" cy="141.49" r="0.74" fill="#e8e2d6" opacity="0.5"/><circle cx="259.03" cy="472.23" r="0.96" fill="#e8e2d6" opacity="0.5"/><circle cx="305.06" cy="234.32" r="0.89" fill="#e8e2d6" opacity="0.5"/><circle cx="300" cy="149.69" r="0.93" fill="#e8e2d6" opacity="0.5"/><circle cx="262.55" cy="354.64" r="0.9" fill="#e8e2d6" opacity="0.5"/><circle cx="240.9" cy="337.06" r="0.71" fill="#e8e2d6" opacity="0.5"/><circle cx="325.85" cy="130.9" r="1.05" fill="#e8e2d6" opacity="0.5"/><circle cx="254.11" cy="395.14" r="1.07" fill="#e8e2d6" opacity="0.5"/><circle cx="267.98" cy="282.8" r="0.86" fill="#e8e2d6" opacity="0.5"/><circle cx="261.91" cy="429.44" r="0.77" fill="#e8e2d6" opacity="0.5"/><circle cx="284.49" cy="425.59" r="0.87" fill="#e8e2d6" opacity="0.5"/><circle cx="269.4" cy="472.24" r="1.18" fill="#e8e2d6" opacity="0.5"/><circle cx="274.31" cy="452.06" r="0.93" fill="#e8e2d6" opacity="0.5"/><circle cx="241.3" cy="481.94" r="1.15" fill="#e8e2d6" opacity="0.5"/><circle cx="317.46" cy="240.64" r="0.99" fill="#e8e2d6" opacity="0.5"/><circle cx="290.61" cy="387.29" r="1.11" fill="#e8e2d6" opacity="0.5"/><circle cx="284.71" cy="253.1" r="1.06" fill="#e8e2d6" opacity="0.5"/><circle cx="313.55" cy="330.94" r="1.1" fill="#e8e2d6" opacity="0.5"/><circle cx="258.6" cy="334.84" r="0.92" fill="#e8e2d6" opacity="0.5"/><circle cx="290.91" cy="279.61" r="1.17" fill="#e8e2d6" opacity="0.5"/><circle cx="284.25" cy="357.05" r="0.87" fill="#e8e2d6" opacity="0.5"/><circle cx="260.92" cy="420.36" r="1.05" fill="#e8e2d6" opacity="0.5"/><circle cx="271.24" cy="475.05" r="1.02" fill="#e8e2d6" opacity="0.5"/><circle cx="331.75" cy="138.13" r="0.83" fill="#e8e2d6" opacity="0.5"/><circle cx="284.21" cy="210.68" r="0.76" fill="#e8e2d6" opacity="0.5"/><circle cx="247" cy="400.55" r="0.89" fill="#e8e2d6" opacity="0.5"/><circle cx="251.46" cy="348.85" r="1.1" fill="#e8e2d6" opacity="0.5"/><circle cx="317.67" cy="236.15" r="0.87" fill="#e8e2d6" opacity="0.5"/><circle cx="290.14" cy="403.05" r="0.84" fill="#e8e2d6" opacity="0.5"/><circle cx="319.67" cy="216.07" r="1.06" fill="#e8e2d6" opacity="0.5"/><circle cx="244.56" cy="434.34" r="0.99" fill="#e8e2d6" opacity="0.5"/><circle cx="271.39" cy="436.57" r="1.01" fill="#e8e2d6" opacity="0.5"/><circle cx="233.83" cy="392.51" r="0.75" fill="#e8e2d6" opacity="0.5"/><circle cx="245.5" cy="427.5" r="1.01" fill="#e8e2d6" opacity="0.5"/><circle cx="298.4" cy="418.21" r="0.86" fill="#e8e2d6" opacity="0.5"/><circle cx="258.01" cy="309.51" r="0.92" fill="#e8e2d6" opacity="0.5"/><circle cx="237.59" cy="481.25" r="0.98" fill="#e8e2d6" opacity="0.5"/><circle cx="305.53" cy="369.6" r="0.8" fill="#e8e2d6" opacity="0.5"/><circle cx="257.45" cy="337.79" r="1.05" fill="#e8e2d6" opacity="0.5"/><circle cx="307.65" cy="159.37" r="0.94" fill="#e8e2d6" opacity="0.5"/><circle cx="280.42" cy="439.59" r="1.14" fill="#e8e2d6" opacity="0.5"/><circle cx="271.61" cy="370.19" r="0.81" fill="#e8e2d6" opacity="0.5"/><circle cx="316.08" cy="203.08" r="1.18" fill="#e8e2d6" opacity="0.5"/><circle cx="254.25" cy="430.05" r="1.16" fill="#e8e2d6" opacity="0.5"/><circle cx="311.46" cy="257.78" r="1.03" fill="#e8e2d6" opacity="0.5"/><circle cx="332.39" cy="130.91" r="0.95" fill="#e8e2d6" opacity="0.5"/><circle cx="287.09" cy="431.99" r="0.73" fill="#e8e2d6" opacity="0.5"/><circle cx="288.71" cy="208.12" r="0.71" fill="#e8e2d6" opacity="0.5"/><circle cx="312.31" cy="166.49" r="1.18" fill="#e8e2d6" opacity="0.5"/><circle cx="270.82" cy="425.31" r="1.18" fill="#e8e2d6" opacity="0.5"/><circle cx="239.99" cy="414.51" r="0.95" fill="#e8e2d6" opacity="0.5"/><circle cx="268.78" cy="391.7" r="0.85" fill="#e8e2d6" opacity="0.5"/><circle cx="258.48" cy="495.53" r="0.84" fill="#e8e2d6" opacity="0.5"/><circle cx="304.97" cy="152.85" r="0.86" fill="#e8e2d6" opacity="0.5"/><circle cx="302.71" cy="239.26" r="0.94" fill="#e8e2d6" opacity="0.5"/><circle cx="240.35" cy="387.46" r="1.12" fill="#e8e2d6" opacity="0.5"/><circle cx="313.85" cy="142.57" r="0.93" fill="#e8e2d6" opacity="0.5"/><circle cx="319.52" cy="191.57" r="1.14" fill="#e8e2d6" opacity="0.5"/><circle cx="236.12" cy="366.96" r="0.8" fill="#e8e2d6" opacity="0.5"/><circle cx="275.41" cy="424.3" r="1.14" fill="#e8e2d6" opacity="0.5"/><circle cx="298.18" cy="246.25" r="0.71" fill="#e8e2d6" opacity="0.5"/><circle cx="268.26" cy="403.08" r="0.76" fill="#e8e2d6" opacity="0.5"/><circle cx="314.73" cy="199.84" r="1.08" fill="#e8e2d6" opacity="0.5"/><circle cx="305.35" cy="148.91" r="1.12" fill="#e8e2d6" opacity="0.5"/><circle cx="314.51" cy="209.03" r="0.95" fill="#e8e2d6" opacity="0.5"/><circle cx="296.88" cy="452.51" r="0.84" fill="#e8e2d6" opacity="0.5"/><circle cx="306.99" cy="271.9" r="0.93" fill="#e8e2d6" opacity="0.5"/><circle cx="265.78" cy="228.2" r="0.73" fill="#e8e2d6" opacity="0.5"/><circle cx="301.7" cy="411.2" r="1.16" fill="#e8e2d6" opacity="0.5"/><circle cx="259.83" cy="437.56" r="1.18" fill="#e8e2d6" opacity="0.5"/><circle cx="260.97" cy="367.13" r="1.18" fill="#e8e2d6" opacity="0.5"/><circle cx="233.01" cy="430.18" r="1.13" fill="#e8e2d6" opacity="0.5"/><circle cx="293.28" cy="160.94" r="0.99" fill="#e8e2d6" opacity="0.5"/><circle cx="287.33" cy="213.07" r="0.87" fill="#e8e2d6" opacity="0.5"/><circle cx="248.92" cy="390.26" r="0.78" fill="#e8e2d6" opacity="0.5"/><circle cx="264.37" cy="359.14" r="0.87" fill="#e8e2d6" opacity="0.5"/><circle cx="303.32" cy="269.4" r="1.04" fill="#e8e2d6" opacity="0.5"/><circle cx="250.74" cy="410.68" r="1.12" fill="#e8e2d6" opacity="0.5"/><circle cx="282.42" cy="483.72" r="0.99" fill="#e8e2d6" opacity="0.5"/><circle cx="245.81" cy="463.54" r="1.08" fill="#e8e2d6" opacity="0.5"/><circle cx="282.73" cy="436.8" r="1.14" fill="#e8e2d6" opacity="0.5"/><circle cx="257.79" cy="378.52" r="0.94" fill="#e8e2d6" opacity="0.5"/><circle cx="336.08" cy="126.42" r="0.76" fill="#e8e2d6" opacity="0.5"/><circle cx="331.38" cy="158.46" r="0.73" fill="#e8e2d6" opacity="0.5"/><circle cx="258.56" cy="321.55" r="0.79" fill="#e8e2d6" opacity="0.5"/><circle cx="251.81" cy="468.83" r="1.15" fill="#e8e2d6" opacity="0.5"/><circle cx="310.43" cy="341.02" r="0.7" fill="#e8e2d6" opacity="0.5"/><circle cx="284.19" cy="241.04" r="1" fill="#e8e2d6" opacity="0.5"/><circle cx="237.43" cy="410.29" r="0.76" fill="#e8e2d6" opacity="0.5"/><circle cx="321.42" cy="156.71" r="0.72" fill="#e8e2d6" opacity="0.5"/><circle cx="315.81" cy="129.38" r="1.15" fill="#e8e2d6" opacity="0.5"/><circle cx="327.92" cy="158.42" r="1.16" fill="#e8e2d6" opacity="0.5"/><circle cx="256.1" cy="303.39" r="0.73" fill="#e8e2d6" opacity="0.5"/><circle cx="290.94" cy="474.93" r="0.78" fill="#e8e2d6" opacity="0.5"/><circle cx="283.02" cy="425.89" r="0.8" fill="#e8e2d6" opacity="0.5"/><circle cx="310.91" cy="152.76" r="1.04" fill="#e8e2d6" opacity="0.5"/><circle cx="263.48" cy="274.39" r="1.09" fill="#e8e2d6" opacity="0.5"/><circle cx="316.86" cy="146.79" r="0.89" fill="#e8e2d6" opacity="0.5"/><circle cx="240.79" cy="445.14" r="0.89" fill="#e8e2d6" opacity="0.5"/><circle cx="312.02" cy="296.51" r="1.07" fill="#e8e2d6" opacity="0.5"/><circle cx="315.72" cy="297.21" r="1.1" fill="#e8e2d6" opacity="0.5"/><circle cx="241.12" cy="346.64" r="1.1" fill="#e8e2d6" opacity="0.5"/><circle cx="312.4" cy="122.49" r="1.06" fill="#e8e2d6" opacity="0.5"/><circle cx="259.6" cy="327.84" r="0.9" fill="#e8e2d6" opacity="0.5"/><circle cx="303.63" cy="455.95" r="1.05" fill="#e8e2d6" opacity="0.5"/><circle cx="244.74" cy="343.22" r="0.93" fill="#e8e2d6" opacity="0.5"/><circle cx="259.67" cy="321.49" r="0.75" fill="#e8e2d6" opacity="0.5"/><circle cx="274.75" cy="223.59" r="0.72" fill="#e8e2d6" opacity="0.5"/><circle cx="332.72" cy="125.26" r="1.1" fill="#e8e2d6" opacity="0.5"/><circle cx="280.25" cy="428.41" r="1.18" fill="#e8e2d6" opacity="0.5"/><circle cx="251.75" cy="370.91" r="1.18" fill="#e8e2d6" opacity="0.5"/><circle cx="282.71" cy="185.16" r="0.72" fill="#e8e2d6" opacity="0.5"/><circle cx="312.48" cy="150.9" r="0.74" fill="#e8e2d6" opacity="0.5"/><circle cx="293.74" cy="153.87" r="1.17" fill="#e8e2d6" opacity="0.5"/><circle cx="282.99" cy="238.65" r="0.95" fill="#e8e2d6" opacity="0.5"/><circle cx="255.32" cy="397.06" r="1.08" fill="#e8e2d6" opacity="0.5"/><circle cx="290.93" cy="312.23" r="0.83" fill="#e8e2d6" opacity="0.5"/><circle cx="258.01" cy="306.7" r="0.97" fill="#e8e2d6" opacity="0.5"/><circle cx="240.44" cy="374.93" r="1.04" fill="#e8e2d6" opacity="0.5"/><circle cx="314.91" cy="156.06" r="1.1" fill="#e8e2d6" opacity="0.5"/><circle cx="249.07" cy="432.79" r="1.13" fill="#e8e2d6" opacity="0.5"/><circle cx="324.06" cy="147.61" r="1.13" fill="#e8e2d6" opacity="0.5"/><circle cx="251.96" cy="458.19" r="1.12" fill="#e8e2d6" opacity="0.5"/><circle cx="329.47" cy="157.59" r="0.86" fill="#e8e2d6" opacity="0.5"/><circle cx="277.9" cy="463.44" r="0.75" fill="#e8e2d6" opacity="0.5"/><circle cx="281.95" cy="466.05" r="1.03" fill="#e8e2d6" opacity="0.5"/><circle cx="291.46" cy="354.87" r="1" fill="#e8e2d6" opacity="0.5"/><circle cx="266.53" cy="411.35" r="1.03" fill="#e8e2d6" opacity="0.5"/><circle cx="239.97" cy="344.87" r="0.86" fill="#e8e2d6" opacity="0.5"/><circle cx="286.89" cy="396.26" r="0.89" fill="#e8e2d6" opacity="0.5"/><circle cx="250.11" cy="487.88" r="0.74" fill="#e8e2d6" opacity="0.5"/><circle cx="273.56" cy="322.09" r="0.96" fill="#e8e2d6" opacity="0.5"/><circle cx="310.54" cy="334.62" r="1.02" fill="#e8e2d6" opacity="0.5"/><circle cx="324.31" cy="197.12" r="1.02" fill="#e8e2d6" opacity="0.5"/><circle cx="251.49" cy="382.56" r="1.02" fill="#e8e2d6" opacity="0.5"/><circle cx="256.42" cy="389.58" r="1.19" fill="#e8e2d6" opacity="0.5"/><circle cx="310.05" cy="198.87" r="0.84" fill="#e8e2d6" opacity="0.5"/><circle cx="304.69" cy="257.86" r="0.93" fill="#e8e2d6" opacity="0.5"/><circle cx="263.85" cy="417.41" r="0.71" fill="#e8e2d6" opacity="0.5"/><circle cx="283.69" cy="339.02" r="0.81" fill="#e8e2d6" opacity="0.5"/><circle cx="237.71" cy="341.61" r="1.14" fill="#e8e2d6" opacity="0.5"/><circle cx="240.8" cy="404.94" r="1.06" fill="#e8e2d6" opacity="0.5"/><circle cx="272.9" cy="321.37" r="0.94" fill="#e8e2d6" opacity="0.5"/><circle cx="248.06" cy="469.47" r="0.97" fill="#e8e2d6" opacity="0.5"/><circle cx="298.24" cy="507.67" r="0.83" fill="#e8e2d6" opacity="0.5"/><circle cx="288.24" cy="310.02" r="1.18" fill="#e8e2d6" opacity="0.5"/><circle cx="290.86" cy="466.67" r="1.07" fill="#e8e2d6" opacity="0.5"/><circle cx="330.86" cy="162.45" r="0.75" fill="#e8e2d6" opacity="0.5"/><circle cx="314.78" cy="303.78" r="0.84" fill="#e8e2d6" opacity="0.5"/><circle cx="326.75" cy="170.54" r="1" fill="#e8e2d6" opacity="0.5"/><circle cx="313.03" cy="227.25" r="0.78" fill="#e8e2d6" opacity="0.5"/><circle cx="237.38" cy="439.35" r="1.08" fill="#e8e2d6" opacity="0.5"/><circle cx="273.58" cy="441.82" r="0.93" fill="#e8e2d6" opacity="0.5"/><circle cx="312.44" cy="356.95" r="0.77" fill="#e8e2d6" opacity="0.5"/><circle cx="319.99" cy="153.32" r="1" fill="#e8e2d6" opacity="0.5"/><circle cx="260.74" cy="235.83" r="0.94" fill="#e8e2d6" opacity="0.5"/><circle cx="277.38" cy="227.11" r="0.99" fill="#e8e2d6" opacity="0.5"/><circle cx="272.64" cy="217.66" r="1.13" fill="#e8e2d6" opacity="0.5"/><circle cx="244.2" cy="357.43" r="1.14" fill="#e8e2d6" opacity="0.5"/><circle cx="298.94" cy="190.39" r="0.84" fill="#e8e2d6" opacity="0.5"/><circle cx="261.93" cy="402.68" r="0.87" fill="#e8e2d6" opacity="0.5"/><circle cx="257.57" cy="404.55" r="1.12" fill="#e8e2d6" opacity="0.5"/><circle cx="267.58" cy="215.02" r="0.83" fill="#e8e2d6" opacity="0.5"/><circle cx="275.25" cy="401.83" r="1.19" fill="#e8e2d6" opacity="0.5"/><circle cx="295.5" cy="326.53" r="1.03" fill="#e8e2d6" opacity="0.5"/><circle cx="240.27" cy="471.68" r="0.87" fill="#e8e2d6" opacity="0.5"/><circle cx="309.71" cy="317.5" r="0.79" fill="#e8e2d6" opacity="0.5"/><circle cx="255.61" cy="331.1" r="0.96" fill="#e8e2d6" opacity="0.5"/><circle cx="295.65" cy="387.01" r="0.89" fill="#e8e2d6" opacity="0.5"/><circle cx="278.82" cy="435.4" r="1.11" fill="#e8e2d6" opacity="0.5"/><circle cx="248.52" cy="462.08" r="1.09" fill="#e8e2d6" opacity="0.5"/><circle cx="259.46" cy="459.77" r="0.85" fill="#e8e2d6" opacity="0.5"/><circle cx="318.23" cy="136.86" r="0.86" fill="#e8e2d6" opacity="0.5"/><circle cx="241.58" cy="505.75" r="0.85" fill="#e8e2d6" opacity="0.5"/><circle cx="269.63" cy="240.13" r="0.7" fill="#e8e2d6" opacity="0.5"/><circle cx="305.46" cy="177.16" r="1.19" fill="#e8e2d6" opacity="0.5"/><circle cx="344" cy="90" r="3" fill="#c0392b" opacity="0.9"/></svg>