<svg xmlns="http://www.w3.org/2000/svg" viewBox="0 0 600 800" width="600" height="800"><rect width="600" height="800" fill="#0e0d0b"/><rect x="14" y="14" width="572" height="772" fill="none" stroke="#e8e2d6" stroke-width="0.6" opacity="0.14"/><ellipse cx="244.6" cy="422.9" rx="142.5" ry="206.8" fill="#e8e2d6" opacity="0.1" transform="rotate(-7.9 296.9 293)"/><ellipse cx="286.9" cy="452.1" rx="141.4" ry="120.8" fill="#e8e2d6" opacity="0.1" transform="rotate(11.3 296.9 293)"/><ellipse cx="316.4" cy="412.5" rx="176.8" ry="172.1" fill="#e8e2d6" opacity="0.1" transform="rotate(-19.7 296.9 293)"/><ellipse cx="244.7" cy="402.7" rx="87.2" ry="121.2" fill="#e8e2d6" opacity="0.1" transform="rotate(-22.7 296.9 293)"/><ellipse cx="357.6" cy="462.2" rx="164.7" ry="187.1" fill="#e8e2d6" opacity="0.1" transform="rotate(-9.9 296.9 293)"/><ellipse cx="361.7" cy="233" rx="177.8" ry="243.7" fill="#e8e2d6" opacity="0.1" transform="rotate(-14.4 296.9 293)"/><ellipse cx="350.2" cy="391.5" rx="115.2" ry="167.2" fill="#e8e2d6" opacity="0.1" transform="rotate(28.5 296.9 293)"/><ellipse cx="327" cy="494.4" rx="144.1" ry="160.7" fill="#e8e2d6" opacity="0.1" transform="rotate(24.3 296.9 293)"/><ellipse cx="355.9" cy="332.9" rx="56.1" ry="46.3" fill="#e8e2d6" opacity="0.1" transform="rotate(-16.2 296.9 293)"/><path d="M 176.9 173 C 230.1 261.9, 335 401.1, 416.9 611.5" stroke="#e8e2d6" stroke-width="1.3" fill="none" opacity="0.6"/><path d="M 176.9 173 C 222.2 342.8, 294.7 550.2, 416.9 661.2" stroke="#e8e2d6" stroke-width="1.3" fill="none" opacity="0.6"/><path d="M 176.9 173 C 299.2 392.9, 365 562.1, 416.9 674" stroke="#e8e2d6" stroke-width="1.3" fill="none" opacity="0.7"/><path d="M 296.9 293 C 252.7 391, 258 450.1, 286.2 573" stroke="#c0392b" stroke-width="1.6" fill="none" opacity="0.85"/><circle cx="391.9" cy="486.4" r="1.7" fill="#e8e2d6" opacity="0.3"/><circle cx="339.2" cy="403.8" r="0.7" fill="#e8e2d6" opacity="0.1"/><circle cx="400.3" cy="74.7" r="1.4" fill="#e8e2d6" opacity="0.3"/><circle cx="290.4" cy="465.4" r="0.9" fill="#e8e2d6" opacity="0.2"/><circle cx="185.8" cy="36" r="1.1" fill="#e8e2d6" opacity="0.2"/><circle cx="181.5" cy="203.7" r="1.1" fill="#e8e2d6" opacity="0.2"/><circle cx="563.6" cy="649" r="0.6" fill="#e8e2d6" opacity="0.1"/><circle cx="43.1" cy="596.9" r="1.2" fill="#e8e2d6" opacity="0.2"/><circle cx="99.1" cy="111.7" r="1.1" fill="#e8e2d6" opacity="0.2"/><circle cx="217.6" cy="417.9" r="0.8" fill="#e8e2d6" opacity="0.3"/><circle cx="481.9" cy="354.2" r="1.4" fill="#e8e2d6" opacity="0.3"/><circle cx="439.1" cy="30.3" r="0.7" fill="#e8e2d6" opacity="0.2"/><circle cx="67.6" cy="338.7" r="1.1" fill="#e8e2d6" opacity="0.3"/><circle cx="162" cy="608.1" r="1.7" fill="#e8e2d6" opacity="0.1"/><circle cx="423" cy="106.1" r="0.7" fill="#e8e2d6" opacity="0.3"/><circle cx="434" cy="646.1" r="1.6" fill="#e8e2d6" opacity="0.2"/><circle cx="109.8" cy="770.8" r="1" fill="#e8e2d6" opacity="0.3"/><circle cx="592.2" cy="115.8" r="0.8" fill="#e8e2d6" opacity="0.3"/></svg>