<svg xmlns="http://www.w3.org/2000/svg" viewBox="0 0 600 760" width="600" height="760"><rect width="600" height="760" fill="#0e0d0b"/><rect x="10" y="10" width="580" height="740" fill="none" stroke="#e8e2d6" stroke-width="0.5" opacity="0.12"/><path d="M 130,380 Q 300,314 470,380 Q 300,446 130,380 Z" fill="none" stroke="#e8e2d6" stroke-width="1.6" stroke-linecap="round" stroke-linejoin="round" opacity="0.95"/><circle cx="300" cy="380" r="46" fill="none" stroke="#e8e2d6" stroke-width="1.3" opacity="0.9"/><circle cx="300" cy="380" r="18" fill="#e8e2d6" opacity="0.95"/><circle cx="294" cy="374" r="5" fill="#0e0d0b" opacity="0.95"/><path d="M 320,380 L 344,380" fill="none" stroke="#e8e2d6" stroke-width="0.6" stroke-linecap="round" stroke-linejoin="round" opacity="0.5"/><path d="M 319.32,385.18 L 342.5,391.39" fill="none" stroke="#e8e2d6" stroke-width="0.6" stroke-linecap="round" stroke-linejoin="round" opacity="0.5"/><path d="M 317.32,390 L 338.11,402" fill="none" stroke="#e8e2d6" stroke-width="0.6" stroke-linecap="round" stroke-linejoin="round" opacity="0.5"/><path d="M 314.14,394.14 L 331.11,411.11" fill="none" stroke="#e8e2d6" stroke-width="0.6" stroke-linecap="round" stroke-linejoin="round" opacity="0.5"/><path d="M 310,397.32 L 322,418.11" fill="none" stroke="#e8e2d6" stroke-width="0.6" stroke-linecap="round" stroke-linejoin="round" opacity="0.5"/><path d="M 305.18,399.32 L 311.39,422.5" fill="none" stroke="#e8e2d6" stroke-width="0.6" stroke-linecap="round" stroke-linejoin="round" opacity="0.5"/><path d="M 300,400 L 300,424" fill="none" stroke="#e8e2d6" stroke-width="0.6" stroke-linecap="round" stroke-linejoin="round" opacity="0.5"/><path d="M 294.82,399.32 L 288.61,422.5" fill="none" stroke="#e8e2d6" stroke-width="0.6" stroke-linecap="round" stroke-linejoin="round" opacity="0.5"/><path d="M 290,397.32 L 278,418.11" fill="none" stroke="#e8e2d6" stroke-width="0.6" stroke-linecap="round" stroke-linejoin="round" opacity="0.5"/><path d="M 285.86,394.14 L 268.89,411.11" fill="none" stroke="#e8e2d6" stroke-width="0.6" stroke-linecap="round" stroke-linejoin="round" opacity="0.5"/><path d="M 282.68,390 L 261.89,402" fill="none" stroke="#e8e2d6" stroke-width="0.6" stroke-linecap="round" stroke-linejoin="round" opacity="0.5"/><path d="M 280.68,385.18 L 257.5,391.39" fill="none" stroke="#e8e2d6" stroke-width="0.6" stroke-linecap="round" stroke-linejoin="round" opacity="0.5"/><path d="M 280,380 L 256,380" fill="none" stroke="#e8e2d6" stroke-width="0.6" stroke-linecap="round" stroke-linejoin="round" opacity="0.5"/><path d="M 280.68,374.82 L 257.5,368.61" fill="none" stroke="#e8e2d6" stroke-width="0.6" stroke-linecap="round" stroke-linejoin="round" opacity="0.5"/><path d="M 282.68,370 L 261.89,358" fill="none" stroke="#e8e2d6" stroke-width="0.6" stroke-linecap="round" stroke-linejoin="round" opacity="0.5"/><path d="M 285.86,365.86 L 268.89,348.89" fill="none" stroke="#e8e2d6" stroke-width="0.6" stroke-linecap="round" stroke-linejoin="round" opacity="0.5"/><path d="M 290,362.68 L 278,341.89" fill="none" stroke="#e8e2d6" stroke-width="0.6" stroke-linecap="round" stroke-linejoin="round" opacity="0.5"/><path d="M 294.82,360.68 L 288.61,337.5" fill="none" stroke="#e8e2d6" stroke-width="0.6" stroke-linecap="round" stroke-linejoin="round" opacity="0.5"/><path d="M 300,360 L 300,336" fill="none" stroke="#e8e2d6" stroke-width="0.6" stroke-linecap="round" stroke-linejoin="round" opacity="0.5"/><path d="M 305.18,360.68 L 311.39,337.5" fill="none" stroke="#e8e2d6" stroke-width="0.6" stroke-linecap="round" stroke-linejoin="round" opacity="0.5"/><path d="M 310,362.68 L 322,341.89" fill="none" stroke="#e8e2d6" stroke-width="0.6" stroke-linecap="round" stroke-linejoin="round" opacity="0.5"/><path d="M 314.14,365.86 L 331.11,348.89" fill="none" stroke="#e8e2d6" stroke-width="0.6" stroke-linecap="round" stroke-linejoin="round" opacity="0.5"/><path d="M 317.32,370 L 338.11,358" fill="none" stroke="#e8e2d6" stroke-width="0.6" stroke-linecap="round" stroke-linejoin="round" opacity="0.5"/><path d="M 319.32,374.82 L 342.5,368.61" fill="none" stroke="#e8e2d6" stroke-width="0.6" stroke-linecap="round" stroke-linejoin="round" opacity="0.5"/><circle cx="407.1" cy="320.75" r="0.94" fill="#e8e2d6" opacity="0.6"/><circle cx="464.41" cy="321.63" r="0.86" fill="#e8e2d6" opacity="0.6"/><circle cx="187.06" cy="475.09" r="0.82" fill="#e8e2d6" opacity="0.6"/><circle cx="348" cy="502.6" r="1.17" fill="#e8e2d6" opacity="0.6"/><circle cx="281.85" cy="491.21" r="1.11" fill="#e8e2d6" opacity="0.6"/><circle cx="356.31" cy="273.27" r="1.15" fill="#e8e2d6" opacity="0.6"/><circle cx="450.44" cy="344.2" r="1" fill="#e8e2d6" opacity="0.6"/><circle cx="471.15" cy="323.55" r="1.11" fill="#e8e2d6" opacity="0.6"/><circle cx="308.79" cy="489.1" r="0.79" fill="#e8e2d6" opacity="0.6"/><circle cx="181.15" cy="430.84" r="0.74" fill="#e8e2d6" opacity="0.6"/><circle cx="320.86" cy="266.53" r="1.06" fill="#e8e2d6" opacity="0.6"/><circle cx="335.35" cy="283.13" r="1.01" fill="#e8e2d6" opacity="0.6"/><circle cx="266.4" cy="273.07" r="1.13" fill="#e8e2d6" opacity="0.6"/><circle cx="395.72" cy="314.75" r="0.76" fill="#e8e2d6" opacity="0.6"/><circle cx="292.79" cy="484.05" r="1.08" fill="#e8e2d6" opacity="0.6"/><circle cx="190.1" cy="335.38" r="1.06" fill="#e8e2d6" opacity="0.6"/><circle cx="363.46" cy="474.51" r="0.85" fill="#e8e2d6" opacity="0.6"/><circle cx="435.45" cy="292.61" r="0.98" fill="#e8e2d6" opacity="0.6"/><circle cx="336.22" cy="478.04" r="0.71" fill="#e8e2d6" opacity="0.6"/><circle cx="404.76" cy="323.22" r="0.74" fill="#e8e2d6" opacity="0.6"/><circle cx="451.62" cy="354.74" r="1.11" fill="#e8e2d6" opacity="0.6"/><circle cx="277.42" cy="259.38" r="1.07" fill="#e8e2d6" opacity="0.6"/><circle cx="124.09" cy="381.73" r="1.17" fill="#e8e2d6" opacity="0.6"/><circle cx="468.27" cy="431.07" r="0.94" fill="#e8e2d6" opacity="0.6"/><circle cx="237.91" cy="508.12" r="0.88" fill="#e8e2d6" opacity="0.6"/><circle cx="346.55" cy="275.92" r="1.09" fill="#e8e2d6" opacity="0.6"/><circle cx="297.29" cy="486.51" r="1.06" fill="#e8e2d6" opacity="0.6"/><circle cx="386.06" cy="470.26" r="1.02" fill="#e8e2d6" opacity="0.6"/><circle cx="348.31" cy="457.51" r="0.72" fill="#e8e2d6" opacity="0.6"/><circle cx="164.45" cy="292.7" r="1.09" fill="#e8e2d6" opacity="0.6"/><circle cx="417.2" cy="271.75" r="0.97" fill="#e8e2d6" opacity="0.6"/><circle cx="225.46" cy="510.75" r="0.8" fill="#e8e2d6" opacity="0.6"/><circle cx="146.74" cy="409" r="1.02" fill="#e8e2d6" opacity="0.6"/><circle cx="356.52" cy="262.05" r="0.77" fill="#e8e2d6" opacity="0.6"/><circle cx="209.42" cy="311.94" r="0.89" fill="#e8e2d6" opacity="0.6"/><circle cx="151" cy="462.64" r="1.09" fill="#e8e2d6" opacity="0.6"/><circle cx="444.7" cy="422.78" r="0.94" fill="#e8e2d6" opacity="0.6"/><circle cx="449.77" cy="315.44" r="0.72" fill="#e8e2d6" opacity="0.6"/><circle cx="301.49" cy="270.97" r="1.07" fill="#e8e2d6" opacity="0.6"/><circle cx="193.76" cy="317.71" r="0.83" fill="#e8e2d6" opacity="0.6"/><circle cx="426.86" cy="337.87" r="0.96" fill="#e8e2d6" opacity="0.6"/><circle cx="304.3" cy="285.12" r="1.06" fill="#e8e2d6" opacity="0.6"/><circle cx="392.72" cy="452.6" r="1.03" fill="#e8e2d6" opacity="0.6"/><circle cx="239.26" cy="302.2" r="0.73" fill="#e8e2d6" opacity="0.6"/><circle cx="304.54" cy="295.71" r="0.78" fill="#e8e2d6" opacity="0.6"/><circle cx="466.23" cy="402.15" r="0.86" fill="#e8e2d6" opacity="0.6"/><circle cx="131.86" cy="392.76" r="0.73" fill="#e8e2d6" opacity="0.6"/><circle cx="173.82" cy="321.33" r="1.16" fill="#e8e2d6" opacity="0.6"/><circle cx="367.88" cy="298.34" r="1.2" fill="#e8e2d6" opacity="0.6"/><circle cx="301.14" cy="284.78" r="0.78" fill="#e8e2d6" opacity="0.6"/><circle cx="400.53" cy="263.07" r="1.17" fill="#e8e2d6" opacity="0.6"/><circle cx="332.96" cy="506.97" r="1.05" fill="#e8e2d6" opacity="0.6"/><circle cx="412.31" cy="459.65" r="0.95" fill="#e8e2d6" opacity="0.6"/><circle cx="295.1" cy="304.12" r="1.14" fill="#e8e2d6" opacity="0.6"/><circle cx="369.06" cy="505.95" r="1.12" fill="#e8e2d6" opacity="0.6"/><circle cx="231.22" cy="258.57" r="1.14" fill="#e8e2d6" opacity="0.6"/><circle cx="386.01" cy="258.83" r="0.8" fill="#e8e2d6" opacity="0.6"/><circle cx="128.5" cy="411.17" r="0.75" fill="#e8e2d6" opacity="0.6"/><circle cx="241.31" cy="471.5" r="1.05" fill="#e8e2d6" opacity="0.6"/><circle cx="356.17" cy="298.82" r="1.18" fill="#e8e2d6" opacity="0.6"/><circle cx="333.53" cy="272.04" r="0.96" fill="#e8e2d6" opacity="0.6"/><circle cx="258.01" cy="273.44" r="0.81" fill="#e8e2d6" opacity="0.6"/><circle cx="493.85" cy="390.82" r="1.17" fill="#e8e2d6" opacity="0.6"/><circle cx="297.13" cy="472.73" r="0.93" fill="#e8e2d6" opacity="0.6"/><circle cx="319.91" cy="288.8" r="0.77" fill="#e8e2d6" opacity="0.6"/><circle cx="277.17" cy="285.78" r="1.16" fill="#e8e2d6" opacity="0.6"/><circle cx="239.46" cy="481.06" r="0.85" fill="#e8e2d6" opacity="0.6"/><circle cx="127.4" cy="310.93" r="1.14" fill="#e8e2d6" opacity="0.6"/><circle cx="274.57" cy="258.92" r="0.81" fill="#e8e2d6" opacity="0.6"/><circle cx="432.19" cy="422.46" r="0.82" fill="#e8e2d6" opacity="0.6"/><circle cx="267.29" cy="460.07" r="1" fill="#e8e2d6" opacity="0.6"/><circle cx="485.21" cy="362.66" r="0.9" fill="#e8e2d6" opacity="0.6"/><circle cx="213.48" cy="435.54" r="1.14" fill="#e8e2d6" opacity="0.6"/><circle cx="229.61" cy="316.42" r="0.99" fill="#e8e2d6" opacity="0.6"/><circle cx="269.13" cy="303.82" r="1.2" fill="#e8e2d6" opacity="0.6"/><circle cx="156.53" cy="351.97" r="1.1" fill="#e8e2d6" opacity="0.6"/><circle cx="258.09" cy="484.17" r="0.92" fill="#e8e2d6" opacity="0.6"/><circle cx="393.23" cy="314.81" r="1.13" fill="#e8e2d6" opacity="0.6"/><circle cx="414" cy="322.46" r="0.78" fill="#e8e2d6" opacity="0.6"/><circle cx="400.11" cy="303.62" r="1.08" fill="#e8e2d6" opacity="0.6"/><circle cx="301.88" cy="293.11" r="0.75" fill="#e8e2d6" opacity="0.6"/><circle cx="435.72" cy="334.87" r="0.79" fill="#e8e2d6" opacity="0.6"/><circle cx="366.38" cy="299.02" r="0.73" fill="#e8e2d6" opacity="0.6"/><circle cx="418.02" cy="430.29" r="1.14" fill="#e8e2d6" opacity="0.6"/><circle cx="220.77" cy="321.91" r="0.83" fill="#e8e2d6" opacity="0.6"/><circle cx="449.02" cy="435.88" r="1.1" fill="#e8e2d6" opacity="0.6"/><circle cx="335.51" cy="305.88" r="0.77" fill="#e8e2d6" opacity="0.6"/><circle cx="441.39" cy="322.73" r="0.76" fill="#e8e2d6" opacity="0.6"/><circle cx="442.47" cy="345.96" r="0.82" fill="#e8e2d6" opacity="0.6"/><circle cx="395.14" cy="314.51" r="0.78" fill="#e8e2d6" opacity="0.6"/><circle cx="196.52" cy="283.83" r="1.11" fill="#e8e2d6" opacity="0.6"/><circle cx="126.03" cy="332.03" r="0.75" fill="#e8e2d6" opacity="0.6"/><circle cx="256.34" cy="488.14" r="0.72" fill="#e8e2d6" opacity="0.6"/><circle cx="169.29" cy="286.72" r="0.87" fill="#e8e2d6" opacity="0.6"/><circle cx="409.37" cy="303.53" r="0.78" fill="#e8e2d6" opacity="0.6"/><circle cx="188.66" cy="432.99" r="0.95" fill="#e8e2d6" opacity="0.6"/><circle cx="427.09" cy="338.37" r="0.97" fill="#e8e2d6" opacity="0.6"/><circle cx="425.86" cy="270.06" r="0.74" fill="#e8e2d6" opacity="0.6"/><circle cx="189.66" cy="447.63" r="1.13" fill="#e8e2d6" opacity="0.6"/><circle cx="456.7" cy="362.26" r="0.84" fill="#e8e2d6" opacity="0.6"/><circle cx="113.15" cy="342.09" r="1.06" fill="#e8e2d6" opacity="0.6"/><circle cx="437.39" cy="422.37" r="0.95" fill="#e8e2d6" opacity="0.6"/><circle cx="132.49" cy="393.38" r="1.06" fill="#e8e2d6" opacity="0.6"/><circle cx="475.14" cy="304.94" r="0.83" fill="#e8e2d6" opacity="0.6"/><circle cx="331.31" cy="453.54" r="0.97" fill="#e8e2d6" opacity="0.6"/><circle cx="435.68" cy="443.12" r="0.73" fill="#e8e2d6" opacity="0.6"/><circle cx="248.77" cy="292.77" r="0.97" fill="#e8e2d6" opacity="0.6"/><circle cx="161.66" cy="474.26" r="0.91" fill="#e8e2d6" opacity="0.6"/><circle cx="132.84" cy="306.3" r="0.92" fill="#e8e2d6" opacity="0.6"/><circle cx="410.8" cy="332.61" r="0.84" fill="#e8e2d6" opacity="0.6"/><circle cx="409.24" cy="459.98" r="0.8" fill="#e8e2d6" opacity="0.6"/><circle cx="262.62" cy="451.63" r="1.11" fill="#e8e2d6" opacity="0.6"/><circle cx="436.85" cy="322.78" r="1.18" fill="#e8e2d6" opacity="0.6"/><circle cx="201.64" cy="274.9" r="0.82" fill="#e8e2d6" opacity="0.6"/><circle cx="397.02" cy="504.66" r="1.08" fill="#e8e2d6" opacity="0.6"/><circle cx="415.31" cy="448.9" r="0.9" fill="#e8e2d6" opacity="0.6"/><circle cx="363.64" cy="484.63" r="1.12" fill="#e8e2d6" opacity="0.6"/><circle cx="206.33" cy="277.82" r="0.96" fill="#e8e2d6" opacity="0.6"/><circle cx="179.74" cy="452.6" r="1.17" fill="#e8e2d6" opacity="0.6"/><circle cx="235.29" cy="255.22" r="1.17" fill="#e8e2d6" opacity="0.6"/><circle cx="126.37" cy="316.81" r="0.79" fill="#e8e2d6" opacity="0.6"/><circle cx="141.18" cy="457.48" r="1.16" fill="#e8e2d6" opacity="0.6"/><circle cx="216.33" cy="448.71" r="0.93" fill="#e8e2d6" opacity="0.6"/><circle cx="389" cy="475.56" r="0.72" fill="#e8e2d6" opacity="0.6"/><circle cx="284.81" cy="260.52" r="0.83" fill="#e8e2d6" opacity="0.6"/><circle cx="240.32" cy="289.62" r="0.96" fill="#e8e2d6" opacity="0.6"/><circle cx="338.92" cy="306.55" r="0.77" fill="#e8e2d6" opacity="0.6"/><circle cx="139.29" cy="403.08" r="1.06" fill="#e8e2d6" opacity="0.6"/><circle cx="258.43" cy="278.84" r="0.74" fill="#e8e2d6" opacity="0.6"/><circle cx="134.28" cy="368.31" r="0.86" fill="#e8e2d6" opacity="0.6"/><circle cx="189.72" cy="321.21" r="0.97" fill="#e8e2d6" opacity="0.6"/><circle cx="454.13" cy="404.8" r="1.15" fill="#e8e2d6" opacity="0.6"/><circle cx="354.08" cy="298.39" r="1.02" fill="#e8e2d6" opacity="0.6"/><circle cx="191.01" cy="297.18" r="0.86" fill="#e8e2d6" opacity="0.6"/><circle cx="480.2" cy="333" r="0.92" fill="#e8e2d6" opacity="0.6"/><circle cx="451.09" cy="335.07" r="0.79" fill="#e8e2d6" opacity="0.6"/><circle cx="335.94" cy="274.33" r="1.07" fill="#e8e2d6" opacity="0.6"/><circle cx="422.12" cy="447.96" r="1.18" fill="#e8e2d6" opacity="0.6"/><circle cx="265.03" cy="283.95" r="0.7" fill="#e8e2d6" opacity="0.6"/><circle cx="460.29" cy="351.87" r="1.12" fill="#e8e2d6" opacity="0.6"/><circle cx="435.61" cy="458.09" r="0.82" fill="#e8e2d6" opacity="0.6"/><circle cx="435.05" cy="412.97" r="1.12" fill="#e8e2d6" opacity="0.6"/><circle cx="171.17" cy="465.5" r="1.17" fill="#e8e2d6" opacity="0.6"/><circle cx="157.86" cy="315.65" r="0.98" fill="#e8e2d6" opacity="0.6"/><circle cx="332.03" cy="459.44" r="0.87" fill="#e8e2d6" opacity="0.6"/><circle cx="179.86" cy="303.44" r="0.83" fill="#e8e2d6" opacity="0.6"/><circle cx="356.31" cy="260.65" r="0.97" fill="#e8e2d6" opacity="0.6"/><circle cx="177.22" cy="421.68" r="1.04" fill="#e8e2d6" opacity="0.6"/><circle cx="130.45" cy="296.88" r="1.08" fill="#e8e2d6" opacity="0.6"/><circle cx="313.36" cy="290.34" r="1.17" fill="#e8e2d6" opacity="0.6"/><circle cx="455.55" cy="432.15" r="1.2" fill="#e8e2d6" opacity="0.6"/><circle cx="466.3" cy="364.78" r="0.97" fill="#e8e2d6" opacity="0.6"/><circle cx="170.26" cy="439.3" r="0.89" fill="#e8e2d6" opacity="0.6"/><circle cx="151.63" cy="286.19" r="0.97" fill="#e8e2d6" opacity="0.6"/><circle cx="406.16" cy="451.35" r="0.82" fill="#e8e2d6" opacity="0.6"/><circle cx="120.82" cy="405.44" r="0.79" fill="#e8e2d6" opacity="0.6"/><circle cx="438.47" cy="337.13" r="0.74" fill="#e8e2d6" opacity="0.6"/><circle cx="256.13" cy="451.6" r="0.84" fill="#e8e2d6" opacity="0.6"/><circle cx="272.09" cy="291.67" r="0.71" fill="#e8e2d6" opacity="0.6"/><circle cx="277.67" cy="295.16" r="0.92" fill="#e8e2d6" opacity="0.6"/><circle cx="338.22" cy="453.3" r="0.9" fill="#e8e2d6" opacity="0.6"/><circle cx="180.26" cy="480.87" r="1.05" fill="#e8e2d6" opacity="0.6"/><circle cx="376.88" cy="251.68" r="1.2" fill="#e8e2d6" opacity="0.6"/><circle cx="155.31" cy="343.03" r="1.05" fill="#e8e2d6" opacity="0.6"/><circle cx="469.74" cy="390.25" r="0.89" fill="#e8e2d6" opacity="0.6"/><circle cx="439.33" cy="329.62" r="1.06" fill="#e8e2d6" opacity="0.6"/><circle cx="341.3" cy="289.6" r="0.92" fill="#e8e2d6" opacity="0.6"/><circle cx="337.77" cy="284.43" r="1.15" fill="#e8e2d6" opacity="0.6"/><circle cx="443.74" cy="451" r="0.73" fill="#e8e2d6" opacity="0.6"/><circle cx="183.9" cy="326.84" r="1.08" fill="#e8e2d6" opacity="0.6"/><circle cx="398.81" cy="273.61" r="0.97" fill="#e8e2d6" opacity="0.6"/><circle cx="355.4" cy="295.31" r="1" fill="#e8e2d6" opacity="0.6"/><circle cx="300.11" cy="486.88" r="0.84" fill="#e8e2d6" opacity="0.6"/><circle cx="156.7" cy="446" r="0.91" fill="#e8e2d6" opacity="0.6"/><circle cx="308.86" cy="485.31" r="0.98" fill="#e8e2d6" opacity="0.6"/><circle cx="488.73" cy="332.87" r="0.94" fill="#e8e2d6" opacity="0.6"/><circle cx="152.14" cy="418.28" r="0.87" fill="#e8e2d6" opacity="0.6"/><circle cx="274.55" cy="459.22" r="0.95" fill="#e8e2d6" opacity="0.6"/><circle cx="386.31" cy="276.58" r="0.88" fill="#e8e2d6" opacity="0.6"/><circle cx="388.56" cy="306.08" r="0.71" fill="#e8e2d6" opacity="0.6"/><circle cx="392.46" cy="436.95" r="0.89" fill="#e8e2d6" opacity="0.6"/><circle cx="131.86" cy="398.45" r="0.95" fill="#e8e2d6" opacity="0.6"/><circle cx="367.18" cy="251.89" r="1.12" fill="#e8e2d6" opacity="0.6"/><circle cx="448.53" cy="277.21" r="0.85" fill="#e8e2d6" opacity="0.6"/><circle cx="379.25" cy="319.06" r="0.78" fill="#e8e2d6" opacity="0.6"/><circle cx="174.18" cy="420.06" r="0.97" fill="#e8e2d6" opacity="0.6"/><circle cx="168.84" cy="435.27" r="1.13" fill="#e8e2d6" opacity="0.6"/><circle cx="301.54" cy="305.89" r="0.79" fill="#e8e2d6" opacity="0.6"/><circle cx="236.13" cy="280.28" r="0.94" fill="#e8e2d6" opacity="0.6"/><circle cx="430.41" cy="431.89" r="0.91" fill="#e8e2d6" opacity="0.6"/><circle cx="493.53" cy="320.36" r="0.89" fill="#e8e2d6" opacity="0.6"/><circle cx="274.25" cy="303.45" r="0.98" fill="#e8e2d6" opacity="0.6"/><circle cx="429.1" cy="267.05" r="0.83" fill="#e8e2d6" opacity="0.6"/><circle cx="219.56" cy="299.97" r="0.73" fill="#e8e2d6" opacity="0.6"/><circle cx="314.42" cy="256.1" r="0.87" fill="#e8e2d6" opacity="0.6"/><circle cx="472.09" cy="392" r="1.05" fill="#e8e2d6" opacity="0.6"/><circle cx="278.43" cy="266.06" r="0.78" fill="#e8e2d6" opacity="0.6"/><circle cx="210.54" cy="279.66" r="0.96" fill="#e8e2d6" opacity="0.6"/><circle cx="178.37" cy="459.71" r="0.8" fill="#e8e2d6" opacity="0.6"/><circle cx="202.17" cy="456.66" r="0.84" fill="#e8e2d6" opacity="0.6"/><circle cx="437.72" cy="322.57" r="1.12" fill="#e8e2d6" opacity="0.6"/><circle cx="105.75" cy="392.97" r="1.11" fill="#e8e2d6" opacity="0.6"/><circle cx="381.62" cy="298.71" r="0.9" fill="#e8e2d6" opacity="0.6"/><circle cx="315.57" cy="257.03" r="0.96" fill="#e8e2d6" opacity="0.6"/><circle cx="136.5" cy="396.8" r="1" fill="#e8e2d6" opacity="0.6"/><circle cx="472.82" cy="302.58" r="0.94" fill="#e8e2d6" opacity="0.6"/><circle cx="293.2" cy="282.14" r="1.18" fill="#e8e2d6" opacity="0.6"/><circle cx="370.01" cy="259.24" r="1.12" fill="#e8e2d6" opacity="0.6"/><circle cx="488.88" cy="314.73" r="0.75" fill="#e8e2d6" opacity="0.6"/><circle cx="213.49" cy="293.89" r="1.16" fill="#e8e2d6" opacity="0.6"/><circle cx="399.02" cy="317.06" r="1.15" fill="#e8e2d6" opacity="0.6"/><circle cx="344.97" cy="466.1" r="0.83" fill="#e8e2d6" opacity="0.6"/><circle cx="163.53" cy="347.96" r="0.82" fill="#e8e2d6" opacity="0.6"/><circle cx="325.81" cy="478.87" r="0.71" fill="#e8e2d6" opacity="0.6"/><circle cx="476.78" cy="338.96" r="1.13" fill="#e8e2d6" opacity="0.6"/><circle cx="357.07" cy="446.42" r="0.95" fill="#e8e2d6" opacity="0.6"/><circle cx="448.9" cy="330.25" r="0.71" fill="#e8e2d6" opacity="0.6"/><circle cx="356.34" cy="291.59" r="0.81" fill="#e8e2d6" opacity="0.6"/><circle cx="262.26" cy="263.53" r="1.09" fill="#e8e2d6" opacity="0.6"/><circle cx="122.78" cy="343.57" r="0.87" fill="#e8e2d6" opacity="0.6"/><circle cx="136.31" cy="341.95" r="0.94" fill="#e8e2d6" opacity="0.6"/><circle cx="173.66" cy="275.8" r="0.7" fill="#e8e2d6" opacity="0.6"/><circle cx="118.9" cy="326.14" r="1.09" fill="#e8e2d6" opacity="0.6"/><circle cx="408.82" cy="285.07" r="1.11" fill="#e8e2d6" opacity="0.6"/><circle cx="442.24" cy="420.56" r="1.05" fill="#e8e2d6" opacity="0.6"/><circle cx="451.31" cy="342.42" r="0.97" fill="#e8e2d6" opacity="0.6"/><circle cx="293.94" cy="504.6" r="1" fill="#e8e2d6" opacity="0.6"/><circle cx="492.64" cy="414.35" r="1.11" fill="#e8e2d6" opacity="0.6"/><circle cx="195.33" cy="322.93" r="1.07" fill="#e8e2d6" opacity="0.6"/><circle cx="332.68" cy="309.07" r="0.86" fill="#e8e2d6" opacity="0.6"/><circle cx="164.08" cy="435.73" r="0.76" fill="#e8e2d6" opacity="0.6"/><circle cx="465.3" cy="362.17" r="0.9" fill="#e8e2d6" opacity="0.6"/><circle cx="423.68" cy="342.36" r="0.71" fill="#e8e2d6" opacity="0.6"/><circle cx="441.08" cy="448.11" r="0.92" fill="#e8e2d6" opacity="0.6"/><circle cx="275.75" cy="308.94" r="0.98" fill="#e8e2d6" opacity="0.6"/><circle cx="274.98" cy="257.48" r="1.11" fill="#e8e2d6" opacity="0.6"/><circle cx="150.69" cy="297.48" r="1.14" fill="#e8e2d6" opacity="0.6"/><circle cx="460.8" cy="416.69" r="1.1" fill="#e8e2d6" opacity="0.6"/><circle cx="410.28" cy="295.47" r="1.06" fill="#e8e2d6" opacity="0.6"/><circle cx="452.58" cy="352.45" r="1.05" fill="#e8e2d6" opacity="0.6"/><circle cx="197.24" cy="485.99" r="1.11" fill="#e8e2d6" opacity="0.6"/><circle cx="171.87" cy="418.37" r="0.81" fill="#e8e2d6" opacity="0.6"/><circle cx="216.57" cy="292.86" r="1.07" fill="#e8e2d6" opacity="0.6"/><circle cx="139.79" cy="415.83" r="1.11" fill="#e8e2d6" opacity="0.6"/><circle cx="145.7" cy="330.4" r="0.74" fill="#e8e2d6" opacity="0.6"/><circle cx="451.62" cy="347.94" r="0.93" fill="#e8e2d6" opacity="0.6"/><circle cx="471.89" cy="317.57" r="0.71" fill="#e8e2d6" opacity="0.6"/><circle cx="171.92" cy="267.56" r="0.96" fill="#e8e2d6" opacity="0.6"/><circle cx="372.1" cy="305.91" r="0.85" fill="#e8e2d6" opacity="0.6"/><circle cx="391.94" cy="324.89" r="0.79" fill="#e8e2d6" opacity="0.6"/><circle cx="258.81" cy="310.34" r="0.8" fill="#e8e2d6" opacity="0.6"/><circle cx="246.15" cy="290.25" r="1.2" fill="#e8e2d6" opacity="0.6"/><circle cx="387.32" cy="440.62" r="1.08" fill="#e8e2d6" opacity="0.6"/><circle cx="482.7" cy="356.98" r="1.19" fill="#e8e2d6" opacity="0.6"/><circle cx="350" cy="466.6" r="0.82" fill="#e8e2d6" opacity="0.6"/><circle cx="484.95" cy="350.55" r="0.84" fill="#e8e2d6" opacity="0.6"/><circle cx="164.42" cy="440" r="0.85" fill="#e8e2d6" opacity="0.6"/><circle cx="397.6" cy="319.74" r="0.73" fill="#e8e2d6" opacity="0.6"/><circle cx="491.68" cy="398.58" r="0.86" fill="#e8e2d6" opacity="0.6"/><circle cx="164.4" cy="427.92" r="1.15" fill="#e8e2d6" opacity="0.6"/><circle cx="208.31" cy="464.94" r="1.05" fill="#e8e2d6" opacity="0.6"/><circle cx="119.74" cy="361.91" r="0.72" fill="#e8e2d6" opacity="0.6"/><circle cx="228.64" cy="467.92" r="0.97" fill="#e8e2d6" opacity="0.6"/><circle cx="276.28" cy="462.25" r="0.74" fill="#e8e2d6" opacity="0.6"/><circle cx="129.09" cy="339.08" r="0.86" fill="#e8e2d6" opacity="0.6"/><circle cx="241.89" cy="275.88" r="0.94" fill="#e8e2d6" opacity="0.6"/><circle cx="305.82" cy="252.47" r="0.82" fill="#e8e2d6" opacity="0.6"/><circle cx="107.35" cy="414.85" r="0.94" fill="#e8e2d6" opacity="0.6"/><circle cx="355.65" cy="294.46" r="1.01" fill="#e8e2d6" opacity="0.6"/><circle cx="251.12" cy="308.26" r="1.12" fill="#e8e2d6" opacity="0.6"/><circle cx="228.7" cy="303.83" r="0.85" fill="#e8e2d6" opacity="0.6"/><circle cx="319.68" cy="260.25" r="1.17" fill="#e8e2d6" opacity="0.6"/><circle cx="300.42" cy="301.1" r="0.86" fill="#e8e2d6" opacity="0.6"/><circle cx="129.21" cy="357.43" r="0.82" fill="#e8e2d6" opacity="0.6"/><circle cx="484.24" cy="353.88" r="1.01" fill="#e8e2d6" opacity="0.6"/><circle cx="139.08" cy="395.9" r="1.08" fill="#e8e2d6" opacity="0.6"/><circle cx="484.5" cy="352.13" r="1.19" fill="#e8e2d6" opacity="0.6"/><circle cx="223.81" cy="504.73" r="1.07" fill="#e8e2d6" opacity="0.6"/><circle cx="458.65" cy="364.95" r="0.81" fill="#e8e2d6" opacity="0.6"/><circle cx="438.37" cy="339.24" r="1.06" fill="#e8e2d6" opacity="0.6"/><circle cx="363.81" cy="469.08" r="1.19" fill="#e8e2d6" opacity="0.6"/><circle cx="109.5" cy="337.24" r="1.01" fill="#e8e2d6" opacity="0.6"/><circle cx="154.02" cy="302.07" r="0.85" fill="#e8e2d6" opacity="0.6"/><circle cx="411.78" cy="427.48" r="0.94" fill="#e8e2d6" opacity="0.6"/><circle cx="434.33" cy="265.39" r="1.08" fill="#e8e2d6" opacity="0.6"/><circle cx="433.07" cy="306.63" r="0.76" fill="#e8e2d6" opacity="0.6"/><circle cx="494.54" cy="350.22" r="1.06" fill="#e8e2d6" opacity="0.6"/><circle cx="323.34" cy="309.1" r="0.89" fill="#e8e2d6" opacity="0.6"/><circle cx="405.59" cy="251.81" r="0.97" fill="#e8e2d6" opacity="0.6"/><circle cx="327.07" cy="484.29" r="0.73" fill="#e8e2d6" opacity="0.6"/><circle cx="275.67" cy="274.43" r="0.85" fill="#e8e2d6" opacity="0.6"/><circle cx="398.43" cy="310.91" r="0.82" fill="#e8e2d6" opacity="0.6"/><circle cx="254.02" cy="279.25" r="0.73" fill="#e8e2d6" opacity="0.6"/><circle cx="436.38" cy="333.61" r="1.19" fill="#e8e2d6" opacity="0.6"/><circle cx="124.02" cy="306.69" r="0.77" fill="#e8e2d6" opacity="0.6"/><circle cx="486.75" cy="311.59" r="0.95" fill="#e8e2d6" opacity="0.6"/><circle cx="182.43" cy="421.98" r="1.08" fill="#e8e2d6" opacity="0.6"/><circle cx="337.44" cy="299.14" r="0.99" fill="#e8e2d6" opacity="0.6"/><circle cx="359.52" cy="312.19" r="0.76" fill="#e8e2d6" opacity="0.6"/><circle cx="322.07" cy="272.82" r="0.96" fill="#e8e2d6" opacity="0.6"/><circle cx="192.15" cy="303.51" r="0.96" fill="#e8e2d6" opacity="0.6"/><circle cx="269.63" cy="299.38" r="0.98" fill="#e8e2d6" opacity="0.6"/><circle cx="172.94" cy="472.24" r="0.85" fill="#e8e2d6" opacity="0.6"/><circle cx="198.48" cy="432.77" r="0.93" fill="#e8e2d6" opacity="0.6"/><circle cx="327.29" cy="288.55" r="0.92" fill="#e8e2d6" opacity="0.6"/><circle cx="198.55" cy="435.15" r="1.16" fill="#e8e2d6" opacity="0.6"/><circle cx="300.09" cy="299.23" r="0.8" fill="#e8e2d6" opacity="0.6"/><circle cx="166.21" cy="328.56" r="1.09" fill="#e8e2d6" opacity="0.6"/><circle cx="154.97" cy="280.08" r="0.86" fill="#e8e2d6" opacity="0.6"/><circle cx="227.9" cy="256.53" r="1.1" fill="#e8e2d6" opacity="0.6"/><circle cx="424.08" cy="317.43" r="0.98" fill="#e8e2d6" opacity="0.6"/><circle cx="401.12" cy="292.77" r="0.92" fill="#e8e2d6" opacity="0.6"/><circle cx="170.07" cy="266.86" r="1.09" fill="#e8e2d6" opacity="0.6"/><circle cx="396.9" cy="276.66" r="1.14" fill="#e8e2d6" opacity="0.6"/><circle cx="202.85" cy="287.37" r="1.18" fill="#e8e2d6" opacity="0.6"/><circle cx="270.57" cy="509.75" r="1.17" fill="#e8e2d6" opacity="0.6"/><circle cx="413.77" cy="434.36" r="1.09" fill="#e8e2d6" opacity="0.6"/><circle cx="360.93" cy="465.99" r="0.91" fill="#e8e2d6" opacity="0.6"/><circle cx="227.42" cy="315.39" r="0.72" fill="#e8e2d6" opacity="0.6"/><circle cx="373.86" cy="314.19" r="0.78" fill="#e8e2d6" opacity="0.6"/><circle cx="438.12" cy="343.56" r="0.76" fill="#e8e2d6" opacity="0.6"/><circle cx="433.06" cy="474.68" r="1.16" fill="#e8e2d6" opacity="0.6"/><circle cx="376.08" cy="281.89" r="0.8" fill="#e8e2d6" opacity="0.6"/><circle cx="194.99" cy="439.8" r="1.06" fill="#e8e2d6" opacity="0.6"/><circle cx="410.99" cy="459.25" r="0.74" fill="#e8e2d6" opacity="0.6"/><circle cx="440.05" cy="429.32" r="0.91" fill="#e8e2d6" opacity="0.6"/><circle cx="434.76" cy="443.87" r="1.04" fill="#e8e2d6" opacity="0.6"/><circle cx="301.89" cy="476.74" r="0.9" fill="#e8e2d6" opacity="0.6"/><circle cx="190.89" cy="428.76" r="1.15" fill="#e8e2d6" opacity="0.6"/><circle cx="226.92" cy="302.85" r="1.05" fill="#e8e2d6" opacity="0.6"/><circle cx="173.24" cy="417.74" r="1.11" fill="#e8e2d6" opacity="0.6"/><circle cx="133.92" cy="338.78" r="1.05" fill="#e8e2d6" opacity="0.6"/><circle cx="202.56" cy="317.44" r="1.02" fill="#e8e2d6" opacity="0.6"/><circle cx="162.01" cy="347.47" r="1.1" fill="#e8e2d6" opacity="0.6"/><circle cx="228.92" cy="271.46" r="1.05" fill="#e8e2d6" opacity="0.6"/><circle cx="338.26" cy="458.8" r="0.92" fill="#e8e2d6" opacity="0.6"/><circle cx="445.03" cy="475.94" r="0.91" fill="#e8e2d6" opacity="0.6"/><circle cx="131.28" cy="426.49" r="0.77" fill="#e8e2d6" opacity="0.6"/><circle cx="267.77" cy="457.8" r="0.85" fill="#e8e2d6" opacity="0.6"/><circle cx="437.36" cy="477.18" r="0.89" fill="#e8e2d6" opacity="0.6"/><circle cx="108.4" cy="339.97" r="0.77" fill="#e8e2d6" opacity="0.6"/><circle cx="427.66" cy="460.81" r="1.05" fill="#e8e2d6" opacity="0.6"/><circle cx="122.2" cy="445.22" r="1.1" fill="#e8e2d6" opacity="0.6"/><circle cx="286.98" cy="307.4" r="0.82" fill="#e8e2d6" opacity="0.6"/><circle cx="175" cy="266.74" r="1.12" fill="#e8e2d6" opacity="0.6"/><circle cx="325.02" cy="273.8" r="0.83" fill="#e8e2d6" opacity="0.6"/><circle cx="267.38" cy="462.36" r="0.79" fill="#e8e2d6" opacity="0.6"/><circle cx="216.41" cy="315.8" r="1.03" fill="#e8e2d6" opacity="0.6"/><circle cx="150.72" cy="337.84" r="0.81" fill="#e8e2d6" opacity="0.6"/><circle cx="476.73" cy="360.25" r="0.85" fill="#e8e2d6" opacity="0.6"/><circle cx="220.23" cy="439.25" r="1.13" fill="#e8e2d6" opacity="0.6"/><circle cx="171.02" cy="344.35" r="1.13" fill="#e8e2d6" opacity="0.6"/><circle cx="309.42" cy="259.22" r="1.13" fill="#e8e2d6" opacity="0.6"/><circle cx="457.37" cy="345.71" r="1.1" fill="#e8e2d6" opacity="0.6"/><circle cx="149.71" cy="303.43" r="1.08" fill="#e8e2d6" opacity="0.6"/><circle cx="308.89" cy="458.29" r="0.75" fill="#e8e2d6" opacity="0.6"/><circle cx="283.61" cy="463.29" r="0.74" fill="#e8e2d6" opacity="0.6"/><circle cx="173.09" cy="314.08" r="0.93" fill="#e8e2d6" opacity="0.6"/><circle cx="477.99" cy="353.87" r="0.9" fill="#e8e2d6" opacity="0.6"/><circle cx="255.42" cy="261.98" r="0.81" fill="#e8e2d6" opacity="0.6"/><circle cx="113.36" cy="428.17" r="0.88" fill="#e8e2d6" opacity="0.6"/><circle cx="233.45" cy="453.69" r="0.71" fill="#e8e2d6" opacity="0.6"/><circle cx="315.73" cy="287.71" r="0.77" fill="#e8e2d6" opacity="0.6"/><circle cx="341.34" cy="282.36" r="0.92" fill="#e8e2d6" opacity="0.6"/><circle cx="363.49" cy="255.98" r="0.92" fill="#e8e2d6" opacity="0.6"/><circle cx="122.91" cy="429.58" r="0.76" fill="#e8e2d6" opacity="0.6"/><circle cx="406.41" cy="329.24" r="0.96" fill="#e8e2d6" opacity="0.6"/><circle cx="488.31" cy="353.96" r="1.15" fill="#e8e2d6" opacity="0.6"/><circle cx="381.19" cy="277.21" r="0.95" fill="#e8e2d6" opacity="0.6"/><circle cx="179.14" cy="465.76" r="0.74" fill="#e8e2d6" opacity="0.6"/><circle cx="255.08" cy="294.3" r="1.15" fill="#e8e2d6" opacity="0.6"/><circle cx="464.47" cy="320.14" r="0.97" fill="#e8e2d6" opacity="0.6"/><circle cx="480.66" cy="444.87" r="0.95" fill="#e8e2d6" opacity="0.6"/><circle cx="171.13" cy="486.39" r="0.7" fill="#e8e2d6" opacity="0.6"/><circle cx="136.92" cy="363.21" r="1.07" fill="#e8e2d6" opacity="0.6"/><circle cx="139.01" cy="325.34" r="0.71" fill="#e8e2d6" opacity="0.6"/><circle cx="176.23" cy="459.35" r="1.14" fill="#e8e2d6" opacity="0.6"/><circle cx="221.29" cy="317.23" r="0.75" fill="#e8e2d6" opacity="0.6"/><circle cx="227.96" cy="299.7" r="1.18" fill="#e8e2d6" opacity="0.6"/><circle cx="140.01" cy="341.34" r="1.06" fill="#e8e2d6" opacity="0.6"/><circle cx="246.07" cy="278.5" r="0.76" fill="#e8e2d6" opacity="0.6"/><circle cx="114.2" cy="335.87" r="0.72" fill="#e8e2d6" opacity="0.6"/><circle cx="298.03" cy="461.16" r="0.84" fill="#e8e2d6" opacity="0.6"/><circle cx="401.86" cy="323.08" r="0.72" fill="#e8e2d6" opacity="0.6"/><circle cx="218.18" cy="452.36" r="0.93" fill="#e8e2d6" opacity="0.6"/><circle cx="420.64" cy="313.86" r="1.05" fill="#e8e2d6" opacity="0.6"/><circle cx="443.67" cy="354.72" r="0.7" fill="#e8e2d6" opacity="0.6"/><circle cx="407.02" cy="458.27" r="1.01" fill="#e8e2d6" opacity="0.6"/><circle cx="292.37" cy="488.59" r="0.91" fill="#e8e2d6" opacity="0.6"/><circle cx="126.53" cy="317.31" r="1.08" fill="#e8e2d6" opacity="0.6"/><circle cx="164.85" cy="487.05" r="0.98" fill="#e8e2d6" opacity="0.6"/><circle cx="376.77" cy="299.68" r="0.72" fill="#e8e2d6" opacity="0.6"/><circle cx="455.44" cy="317.54" r="0.88" fill="#e8e2d6" opacity="0.6"/><circle cx="369.37" cy="455.67" r="1.09" fill="#e8e2d6" opacity="0.6"/><circle cx="196.68" cy="298.6" r="0.92" fill="#e8e2d6" opacity="0.6"/><circle cx="285.51" cy="255.17" r="0.84" fill="#e8e2d6" opacity="0.6"/><circle cx="462.66" cy="359.76" r="0.86" fill="#e8e2d6" opacity="0.6"/><circle cx="293.35" cy="278.74" r="1.03" fill="#e8e2d6" opacity="0.6"/><circle cx="428.41" cy="298.1" r="0.95" fill="#e8e2d6" opacity="0.6"/><circle cx="356.76" cy="310.09" r="0.71" fill="#e8e2d6" opacity="0.6"/><circle cx="217.64" cy="464.42" r="0.76" fill="#e8e2d6" opacity="0.6"/><circle cx="343.13" cy="302.98" r="0.84" fill="#e8e2d6" opacity="0.6"/><circle cx="369.14" cy="306.85" r="1.04" fill="#e8e2d6" opacity="0.6"/><circle cx="476.76" cy="300.78" r="0.95" fill="#e8e2d6" opacity="0.6"/><circle cx="131.16" cy="300.93" r="0.88" fill="#e8e2d6" opacity="0.6"/><circle cx="317.56" cy="287.44" r="1.19" fill="#e8e2d6" opacity="0.6"/><circle cx="220.91" cy="306.61" r="1.14" fill="#e8e2d6" opacity="0.6"/><circle cx="428.07" cy="302.08" r="1.16" fill="#e8e2d6" opacity="0.6"/><circle cx="234.87" cy="491.59" r="0.8" fill="#e8e2d6" opacity="0.6"/><circle cx="460.08" cy="395.06" r="1.09" fill="#e8e2d6" opacity="0.6"/><circle cx="207.53" cy="283.04" r="1.18" fill="#e8e2d6" opacity="0.6"/><circle cx="315.55" cy="252.14" r="0.92" fill="#e8e2d6" opacity="0.6"/><circle cx="239.36" cy="263.81" r="0.95" fill="#e8e2d6" opacity="0.6"/><circle cx="188.13" cy="274.89" r="1.04" fill="#e8e2d6" opacity="0.6"/><circle cx="243.81" cy="292.25" r="1.08" fill="#e8e2d6" opacity="0.6"/><circle cx="312.7" cy="482.08" r="1.01" fill="#e8e2d6" opacity="0.6"/><circle cx="405.14" cy="257.95" r="0.87" fill="#e8e2d6" opacity="0.6"/><circle cx="332.12" cy="262.86" r="0.74" fill="#e8e2d6" opacity="0.6"/><circle cx="289.09" cy="452.55" r="0.98" fill="#e8e2d6" opacity="0.6"/><circle cx="163.62" cy="466.81" r="1.06" fill="#e8e2d6" opacity="0.6"/><circle cx="243.98" cy="263.3" r="1.12" fill="#e8e2d6" opacity="0.6"/><circle cx="123.15" cy="346.68" r="0.73" fill="#e8e2d6" opacity="0.6"/><circle cx="372.09" cy="295.65" r="0.85" fill="#e8e2d6" opacity="0.6"/><circle cx="155.41" cy="474.65" r="0.96" fill="#e8e2d6" opacity="0.6"/><circle cx="413.48" cy="294.79" r="0.74" fill="#e8e2d6" opacity="0.6"/><circle cx="327.58" cy="472.88" r="1.11" fill="#e8e2d6" opacity="0.6"/><circle cx="248.44" cy="448.29" r="1.01" fill="#e8e2d6" opacity="0.6"/><circle cx="448.27" cy="354.8" r="1.01" fill="#e8e2d6" opacity="0.6"/><circle cx="228.06" cy="280.39" r="0.88" fill="#e8e2d6" opacity="0.6"/><circle cx="394.23" cy="487.92" r="0.7" fill="#e8e2d6" opacity="0.6"/><circle cx="220.34" cy="442.83" r="0.96" fill="#e8e2d6" opacity="0.6"/><circle cx="148.75" cy="333.74" r="0.89" fill="#e8e2d6" opacity="0.6"/><circle cx="266.08" cy="466.22" r="1.11" fill="#e8e2d6" opacity="0.6"/><circle cx="341.07" cy="252.57" r="0.98" fill="#e8e2d6" opacity="0.6"/><circle cx="248.16" cy="498.21" r="0.8" fill="#e8e2d6" opacity="0.6"/><circle cx="438.26" cy="348.5" r="0.93" fill="#e8e2d6" opacity="0.6"/><circle cx="171.71" cy="478.66" r="1.01" fill="#e8e2d6" opacity="0.6"/><circle cx="276.75" cy="486.57" r="0.75" fill="#e8e2d6" opacity="0.6"/><circle cx="159.66" cy="481.34" r="0.71" fill="#e8e2d6" opacity="0.6"/><circle cx="453.93" cy="319.92" r="0.78" fill="#e8e2d6" opacity="0.6"/><circle cx="455.01" cy="360.08" r="0.88" fill="#e8e2d6" opacity="0.6"/><circle cx="250.84" cy="504.41" r="0.91" fill="#e8e2d6" opacity="0.6"/><circle cx="144.97" cy="445.01" r="0.96" fill="#e8e2d6" opacity="0.6"/><circle cx="370.35" cy="442.88" r="0.76" fill="#e8e2d6" opacity="0.6"/><circle cx="325.58" cy="300.36" r="0.93" fill="#e8e2d6" opacity="0.6"/><circle cx="152.34" cy="357.02" r="1.06" fill="#e8e2d6" opacity="0.6"/><circle cx="168.4" cy="444.65" r="1.04" fill="#e8e2d6" opacity="0.6"/><circle cx="202.45" cy="298.05" r="0.96" fill="#e8e2d6" opacity="0.6"/><circle cx="337.25" cy="263.67" r="0.77" fill="#e8e2d6" opacity="0.6"/><circle cx="147.64" cy="417" r="1.13" fill="#e8e2d6" opacity="0.6"/><circle cx="224.85" cy="312.77" r="0.95" fill="#e8e2d6" opacity="0.6"/><circle cx="282.72" cy="299.69" r="0.93" fill="#e8e2d6" opacity="0.6"/><circle cx="301.21" cy="472.02" r="0.89" fill="#e8e2d6" opacity="0.6"/><circle cx="322.76" cy="509.5" r="0.94" fill="#e8e2d6" opacity="0.6"/><circle cx="214.65" cy="252.61" r="0.76" fill="#e8e2d6" opacity="0.6"/><circle cx="119.62" cy="318.55" r="0.83" fill="#e8e2d6" opacity="0.6"/><circle cx="121.95" cy="300.39" r="1.15" fill="#e8e2d6" opacity="0.6"/><circle cx="479.94" cy="365.62" r="1.09" fill="#e8e2d6" opacity="0.6"/><circle cx="235.9" cy="475.94" r="0.95" fill="#e8e2d6" opacity="0.6"/><circle cx="133.38" cy="364.97" r="1.02" fill="#e8e2d6" opacity="0.6"/><circle cx="300" cy="380" r="3" fill="#c0392b" opacity="0.9"/></svg>