<svg xmlns="http://www.w3.org/2000/svg" viewBox="0 0 600 700" width="600" height="700"><rect width="600" height="700" fill="#0e0d0b"/><rect x="14" y="14" width="572" height="672" fill="none" stroke="#e8e2d6" stroke-width="0.6" opacity="0.14"/><ellipse cx="366.8" cy="414.3" rx="139.4" ry="133.2" fill="#e8e2d6" opacity="0.1" transform="rotate(18.5 327.2 367.2)"/><ellipse cx="278.9" cy="302.1" rx="103.8" ry="162.8" fill="#e8e2d6" opacity="0.1" transform="rotate(-2.7 327.2 367.2)"/><ellipse cx="283" cy="311.3" rx="145.9" ry="110.6" fill="#e8e2d6" opacity="0.1" transform="rotate(11.6 327.2 367.2)"/><ellipse cx="272.3" cy="388.7" rx="151.8" ry="107.5" fill="#e8e2d6" opacity="0.1" transform="rotate(2.6 327.2 367.2)"/><ellipse cx="342.6" cy="378.6" rx="159" ry="214.2" fill="#e8e2d6" opacity="0.1" transform="rotate(-22.1 327.2 367.2)"/><ellipse cx="315.6" cy="510.9" rx="104.8" ry="148.8" fill="#e8e2d6" opacity="0.1" transform="rotate(4 327.2 367.2)"/><ellipse cx="319.2" cy="323.8" rx="138.3" ry="177.6" fill="#e8e2d6" opacity="0.1" transform="rotate(24.1 327.2 367.2)"/><ellipse cx="381.7" cy="341.2" rx="131.8" ry="113.5" fill="#e8e2d6" opacity="0.1" transform="rotate(-24.4 327.2 367.2)"/><ellipse cx="294.4" cy="501.7" rx="127.2" ry="171.1" fill="#e8e2d6" opacity="0.1" transform="rotate(-14.2 327.2 367.2)"/><path d="M 207.2 262.2 C 248.9 415.7, 330.4 537.9, 447.2 713.5" stroke="#e8e2d6" stroke-width="1.3" fill="none" opacity="0.8"/><path d="M 207.2 262.2 C 215 366, 374.7 505.3, 447.2 701.1" stroke="#e8e2d6" stroke-width="1.3" fill="none" opacity="0.8"/><path d="M 207.2 262.2 C 311.1 452.7, 341.3 577.7, 447.2 689" stroke="#e8e2d6" stroke-width="1.3" fill="none" opacity="0.6"/><path d="M 327.2 367.2 C 357.1 449.3, 265.8 568.1, 284.4 612.2" stroke="#c0392b" stroke-width="1.6" fill="none" opacity="0.85"/><circle cx="577.6" cy="257.5" r="1.7" fill="#e8e2d6" opacity="0.2"/><circle cx="501" cy="203.2" r="0.7" fill="#e8e2d6" opacity="0.2"/><circle cx="352.1" cy="222.9" r="1.3" fill="#e8e2d6" opacity="0.2"/><circle cx="200" cy="152.9" r="1.1" fill="#e8e2d6" opacity="0.2"/><circle cx="227.1" cy="463.9" r="1.1" fill="#e8e2d6" opacity="0.3"/><circle cx="556.6" cy="362.4" r="1.5" fill="#e8e2d6" opacity="0.3"/><circle cx="183.3" cy="258.6" r="0.8" fill="#e8e2d6" opacity="0.3"/><circle cx="547.4" cy="587.9" r="1.5" fill="#e8e2d6" opacity="0.3"/><circle cx="16.6" cy="284.8" r="0.8" fill="#e8e2d6" opacity="0.2"/><circle cx="582.2" cy="417.7" r="1.3" fill="#e8e2d6" opacity="0.3"/><circle cx="437.9" cy="518.2" r="1.5" fill="#e8e2d6" opacity="0.3"/><circle cx="587.3" cy="233.3" r="0.7" fill="#e8e2d6" opacity="0.2"/><circle cx="84.9" cy="449.2" r="0.9" fill="#e8e2d6" opacity="0.2"/><circle cx="119.6" cy="221.2" r="0.7" fill="#e8e2d6" opacity="0.1"/><circle cx="60.3" cy="631.6" r="1.3" fill="#e8e2d6" opacity="0.1"/><circle cx="401.7" cy="424.2" r="0.7" fill="#e8e2d6" opacity="0.2"/><circle cx="244.3" cy="293" r="0.8" fill="#e8e2d6" opacity="0.2"/><circle cx="588.5" cy="87" r="1.3" fill="#e8e2d6" opacity="0.2"/></svg>