<svg xmlns="http://www.w3.org/2000/svg" viewBox="0 0 600 620" width="600" height="620"><rect width="600" height="620" fill="#0e0d0b"/><rect x="14" y="14" width="572" height="592" fill="none" stroke="#e8e2d6" stroke-width="0.6" opacity="0.14"/><ellipse cx="269.9" cy="347.5" rx="131.6" ry="182.1" fill="#e8e2d6" opacity="0.1" transform="rotate(-8.2 249 330.2)"/><ellipse cx="300.9" cy="344" rx="57.3" ry="49.6" fill="#e8e2d6" opacity="0.1" transform="rotate(-0.8 249 330.2)"/><ellipse cx="208.6" cy="424.2" rx="104.6" ry="113.6" fill="#e8e2d6" opacity="0.1" transform="rotate(12.1 249 330.2)"/><ellipse cx="256.6" cy="316.4" rx="144.7" ry="207.9" fill="#e8e2d6" opacity="0.1" transform="rotate(29.9 249 330.2)"/><ellipse cx="253.6" cy="294.2" rx="149.8" ry="225.3" fill="#e8e2d6" opacity="0.1" transform="rotate(-16.3 249 330.2)"/><ellipse cx="178.5" cy="487.2" rx="73" ry="111.2" fill="#e8e2d6" opacity="0.1" transform="rotate(-29.7 249 330.2)"/><ellipse cx="215.9" cy="355.3" rx="122.8" ry="174.8" fill="#e8e2d6" opacity="0.1" transform="rotate(-20.8 249 330.2)"/><ellipse cx="282.2" cy="298" rx="138.9" ry="157.3" fill="#e8e2d6" opacity="0.1" transform="rotate(10.5 249 330.2)"/><ellipse cx="238.7" cy="414.2" rx="109.2" ry="84.8" fill="#e8e2d6" opacity="0.1" transform="rotate(16.9 249 330.2)"/><path d="M 129 237.2 C 227.1 320.8, 214.1 499.5, 369 609.9" stroke="#e8e2d6" stroke-width="1.3" fill="none" opacity="0.8"/><path d="M 129 237.2 C 160.6 390.6, 292.5 481, 369 541.2" stroke="#e8e2d6" stroke-width="1.3" fill="none" opacity="0.6"/><path d="M 129 237.2 C 221.9 418.1, 326.3 475.2, 369 637.7" stroke="#e8e2d6" stroke-width="1.3" fill="none" opacity="0.7"/><path d="M 249 330.2 C 285.6 399.2, 178.1 414.6, 203.1 547.2" stroke="#c0392b" stroke-width="1.6" fill="none" opacity="0.85"/><circle cx="294.9" cy="132.7" r="0.9" fill="#e8e2d6" opacity="0.2"/><circle cx="113" cy="200.7" r="1.5" fill="#e8e2d6" opacity="0.3"/><circle cx="319.4" cy="440.2" r="1.5" fill="#e8e2d6" opacity="0.2"/><circle cx="46.8" cy="348.1" r="1.6" fill="#e8e2d6" opacity="0.2"/><circle cx="147.9" cy="383.1" r="1.5" fill="#e8e2d6" opacity="0.2"/><circle cx="207.4" cy="162.5" r="0.7" fill="#e8e2d6" opacity="0.3"/><circle cx="505.6" cy="380.5" r="1.8" fill="#e8e2d6" opacity="0.2"/><circle cx="391.8" cy="403.6" r="1.1" fill="#e8e2d6" opacity="0.2"/><circle cx="509.5" cy="329.1" r="1.3" fill="#e8e2d6" opacity="0.2"/><circle cx="347" cy="283.3" r="1.2" fill="#e8e2d6" opacity="0.3"/><circle cx="372.9" cy="215.4" r="1.4" fill="#e8e2d6" opacity="0.3"/><circle cx="199.8" cy="616.8" r="1.8" fill="#e8e2d6" opacity="0.2"/><circle cx="240.9" cy="65.9" r="1.7" fill="#e8e2d6" opacity="0.2"/><circle cx="152.7" cy="386.4" r="1.6" fill="#e8e2d6" opacity="0.2"/><circle cx="105.7" cy="541.1" r="0.8" fill="#e8e2d6" opacity="0.2"/><circle cx="83.6" cy="302.6" r="1.8" fill="#e8e2d6" opacity="0.2"/><circle cx="480.5" cy="103.1" r="1.7" fill="#e8e2d6" opacity="0.1"/><circle cx="96.1" cy="425.7" r="0.9" fill="#e8e2d6" opacity="0.3"/></svg>