<svg xmlns="http://www.w3.org/2000/svg" viewBox="0 0 600 750" width="600" height="750"><rect width="600" height="750" fill="#0e0d0b"/><rect x="14" y="14" width="572" height="722" fill="none" stroke="#e8e2d6" stroke-width="0.6" opacity="0.14"/><path d="M 36.6 574.1 C 320.3 444.8, 286.6 321.8, 543 286.6" stroke="#e8e2d6" stroke-width="0.9" fill="none" opacity="0.7" transform="translate(0 0)"/><path d="M 36.6 574.1 C 320.3 444.8, 286.6 321.8, 543 286.6" stroke="#e8e2d6" stroke-width="0.9" fill="none" opacity="0.6" transform="translate(0 5.8)"/><path d="M 36.6 574.1 C 320.3 444.8, 286.6 321.8, 543 286.6" stroke="#e8e2d6" stroke-width="0.9" fill="none" opacity="0.5" transform="translate(0 8.4)"/><path d="M 36.6 574.1 C 320.3 444.8, 286.6 321.8, 543 286.6" stroke="#e8e2d6" stroke-width="0.9" fill="none" opacity="0.4" transform="translate(0 9.5)"/><path d="M 36.6 574.1 C 320.3 444.8, 286.6 321.8, 543 286.6" stroke="#e8e2d6" stroke-width="0.9" fill="none" opacity="0.4" transform="translate(0 19.9)"/><path d="M 36.6 574.1 C 320.3 444.8, 286.6 321.8, 543 286.6" stroke="#e8e2d6" stroke-width="0.9" fill="none" opacity="0.3" transform="translate(0 27.4)"/><path d="M 36.6 574.1 C 320.3 444.8, 286.6 321.8, 543 286.6" stroke="#e8e2d6" stroke-width="0.9" fill="none" opacity="0.2" transform="translate(0 30.9)"/><path d="M 36.6 574.1 C 320.3 444.8, 286.6 321.8, 543 286.6" stroke="#e8e2d6" stroke-width="0.9" fill="none" opacity="0.2" transform="translate(0 33.8)"/><path d="M 45.4 566.5 C 256.7 536.7, 272.8 406.1, 448.9 329" stroke="#e8e2d6" stroke-width="0.9" fill="none" opacity="0.7" transform="translate(0 0)"/><path d="M 45.4 566.5 C 256.7 536.7, 272.8 406.1, 448.9 329" stroke="#e8e2d6" stroke-width="0.9" fill="none" opacity="0.6" transform="translate(0 4.6)"/><path d="M 45.4 566.5 C 256.7 536.7, 272.8 406.1, 448.9 329" stroke="#e8e2d6" stroke-width="0.9" fill="none" opacity="0.5" transform="translate(0 11.8)"/><path d="M 45.4 566.5 C 256.7 536.7, 272.8 406.1, 448.9 329" stroke="#e8e2d6" stroke-width="0.9" fill="none" opacity="0.4" transform="translate(0 14.1)"/><path d="M 45.4 566.5 C 256.7 536.7, 272.8 406.1, 448.9 329" stroke="#e8e2d6" stroke-width="0.9" fill="none" opacity="0.4" transform="translate(0 20.9)"/><path d="M 45.4 566.5 C 256.7 536.7, 272.8 406.1, 448.9 329" stroke="#e8e2d6" stroke-width="0.9" fill="none" opacity="0.3" transform="translate(0 28.1)"/><path d="M 45.4 566.5 C 256.7 536.7, 272.8 406.1, 448.9 329" stroke="#e8e2d6" stroke-width="0.9" fill="none" opacity="0.2" transform="translate(0 22.3)"/><path d="M 45.4 566.5 C 256.7 536.7, 272.8 406.1, 448.9 329" stroke="#e8e2d6" stroke-width="0.9" fill="none" opacity="0.2" transform="translate(0 31.9)"/><path d="M 17 201 C 245.9 253.7, 291.6 514.7, 456.9 584.1" stroke="#e8e2d6" stroke-width="0.9" fill="none" opacity="0.7" transform="translate(0 0)"/><path d="M 17 201 C 245.9 253.7, 291.6 514.7, 456.9 584.1" stroke="#e8e2d6" stroke-width="0.9" fill="none" opacity="0.6" transform="translate(0 5.4)"/><path d="M 17 201 C 245.9 253.7, 291.6 514.7, 456.9 584.1" stroke="#e8e2d6" stroke-width="0.9" fill="none" opacity="0.5" transform="translate(0 10.3)"/><path d="M 17 201 C 245.9 253.7, 291.6 514.7, 456.9 584.1" stroke="#e8e2d6" stroke-width="0.9" fill="none" opacity="0.4" transform="translate(0 9.9)"/><path d="M 17 201 C 245.9 253.7, 291.6 514.7, 456.9 584.1" stroke="#e8e2d6" stroke-width="0.9" fill="none" opacity="0.4" transform="translate(0 21.9)"/><path d="M 17 201 C 245.9 253.7, 291.6 514.7, 456.9 584.1" stroke="#e8e2d6" stroke-width="0.9" fill="none" opacity="0.3" transform="translate(0 24.6)"/><path d="M 17 201 C 245.9 253.7, 291.6 514.7, 456.9 584.1" stroke="#e8e2d6" stroke-width="0.9" fill="none" opacity="0.2" transform="translate(0 27.3)"/><path d="M 17 201 C 245.9 253.7, 291.6 514.7, 456.9 584.1" stroke="#e8e2d6" stroke-width="0.9" fill="none" opacity="0.2" transform="translate(0 41.7)"/><path d="M 120 280.6 C 224.4 464.4, 479.1 345.5, 510 541.6" stroke="#c0392b" stroke-width="1.3" fill="none" opacity="0.85"/><circle cx="453.6" cy="636.9" r="1.5" fill="#e8e2d6" opacity="0.3"/><circle cx="73.2" cy="456.4" r="0.9" fill="#e8e2d6" opacity="0.3"/><circle cx="586" cy="571.6" r="0.6" fill="#e8e2d6" opacity="0.2"/><circle cx="489.1" cy="505.7" r="1.2" fill="#e8e2d6" opacity="0.3"/><circle cx="428.8" cy="414.8" r="1.2" fill="#e8e2d6" opacity="0.1"/><circle cx="67.7" cy="573.8" r="0.8" fill="#e8e2d6" opacity="0.2"/><circle cx="148.9" cy="535.9" r="1" fill="#e8e2d6" opacity="0.2"/><circle cx="195.5" cy="675.6" r="0.8" fill="#e8e2d6" opacity="0.2"/><circle cx="460.6" cy="27.6" r="1" fill="#e8e2d6" opacity="0.1"/><circle cx="59.5" cy="34.2" r="0.9" fill="#e8e2d6" opacity="0.3"/><circle cx="340.7" cy="604.6" r="1.2" fill="#e8e2d6" opacity="0.2"/><circle cx="56.3" cy="299" r="0.9" fill="#e8e2d6" opacity="0.2"/><circle cx="363.3" cy="247.3" r="0.8" fill="#e8e2d6" opacity="0.2"/><circle cx="1.8" cy="48" r="1.2" fill="#e8e2d6" opacity="0.1"/></svg>