<svg xmlns="http://www.w3.org/2000/svg" viewBox="0 0 600 600" width="600" height="600"><rect width="600" height="600" fill="#0e0d0b"/><rect x="14" y="14" width="572" height="572" fill="none" stroke="#e8e2d6" stroke-width="0.6" opacity="0.14"/><path d="M 100.5 252.4 C 190.7 354.4, 263.7 296.8, 487.2 420" stroke="#e8e2d6" stroke-width="0.9" fill="none" opacity="0.7" transform="translate(0 0)"/><path d="M 100.5 252.4 C 190.7 354.4, 263.7 296.8, 487.2 420" stroke="#e8e2d6" stroke-width="0.9" fill="none" opacity="0.6" transform="translate(0 5.5)"/><path d="M 100.5 252.4 C 190.7 354.4, 263.7 296.8, 487.2 420" stroke="#e8e2d6" stroke-width="0.9" fill="none" opacity="0.5" transform="translate(0 7.6)"/><path d="M 100.5 252.4 C 190.7 354.4, 263.7 296.8, 487.2 420" stroke="#e8e2d6" stroke-width="0.9" fill="none" opacity="0.4" transform="translate(0 16.4)"/><path d="M 100.5 252.4 C 190.7 354.4, 263.7 296.8, 487.2 420" stroke="#e8e2d6" stroke-width="0.9" fill="none" opacity="0.4" transform="translate(0 17.2)"/><path d="M 100.5 252.4 C 190.7 354.4, 263.7 296.8, 487.2 420" stroke="#e8e2d6" stroke-width="0.9" fill="none" opacity="0.3" transform="translate(0 28.8)"/><path d="M 100.5 252.4 C 190.7 354.4, 263.7 296.8, 487.2 420" stroke="#e8e2d6" stroke-width="0.9" fill="none" opacity="0.2" transform="translate(0 31.7)"/><path d="M 100.5 252.4 C 190.7 354.4, 263.7 296.8, 487.2 420" stroke="#e8e2d6" stroke-width="0.9" fill="none" opacity="0.2" transform="translate(0 40)"/><path d="M 30.8 305.3 C 179.3 323, 302.9 261.8, 422.1 283.9" stroke="#e8e2d6" stroke-width="0.9" fill="none" opacity="0.7" transform="translate(0 0)"/><path d="M 30.8 305.3 C 179.3 323, 302.9 261.8, 422.1 283.9" stroke="#e8e2d6" stroke-width="0.9" fill="none" opacity="0.6" transform="translate(0 4.6)"/><path d="M 30.8 305.3 C 179.3 323, 302.9 261.8, 422.1 283.9" stroke="#e8e2d6" stroke-width="0.9" fill="none" opacity="0.5" transform="translate(0 6.3)"/><path d="M 30.8 305.3 C 179.3 323, 302.9 261.8, 422.1 283.9" stroke="#e8e2d6" stroke-width="0.9" fill="none" opacity="0.4" transform="translate(0 14.9)"/><path d="M 30.8 305.3 C 179.3 323, 302.9 261.8, 422.1 283.9" stroke="#e8e2d6" stroke-width="0.9" fill="none" opacity="0.4" transform="translate(0 18.6)"/><path d="M 30.8 305.3 C 179.3 323, 302.9 261.8, 422.1 283.9" stroke="#e8e2d6" stroke-width="0.9" fill="none" opacity="0.3" transform="translate(0 15.3)"/><path d="M 30.8 305.3 C 179.3 323, 302.9 261.8, 422.1 283.9" stroke="#e8e2d6" stroke-width="0.9" fill="none" opacity="0.2" transform="translate(0 32.9)"/><path d="M 30.8 305.3 C 179.3 323, 302.9 261.8, 422.1 283.9" stroke="#e8e2d6" stroke-width="0.9" fill="none" opacity="0.2" transform="translate(0 29.5)"/><path d="M 49 356.3 C 260.7 312.9, 302.8 397.5, 496.4 274.3" stroke="#e8e2d6" stroke-width="0.9" fill="none" opacity="0.7" transform="translate(0 0)"/><path d="M 49 356.3 C 260.7 312.9, 302.8 397.5, 496.4 274.3" stroke="#e8e2d6" stroke-width="0.9" fill="none" opacity="0.6" transform="translate(0 3.3)"/><path d="M 49 356.3 C 260.7 312.9, 302.8 397.5, 496.4 274.3" stroke="#e8e2d6" stroke-width="0.9" fill="none" opacity="0.5" transform="translate(0 11)"/><path d="M 49 356.3 C 260.7 312.9, 302.8 397.5, 496.4 274.3" stroke="#e8e2d6" stroke-width="0.9" fill="none" opacity="0.4" transform="translate(0 11.3)"/><path d="M 49 356.3 C 260.7 312.9, 302.8 397.5, 496.4 274.3" stroke="#e8e2d6" stroke-width="0.9" fill="none" opacity="0.4" transform="translate(0 13.3)"/><path d="M 49 356.3 C 260.7 312.9, 302.8 397.5, 496.4 274.3" stroke="#e8e2d6" stroke-width="0.9" fill="none" opacity="0.3" transform="translate(0 17.6)"/><path d="M 49 356.3 C 260.7 312.9, 302.8 397.5, 496.4 274.3" stroke="#e8e2d6" stroke-width="0.9" fill="none" opacity="0.2" transform="translate(0 25.6)"/><path d="M 49 356.3 C 260.7 312.9, 302.8 397.5, 496.4 274.3" stroke="#e8e2d6" stroke-width="0.9" fill="none" opacity="0.2" transform="translate(0 28.3)"/><path d="M 29.3 265.9 C 165.7 297.9, 476.5 329.8, 567.5 209.1" stroke="#e8e2d6" stroke-width="0.9" fill="none" opacity="0.7" transform="translate(0 0)"/><path d="M 29.3 265.9 C 165.7 297.9, 476.5 329.8, 567.5 209.1" stroke="#e8e2d6" stroke-width="0.9" fill="none" opacity="0.6" transform="translate(0 4.2)"/><path d="M 29.3 265.9 C 165.7 297.9, 476.5 329.8, 567.5 209.1" stroke="#e8e2d6" stroke-width="0.9" fill="none" opacity="0.5" transform="translate(0 8.6)"/><path d="M 29.3 265.9 C 165.7 297.9, 476.5 329.8, 567.5 209.1" stroke="#e8e2d6" stroke-width="0.9" fill="none" opacity="0.4" transform="translate(0 16.9)"/><path d="M 29.3 265.9 C 165.7 297.9, 476.5 329.8, 567.5 209.1" stroke="#e8e2d6" stroke-width="0.9" fill="none" opacity="0.4" transform="translate(0 12.8)"/><path d="M 29.3 265.9 C 165.7 297.9, 476.5 329.8, 567.5 209.1" stroke="#e8e2d6" stroke-width="0.9" fill="none" opacity="0.3" transform="translate(0 22.2)"/><path d="M 29.3 265.9 C 165.7 297.9, 476.5 329.8, 567.5 209.1" stroke="#e8e2d6" stroke-width="0.9" fill="none" opacity="0.2" transform="translate(0 34.5)"/><path d="M 29.3 265.9 C 165.7 297.9, 476.5 329.8, 567.5 209.1" stroke="#e8e2d6" stroke-width="0.9" fill="none" opacity="0.2" transform="translate(0 26.5)"/><path d="M 120 275.2 C 184.5 267.1, 328 401.6, 510 390.2" stroke="#c0392b" stroke-width="1.3" fill="none" opacity="0.85"/><circle cx="232.1" cy="500.4" r="1.5" fill="#e8e2d6" opacity="0.3"/><circle cx="313.9" cy="94.9" r="1.5" fill="#e8e2d6" opacity="0.2"/><circle cx="63.3" cy="586.7" r="1.1" fill="#e8e2d6" opacity="0.3"/><circle cx="207" cy="468.1" r="0.8" fill="#e8e2d6" opacity="0.2"/><circle cx="13" cy="312.2" r="0.7" fill="#e8e2d6" opacity="0.3"/><circle cx="390.7" cy="571.3" r="0.8" fill="#e8e2d6" opacity="0.2"/><circle cx="154.6" cy="246.7" r="1.1" fill="#e8e2d6" opacity="0.2"/><circle cx="327.3" cy="189.7" r="1.1" fill="#e8e2d6" opacity="0.2"/><circle cx="13.6" cy="118" r="1.3" fill="#e8e2d6" opacity="0.2"/><circle cx="372.4" cy="58.7" r="0.9" fill="#e8e2d6" opacity="0.2"/><circle cx="340.9" cy="117.4" r="1.5" fill="#e8e2d6" opacity="0.3"/><circle cx="562.2" cy="273" r="0.7" fill="#e8e2d6" opacity="0.1"/><circle cx="476" cy="71" r="0.9" fill="#e8e2d6" opacity="0.2"/><circle cx="336.3" cy="341.6" r="0.7" fill="#e8e2d6" opacity="0.2"/></svg>