<svg xmlns="http://www.w3.org/2000/svg" viewBox="0 0 600 800" width="600" height="800"><rect width="600" height="800" fill="#0e0d0b"/><rect x="14" y="14" width="572" height="772" fill="none" stroke="#e8e2d6" stroke-width="0.6" opacity="0.14"/><path d="M 91.4 549.1 C 257.7 522.6, 210.4 484.9, 449.4 323.6" stroke="#e8e2d6" stroke-width="0.9" fill="none" opacity="0.7" transform="translate(0 0)"/><path d="M 91.4 549.1 C 257.7 522.6, 210.4 484.9, 449.4 323.6" stroke="#e8e2d6" stroke-width="0.9" fill="none" opacity="0.6" transform="translate(0 5)"/><path d="M 91.4 549.1 C 257.7 522.6, 210.4 484.9, 449.4 323.6" stroke="#e8e2d6" stroke-width="0.9" fill="none" opacity="0.5" transform="translate(0 9.1)"/><path d="M 91.4 549.1 C 257.7 522.6, 210.4 484.9, 449.4 323.6" stroke="#e8e2d6" stroke-width="0.9" fill="none" opacity="0.4" transform="translate(0 14.9)"/><path d="M 91.4 549.1 C 257.7 522.6, 210.4 484.9, 449.4 323.6" stroke="#e8e2d6" stroke-width="0.9" fill="none" opacity="0.4" transform="translate(0 18.5)"/><path d="M 91.4 549.1 C 257.7 522.6, 210.4 484.9, 449.4 323.6" stroke="#e8e2d6" stroke-width="0.9" fill="none" opacity="0.3" transform="translate(0 16)"/><path d="M 91.4 549.1 C 257.7 522.6, 210.4 484.9, 449.4 323.6" stroke="#e8e2d6" stroke-width="0.9" fill="none" opacity="0.2" transform="translate(0 32.8)"/><path d="M 91.4 549.1 C 257.7 522.6, 210.4 484.9, 449.4 323.6" stroke="#e8e2d6" stroke-width="0.9" fill="none" opacity="0.2" transform="translate(0 33.2)"/><path d="M 83.1 280.8 C 193.5 330.4, 283.8 341.5, 523.2 524.7" stroke="#e8e2d6" stroke-width="0.9" fill="none" opacity="0.7" transform="translate(0 0)"/><path d="M 83.1 280.8 C 193.5 330.4, 283.8 341.5, 523.2 524.7" stroke="#e8e2d6" stroke-width="0.9" fill="none" opacity="0.6" transform="translate(0 5.2)"/><path d="M 83.1 280.8 C 193.5 330.4, 283.8 341.5, 523.2 524.7" stroke="#e8e2d6" stroke-width="0.9" fill="none" opacity="0.5" transform="translate(0 10.8)"/><path d="M 83.1 280.8 C 193.5 330.4, 283.8 341.5, 523.2 524.7" stroke="#e8e2d6" stroke-width="0.9" fill="none" opacity="0.4" transform="translate(0 16.4)"/><path d="M 83.1 280.8 C 193.5 330.4, 283.8 341.5, 523.2 524.7" stroke="#e8e2d6" stroke-width="0.9" fill="none" opacity="0.4" transform="translate(0 19.7)"/><path d="M 83.1 280.8 C 193.5 330.4, 283.8 341.5, 523.2 524.7" stroke="#e8e2d6" stroke-width="0.9" fill="none" opacity="0.3" transform="translate(0 21.5)"/><path d="M 83.1 280.8 C 193.5 330.4, 283.8 341.5, 523.2 524.7" stroke="#e8e2d6" stroke-width="0.9" fill="none" opacity="0.2" transform="translate(0 32.3)"/><path d="M 83.1 280.8 C 193.5 330.4, 283.8 341.5, 523.2 524.7" stroke="#e8e2d6" stroke-width="0.9" fill="none" opacity="0.2" transform="translate(0 32.3)"/><path d="M 113.2 548.9 C 325.7 360.4, 409.8 441.3, 422.2 394.8" stroke="#e8e2d6" stroke-width="0.9" fill="none" opacity="0.7" transform="translate(0 0)"/><path d="M 113.2 548.9 C 325.7 360.4, 409.8 441.3, 422.2 394.8" stroke="#e8e2d6" stroke-width="0.9" fill="none" opacity="0.6" transform="translate(0 4.4)"/><path d="M 113.2 548.9 C 325.7 360.4, 409.8 441.3, 422.2 394.8" stroke="#e8e2d6" stroke-width="0.9" fill="none" opacity="0.5" transform="translate(0 6.9)"/><path d="M 113.2 548.9 C 325.7 360.4, 409.8 441.3, 422.2 394.8" stroke="#e8e2d6" stroke-width="0.9" fill="none" opacity="0.4" transform="translate(0 17.1)"/><path d="M 113.2 548.9 C 325.7 360.4, 409.8 441.3, 422.2 394.8" stroke="#e8e2d6" stroke-width="0.9" fill="none" opacity="0.4" transform="translate(0 18.3)"/><path d="M 113.2 548.9 C 325.7 360.4, 409.8 441.3, 422.2 394.8" stroke="#e8e2d6" stroke-width="0.9" fill="none" opacity="0.3" transform="translate(0 16.3)"/><path d="M 113.2 548.9 C 325.7 360.4, 409.8 441.3, 422.2 394.8" stroke="#e8e2d6" stroke-width="0.9" fill="none" opacity="0.2" transform="translate(0 25.7)"/><path d="M 113.2 548.9 C 325.7 360.4, 409.8 441.3, 422.2 394.8" stroke="#e8e2d6" stroke-width="0.9" fill="none" opacity="0.2" transform="translate(0 35.7)"/><path d="M 120 555.1 C 144.8 566.9, 313.1 486.4, 510 339.8" stroke="#c0392b" stroke-width="1.3" fill="none" opacity="0.85"/><circle cx="291.4" cy="327.5" r="0.9" fill="#e8e2d6" opacity="0.3"/><circle cx="38.8" cy="673.3" r="0.7" fill="#e8e2d6" opacity="0.2"/><circle cx="505" cy="603.3" r="1" fill="#e8e2d6" opacity="0.2"/><circle cx="251.8" cy="287.3" r="1.2" fill="#e8e2d6" opacity="0.2"/><circle cx="153.6" cy="307.3" r="1.1" fill="#e8e2d6" opacity="0.2"/><circle cx="217.3" cy="334.5" r="1.4" fill="#e8e2d6" opacity="0.3"/><circle cx="87.4" cy="315.3" r="0.6" fill="#e8e2d6" opacity="0.1"/><circle cx="581.1" cy="121.2" r="0.8" fill="#e8e2d6" opacity="0.2"/><circle cx="172.5" cy="632" r="0.7" fill="#e8e2d6" opacity="0.2"/><circle cx="426.8" cy="663.1" r="0.8" fill="#e8e2d6" opacity="0.2"/><circle cx="261" cy="371" r="0.7" fill="#e8e2d6" opacity="0.1"/><circle cx="482.2" cy="670.2" r="0.9" fill="#e8e2d6" opacity="0.3"/><circle cx="277.1" cy="631.6" r="0.8" fill="#e8e2d6" opacity="0.2"/><circle cx="436.2" cy="260.9" r="1.3" fill="#e8e2d6" opacity="0.2"/></svg>