<svg xmlns="http://www.w3.org/2000/svg" viewBox="0 0 600 760" width="600" height="760"><rect width="600" height="760" fill="#0e0d0b"/><rect x="10" y="10" width="580" height="740" fill="none" stroke="#e8e2d6" stroke-width="0.5" opacity="0.12"/><path d="M 340,230 A 150,150 0 1 0 340,530 C 290,500 270,450 282,420 C 270,410 274,394 286,388 C 272,380 274,362 288,358 C 270,346 280,310 306,306 A 150,150 0 0 0 340,230 Z" fill="none" stroke="#e8e2d6" stroke-width="2.2" stroke-linecap="round" stroke-linejoin="round" opacity="0.95"/><circle cx="294" cy="346" r="2.4" fill="#e8e2d6" opacity="0.9"/><path d="M 370,216 C 372.24,221.76 372.24,221.76 378,224 C 372.24,226.24 372.24,226.24 370,232 C 367.76,226.24 367.76,226.24 362,224 C 367.76,221.76 367.76,221.76 370,216 Z" fill="#c0392b" opacity="0.9"/><path d="M 400,414 C 401.68,418.32 401.68,418.32 406,420 C 401.68,421.68 401.68,421.68 400,426 C 398.32,421.68 398.32,421.68 394,420 C 398.32,418.32 398.32,418.32 400,414 Z" fill="#e8e2d6" opacity="0.7"/></svg>