<svg xmlns="http://www.w3.org/2000/svg" viewBox="0 0 600 700" width="600" height="700"><rect width="600" height="700" fill="#0e0d0b"/><rect x="14" y="14" width="572" height="672" fill="none" stroke="#e8e2d6" stroke-width="0.6" opacity="0.14"/><path d="M 81.7 435.4 C 167.3 346, 435.9 228.2, 572.5 258" stroke="#e8e2d6" stroke-width="0.9" fill="none" opacity="0.7" transform="translate(0 0)"/><path d="M 81.7 435.4 C 167.3 346, 435.9 228.2, 572.5 258" stroke="#e8e2d6" stroke-width="0.9" fill="none" opacity="0.6" transform="translate(0 4.5)"/><path d="M 81.7 435.4 C 167.3 346, 435.9 228.2, 572.5 258" stroke="#e8e2d6" stroke-width="0.9" fill="none" opacity="0.5" transform="translate(0 6.1)"/><path d="M 81.7 435.4 C 167.3 346, 435.9 228.2, 572.5 258" stroke="#e8e2d6" stroke-width="0.9" fill="none" opacity="0.4" transform="translate(0 11.8)"/><path d="M 81.7 435.4 C 167.3 346, 435.9 228.2, 572.5 258" stroke="#e8e2d6" stroke-width="0.9" fill="none" opacity="0.4" transform="translate(0 14)"/><path d="M 81.7 435.4 C 167.3 346, 435.9 228.2, 572.5 258" stroke="#e8e2d6" stroke-width="0.9" fill="none" opacity="0.3" transform="translate(0 21.6)"/><path d="M 81.7 435.4 C 167.3 346, 435.9 228.2, 572.5 258" stroke="#e8e2d6" stroke-width="0.9" fill="none" opacity="0.2" transform="translate(0 35.6)"/><path d="M 81.7 435.4 C 167.3 346, 435.9 228.2, 572.5 258" stroke="#e8e2d6" stroke-width="0.9" fill="none" opacity="0.2" transform="translate(0 24.1)"/><path d="M 1.6 426.1 C 63.9 430.9, 363 456.7, 533 448.9" stroke="#e8e2d6" stroke-width="0.9" fill="none" opacity="0.7" transform="translate(0 0)"/><path d="M 1.6 426.1 C 63.9 430.9, 363 456.7, 533 448.9" stroke="#e8e2d6" stroke-width="0.9" fill="none" opacity="0.6" transform="translate(0 5)"/><path d="M 1.6 426.1 C 63.9 430.9, 363 456.7, 533 448.9" stroke="#e8e2d6" stroke-width="0.9" fill="none" opacity="0.5" transform="translate(0 10.5)"/><path d="M 1.6 426.1 C 63.9 430.9, 363 456.7, 533 448.9" stroke="#e8e2d6" stroke-width="0.9" fill="none" opacity="0.4" transform="translate(0 15.5)"/><path d="M 1.6 426.1 C 63.9 430.9, 363 456.7, 533 448.9" stroke="#e8e2d6" stroke-width="0.9" fill="none" opacity="0.4" transform="translate(0 12.1)"/><path d="M 1.6 426.1 C 63.9 430.9, 363 456.7, 533 448.9" stroke="#e8e2d6" stroke-width="0.9" fill="none" opacity="0.3" transform="translate(0 20.5)"/><path d="M 1.6 426.1 C 63.9 430.9, 363 456.7, 533 448.9" stroke="#e8e2d6" stroke-width="0.9" fill="none" opacity="0.2" transform="translate(0 24.8)"/><path d="M 1.6 426.1 C 63.9 430.9, 363 456.7, 533 448.9" stroke="#e8e2d6" stroke-width="0.9" fill="none" opacity="0.2" transform="translate(0 23.6)"/><path d="M 118 189.6 C 196.3 118.7, 255.5 174.5, 511.4 242" stroke="#e8e2d6" stroke-width="0.9" fill="none" opacity="0.7" transform="translate(0 0)"/><path d="M 118 189.6 C 196.3 118.7, 255.5 174.5, 511.4 242" stroke="#e8e2d6" stroke-width="0.9" fill="none" opacity="0.6" transform="translate(0 3.8)"/><path d="M 118 189.6 C 196.3 118.7, 255.5 174.5, 511.4 242" stroke="#e8e2d6" stroke-width="0.9" fill="none" opacity="0.5" transform="translate(0 11.3)"/><path d="M 118 189.6 C 196.3 118.7, 255.5 174.5, 511.4 242" stroke="#e8e2d6" stroke-width="0.9" fill="none" opacity="0.4" transform="translate(0 9.8)"/><path d="M 118 189.6 C 196.3 118.7, 255.5 174.5, 511.4 242" stroke="#e8e2d6" stroke-width="0.9" fill="none" opacity="0.4" transform="translate(0 18.1)"/><path d="M 118 189.6 C 196.3 118.7, 255.5 174.5, 511.4 242" stroke="#e8e2d6" stroke-width="0.9" fill="none" opacity="0.3" transform="translate(0 16.6)"/><path d="M 118 189.6 C 196.3 118.7, 255.5 174.5, 511.4 242" stroke="#e8e2d6" stroke-width="0.9" fill="none" opacity="0.2" transform="translate(0 23.9)"/><path d="M 118 189.6 C 196.3 118.7, 255.5 174.5, 511.4 242" stroke="#e8e2d6" stroke-width="0.9" fill="none" opacity="0.2" transform="translate(0 31.5)"/><path d="M 120 357.1 C 235.5 477.5, 410.5 395.6, 510 472.2" stroke="#c0392b" stroke-width="1.3" fill="none" opacity="0.85"/><circle cx="526.2" cy="96" r="0.7" fill="#e8e2d6" opacity="0.2"/><circle cx="498.1" cy="112.8" r="0.7" fill="#e8e2d6" opacity="0.2"/><circle cx="306.3" cy="463.1" r="1.5" fill="#e8e2d6" opacity="0.2"/><circle cx="419.5" cy="271.8" r="1" fill="#e8e2d6" opacity="0.1"/><circle cx="340.9" cy="187.1" r="0.6" fill="#e8e2d6" opacity="0.2"/><circle cx="20.4" cy="510.7" r="1.4" fill="#e8e2d6" opacity="0.1"/><circle cx="539.6" cy="477" r="0.7" fill="#e8e2d6" opacity="0.3"/><circle cx="47.7" cy="593.2" r="1.2" fill="#e8e2d6" opacity="0.2"/><circle cx="553.4" cy="9.9" r="1.2" fill="#e8e2d6" opacity="0.1"/><circle cx="469.1" cy="211.9" r="1.2" fill="#e8e2d6" opacity="0.3"/><circle cx="122.4" cy="682.5" r="0.9" fill="#e8e2d6" opacity="0.1"/><circle cx="155.3" cy="65.3" r="1.4" fill="#e8e2d6" opacity="0.1"/><circle cx="62.2" cy="489.1" r="1.1" fill="#e8e2d6" opacity="0.1"/><circle cx="508.6" cy="387" r="1.3" fill="#e8e2d6" opacity="0.2"/></svg>