<svg xmlns="http://www.w3.org/2000/svg" viewBox="0 0 600 620" width="600" height="620"><rect width="600" height="620" fill="#0e0d0b"/><rect x="14" y="14" width="572" height="592" fill="none" stroke="#e8e2d6" stroke-width="0.6" opacity="0.14"/><path d="M 88.3 132 C 235.2 99.1, 434.5 175.7, 587.6 191.9" stroke="#e8e2d6" stroke-width="0.9" fill="none" opacity="0.7" transform="translate(0 0)"/><path d="M 88.3 132 C 235.2 99.1, 434.5 175.7, 587.6 191.9" stroke="#e8e2d6" stroke-width="0.9" fill="none" opacity="0.6" transform="translate(0 3.2)"/><path d="M 88.3 132 C 235.2 99.1, 434.5 175.7, 587.6 191.9" stroke="#e8e2d6" stroke-width="0.9" fill="none" opacity="0.5" transform="translate(0 6.8)"/><path d="M 88.3 132 C 235.2 99.1, 434.5 175.7, 587.6 191.9" stroke="#e8e2d6" stroke-width="0.9" fill="none" opacity="0.4" transform="translate(0 12.2)"/><path d="M 88.3 132 C 235.2 99.1, 434.5 175.7, 587.6 191.9" stroke="#e8e2d6" stroke-width="0.9" fill="none" opacity="0.4" transform="translate(0 19.8)"/><path d="M 88.3 132 C 235.2 99.1, 434.5 175.7, 587.6 191.9" stroke="#e8e2d6" stroke-width="0.9" fill="none" opacity="0.3" transform="translate(0 27.4)"/><path d="M 88.3 132 C 235.2 99.1, 434.5 175.7, 587.6 191.9" stroke="#e8e2d6" stroke-width="0.9" fill="none" opacity="0.2" transform="translate(0 23.9)"/><path d="M 88.3 132 C 235.2 99.1, 434.5 175.7, 587.6 191.9" stroke="#e8e2d6" stroke-width="0.9" fill="none" opacity="0.2" transform="translate(0 33.2)"/><path d="M 174.8 313.7 C 289.3 219.3, 412.4 159, 506.1 239" stroke="#e8e2d6" stroke-width="0.9" fill="none" opacity="0.7" transform="translate(0 0)"/><path d="M 174.8 313.7 C 289.3 219.3, 412.4 159, 506.1 239" stroke="#e8e2d6" stroke-width="0.9" fill="none" opacity="0.6" transform="translate(0 5.8)"/><path d="M 174.8 313.7 C 289.3 219.3, 412.4 159, 506.1 239" stroke="#e8e2d6" stroke-width="0.9" fill="none" opacity="0.5" transform="translate(0 9.9)"/><path d="M 174.8 313.7 C 289.3 219.3, 412.4 159, 506.1 239" stroke="#e8e2d6" stroke-width="0.9" fill="none" opacity="0.4" transform="translate(0 15.4)"/><path d="M 174.8 313.7 C 289.3 219.3, 412.4 159, 506.1 239" stroke="#e8e2d6" stroke-width="0.9" fill="none" opacity="0.4" transform="translate(0 20.6)"/><path d="M 174.8 313.7 C 289.3 219.3, 412.4 159, 506.1 239" stroke="#e8e2d6" stroke-width="0.9" fill="none" opacity="0.3" transform="translate(0 19.1)"/><path d="M 174.8 313.7 C 289.3 219.3, 412.4 159, 506.1 239" stroke="#e8e2d6" stroke-width="0.9" fill="none" opacity="0.2" transform="translate(0 33)"/><path d="M 174.8 313.7 C 289.3 219.3, 412.4 159, 506.1 239" stroke="#e8e2d6" stroke-width="0.9" fill="none" opacity="0.2" transform="translate(0 32.7)"/><path d="M 82.6 102.3 C 187.7 134.8, 402.4 70.8, 515.6 153.1" stroke="#e8e2d6" stroke-width="0.9" fill="none" opacity="0.7" transform="translate(0 0)"/><path d="M 82.6 102.3 C 187.7 134.8, 402.4 70.8, 515.6 153.1" stroke="#e8e2d6" stroke-width="0.9" fill="none" opacity="0.6" transform="translate(0 4.8)"/><path d="M 82.6 102.3 C 187.7 134.8, 402.4 70.8, 515.6 153.1" stroke="#e8e2d6" stroke-width="0.9" fill="none" opacity="0.5" transform="translate(0 6.1)"/><path d="M 82.6 102.3 C 187.7 134.8, 402.4 70.8, 515.6 153.1" stroke="#e8e2d6" stroke-width="0.9" fill="none" opacity="0.4" transform="translate(0 14)"/><path d="M 82.6 102.3 C 187.7 134.8, 402.4 70.8, 515.6 153.1" stroke="#e8e2d6" stroke-width="0.9" fill="none" opacity="0.4" transform="translate(0 19.2)"/><path d="M 82.6 102.3 C 187.7 134.8, 402.4 70.8, 515.6 153.1" stroke="#e8e2d6" stroke-width="0.9" fill="none" opacity="0.3" transform="translate(0 22)"/><path d="M 82.6 102.3 C 187.7 134.8, 402.4 70.8, 515.6 153.1" stroke="#e8e2d6" stroke-width="0.9" fill="none" opacity="0.2" transform="translate(0 27.4)"/><path d="M 82.6 102.3 C 187.7 134.8, 402.4 70.8, 515.6 153.1" stroke="#e8e2d6" stroke-width="0.9" fill="none" opacity="0.2" transform="translate(0 23.7)"/><path d="M 120 371.6 C 226.9 300.3, 363.2 354.8, 510 218.3" stroke="#c0392b" stroke-width="1.3" fill="none" opacity="0.85"/><circle cx="581.9" cy="222.1" r="0.7" fill="#e8e2d6" opacity="0.1"/><circle cx="326.5" cy="594" r="1.2" fill="#e8e2d6" opacity="0.2"/><circle cx="46" cy="166.4" r="1.3" fill="#e8e2d6" opacity="0.3"/><circle cx="554.6" cy="157.8" r="1.5" fill="#e8e2d6" opacity="0.2"/><circle cx="169.9" cy="488.5" r="0.9" fill="#e8e2d6" opacity="0.2"/><circle cx="140.4" cy="287.6" r="0.6" fill="#e8e2d6" opacity="0.2"/><circle cx="422.3" cy="496.1" r="1.3" fill="#e8e2d6" opacity="0.3"/><circle cx="556.2" cy="573.7" r="1.6" fill="#e8e2d6" opacity="0.2"/><circle cx="152.5" cy="526" r="0.8" fill="#e8e2d6" opacity="0.2"/><circle cx="552.9" cy="351.8" r="1.5" fill="#e8e2d6" opacity="0.2"/><circle cx="498.7" cy="384.5" r="1.3" fill="#e8e2d6" opacity="0.2"/><circle cx="76.7" cy="422.7" r="1.3" fill="#e8e2d6" opacity="0.3"/><circle cx="393.8" cy="507.7" r="0.8" fill="#e8e2d6" opacity="0.2"/><circle cx="387.9" cy="54.1" r="0.6" fill="#e8e2d6" opacity="0.2"/></svg>