<svg xmlns="http://www.w3.org/2000/svg" viewBox="0 0 600 760" width="600" height="760"><rect width="600" height="760" fill="#0e0d0b"/><rect x="10" y="10" width="580" height="740" fill="none" stroke="#e8e2d6" stroke-width="0.5" opacity="0.12"/><path d="M 180,690 L 180,210 A 120,120 0 0 1 420,210 L 420,690" fill="none" stroke="#e8e2d6" stroke-width="1.6" stroke-linecap="round" stroke-linejoin="round" opacity="0.9"/><path d="M 206,690 L 206,220 A 94,94 0 0 1 394,220 L 394,690" fill="none" stroke="#e8e2d6" stroke-width="1.2" stroke-linecap="round" stroke-linejoin="round" opacity="0.7"/><path d="M 284,114 L 316,114 L 312,154 L 288,154 Z" fill="none" stroke="#e8e2d6" stroke-width="1.2" stroke-linecap="round" stroke-linejoin="round" opacity="0.85"/><path d="M 187.24,168.96 L 211.67,177.85" fill="none" stroke="#e8e2d6" stroke-width="0.8" stroke-linecap="round" stroke-linejoin="round" opacity="0.5"/><path d="M 208.07,132.87 L 227.99,149.58" fill="none" stroke="#e8e2d6" stroke-width="0.8" stroke-linecap="round" stroke-linejoin="round" opacity="0.5"/><path d="M 240,106.08 L 253,128.59" fill="none" stroke="#e8e2d6" stroke-width="0.8" stroke-linecap="round" stroke-linejoin="round" opacity="0.5"/><path d="M 279.16,91.82 L 283.68,117.43" fill="none" stroke="#e8e2d6" stroke-width="0.8" stroke-linecap="round" stroke-linejoin="round" opacity="0.5"/><path d="M 320.84,91.82 L 316.32,117.43" fill="none" stroke="#e8e2d6" stroke-width="0.8" stroke-linecap="round" stroke-linejoin="round" opacity="0.5"/><path d="M 360,106.08 L 347,128.59" fill="none" stroke="#e8e2d6" stroke-width="0.8" stroke-linecap="round" stroke-linejoin="round" opacity="0.5"/><path d="M 391.93,132.87 L 372.01,149.58" fill="none" stroke="#e8e2d6" stroke-width="0.8" stroke-linecap="round" stroke-linejoin="round" opacity="0.5"/><path d="M 412.76,168.96 L 388.33,177.85" fill="none" stroke="#e8e2d6" stroke-width="0.8" stroke-linecap="round" stroke-linejoin="round" opacity="0.5"/><path d="M 180,240 L 206,240" fill="none" stroke="#e8e2d6" stroke-width="0.7" stroke-linecap="round" stroke-linejoin="round" opacity="0.4"/><path d="M 180,274 L 206,274" fill="none" stroke="#e8e2d6" stroke-width="0.7" stroke-linecap="round" stroke-linejoin="round" opacity="0.4"/><path d="M 180,308 L 206,308" fill="none" stroke="#e8e2d6" stroke-width="0.7" stroke-linecap="round" stroke-linejoin="round" opacity="0.4"/><path d="M 180,342 L 206,342" fill="none" stroke="#e8e2d6" stroke-width="0.7" stroke-linecap="round" stroke-linejoin="round" opacity="0.4"/><path d="M 180,376 L 206,376" fill="none" stroke="#e8e2d6" stroke-width="0.7" stroke-linecap="round" stroke-linejoin="round" opacity="0.4"/><path d="M 180,410 L 206,410" fill="none" stroke="#e8e2d6" stroke-width="0.7" stroke-linecap="round" stroke-linejoin="round" opacity="0.4"/><path d="M 180,444 L 206,444" fill="none" stroke="#e8e2d6" stroke-width="0.7" stroke-linecap="round" stroke-linejoin="round" opacity="0.4"/><path d="M 180,478 L 206,478" fill="none" stroke="#e8e2d6" stroke-width="0.7" stroke-linecap="round" stroke-linejoin="round" opacity="0.4"/><path d="M 180,512 L 206,512" fill="none" stroke="#e8e2d6" stroke-width="0.7" stroke-linecap="round" stroke-linejoin="round" opacity="0.4"/><path d="M 180,546 L 206,546" fill="none" stroke="#e8e2d6" stroke-width="0.7" stroke-linecap="round" stroke-linejoin="round" opacity="0.4"/><path d="M 180,580 L 206,580" fill="none" stroke="#e8e2d6" stroke-width="0.7" stroke-linecap="round" stroke-linejoin="round" opacity="0.4"/><path d="M 180,614 L 206,614" fill="none" stroke="#e8e2d6" stroke-width="0.7" stroke-linecap="round" stroke-linejoin="round" opacity="0.4"/><path d="M 180,648 L 206,648" fill="none" stroke="#e8e2d6" stroke-width="0.7" stroke-linecap="round" stroke-linejoin="round" opacity="0.4"/><path d="M 180,682 L 206,682" fill="none" stroke="#e8e2d6" stroke-width="0.7" stroke-linecap="round" stroke-linejoin="round" opacity="0.4"/><path d="M 184,250 l 13.77,11.6" fill="none" stroke="#e8e2d6" stroke-width="0.6" stroke-linecap="round" stroke-linejoin="round" opacity="0.28"/><path d="M 184,275.29 l 13.77,11.6" fill="none" stroke="#e8e2d6" stroke-width="0.6" stroke-linecap="round" stroke-linejoin="round" opacity="0.28"/><path d="M 184,300.59 l 13.77,11.6" fill="none" stroke="#e8e2d6" stroke-width="0.6" stroke-linecap="round" stroke-linejoin="round" opacity="0.28"/><path d="M 184,325.88 l 13.77,11.6" fill="none" stroke="#e8e2d6" stroke-width="0.6" stroke-linecap="round" stroke-linejoin="round" opacity="0.28"/><path d="M 184,351.18 l 13.77,11.6" fill="none" stroke="#e8e2d6" stroke-width="0.6" stroke-linecap="round" stroke-linejoin="round" opacity="0.28"/><path d="M 184,376.47 l 13.77,11.6" fill="none" stroke="#e8e2d6" stroke-width="0.6" stroke-linecap="round" stroke-linejoin="round" opacity="0.28"/><path d="M 184,401.76 l 13.77,11.6" fill="none" stroke="#e8e2d6" stroke-width="0.6" stroke-linecap="round" stroke-linejoin="round" opacity="0.28"/><path d="M 184,427.06 l 13.77,11.6" fill="none" stroke="#e8e2d6" stroke-width="0.6" stroke-linecap="round" stroke-linejoin="round" opacity="0.28"/><path d="M 184,452.35 l 13.77,11.6" fill="none" stroke="#e8e2d6" stroke-width="0.6" stroke-linecap="round" stroke-linejoin="round" opacity="0.28"/><path d="M 184,477.65 l 13.77,11.6" fill="none" stroke="#e8e2d6" stroke-width="0.6" stroke-linecap="round" stroke-linejoin="round" opacity="0.28"/><path d="M 184,502.94 l 13.77,11.6" fill="none" stroke="#e8e2d6" stroke-width="0.6" stroke-linecap="round" stroke-linejoin="round" opacity="0.28"/><path d="M 184,528.24 l 13.77,11.6" fill="none" stroke="#e8e2d6" stroke-width="0.6" stroke-linecap="round" stroke-linejoin="round" opacity="0.28"/><path d="M 184,553.53 l 13.77,11.6" fill="none" stroke="#e8e2d6" stroke-width="0.6" stroke-linecap="round" stroke-linejoin="round" opacity="0.28"/><path d="M 184,578.82 l 13.77,11.6" fill="none" stroke="#e8e2d6" stroke-width="0.6" stroke-linecap="round" stroke-linejoin="round" opacity="0.28"/><path d="M 184,604.12 l 13.77,11.6" fill="none" stroke="#e8e2d6" stroke-width="0.6" stroke-linecap="round" stroke-linejoin="round" opacity="0.28"/><path d="M 184,629.41 l 13.77,11.6" fill="none" stroke="#e8e2d6" stroke-width="0.6" stroke-linecap="round" stroke-linejoin="round" opacity="0.28"/><path d="M 184,654.71 l 13.77,11.6" fill="none" stroke="#e8e2d6" stroke-width="0.6" stroke-linecap="round" stroke-linejoin="round" opacity="0.28"/><path d="M 184,680 l 13.77,11.6" fill="none" stroke="#e8e2d6" stroke-width="0.6" stroke-linecap="round" stroke-linejoin="round" opacity="0.28"/><path d="M 340,250 l 10,40 l -8,26 l 12,30" fill="none" stroke="#e8e2d6" stroke-width="0.8" stroke-linecap="round" stroke-linejoin="round" opacity="0.4"/><circle cx="300" cy="134" r="2.6" fill="#c0392b" opacity="0.9"/></svg>