<svg xmlns="http://www.w3.org/2000/svg" viewBox="0 0 600 750" width="600" height="750"><rect width="600" height="750" fill="#0e0d0b"/><rect x="14" y="14" width="572" height="722" fill="none" stroke="#e8e2d6" stroke-width="0.6" opacity="0.14"/><rect x="110.9" y="263.4" width="157.2" height="227.5" fill="none" stroke="#e8e2d6" stroke-width="1.6" opacity="0.5" transform="rotate(2.6 189.5 377.2)"/><line x1="110.9" y1="263.4" x2="129.7" y2="491" stroke="#e8e2d6" stroke-width="0.5" opacity="0.25" transform="rotate(2.6 189.5 377.2)"/><line x1="137.1" y1="263.4" x2="155.9" y2="491" stroke="#e8e2d6" stroke-width="0.5" opacity="0.25" transform="rotate(2.6 189.5 377.2)"/><line x1="163.3" y1="263.4" x2="182.1" y2="491" stroke="#e8e2d6" stroke-width="0.5" opacity="0.25" transform="rotate(2.6 189.5 377.2)"/><line x1="189.5" y1="263.4" x2="208.3" y2="491" stroke="#e8e2d6" stroke-width="0.5" opacity="0.25" transform="rotate(2.6 189.5 377.2)"/><line x1="215.7" y1="263.4" x2="234.6" y2="491" stroke="#e8e2d6" stroke-width="0.5" opacity="0.25" transform="rotate(2.6 189.5 377.2)"/><line x1="241.9" y1="263.4" x2="260.8" y2="491" stroke="#e8e2d6" stroke-width="0.5" opacity="0.25" transform="rotate(2.6 189.5 377.2)"/><rect x="306.3" y="359.3" width="161.5" height="225.4" fill="none" stroke="#e8e2d6" stroke-width="0.9" opacity="0.7" transform="rotate(6.4 387.1 472)"/><rect x="196.8" y="175.9" width="110" height="187.8" fill="none" stroke="#e8e2d6" stroke-width="1" opacity="0.8" transform="rotate(-3.4 251.8 269.8)"/><line x1="196.8" y1="175.9" x2="210" y2="363.7" stroke="#e8e2d6" stroke-width="0.5" opacity="0.25" transform="rotate(-3.4 251.8 269.8)"/><line x1="215.1" y1="175.9" x2="228.3" y2="363.7" stroke="#e8e2d6" stroke-width="0.5" opacity="0.25" transform="rotate(-3.4 251.8 269.8)"/><line x1="233.4" y1="175.9" x2="246.6" y2="363.7" stroke="#e8e2d6" stroke-width="0.5" opacity="0.25" transform="rotate(-3.4 251.8 269.8)"/><line x1="251.8" y1="175.9" x2="265" y2="363.7" stroke="#e8e2d6" stroke-width="0.5" opacity="0.25" transform="rotate(-3.4 251.8 269.8)"/><line x1="270.1" y1="175.9" x2="283.3" y2="363.7" stroke="#e8e2d6" stroke-width="0.5" opacity="0.25" transform="rotate(-3.4 251.8 269.8)"/><line x1="288.4" y1="175.9" x2="301.6" y2="363.7" stroke="#e8e2d6" stroke-width="0.5" opacity="0.25" transform="rotate(-3.4 251.8 269.8)"/><rect x="442.7" y="112.2" width="117.7" height="152.2" fill="none" stroke="#e8e2d6" stroke-width="1.1" opacity="0.6" transform="rotate(-3.8 501.6 188.3)"/><line x1="442.7" y1="112.2" x2="456.9" y2="264.4" stroke="#e8e2d6" stroke-width="0.5" opacity="0.25" transform="rotate(-3.8 501.6 188.3)"/><line x1="462.3" y1="112.2" x2="476.5" y2="264.4" stroke="#e8e2d6" stroke-width="0.5" opacity="0.25" transform="rotate(-3.8 501.6 188.3)"/><line x1="482" y1="112.2" x2="496.1" y2="264.4" stroke="#e8e2d6" stroke-width="0.5" opacity="0.25" transform="rotate(-3.8 501.6 188.3)"/><line x1="501.6" y1="112.2" x2="515.7" y2="264.4" stroke="#e8e2d6" stroke-width="0.5" opacity="0.25" transform="rotate(-3.8 501.6 188.3)"/><line x1="521.2" y1="112.2" x2="535.3" y2="264.4" stroke="#e8e2d6" stroke-width="0.5" opacity="0.25" transform="rotate(-3.8 501.6 188.3)"/><line x1="540.8" y1="112.2" x2="554.9" y2="264.4" stroke="#e8e2d6" stroke-width="0.5" opacity="0.25" transform="rotate(-3.8 501.6 188.3)"/><rect x="73.9" y="383.8" width="224.6" height="248.6" fill="none" stroke="#e8e2d6" stroke-width="1.5" opacity="0.4" transform="rotate(-7 186.2 508.1)"/><rect x="93.1" y="350" width="247.1" height="62.6" fill="none" stroke="#e8e2d6" stroke-width="1.4" opacity="0.7" transform="rotate(3.4 216.7 381.3)"/><line x1="0" y1="503" x2="600" y2="292.8" stroke="#c0392b" stroke-width="1.4" opacity="0.85"/></svg>