<svg xmlns="http://www.w3.org/2000/svg" viewBox="0 0 600 600" width="600" height="600"><rect width="600" height="600" fill="#0e0d0b"/><rect x="14" y="14" width="572" height="572" fill="none" stroke="#e8e2d6" stroke-width="0.6" opacity="0.14"/><rect x="29.4" y="381.6" width="208.4" height="126.8" fill="none" stroke="#e8e2d6" stroke-width="0.8" opacity="0.8" transform="rotate(-2.1 133.6 445)"/><rect x="94.3" y="424.5" width="187.3" height="169.9" fill="none" stroke="#e8e2d6" stroke-width="0.9" opacity="0.4" transform="rotate(3.1 187.9 509.5)"/><rect x="367.8" y="176" width="228.2" height="86.7" fill="none" stroke="#e8e2d6" stroke-width="0.9" opacity="0.5" transform="rotate(3.1 481.9 219.3)"/><rect x="240.9" y="100.6" width="175.1" height="54.5" fill="none" stroke="#e8e2d6" stroke-width="1.5" opacity="0.8" transform="rotate(2 328.4 127.9)"/><rect x="145.2" y="23.3" width="224.3" height="102.5" fill="none" stroke="#e8e2d6" stroke-width="1.4" opacity="0.8" transform="rotate(-5.3 257.3 74.6)"/><rect x="335.9" y="175.5" width="117.8" height="102.5" fill="none" stroke="#e8e2d6" stroke-width="1.5" opacity="0.8" transform="rotate(-5.8 394.7 226.8)"/><rect x="208.3" y="322.8" width="233.6" height="154.1" fill="none" stroke="#e8e2d6" stroke-width="1" opacity="0.8" transform="rotate(-1.4 325.1 399.8)"/><line x1="0" y1="241.7" x2="600" y2="326.5" stroke="#c0392b" stroke-width="1.4" opacity="0.85"/></svg>