<svg xmlns="http://www.w3.org/2000/svg" viewBox="0 0 600 760" width="600" height="760"><rect width="600" height="760" fill="#0e0d0b"/><rect x="10" y="10" width="580" height="740" fill="none" stroke="#e8e2d6" stroke-width="0.5" opacity="0.12"/><path d="M 222,90 L 378,90 L 378,102 L 222,102 Z" fill="none" stroke="#e8e2d6" stroke-width="1.3" stroke-linecap="round" stroke-linejoin="round" opacity="0.9"/><path d="M 234,102 q 66,22 132,0" fill="none" stroke="#e8e2d6" stroke-width="1.2" stroke-linecap="round" stroke-linejoin="round" opacity="0.8"/><circle cx="242" cy="110" r="10" fill="none" stroke="#e8e2d6" stroke-width="1" opacity="0.7"/><circle cx="358" cy="110" r="10" fill="none" stroke="#e8e2d6" stroke-width="1" opacity="0.7"/><path d="M 240,124 L 244,660" fill="none" stroke="#e8e2d6" stroke-width="1.4" stroke-linecap="round" stroke-linejoin="round" opacity="0.9"/><path d="M 360,124 L 356,660" fill="none" stroke="#e8e2d6" stroke-width="1.4" stroke-linecap="round" stroke-linejoin="round" opacity="0.9"/><path d="M 256,130 L 253.2,654" fill="none" stroke="#e8e2d6" stroke-width="0.8" stroke-linecap="round" stroke-linejoin="round" opacity="0.5"/><path d="M 278,130 L 276.6,654" fill="none" stroke="#e8e2d6" stroke-width="0.8" stroke-linecap="round" stroke-linejoin="round" opacity="0.5"/><path d="M 300,130 L 300,654" fill="none" stroke="#e8e2d6" stroke-width="0.8" stroke-linecap="round" stroke-linejoin="round" opacity="0.5"/><path d="M 322,130 L 323.4,654" fill="none" stroke="#e8e2d6" stroke-width="0.8" stroke-linecap="round" stroke-linejoin="round" opacity="0.5"/><path d="M 344,130 L 346.8,654" fill="none" stroke="#e8e2d6" stroke-width="0.8" stroke-linecap="round" stroke-linejoin="round" opacity="0.5"/><path d="M 312,130 l 0,0" fill="none" stroke="#e8e2d6" stroke-width="0.6" stroke-linecap="round" stroke-linejoin="round" opacity="0"/><path d="M 333,392 l 0,0" fill="none" stroke="#e8e2d6" stroke-width="0.6" stroke-linecap="round" stroke-linejoin="round" opacity="0"/><path d="M 354,654 l 0,0" fill="none" stroke="#e8e2d6" stroke-width="0.6" stroke-linecap="round" stroke-linejoin="round" opacity="0"/><path d="M 226,664 L 374,664 L 374,680 L 226,680 Z" fill="none" stroke="#e8e2d6" stroke-width="1.3" stroke-linecap="round" stroke-linejoin="round" opacity="0.9"/><circle cx="300" cy="96" r="2.4" fill="#c0392b" opacity="0.9"/></svg>