<svg xmlns="http://www.w3.org/2000/svg" viewBox="0 0 600 760" width="600" height="760"><rect width="600" height="760" fill="#0e0d0b"/><rect x="10" y="10" width="580" height="740" fill="none" stroke="#e8e2d6" stroke-width="0.5" opacity="0.12"/><path d="M 170,680 L 170,150 L 300,110 L 430,150 L 430,680" fill="none" stroke="#e8e2d6" stroke-width="1.5" stroke-linecap="round" stroke-linejoin="round" opacity="0.9"/><path d="M 194,180 h 34 v 46 h -34 Z" fill="none" stroke="#e8e2d6" stroke-width="1" stroke-linecap="round" stroke-linejoin="round" opacity="0.6"/><path d="M 196,183 l 30,0" fill="none" stroke="#e8e2d6" stroke-width="0.6" stroke-linecap="round" stroke-linejoin="round" opacity="0.22"/><path d="M 196,193 l 30,0" fill="none" stroke="#e8e2d6" stroke-width="0.6" stroke-linecap="round" stroke-linejoin="round" opacity="0.22"/><path d="M 196,203 l 30,0" fill="none" stroke="#e8e2d6" stroke-width="0.6" stroke-linecap="round" stroke-linejoin="round" opacity="0.22"/><path d="M 196,213 l 30,0" fill="none" stroke="#e8e2d6" stroke-width="0.6" stroke-linecap="round" stroke-linejoin="round" opacity="0.22"/><path d="M 196,223 l 30,0" fill="none" stroke="#e8e2d6" stroke-width="0.6" stroke-linecap="round" stroke-linejoin="round" opacity="0.22"/><path d="M 252,180 h 34 v 46 h -34 Z" fill="none" stroke="#e8e2d6" stroke-width="1" stroke-linecap="round" stroke-linejoin="round" opacity="0.6"/><path d="M 254,183 l 30,0" fill="none" stroke="#e8e2d6" stroke-width="0.6" stroke-linecap="round" stroke-linejoin="round" opacity="0.22"/><path d="M 254,193 l 30,0" fill="none" stroke="#e8e2d6" stroke-width="0.6" stroke-linecap="round" stroke-linejoin="round" opacity="0.22"/><path d="M 254,203 l 30,0" fill="none" stroke="#e8e2d6" stroke-width="0.6" stroke-linecap="round" stroke-linejoin="round" opacity="0.22"/><path d="M 254,213 l 30,0" fill="none" stroke="#e8e2d6" stroke-width="0.6" stroke-linecap="round" stroke-linejoin="round" opacity="0.22"/><path d="M 254,223 l 30,0" fill="none" stroke="#e8e2d6" stroke-width="0.6" stroke-linecap="round" stroke-linejoin="round" opacity="0.22"/><path d="M 312.2,180 h 34 v 46 h -34 Z" fill="none" stroke="#e8e2d6" stroke-width="1" stroke-linecap="round" stroke-linejoin="round" opacity="0.6"/><path d="M 314.2,183 l 30,0" fill="none" stroke="#e8e2d6" stroke-width="0.6" stroke-linecap="round" stroke-linejoin="round" opacity="0.22"/><path d="M 314.2,193 l 30,0" fill="none" stroke="#e8e2d6" stroke-width="0.6" stroke-linecap="round" stroke-linejoin="round" opacity="0.22"/><path d="M 314.2,203 l 30,0" fill="none" stroke="#e8e2d6" stroke-width="0.6" stroke-linecap="round" stroke-linejoin="round" opacity="0.22"/><path d="M 314.2,213 l 30,0" fill="none" stroke="#e8e2d6" stroke-width="0.6" stroke-linecap="round" stroke-linejoin="round" opacity="0.22"/><path d="M 314.2,223 l 30,0" fill="none" stroke="#e8e2d6" stroke-width="0.6" stroke-linecap="round" stroke-linejoin="round" opacity="0.22"/><path d="M 372.4,180 h 34 v 46 h -34 Z" fill="none" stroke="#e8e2d6" stroke-width="1" stroke-linecap="round" stroke-linejoin="round" opacity="0.39999999999999997"/><path d="M 374.4,183 l 30,0" fill="none" stroke="#e8e2d6" stroke-width="0.6" stroke-linecap="round" stroke-linejoin="round" opacity="0.22"/><path d="M 374.4,193 l 30,0" fill="none" stroke="#e8e2d6" stroke-width="0.6" stroke-linecap="round" stroke-linejoin="round" opacity="0.22"/><path d="M 374.4,203 l 30,0" fill="none" stroke="#e8e2d6" stroke-width="0.6" stroke-linecap="round" stroke-linejoin="round" opacity="0.22"/><path d="M 374.4,213 l 30,0" fill="none" stroke="#e8e2d6" stroke-width="0.6" stroke-linecap="round" stroke-linejoin="round" opacity="0.22"/><path d="M 374.4,223 l 30,0" fill="none" stroke="#e8e2d6" stroke-width="0.6" stroke-linecap="round" stroke-linejoin="round" opacity="0.22"/><path d="M 194,258 h 34 v 46 h -34 Z" fill="none" stroke="#e8e2d6" stroke-width="1" stroke-linecap="round" stroke-linejoin="round" opacity="0.6"/><path d="M 196,261 l 30,0" fill="none" stroke="#e8e2d6" stroke-width="0.6" stroke-linecap="round" stroke-linejoin="round" opacity="0.22"/><path d="M 196,271 l 30,0" fill="none" stroke="#e8e2d6" stroke-width="0.6" stroke-linecap="round" stroke-linejoin="round" opacity="0.22"/><path d="M 196,281 l 30,0" fill="none" stroke="#e8e2d6" stroke-width="0.6" stroke-linecap="round" stroke-linejoin="round" opacity="0.22"/><path d="M 196,291 l 30,0" fill="none" stroke="#e8e2d6" stroke-width="0.6" stroke-linecap="round" stroke-linejoin="round" opacity="0.22"/><path d="M 196,301 l 30,0" fill="none" stroke="#e8e2d6" stroke-width="0.6" stroke-linecap="round" stroke-linejoin="round" opacity="0.22"/><path d="M 252,258 h 34 v 46 h -34 Z" fill="none" stroke="#e8e2d6" stroke-width="1" stroke-linecap="round" stroke-linejoin="round" opacity="0.6"/><path d="M 254,261 l 30,0" fill="none" stroke="#e8e2d6" stroke-width="0.6" stroke-linecap="round" stroke-linejoin="round" opacity="0.22"/><path d="M 254,271 l 30,0" fill="none" stroke="#e8e2d6" stroke-width="0.6" stroke-linecap="round" stroke-linejoin="round" opacity="0.22"/><path d="M 254,281 l 30,0" fill="none" stroke="#e8e2d6" stroke-width="0.6" stroke-linecap="round" stroke-linejoin="round" opacity="0.22"/><path d="M 254,291 l 30,0" fill="none" stroke="#e8e2d6" stroke-width="0.6" stroke-linecap="round" stroke-linejoin="round" opacity="0.22"/><path d="M 254,301 l 30,0" fill="none" stroke="#e8e2d6" stroke-width="0.6" stroke-linecap="round" stroke-linejoin="round" opacity="0.22"/><path d="M 314.4,258 h 34 v 46 h -34 Z" fill="none" stroke="#e8e2d6" stroke-width="1" stroke-linecap="round" stroke-linejoin="round" opacity="0.6"/><path d="M 316.4,261 l 30,0" fill="none" stroke="#e8e2d6" stroke-width="0.6" stroke-linecap="round" stroke-linejoin="round" opacity="0.22"/><path d="M 316.4,271 l 30,0" fill="none" stroke="#e8e2d6" stroke-width="0.6" stroke-linecap="round" stroke-linejoin="round" opacity="0.22"/><path d="M 316.4,281 l 30,0" fill="none" stroke="#e8e2d6" stroke-width="0.6" stroke-linecap="round" stroke-linejoin="round" opacity="0.22"/><path d="M 316.4,291 l 30,0" fill="none" stroke="#e8e2d6" stroke-width="0.6" stroke-linecap="round" stroke-linejoin="round" opacity="0.22"/><path d="M 316.4,301 l 30,0" fill="none" stroke="#e8e2d6" stroke-width="0.6" stroke-linecap="round" stroke-linejoin="round" opacity="0.22"/><path d="M 376.8,258 h 34 v 46 h -34 Z" fill="none" stroke="#e8e2d6" stroke-width="1" stroke-linecap="round" stroke-linejoin="round" opacity="0.39999999999999997"/><path d="M 378.8,261 l 30,0" fill="none" stroke="#e8e2d6" stroke-width="0.6" stroke-linecap="round" stroke-linejoin="round" opacity="0.22"/><path d="M 378.8,271 l 30,0" fill="none" stroke="#e8e2d6" stroke-width="0.6" stroke-linecap="round" stroke-linejoin="round" opacity="0.22"/><path d="M 378.8,281 l 30,0" fill="none" stroke="#e8e2d6" stroke-width="0.6" stroke-linecap="round" stroke-linejoin="round" opacity="0.22"/><path d="M 378.8,291 l 30,0" fill="none" stroke="#e8e2d6" stroke-width="0.6" stroke-linecap="round" stroke-linejoin="round" opacity="0.22"/><path d="M 378.8,301 l 30,0" fill="none" stroke="#e8e2d6" stroke-width="0.6" stroke-linecap="round" stroke-linejoin="round" opacity="0.22"/><path d="M 194,336 h 34 v 46 h -34 Z" fill="none" stroke="#e8e2d6" stroke-width="1" stroke-linecap="round" stroke-linejoin="round" opacity="0.6"/><path d="M 196,339 l 30,0" fill="none" stroke="#e8e2d6" stroke-width="0.6" stroke-linecap="round" stroke-linejoin="round" opacity="0.22"/><path d="M 196,349 l 30,0" fill="none" stroke="#e8e2d6" stroke-width="0.6" stroke-linecap="round" stroke-linejoin="round" opacity="0.22"/><path d="M 196,359 l 30,0" fill="none" stroke="#e8e2d6" stroke-width="0.6" stroke-linecap="round" stroke-linejoin="round" opacity="0.22"/><path d="M 196,369 l 30,0" fill="none" stroke="#e8e2d6" stroke-width="0.6" stroke-linecap="round" stroke-linejoin="round" opacity="0.22"/><path d="M 196,379 l 30,0" fill="none" stroke="#e8e2d6" stroke-width="0.6" stroke-linecap="round" stroke-linejoin="round" opacity="0.22"/><path d="M 252,336 h 34 v 46 h -34 Z" fill="none" stroke="#e8e2d6" stroke-width="1" stroke-linecap="round" stroke-linejoin="round" opacity="0.6"/><path d="M 254,339 l 30,0" fill="none" stroke="#e8e2d6" stroke-width="0.6" stroke-linecap="round" stroke-linejoin="round" opacity="0.22"/><path d="M 254,349 l 30,0" fill="none" stroke="#e8e2d6" stroke-width="0.6" stroke-linecap="round" stroke-linejoin="round" opacity="0.22"/><path d="M 254,359 l 30,0" fill="none" stroke="#e8e2d6" stroke-width="0.6" stroke-linecap="round" stroke-linejoin="round" opacity="0.22"/><path d="M 254,369 l 30,0" fill="none" stroke="#e8e2d6" stroke-width="0.6" stroke-linecap="round" stroke-linejoin="round" opacity="0.22"/><path d="M 254,379 l 30,0" fill="none" stroke="#e8e2d6" stroke-width="0.6" stroke-linecap="round" stroke-linejoin="round" opacity="0.22"/><path d="M 316.6,336 h 34 v 46 h -34 Z" fill="none" stroke="#e8e2d6" stroke-width="1" stroke-linecap="round" stroke-linejoin="round" opacity="0.6"/><path d="M 318.6,339 l 30,0" fill="none" stroke="#e8e2d6" stroke-width="0.6" stroke-linecap="round" stroke-linejoin="round" opacity="0.22"/><path d="M 318.6,349 l 30,0" fill="none" stroke="#e8e2d6" stroke-width="0.6" stroke-linecap="round" stroke-linejoin="round" opacity="0.22"/><path d="M 318.6,359 l 30,0" fill="none" stroke="#e8e2d6" stroke-width="0.6" stroke-linecap="round" stroke-linejoin="round" opacity="0.22"/><path d="M 318.6,369 l 30,0" fill="none" stroke="#e8e2d6" stroke-width="0.6" stroke-linecap="round" stroke-linejoin="round" opacity="0.22"/><path d="M 318.6,379 l 30,0" fill="none" stroke="#e8e2d6" stroke-width="0.6" stroke-linecap="round" stroke-linejoin="round" opacity="0.22"/><path d="M 381.2,336 h 34 v 46 h -34 Z" fill="none" stroke="#e8e2d6" stroke-width="1" stroke-linecap="round" stroke-linejoin="round" opacity="0.39999999999999997"/><path d="M 383.2,339 l 30,0" fill="none" stroke="#e8e2d6" stroke-width="0.6" stroke-linecap="round" stroke-linejoin="round" opacity="0.22"/><path d="M 383.2,349 l 30,0" fill="none" stroke="#e8e2d6" stroke-width="0.6" stroke-linecap="round" stroke-linejoin="round" opacity="0.22"/><path d="M 383.2,359 l 30,0" fill="none" stroke="#e8e2d6" stroke-width="0.6" stroke-linecap="round" stroke-linejoin="round" opacity="0.22"/><path d="M 383.2,369 l 30,0" fill="none" stroke="#e8e2d6" stroke-width="0.6" stroke-linecap="round" stroke-linejoin="round" opacity="0.22"/><path d="M 383.2,379 l 30,0" fill="none" stroke="#e8e2d6" stroke-width="0.6" stroke-linecap="round" stroke-linejoin="round" opacity="0.22"/><path d="M 194,414 h 34 v 46 h -34 Z" fill="none" stroke="#e8e2d6" stroke-width="1" stroke-linecap="round" stroke-linejoin="round" opacity="0.6"/><path d="M 196,417 l 30,0" fill="none" stroke="#e8e2d6" stroke-width="0.6" stroke-linecap="round" stroke-linejoin="round" opacity="0.22"/><path d="M 196,427 l 30,0" fill="none" stroke="#e8e2d6" stroke-width="0.6" stroke-linecap="round" stroke-linejoin="round" opacity="0.22"/><path d="M 196,437 l 30,0" fill="none" stroke="#e8e2d6" stroke-width="0.6" stroke-linecap="round" stroke-linejoin="round" opacity="0.22"/><path d="M 196,447 l 30,0" fill="none" stroke="#e8e2d6" stroke-width="0.6" stroke-linecap="round" stroke-linejoin="round" opacity="0.22"/><path d="M 196,457 l 30,0" fill="none" stroke="#e8e2d6" stroke-width="0.6" stroke-linecap="round" stroke-linejoin="round" opacity="0.22"/><path d="M 252,414 h 34 v 46 h -34 Z" fill="none" stroke="#e8e2d6" stroke-width="1" stroke-linecap="round" stroke-linejoin="round" opacity="0.6"/><path d="M 254,417 l 30,0" fill="none" stroke="#e8e2d6" stroke-width="0.6" stroke-linecap="round" stroke-linejoin="round" opacity="0.22"/><path d="M 254,427 l 30,0" fill="none" stroke="#e8e2d6" stroke-width="0.6" stroke-linecap="round" stroke-linejoin="round" opacity="0.22"/><path d="M 254,437 l 30,0" fill="none" stroke="#e8e2d6" stroke-width="0.6" stroke-linecap="round" stroke-linejoin="round" opacity="0.22"/><path d="M 254,447 l 30,0" fill="none" stroke="#e8e2d6" stroke-width="0.6" stroke-linecap="round" stroke-linejoin="round" opacity="0.22"/><path d="M 254,457 l 30,0" fill="none" stroke="#e8e2d6" stroke-width="0.6" stroke-linecap="round" stroke-linejoin="round" opacity="0.22"/><path d="M 318.8,414 h 34 v 46 h -34 Z" fill="none" stroke="#e8e2d6" stroke-width="1" stroke-linecap="round" stroke-linejoin="round" opacity="0.6"/><path d="M 320.8,417 l 30,0" fill="none" stroke="#e8e2d6" stroke-width="0.6" stroke-linecap="round" stroke-linejoin="round" opacity="0.22"/><path d="M 320.8,427 l 30,0" fill="none" stroke="#e8e2d6" stroke-width="0.6" stroke-linecap="round" stroke-linejoin="round" opacity="0.22"/><path d="M 320.8,437 l 30,0" fill="none" stroke="#e8e2d6" stroke-width="0.6" stroke-linecap="round" stroke-linejoin="round" opacity="0.22"/><path d="M 320.8,447 l 30,0" fill="none" stroke="#e8e2d6" stroke-width="0.6" stroke-linecap="round" stroke-linejoin="round" opacity="0.22"/><path d="M 320.8,457 l 30,0" fill="none" stroke="#e8e2d6" stroke-width="0.6" stroke-linecap="round" stroke-linejoin="round" opacity="0.22"/><path d="M 385.6,414 h 34 v 46 h -34 Z" fill="none" stroke="#e8e2d6" stroke-width="1" stroke-linecap="round" stroke-linejoin="round" opacity="0.39999999999999997"/><path d="M 387.6,417 l 30,0" fill="none" stroke="#e8e2d6" stroke-width="0.6" stroke-linecap="round" stroke-linejoin="round" opacity="0.22"/><path d="M 387.6,427 l 30,0" fill="none" stroke="#e8e2d6" stroke-width="0.6" stroke-linecap="round" stroke-linejoin="round" opacity="0.22"/><path d="M 387.6,437 l 30,0" fill="none" stroke="#e8e2d6" stroke-width="0.6" stroke-linecap="round" stroke-linejoin="round" opacity="0.22"/><path d="M 387.6,447 l 30,0" fill="none" stroke="#e8e2d6" stroke-width="0.6" stroke-linecap="round" stroke-linejoin="round" opacity="0.22"/><path d="M 387.6,457 l 30,0" fill="none" stroke="#e8e2d6" stroke-width="0.6" stroke-linecap="round" stroke-linejoin="round" opacity="0.22"/><path d="M 360,150 l 30,120 l -18,60 l 26,90" fill="none" stroke="#e8e2d6" stroke-width="1" stroke-linecap="round" stroke-linejoin="round" opacity="0.4"/><path d="M 430,310 l -50,20 l 50,40" fill="none" stroke="#e8e2d6" stroke-width="0.9" stroke-linecap="round" stroke-linejoin="round" opacity="0.35"/><circle cx="300" cy="130" r="2.4" fill="#c0392b" opacity="0.9"/></svg>