<svg xmlns="http://www.w3.org/2000/svg" viewBox="0 0 600 800" width="600" height="800"><rect width="600" height="800" fill="#0e0d0b"/><rect x="14" y="14" width="572" height="772" fill="none" stroke="#e8e2d6" stroke-width="0.6" opacity="0.14"/><rect x="260.9" y="515.6" width="85.2" height="160.2" fill="none" stroke="#e8e2d6" stroke-width="1.6" opacity="0.5" transform="rotate(-4.9 303.5 595.7)"/><rect x="34.2" y="260.7" width="193.6" height="284" fill="none" stroke="#e8e2d6" stroke-width="1.5" opacity="0.6" transform="rotate(-2.1 131 402.7)"/><line x1="34.2" y1="260.7" x2="57.4" y2="544.7" stroke="#e8e2d6" stroke-width="0.5" opacity="0.25" transform="rotate(-2.1 131 402.7)"/><line x1="66.5" y1="260.7" x2="89.7" y2="544.7" stroke="#e8e2d6" stroke-width="0.5" opacity="0.25" transform="rotate(-2.1 131 402.7)"/><line x1="98.7" y1="260.7" x2="121.9" y2="544.7" stroke="#e8e2d6" stroke-width="0.5" opacity="0.25" transform="rotate(-2.1 131 402.7)"/><line x1="131" y1="260.7" x2="154.2" y2="544.7" stroke="#e8e2d6" stroke-width="0.5" opacity="0.25" transform="rotate(-2.1 131 402.7)"/><line x1="163.2" y1="260.7" x2="186.5" y2="544.7" stroke="#e8e2d6" stroke-width="0.5" opacity="0.25" transform="rotate(-2.1 131 402.7)"/><line x1="195.5" y1="260.7" x2="218.7" y2="544.7" stroke="#e8e2d6" stroke-width="0.5" opacity="0.25" transform="rotate(-2.1 131 402.7)"/><rect x="172.6" y="283.8" width="134.8" height="207.8" fill="none" stroke="#e8e2d6" stroke-width="1.2" opacity="0.4" transform="rotate(1 240 387.7)"/><rect x="230.5" y="218.3" width="158.8" height="188.8" fill="none" stroke="#e8e2d6" stroke-width="0.9" opacity="0.8" transform="rotate(-3.1 309.9 312.7)"/><line x1="230.5" y1="218.3" x2="249.6" y2="407.1" stroke="#e8e2d6" stroke-width="0.5" opacity="0.25" transform="rotate(-3.1 309.9 312.7)"/><line x1="257" y1="218.3" x2="276.1" y2="407.1" stroke="#e8e2d6" stroke-width="0.5" opacity="0.25" transform="rotate(-3.1 309.9 312.7)"/><line x1="283.5" y1="218.3" x2="302.5" y2="407.1" stroke="#e8e2d6" stroke-width="0.5" opacity="0.25" transform="rotate(-3.1 309.9 312.7)"/><line x1="309.9" y1="218.3" x2="329" y2="407.1" stroke="#e8e2d6" stroke-width="0.5" opacity="0.25" transform="rotate(-3.1 309.9 312.7)"/><line x1="336.4" y1="218.3" x2="355.5" y2="407.1" stroke="#e8e2d6" stroke-width="0.5" opacity="0.25" transform="rotate(-3.1 309.9 312.7)"/><line x1="362.9" y1="218.3" x2="381.9" y2="407.1" stroke="#e8e2d6" stroke-width="0.5" opacity="0.25" transform="rotate(-3.1 309.9 312.7)"/><rect x="371.7" y="309.1" width="94.8" height="156.3" fill="none" stroke="#e8e2d6" stroke-width="1" opacity="0.6" transform="rotate(2.4 419.1 387.3)"/><rect x="144.2" y="253.1" width="241.2" height="218" fill="none" stroke="#e8e2d6" stroke-width="1.4" opacity="0.5" transform="rotate(4.5 264.8 362.1)"/><line x1="0" y1="445.8" x2="600" y2="473.6" stroke="#c0392b" stroke-width="1.4" opacity="0.85"/></svg>