<svg xmlns="http://www.w3.org/2000/svg" viewBox="0 0 600 700" width="600" height="700"><rect width="600" height="700" fill="#0e0d0b"/><rect x="14" y="14" width="572" height="672" fill="none" stroke="#e8e2d6" stroke-width="0.6" opacity="0.14"/><rect x="369.1" y="358.7" width="184.3" height="75.6" fill="none" stroke="#e8e2d6" stroke-width="0.9" opacity="0.5" transform="rotate(1.7 461.3 396.5)"/><line x1="369.1" y1="358.7" x2="391.3" y2="434.3" stroke="#e8e2d6" stroke-width="0.5" opacity="0.25" transform="rotate(1.7 461.3 396.5)"/><line x1="399.9" y1="358.7" x2="422" y2="434.3" stroke="#e8e2d6" stroke-width="0.5" opacity="0.25" transform="rotate(1.7 461.3 396.5)"/><line x1="430.6" y1="358.7" x2="452.7" y2="434.3" stroke="#e8e2d6" stroke-width="0.5" opacity="0.25" transform="rotate(1.7 461.3 396.5)"/><line x1="461.3" y1="358.7" x2="483.4" y2="434.3" stroke="#e8e2d6" stroke-width="0.5" opacity="0.25" transform="rotate(1.7 461.3 396.5)"/><line x1="492" y1="358.7" x2="514.1" y2="434.3" stroke="#e8e2d6" stroke-width="0.5" opacity="0.25" transform="rotate(1.7 461.3 396.5)"/><line x1="522.7" y1="358.7" x2="544.8" y2="434.3" stroke="#e8e2d6" stroke-width="0.5" opacity="0.25" transform="rotate(1.7 461.3 396.5)"/><rect x="363" y="380.1" width="82.5" height="117.8" fill="none" stroke="#e8e2d6" stroke-width="1.4" opacity="0.6" transform="rotate(5.7 404.3 439)"/><rect x="217.6" y="107.8" width="185.3" height="86.8" fill="none" stroke="#e8e2d6" stroke-width="0.8" opacity="0.8" transform="rotate(-6 310.3 151.2)"/><line x1="217.6" y1="107.8" x2="239.9" y2="194.6" stroke="#e8e2d6" stroke-width="0.5" opacity="0.25" transform="rotate(-6 310.3 151.2)"/><line x1="248.5" y1="107.8" x2="270.8" y2="194.6" stroke="#e8e2d6" stroke-width="0.5" opacity="0.25" transform="rotate(-6 310.3 151.2)"/><line x1="279.4" y1="107.8" x2="301.6" y2="194.6" stroke="#e8e2d6" stroke-width="0.5" opacity="0.25" transform="rotate(-6 310.3 151.2)"/><line x1="310.3" y1="107.8" x2="332.5" y2="194.6" stroke="#e8e2d6" stroke-width="0.5" opacity="0.25" transform="rotate(-6 310.3 151.2)"/><line x1="341.2" y1="107.8" x2="363.4" y2="194.6" stroke="#e8e2d6" stroke-width="0.5" opacity="0.25" transform="rotate(-6 310.3 151.2)"/><line x1="372.1" y1="107.8" x2="394.3" y2="194.6" stroke="#e8e2d6" stroke-width="0.5" opacity="0.25" transform="rotate(-6 310.3 151.2)"/><rect x="255.4" y="319.7" width="226.1" height="225.8" fill="none" stroke="#e8e2d6" stroke-width="1.1" opacity="0.5" transform="rotate(-1 368.4 432.6)"/><line x1="255.4" y1="319.7" x2="282.5" y2="545.5" stroke="#e8e2d6" stroke-width="0.5" opacity="0.25" transform="rotate(-1 368.4 432.6)"/><line x1="293.1" y1="319.7" x2="320.2" y2="545.5" stroke="#e8e2d6" stroke-width="0.5" opacity="0.25" transform="rotate(-1 368.4 432.6)"/><line x1="330.8" y1="319.7" x2="357.9" y2="545.5" stroke="#e8e2d6" stroke-width="0.5" opacity="0.25" transform="rotate(-1 368.4 432.6)"/><line x1="368.4" y1="319.7" x2="395.6" y2="545.5" stroke="#e8e2d6" stroke-width="0.5" opacity="0.25" transform="rotate(-1 368.4 432.6)"/><line x1="406.1" y1="319.7" x2="433.3" y2="545.5" stroke="#e8e2d6" stroke-width="0.5" opacity="0.25" transform="rotate(-1 368.4 432.6)"/><line x1="443.8" y1="319.7" x2="470.9" y2="545.5" stroke="#e8e2d6" stroke-width="0.5" opacity="0.25" transform="rotate(-1 368.4 432.6)"/><rect x="80.9" y="62.8" width="127.4" height="137" fill="none" stroke="#e8e2d6" stroke-width="1.5" opacity="0.7" transform="rotate(-5.3 144.6 131.3)"/><line x1="0" y1="471.9" x2="600" y2="228.6" stroke="#c0392b" stroke-width="1.4" opacity="0.85"/></svg>