<svg xmlns="http://www.w3.org/2000/svg" viewBox="0 0 600 620" width="600" height="620"><rect width="600" height="620" fill="#0e0d0b"/><rect x="14" y="14" width="572" height="592" fill="none" stroke="#e8e2d6" stroke-width="0.6" opacity="0.14"/><rect x="330.4" y="184.7" width="139.4" height="140" fill="none" stroke="#e8e2d6" stroke-width="1.5" opacity="0.8" transform="rotate(4.6 400.1 254.7)"/><rect x="338.9" y="143.5" width="215.6" height="221.8" fill="none" stroke="#e8e2d6" stroke-width="0.8" opacity="0.6" transform="rotate(2.4 446.6 254.5)"/><rect x="82.8" y="318.3" width="132.6" height="104.7" fill="none" stroke="#e8e2d6" stroke-width="0.9" opacity="0.5" transform="rotate(5.9 149.1 370.6)"/><rect x="338.2" y="329.5" width="144.2" height="185.8" fill="none" stroke="#e8e2d6" stroke-width="1.2" opacity="0.7" transform="rotate(-5.3 410.3 422.4)"/><rect x="305.5" y="1" width="83.8" height="91" fill="none" stroke="#e8e2d6" stroke-width="1.6" opacity="0.5" transform="rotate(5.6 347.3 46.5)"/><line x1="305.5" y1="1" x2="315.5" y2="92" stroke="#e8e2d6" stroke-width="0.5" opacity="0.25" transform="rotate(5.6 347.3 46.5)"/><line x1="319.4" y1="1" x2="329.5" y2="92" stroke="#e8e2d6" stroke-width="0.5" opacity="0.25" transform="rotate(5.6 347.3 46.5)"/><line x1="333.4" y1="1" x2="343.4" y2="92" stroke="#e8e2d6" stroke-width="0.5" opacity="0.25" transform="rotate(5.6 347.3 46.5)"/><line x1="347.3" y1="1" x2="357.4" y2="92" stroke="#e8e2d6" stroke-width="0.5" opacity="0.25" transform="rotate(5.6 347.3 46.5)"/><line x1="361.3" y1="1" x2="371.4" y2="92" stroke="#e8e2d6" stroke-width="0.5" opacity="0.25" transform="rotate(5.6 347.3 46.5)"/><line x1="375.3" y1="1" x2="385.3" y2="92" stroke="#e8e2d6" stroke-width="0.5" opacity="0.25" transform="rotate(5.6 347.3 46.5)"/><rect x="56.3" y="195.3" width="108.4" height="107.2" fill="none" stroke="#e8e2d6" stroke-width="1.5" opacity="0.8" transform="rotate(0.5 110.5 248.9)"/><rect x="341.2" y="365.5" width="131.6" height="83.5" fill="none" stroke="#e8e2d6" stroke-width="1.1" opacity="0.7" transform="rotate(3.2 407 407.2)"/><rect x="175" y="173.3" width="197.9" height="76.7" fill="none" stroke="#e8e2d6" stroke-width="1.4" opacity="0.4" transform="rotate(5.4 274 211.7)"/><line x1="0" y1="188.8" x2="600" y2="358.9" stroke="#c0392b" stroke-width="1.4" opacity="0.85"/></svg>