<svg xmlns="http://www.w3.org/2000/svg" viewBox="0 0 600 760" width="600" height="760"><rect width="600" height="760" fill="#0e0d0b"/><rect x="10" y="10" width="580" height="740" fill="none" stroke="#e8e2d6" stroke-width="0.5" opacity="0.12"/><path d="M 300,700 C 270,500 326,300 300,120" fill="none" stroke="#e8e2d6" stroke-width="1.6" stroke-linecap="round" stroke-linejoin="round" opacity="0.9"/><path d="M 300,670 Q 277.55,640.51 226.73,643.25 Q 263.83,678.09 300,670 Z" fill="none" stroke="#e8e2d6" stroke-width="1.1" opacity="0.85"/><path d="M 300,670 L 226.73,643.25" fill="none" stroke="#e8e2d6" stroke-width="0.7" stroke-linecap="round" stroke-linejoin="round" opacity="0.5"/><path d="M 300,670 Q 275.42,658.66 246.49,680.85 Q 281.77,690.02 300,670 Z" fill="none" stroke="#e8e2d6" stroke-width="1.1" opacity="0.85"/><path d="M 300,670 L 246.49,680.85" fill="none" stroke="#e8e2d6" stroke-width="0.7" stroke-linecap="round" stroke-linejoin="round" opacity="0.5"/><path d="M 312.9,563.28 Q 345.89,570.61 379.78,538.87 Q 333.41,536.42 312.9,563.28 Z" fill="none" stroke="#e8e2d6" stroke-width="1.1" opacity="0.85"/><path d="M 312.9,563.28 L 379.78,538.87" fill="none" stroke="#e8e2d6" stroke-width="0.7" stroke-linecap="round" stroke-linejoin="round" opacity="0.5"/><path d="M 312.9,563.28 Q 329.54,581.51 361.74,573.18 Q 335.33,552.97 312.9,563.28 Z" fill="none" stroke="#e8e2d6" stroke-width="1.1" opacity="0.85"/><path d="M 312.9,563.28 L 361.74,573.18" fill="none" stroke="#e8e2d6" stroke-width="0.7" stroke-linecap="round" stroke-linejoin="round" opacity="0.5"/><path d="M 287.87,456.56 Q 269.29,432.32 227.37,434.48 Q 258.04,463.13 287.87,456.56 Z" fill="none" stroke="#e8e2d6" stroke-width="1.1" opacity="0.85"/><path d="M 287.87,456.56 L 227.37,434.48" fill="none" stroke="#e8e2d6" stroke-width="0.7" stroke-linecap="round" stroke-linejoin="round" opacity="0.5"/><path d="M 287.87,456.56 Q 267.59,447.28 243.68,465.52 Q 272.8,473 287.87,456.56 Z" fill="none" stroke="#e8e2d6" stroke-width="1.1" opacity="0.85"/><path d="M 287.87,456.56 L 243.68,465.52" fill="none" stroke="#e8e2d6" stroke-width="0.7" stroke-linecap="round" stroke-linejoin="round" opacity="0.5"/><path d="M 313.07,349.84 Q 339.72,355.65 367.17,330.09 Q 329.7,328.22 313.07,349.84 Z" fill="none" stroke="#e8e2d6" stroke-width="1.1" opacity="0.85"/><path d="M 313.07,349.84 L 367.17,330.09" fill="none" stroke="#e8e2d6" stroke-width="0.7" stroke-linecap="round" stroke-linejoin="round" opacity="0.5"/><path d="M 313.07,349.84 Q 326.55,364.49 352.58,357.85 Q 331.19,341.6 313.07,349.84 Z" fill="none" stroke="#e8e2d6" stroke-width="1.1" opacity="0.85"/><path d="M 313.07,349.84 L 352.58,357.85" fill="none" stroke="#e8e2d6" stroke-width="0.7" stroke-linecap="round" stroke-linejoin="round" opacity="0.5"/><path d="M 286.85,243.12 Q 272.15,224.13 239.13,225.7 Q 263.37,248.18 286.85,243.12 Z" fill="none" stroke="#e8e2d6" stroke-width="1.1" opacity="0.85"/><path d="M 286.85,243.12 L 239.13,225.7" fill="none" stroke="#e8e2d6" stroke-width="0.7" stroke-linecap="round" stroke-linejoin="round" opacity="0.5"/><path d="M 286.85,243.12 Q 270.87,235.91 251.99,250.18 Q 274.94,255.98 286.85,243.12 Z" fill="none" stroke="#e8e2d6" stroke-width="1.1" opacity="0.85"/><path d="M 286.85,243.12 L 251.99,250.18" fill="none" stroke="#e8e2d6" stroke-width="0.7" stroke-linecap="round" stroke-linejoin="round" opacity="0.5"/><path d="M 298.88,136.4 Q 319.19,140.7 340.21,121.31 Q 311.64,120.03 298.88,136.4 Z" fill="none" stroke="#e8e2d6" stroke-width="1.1" opacity="0.85"/><path d="M 298.88,136.4 L 340.21,121.31" fill="none" stroke="#e8e2d6" stroke-width="0.7" stroke-linecap="round" stroke-linejoin="round" opacity="0.5"/><path d="M 298.88,136.4 Q 309.21,147.47 329.07,142.52 Q 312.71,130.22 298.88,136.4 Z" fill="none" stroke="#e8e2d6" stroke-width="1.1" opacity="0.85"/><path d="M 298.88,136.4 L 329.07,142.52" fill="none" stroke="#e8e2d6" stroke-width="0.7" stroke-linecap="round" stroke-linejoin="round" opacity="0.5"/><path d="M 300,120 q -12,-26 0,-46 q 12,20 0,46 Z" fill="none" stroke="#e8e2d6" stroke-width="1.3" opacity="0.9"/><circle cx="300" cy="68" r="3.2" fill="#c0392b" opacity="0.9"/></svg>