<svg xmlns="http://www.w3.org/2000/svg" viewBox="0 0 600 750" width="600" height="750"><rect width="600" height="750" fill="#0e0d0b"/><rect x="14" y="14" width="572" height="722" fill="none" stroke="#e8e2d6" stroke-width="0.6" opacity="0.14"/><path d="M 392.4 712.5 C 324.9 504.6, 301.4 334.5, 334.4 93.2" stroke="#e8e2d6" stroke-width="1.4" fill="none" opacity="0.85"/><path d="M 423.7 257.6 q -16.6 -18 -51.3 -5.9" stroke="#e8e2d6" stroke-width="1" fill="none" opacity="0.5"/><path d="M 467.5 566 q 34.1 -11.6 36.6 -7.5" stroke="#e8e2d6" stroke-width="1" fill="none" opacity="0.4"/><path d="M 355.1 235.5 q 35.1 -13.2 26.9 -7" stroke="#e8e2d6" stroke-width="1" fill="none" opacity="0.4"/><path d="M 321.5 433.1 q 27.7 -22.6 34.1 -13.1" stroke="#e8e2d6" stroke-width="1" fill="none" opacity="0.7"/><path d="M 382.8 577.2 q 15 -10.4 46.7 -10.5" stroke="#e8e2d6" stroke-width="1" fill="none" opacity="0.7"/><path d="M 424.4 314.9 q 33.4 -9.9 56.6 -11.5" stroke="#e8e2d6" stroke-width="1" fill="none" opacity="0.5"/><path d="M 418 257.2 q 19 -18.9 53.4 -5.5" stroke="#e8e2d6" stroke-width="1" fill="none" opacity="0.7"/><path d="M 154.8 712.5 C 204.1 511.9, 272.4 280.7, 224 136.9" stroke="#e8e2d6" stroke-width="1.4" fill="none" opacity="0.85"/><path d="M 129.1 346.8 q 36.6 -18.9 44.9 -12.7" stroke="#e8e2d6" stroke-width="1" fill="none" opacity="0.5"/><path d="M 183.7 86.8 q -27.7 -16.9 -49.7 -9.8" stroke="#e8e2d6" stroke-width="1" fill="none" opacity="0.7"/><path d="M 77.6 198.5 q -32.1 -17.3 -28.4 -10.2" stroke="#e8e2d6" stroke-width="1" fill="none" opacity="0.4"/><path d="M 209.2 505.3 q 33.2 -20.7 29.3 -12.2" stroke="#e8e2d6" stroke-width="1" fill="none" opacity="0.4"/><path d="M 155.9 234.8 q 32.8 -9.5 50.8 -8.2" stroke="#e8e2d6" stroke-width="1" fill="none" opacity="0.6"/><path d="M 221.2 222.6 q -28.1 -10 -44.7 -5" stroke="#e8e2d6" stroke-width="1" fill="none" opacity="0.5"/><path d="M 97.6 169 q -12.9 -23.7 -25 -7.5" stroke="#e8e2d6" stroke-width="1" fill="none" opacity="0.4"/><path d="M 382.2 712.5 C 289.3 616.7, 407.5 402.1, 299.9 180.9" stroke="#e8e2d6" stroke-width="1.4" fill="none" opacity="0.85"/><path d="M 303.9 174.9 q -13 -9.1 -33.1 -7.9" stroke="#e8e2d6" stroke-width="1" fill="none" opacity="0.6"/><path d="M 344.8 500.3 q -31.1 -24 -45.8 -10.1" stroke="#e8e2d6" stroke-width="1" fill="none" opacity="0.7"/><path d="M 356.4 123.3 q 33 -18.5 42.2 -10.5" stroke="#e8e2d6" stroke-width="1" fill="none" opacity="0.4"/><path d="M 392 325.2 q 28.1 -24.9 36.9 -10.6" stroke="#e8e2d6" stroke-width="1" fill="none" opacity="0.7"/><path d="M 335.6 430.6 q 19.8 -21.2 28.1 -9.4" stroke="#e8e2d6" stroke-width="1" fill="none" opacity="0.4"/><path d="M 461.3 398.4 q 13.5 -20.9 61.5 -8.6" stroke="#e8e2d6" stroke-width="1" fill="none" opacity="0.5"/><path d="M 391.3 238.4 q -30.3 -21.7 -25.7 -5.2" stroke="#e8e2d6" stroke-width="1" fill="none" opacity="0.6"/><path d="M 124 712.5 C 215.8 494.5, 135.8 328.8, 201.3 136.3" stroke="#e8e2d6" stroke-width="1.4" fill="none" opacity="0.85"/><path d="M 145.9 574.3 q 13.8 -20.4 52.4 -7" stroke="#e8e2d6" stroke-width="1" fill="none" opacity="0.5"/><path d="M 111 363.9 q -16.2 -21.7 -34.2 -9.8" stroke="#e8e2d6" stroke-width="1" fill="none" opacity="0.6"/><path d="M 142.6 382.8 q -23.9 -13.3 -43.9 -7.9" stroke="#e8e2d6" stroke-width="1" fill="none" opacity="0.7"/><path d="M 181.4 94.2 q -14 -10.4 -61.6 -7.4" stroke="#e8e2d6" stroke-width="1" fill="none" opacity="0.7"/><path d="M 136.3 360.1 q 33.4 -19.4 60.1 -12.4" stroke="#e8e2d6" stroke-width="1" fill="none" opacity="0.6"/><path d="M 178.9 172.1 q -37.3 -10.6 -36.6 -11.5" stroke="#e8e2d6" stroke-width="1" fill="none" opacity="0.4"/><path d="M 152.6 423.3 q 14 -19.5 54.2 -4.6" stroke="#e8e2d6" stroke-width="1" fill="none" opacity="0.7"/><circle cx="308.5" cy="349.6" r="10.5" fill="none" stroke="#c0392b" stroke-width="1.6" opacity="0.9"/><circle cx="70.6" cy="138.5" r="1" fill="#e8e2d6" opacity="0.3"/><circle cx="382.7" cy="625.1" r="0.9" fill="#e8e2d6" opacity="0.3"/><circle cx="523.7" cy="405.7" r="0.7" fill="#e8e2d6" opacity="0.2"/><circle cx="436.9" cy="237.4" r="1.4" fill="#e8e2d6" opacity="0.3"/><circle cx="193.7" cy="651.1" r="1.4" fill="#e8e2d6" opacity="0.3"/><circle cx="67.3" cy="350.3" r="1" fill="#e8e2d6" opacity="0.2"/><circle cx="474.8" cy="717.7" r="1.6" fill="#e8e2d6" opacity="0.3"/><circle cx="534.2" cy="239.9" r="0.7" fill="#e8e2d6" opacity="0.3"/><circle cx="230.6" cy="65.1" r="1.5" fill="#e8e2d6" opacity="0.2"/><circle cx="438.4" cy="166.8" r="0.9" fill="#e8e2d6" opacity="0.2"/><circle cx="339.1" cy="260.8" r="1.8" fill="#e8e2d6" opacity="0.2"/><circle cx="256.1" cy="470.6" r="1.3" fill="#e8e2d6" opacity="0.2"/><circle cx="352.9" cy="203" r="1.2" fill="#e8e2d6" opacity="0.3"/><circle cx="83.8" cy="132.3" r="0.9" fill="#e8e2d6" opacity="0.3"/><circle cx="554.7" cy="525.8" r="1.6" fill="#e8e2d6" opacity="0.3"/><circle cx="426.3" cy="617.2" r="0.9" fill="#e8e2d6" opacity="0.2"/><circle cx="593.8" cy="556.3" r="1" fill="#e8e2d6" opacity="0.2"/><circle cx="39.7" cy="550.6" r="1.4" fill="#e8e2d6" opacity="0.2"/><circle cx="134.4" cy="379.9" r="0.9" fill="#e8e2d6" opacity="0.3"/><circle cx="187" cy="77.7" r="1.7" fill="#e8e2d6" opacity="0.1"/><circle cx="39.3" cy="640.3" r="1.4" fill="#e8e2d6" opacity="0.2"/><circle cx="316" cy="279.1" r="1" fill="#e8e2d6" opacity="0.2"/><circle cx="272.2" cy="700" r="0.7" fill="#e8e2d6" opacity="0.2"/><circle cx="387.1" cy="64" r="1.1" fill="#e8e2d6" opacity="0.2"/><circle cx="38.4" cy="684.5" r="0.7" fill="#e8e2d6" opacity="0.3"/><circle cx="537.5" cy="241.8" r="0.8" fill="#e8e2d6" opacity="0.2"/></svg>