<svg xmlns="http://www.w3.org/2000/svg" viewBox="0 0 600 600" width="600" height="600"><rect width="600" height="600" fill="#0e0d0b"/><rect x="14" y="14" width="572" height="572" fill="none" stroke="#e8e2d6" stroke-width="0.6" opacity="0.14"/><path d="M 297.9 570 C 238 401.5, 297.8 275, 279.9 143.6" stroke="#e8e2d6" stroke-width="1.4" fill="none" opacity="0.85"/><path d="M 225.5 90.2 q -14.6 -15.9 -62.7 -12.5" stroke="#e8e2d6" stroke-width="1" fill="none" opacity="0.6"/><path d="M 376.5 295.5 q -28.1 -12.7 -31.8 -4.8" stroke="#e8e2d6" stroke-width="1" fill="none" opacity="0.6"/><path d="M 266.3 416.7 q -28.5 -15.2 -39.7 -7.4" stroke="#e8e2d6" stroke-width="1" fill="none" opacity="0.5"/><path d="M 337.4 457.2 q 13.2 -18 35.2 -11" stroke="#e8e2d6" stroke-width="1" fill="none" opacity="0.6"/><path d="M 302.6 68.8 q -30.7 -14.1 -49.4 -12" stroke="#e8e2d6" stroke-width="1" fill="none" opacity="0.5"/><path d="M 249.9 67.2 q 34.5 -8.3 43 -6.6" stroke="#e8e2d6" stroke-width="1" fill="none" opacity="0.7"/><path d="M 235.6 471.5 q 13.8 -20.2 55.5 -5.8" stroke="#e8e2d6" stroke-width="1" fill="none" opacity="0.7"/><path d="M 470 570 C 467.5 390.7, 528 285.5, 476 139.6" stroke="#e8e2d6" stroke-width="1.4" fill="none" opacity="0.85"/><path d="M 480.9 190.9 q 31.2 -14.1 57.7 -4.9" stroke="#e8e2d6" stroke-width="1" fill="none" opacity="0.6"/><path d="M 470 95.4 q -17.1 -17.1 -53.7 -6.6" stroke="#e8e2d6" stroke-width="1" fill="none" opacity="0.4"/><path d="M 451.7 313.4 q 34.9 -18.5 35.5 -13.5" stroke="#e8e2d6" stroke-width="1" fill="none" opacity="0.4"/><path d="M 396.9 262.2 q -32 -11.8 -50 -8.2" stroke="#e8e2d6" stroke-width="1" fill="none" opacity="0.5"/><path d="M 411.3 449.4 q 37.1 -9.3 33.5 -8.9" stroke="#e8e2d6" stroke-width="1" fill="none" opacity="0.5"/><path d="M 515.4 295.3 q -16 -21.2 -42.8 -6.7" stroke="#e8e2d6" stroke-width="1" fill="none" opacity="0.4"/><path d="M 392.9 333.9 q -16.1 -22 -44.9 -6.2" stroke="#e8e2d6" stroke-width="1" fill="none" opacity="0.5"/><path d="M 147 570 C 46.5 447, 166 192.4, 54.4 97.4" stroke="#e8e2d6" stroke-width="1.4" fill="none" opacity="0.85"/><path d="M 127.7 162.2 q 25.7 -14 26 -8.8" stroke="#e8e2d6" stroke-width="1" fill="none" opacity="0.6"/><path d="M 157.5 429.6 q 13.3 -25.9 32.6 -12.3" stroke="#e8e2d6" stroke-width="1" fill="none" opacity="0.7"/><path d="M 182.1 144.2 q 33.8 -25.5 53.7 -4.4" stroke="#e8e2d6" stroke-width="1" fill="none" opacity="0.4"/><path d="M 149.9 115 q -31.5 -11.3 -44.7 -4.6" stroke="#e8e2d6" stroke-width="1" fill="none" opacity="0.5"/><path d="M 112.3 451.4 q -33.1 -22.3 -25.2 -13.7" stroke="#e8e2d6" stroke-width="1" fill="none" opacity="0.4"/><path d="M 218.1 364.4 q 28.3 -18.1 31.4 -11.9" stroke="#e8e2d6" stroke-width="1" fill="none" opacity="0.7"/><path d="M 93.7 346.6 q -25.2 -8.6 -36.4 -10.3" stroke="#e8e2d6" stroke-width="1" fill="none" opacity="0.7"/><path d="M 367.1 570 C 412.7 480.1, 485.7 271.3, 424 112.9" stroke="#e8e2d6" stroke-width="1.4" fill="none" opacity="0.85"/><path d="M 398.9 283.1 q 35.1 -20.4 45.4 -7.3" stroke="#e8e2d6" stroke-width="1" fill="none" opacity="0.5"/><path d="M 398.1 426.8 q 31.1 -21.4 60.4 -10" stroke="#e8e2d6" stroke-width="1" fill="none" opacity="0.7"/><path d="M 419.3 469.9 q 23.2 -10.6 52 -10.8" stroke="#e8e2d6" stroke-width="1" fill="none" opacity="0.7"/><path d="M 365.9 194.2 q -18.4 -20.3 -58.2 -8" stroke="#e8e2d6" stroke-width="1" fill="none" opacity="0.5"/><path d="M 371.9 470.8 q -34.8 -13.1 -28.2 -13.2" stroke="#e8e2d6" stroke-width="1" fill="none" opacity="0.5"/><path d="M 346.7 85.8 q -20.4 -15 -57.9 -9.5" stroke="#e8e2d6" stroke-width="1" fill="none" opacity="0.4"/><path d="M 325.4 233.8 q -22.9 -13.8 -43.9 -13.3" stroke="#e8e2d6" stroke-width="1" fill="none" opacity="0.4"/><circle cx="208.1" cy="201.1" r="8.5" fill="none" stroke="#c0392b" stroke-width="1.6" opacity="0.9"/><circle cx="99.1" cy="225.6" r="0.7" fill="#e8e2d6" opacity="0.2"/><circle cx="318.9" cy="428.9" r="1.4" fill="#e8e2d6" opacity="0.2"/><circle cx="399" cy="150.5" r="1.8" fill="#e8e2d6" opacity="0.2"/><circle cx="581.1" cy="160" r="0.8" fill="#e8e2d6" opacity="0.3"/><circle cx="229.8" cy="185.6" r="1.9" fill="#e8e2d6" opacity="0.3"/><circle cx="107.2" cy="516.7" r="1.8" fill="#e8e2d6" opacity="0.3"/><circle cx="344.4" cy="253.7" r="2" fill="#e8e2d6" opacity="0.2"/><circle cx="126.8" cy="87.2" r="1" fill="#e8e2d6" opacity="0.3"/><circle cx="173.4" cy="124" r="1.2" fill="#e8e2d6" opacity="0.2"/><circle cx="363" cy="351.6" r="1.2" fill="#e8e2d6" opacity="0.2"/><circle cx="434.8" cy="468" r="1.9" fill="#e8e2d6" opacity="0.2"/><circle cx="540.7" cy="72.3" r="1.3" fill="#e8e2d6" opacity="0.3"/><circle cx="312.4" cy="383.6" r="1" fill="#e8e2d6" opacity="0.3"/><circle cx="75.8" cy="337.1" r="0.9" fill="#e8e2d6" opacity="0.3"/><circle cx="47.8" cy="543.8" r="0.7" fill="#e8e2d6" opacity="0.2"/><circle cx="420.4" cy="236.3" r="1.2" fill="#e8e2d6" opacity="0.3"/><circle cx="75.1" cy="176.7" r="1.2" fill="#e8e2d6" opacity="0.2"/><circle cx="143.4" cy="61.2" r="1.1" fill="#e8e2d6" opacity="0.3"/><circle cx="514.6" cy="200" r="1.5" fill="#e8e2d6" opacity="0.2"/><circle cx="467.3" cy="581.6" r="1.7" fill="#e8e2d6" opacity="0.2"/><circle cx="450.6" cy="514.3" r="1.1" fill="#e8e2d6" opacity="0.2"/><circle cx="406" cy="44.9" r="0.7" fill="#e8e2d6" opacity="0.2"/><circle cx="438" cy="590.6" r="1.8" fill="#e8e2d6" opacity="0.3"/><circle cx="178.7" cy="383" r="1" fill="#e8e2d6" opacity="0.2"/><circle cx="172.2" cy="147.2" r="0.9" fill="#e8e2d6" opacity="0.3"/><circle cx="360.1" cy="41.7" r="1.4" fill="#e8e2d6" opacity="0.2"/></svg>