<svg xmlns="http://www.w3.org/2000/svg" viewBox="0 0 600 760" width="600" height="760"><rect width="600" height="760" fill="#0e0d0b"/><rect x="10" y="10" width="580" height="740" fill="none" stroke="#e8e2d6" stroke-width="0.5" opacity="0.12"/><path d="M 360,710 C 240,590 350,270 260,110" fill="none" stroke="#e8e2d6" stroke-width="1.6" stroke-linecap="round" stroke-linejoin="round" opacity="0.9"/><path d="M 345.02,692.43 Q 320.42,691.84 297.18,717.27 Q 331.35,712.89 345.02,692.43 Z" fill="none" stroke="#e8e2d6" stroke-width="1.1" opacity="0.85"/><path d="M 345.02,692.43 L 297.18,717.27" fill="none" stroke="#e8e2d6" stroke-width="0.7" stroke-linecap="round" stroke-linejoin="round" opacity="0.5"/><path d="M 345.02,692.43 Q 368.7,685.72 383.39,654.56 Q 352.04,668.84 345.02,692.43 Z" fill="none" stroke="#e8e2d6" stroke-width="1.1" opacity="0.85"/><path d="M 345.02,692.43 L 383.39,654.56" fill="none" stroke="#e8e2d6" stroke-width="0.7" stroke-linecap="round" stroke-linejoin="round" opacity="0.5"/><path d="M 332.65,672.58 Q 309.31,668.74 283.79,689.85 Q 316.91,690.24 332.65,672.58 Z" fill="none" stroke="#e8e2d6" stroke-width="1.1" opacity="0.85"/><path d="M 332.65,672.58 L 283.79,689.85" fill="none" stroke="#e8e2d6" stroke-width="0.7" stroke-linecap="round" stroke-linejoin="round" opacity="0.5"/><path d="M 332.65,672.58 Q 356.09,669.36 374.23,641.66 Q 342.48,651.07 332.65,672.58 Z" fill="none" stroke="#e8e2d6" stroke-width="1.1" opacity="0.85"/><path d="M 332.65,672.58 L 374.23,641.66" fill="none" stroke="#e8e2d6" stroke-width="0.7" stroke-linecap="round" stroke-linejoin="round" opacity="0.5"/><path d="M 322.65,650.66 Q 300.84,644.35 274.13,661.56 Q 305.64,665.7 322.65,650.66 Z" fill="none" stroke="#e8e2d6" stroke-width="1.1" opacity="0.85"/><path d="M 322.65,650.66 L 274.13,661.56" fill="none" stroke="#e8e2d6" stroke-width="0.7" stroke-linecap="round" stroke-linejoin="round" opacity="0.5"/><path d="M 322.65,650.66 Q 345.35,650.26 365.78,625.92 Q 334.46,631.28 322.65,650.66 Z" fill="none" stroke="#e8e2d6" stroke-width="1.1" opacity="0.85"/><path d="M 322.65,650.66 L 365.78,625.92" fill="none" stroke="#e8e2d6" stroke-width="0.7" stroke-linecap="round" stroke-linejoin="round" opacity="0.5"/><path d="M 314.77,626.87 Q 294.58,618.81 267.49,632.71 Q 297.14,639.61 314.77,626.87 Z" fill="none" stroke="#e8e2d6" stroke-width="1.1" opacity="0.85"/><path d="M 314.77,626.87 L 267.49,632.71" fill="none" stroke="#e8e2d6" stroke-width="0.7" stroke-linecap="round" stroke-linejoin="round" opacity="0.5"/><path d="M 314.77,626.87 Q 336.45,628.61 358.21,607.33 Q 327.85,609.5 314.77,626.87 Z" fill="none" stroke="#e8e2d6" stroke-width="1.1" opacity="0.85"/><path d="M 314.77,626.87 L 358.21,607.33" fill="none" stroke="#e8e2d6" stroke-width="0.7" stroke-linecap="round" stroke-linejoin="round" opacity="0.5"/><path d="M 308.77,601.42 Q 290.14,592.2 263.27,603.39 Q 291.01,612.22 308.77,601.42 Z" fill="none" stroke="#e8e2d6" stroke-width="1.1" opacity="0.85"/><path d="M 308.77,601.42 L 263.27,603.39" fill="none" stroke="#e8e2d6" stroke-width="0.7" stroke-linecap="round" stroke-linejoin="round" opacity="0.5"/><path d="M 308.77,601.42 Q 329.3,604.72 351.66,586.08 Q 322.56,585.85 308.77,601.42 Z" fill="none" stroke="#e8e2d6" stroke-width="1.1" opacity="0.85"/><path d="M 308.77,601.42 L 351.66,586.08" fill="none" stroke="#e8e2d6" stroke-width="0.7" stroke-linecap="round" stroke-linejoin="round" opacity="0.5"/><path d="M 304.42,574.49 Q 287.23,564.59 260.97,573.64 Q 286.85,583.71 304.42,574.49 Z" fill="none" stroke="#e8e2d6" stroke-width="1.1" opacity="0.85"/><path d="M 304.42,574.49 L 260.97,573.64" fill="none" stroke="#e8e2d6" stroke-width="0.7" stroke-linecap="round" stroke-linejoin="round" opacity="0.5"/><path d="M 304.42,574.49 Q 323.77,578.87 346.18,562.47 Q 318.48,560.5 304.42,574.49 Z" fill="none" stroke="#e8e2d6" stroke-width="1.1" opacity="0.85"/><path d="M 304.42,574.49 L 346.18,562.47" fill="none" stroke="#e8e2d6" stroke-width="0.7" stroke-linecap="round" stroke-linejoin="round" opacity="0.5"/><path d="M 301.46,546.31 Q 285.58,536.09 260.19,543.47 Q 284.33,554.25 301.46,546.31 Z" fill="none" stroke="#e8e2d6" stroke-width="1.1" opacity="0.85"/><path d="M 301.46,546.31 L 260.19,543.47" fill="none" stroke="#e8e2d6" stroke-width="0.7" stroke-linecap="round" stroke-linejoin="round" opacity="0.5"/><path d="M 301.46,546.31 Q 319.65,551.37 341.72,536.83 Q 315.48,533.66 301.46,546.31 Z" fill="none" stroke="#e8e2d6" stroke-width="1.1" opacity="0.85"/><path d="M 301.46,546.31 L 341.72,536.83" fill="none" stroke="#e8e2d6" stroke-width="0.7" stroke-linecap="round" stroke-linejoin="round" opacity="0.5"/><path d="M 299.65,517.06 Q 284.95,506.81 260.6,512.91 Q 283.12,523.99 299.65,517.06 Z" fill="none" stroke="#e8e2d6" stroke-width="1.1" opacity="0.85"/><path d="M 299.65,517.06 L 260.6,512.91" fill="none" stroke="#e8e2d6" stroke-width="0.7" stroke-linecap="round" stroke-linejoin="round" opacity="0.5"/><path d="M 299.65,517.06 Q 316.73,522.51 338.19,509.49 Q 313.4,505.56 299.65,517.06 Z" fill="none" stroke="#e8e2d6" stroke-width="1.1" opacity="0.85"/><path d="M 299.65,517.06 L 338.19,509.49" fill="none" stroke="#e8e2d6" stroke-width="0.7" stroke-linecap="round" stroke-linejoin="round" opacity="0.5"/><path d="M 298.76,486.96 Q 285.11,476.88 261.91,482.03 Q 282.94,493.1 298.76,486.96 Z" fill="none" stroke="#e8e2d6" stroke-width="1.1" opacity="0.85"/><path d="M 298.76,486.96 L 261.91,482.03" fill="none" stroke="#e8e2d6" stroke-width="0.7" stroke-linecap="round" stroke-linejoin="round" opacity="0.5"/><path d="M 298.76,486.96 Q 314.79,492.56 335.43,480.78 Q 312.07,476.42 298.76,486.96 Z" fill="none" stroke="#e8e2d6" stroke-width="1.1" opacity="0.85"/><path d="M 298.76,486.96 L 335.43,480.78" fill="none" stroke="#e8e2d6" stroke-width="0.7" stroke-linecap="round" stroke-linejoin="round" opacity="0.5"/><path d="M 298.54,456.21 Q 285.83,446.46 263.85,450.92 Q 283.5,461.73 298.54,456.21 Z" fill="none" stroke="#e8e2d6" stroke-width="1.1" opacity="0.85"/><path d="M 298.54,456.21 L 263.85,450.92" fill="none" stroke="#e8e2d6" stroke-width="0.7" stroke-linecap="round" stroke-linejoin="round" opacity="0.5"/><path d="M 298.54,456.21 Q 313.57,461.76 333.25,451 Q 311.28,446.49 298.54,456.21 Z" fill="none" stroke="#e8e2d6" stroke-width="1.1" opacity="0.85"/><path d="M 298.54,456.21 L 333.25,451" fill="none" stroke="#e8e2d6" stroke-width="0.7" stroke-linecap="round" stroke-linejoin="round" opacity="0.5"/><path d="M 298.75,425 Q 286.88,415.72 266.18,419.71 Q 284.56,430.05 298.75,425 Z" fill="none" stroke="#e8e2d6" stroke-width="1.1" opacity="0.85"/><path d="M 298.75,425 L 266.18,419.71" fill="none" stroke="#e8e2d6" stroke-width="0.7" stroke-linecap="round" stroke-linejoin="round" opacity="0.5"/><path d="M 298.75,425 Q 312.83,430.36 331.43,420.42 Q 310.82,415.98 298.75,425 Z" fill="none" stroke="#e8e2d6" stroke-width="1.1" opacity="0.85"/><path d="M 298.75,425 L 331.43,420.42" fill="none" stroke="#e8e2d6" stroke-width="0.7" stroke-linecap="round" stroke-linejoin="round" opacity="0.5"/><path d="M 299.14,393.55 Q 288.05,384.83 268.64,388.53 Q 285.84,398.25 299.14,393.55 Z" fill="none" stroke="#e8e2d6" stroke-width="1.1" opacity="0.85"/><path d="M 299.14,393.55 L 268.64,388.53" fill="none" stroke="#e8e2d6" stroke-width="0.7" stroke-linecap="round" stroke-linejoin="round" opacity="0.5"/><path d="M 299.14,393.55 Q 312.32,398.59 329.76,389.32 Q 310.46,385.12 299.14,393.55 Z" fill="none" stroke="#e8e2d6" stroke-width="1.1" opacity="0.85"/><path d="M 299.14,393.55 L 329.76,389.32" fill="none" stroke="#e8e2d6" stroke-width="0.7" stroke-linecap="round" stroke-linejoin="round" opacity="0.5"/><path d="M 299.48,362.05 Q 289.09,353.98 271.02,357.53 Q 287.1,366.5 299.48,362.05 Z" fill="none" stroke="#e8e2d6" stroke-width="1.1" opacity="0.85"/><path d="M 299.48,362.05 L 271.02,357.53" fill="none" stroke="#e8e2d6" stroke-width="0.7" stroke-linecap="round" stroke-linejoin="round" opacity="0.5"/><path d="M 299.48,362.05 Q 311.79,366.68 328.01,357.95 Q 309.99,354.13 299.48,362.05 Z" fill="none" stroke="#e8e2d6" stroke-width="1.1" opacity="0.85"/><path d="M 299.48,362.05 L 328.01,357.95" fill="none" stroke="#e8e2d6" stroke-width="0.7" stroke-linecap="round" stroke-linejoin="round" opacity="0.5"/><path d="M 299.52,330.71 Q 289.78,323.35 273.07,326.87 Q 288.1,334.99 299.52,330.71 Z" fill="none" stroke="#e8e2d6" stroke-width="1.1" opacity="0.85"/><path d="M 299.52,330.71 L 273.07,326.87" fill="none" stroke="#e8e2d6" stroke-width="0.7" stroke-linecap="round" stroke-linejoin="round" opacity="0.5"/><path d="M 299.52,330.71 Q 310.99,334.85 325.92,326.55 Q 309.17,323.24 299.52,330.71 Z" fill="none" stroke="#e8e2d6" stroke-width="1.1" opacity="0.85"/><path d="M 299.52,330.71 L 325.92,326.55" fill="none" stroke="#e8e2d6" stroke-width="0.7" stroke-linecap="round" stroke-linejoin="round" opacity="0.5"/><path d="M 299.02,299.73 Q 289.9,293.14 274.56,296.72 Q 288.57,303.9 299.02,299.73 Z" fill="none" stroke="#e8e2d6" stroke-width="1.1" opacity="0.85"/><path d="M 299.02,299.73 L 274.56,296.72" fill="none" stroke="#e8e2d6" stroke-width="0.7" stroke-linecap="round" stroke-linejoin="round" opacity="0.5"/><path d="M 299.02,299.73 Q 309.67,303.32 323.26,295.37 Q 307.76,292.65 299.02,299.73 Z" fill="none" stroke="#e8e2d6" stroke-width="1.1" opacity="0.85"/><path d="M 299.02,299.73 L 323.26,295.37" fill="none" stroke="#e8e2d6" stroke-width="0.7" stroke-linecap="round" stroke-linejoin="round" opacity="0.5"/><path d="M 297.73,269.31 Q 289.2,263.54 275.28,267.25 Q 288.3,273.42 297.73,269.31 Z" fill="none" stroke="#e8e2d6" stroke-width="1.1" opacity="0.85"/><path d="M 297.73,269.31 L 275.28,267.25" fill="none" stroke="#e8e2d6" stroke-width="0.7" stroke-linecap="round" stroke-linejoin="round" opacity="0.5"/><path d="M 297.73,269.31 Q 307.58,272.3 319.79,264.64 Q 305.53,262.59 297.73,269.31 Z" fill="none" stroke="#e8e2d6" stroke-width="1.1" opacity="0.85"/><path d="M 297.73,269.31 L 319.79,264.64" fill="none" stroke="#e8e2d6" stroke-width="0.7" stroke-linecap="round" stroke-linejoin="round" opacity="0.5"/><path d="M 295.42,239.66 Q 287.48,234.75 274.99,238.62 Q 287.02,243.74 295.42,239.66 Z" fill="none" stroke="#e8e2d6" stroke-width="1.1" opacity="0.85"/><path d="M 295.42,239.66 L 274.99,238.62" fill="none" stroke="#e8e2d6" stroke-width="0.7" stroke-linecap="round" stroke-linejoin="round" opacity="0.5"/><path d="M 295.42,239.66 Q 304.46,242 315.24,234.61 Q 302.24,233.28 295.42,239.66 Z" fill="none" stroke="#e8e2d6" stroke-width="1.1" opacity="0.85"/><path d="M 295.42,239.66 L 315.24,234.61" fill="none" stroke="#e8e2d6" stroke-width="0.7" stroke-linecap="round" stroke-linejoin="round" opacity="0.5"/><path d="M 291.84,210.98 Q 284.49,206.95 273.48,211 Q 284.5,215.03 291.84,210.98 Z" fill="none" stroke="#e8e2d6" stroke-width="1.1" opacity="0.85"/><path d="M 291.84,210.98 L 273.48,211" fill="none" stroke="#e8e2d6" stroke-width="0.7" stroke-linecap="round" stroke-linejoin="round" opacity="0.5"/><path d="M 291.84,210.98 Q 300.05,212.65 309.38,205.52 Q 297.66,204.94 291.84,210.98 Z" fill="none" stroke="#e8e2d6" stroke-width="1.1" opacity="0.85"/><path d="M 291.84,210.98 L 309.38,205.52" fill="none" stroke="#e8e2d6" stroke-width="0.7" stroke-linecap="round" stroke-linejoin="round" opacity="0.5"/><path d="M 286.75,183.47 Q 280.02,180.33 270.52,184.56 Q 280.5,187.48 286.75,183.47 Z" fill="none" stroke="#e8e2d6" stroke-width="1.1" opacity="0.85"/><path d="M 286.75,183.47 L 270.52,184.56" fill="none" stroke="#e8e2d6" stroke-width="0.7" stroke-linecap="round" stroke-linejoin="round" opacity="0.5"/><path d="M 286.75,183.47 Q 294.11,184.47 301.94,177.63 Q 291.54,177.79 286.75,183.47 Z" fill="none" stroke="#e8e2d6" stroke-width="1.1" opacity="0.85"/><path d="M 286.75,183.47 L 301.94,177.63" fill="none" stroke="#e8e2d6" stroke-width="0.7" stroke-linecap="round" stroke-linejoin="round" opacity="0.5"/><path d="M 279.91,157.33 Q 273.84,155.08 265.88,159.43 Q 274.76,161.26 279.91,157.33 Z" fill="none" stroke="#e8e2d6" stroke-width="1.1" opacity="0.85"/><path d="M 279.91,157.33 L 265.88,159.43" fill="none" stroke="#e8e2d6" stroke-width="0.7" stroke-linecap="round" stroke-linejoin="round" opacity="0.5"/><path d="M 279.91,157.33 Q 286.37,157.69 292.69,151.19 Q 283.67,152.06 279.91,157.33 Z" fill="none" stroke="#e8e2d6" stroke-width="1.1" opacity="0.85"/><path d="M 279.91,157.33 L 292.69,151.19" fill="none" stroke="#e8e2d6" stroke-width="0.7" stroke-linecap="round" stroke-linejoin="round" opacity="0.5"/><path d="M 271.07,132.78 Q 265.73,131.38 259.35,135.72 Q 267.03,136.53 271.07,132.78 Z" fill="none" stroke="#e8e2d6" stroke-width="1.1" opacity="0.85"/><path d="M 271.07,132.78 L 259.35,135.72" fill="none" stroke="#e8e2d6" stroke-width="0.7" stroke-linecap="round" stroke-linejoin="round" opacity="0.5"/><path d="M 271.07,132.78 Q 276.59,132.54 281.41,126.5 Q 273.82,127.99 271.07,132.78 Z" fill="none" stroke="#e8e2d6" stroke-width="1.1" opacity="0.85"/><path d="M 271.07,132.78 L 281.41,126.5" fill="none" stroke="#e8e2d6" stroke-width="0.7" stroke-linecap="round" stroke-linejoin="round" opacity="0.5"/></svg>