<svg xmlns="http://www.w3.org/2000/svg" viewBox="0 0 600 760" width="600" height="760"><rect width="600" height="760" fill="#0e0d0b"/><rect x="10" y="10" width="580" height="740" fill="none" stroke="#e8e2d6" stroke-width="0.5" opacity="0.12"/><path d="M 300,705 C 282,585 314,370 300,294" fill="none" stroke="#e8e2d6" stroke-width="1.6" stroke-linecap="round" stroke-linejoin="round" opacity="0.9"/><path d="M 300,250 L 278.52,339.46" fill="none" stroke="#e8e2d6" stroke-width="0.7" stroke-linecap="round" stroke-linejoin="round" opacity="0.55"/><circle cx="278.52" cy="339.46" r="1.6" fill="#e8e2d6" opacity="0.8"/><path d="M 300,250 L 259.33,343.14" fill="none" stroke="#e8e2d6" stroke-width="0.7" stroke-linecap="round" stroke-linejoin="round" opacity="0.55"/><circle cx="259.33" cy="343.14" r="1.6" fill="#e8e2d6" opacity="0.8"/><path d="M 300,250 L 246.12,330.85" fill="none" stroke="#e8e2d6" stroke-width="0.7" stroke-linecap="round" stroke-linejoin="round" opacity="0.55"/><circle cx="246.12" cy="330.85" r="1.6" fill="#e8e2d6" opacity="0.8"/><path d="M 300,250 L 241.11,311.47" fill="none" stroke="#e8e2d6" stroke-width="0.7" stroke-linecap="round" stroke-linejoin="round" opacity="0.55"/><circle cx="241.11" cy="311.47" r="1.6" fill="#e8e2d6" opacity="0.8"/><path d="M 300,250 L 232.83,299.04" fill="none" stroke="#e8e2d6" stroke-width="0.7" stroke-linecap="round" stroke-linejoin="round" opacity="0.55"/><circle cx="232.83" cy="299.04" r="1.6" fill="#e8e2d6" opacity="0.8"/><path d="M 300,250 L 215.41,291.34" fill="none" stroke="#e8e2d6" stroke-width="0.7" stroke-linecap="round" stroke-linejoin="round" opacity="0.55"/><circle cx="215.41" cy="291.34" r="1.6" fill="#e8e2d6" opacity="0.8"/><path d="M 300,250 L 201.94,278.03" fill="none" stroke="#e8e2d6" stroke-width="0.7" stroke-linecap="round" stroke-linejoin="round" opacity="0.55"/><circle cx="201.94" cy="278.03" r="1.6" fill="#e8e2d6" opacity="0.8"/><path d="M 300,250 L 205.31,259.72" fill="none" stroke="#e8e2d6" stroke-width="0.7" stroke-linecap="round" stroke-linejoin="round" opacity="0.55"/><circle cx="205.31" cy="259.72" r="1.6" fill="#e8e2d6" opacity="0.8"/><path d="M 300,250 L 216.51,243.83" fill="none" stroke="#e8e2d6" stroke-width="0.7" stroke-linecap="round" stroke-linejoin="round" opacity="0.55"/><circle cx="216.51" cy="243.83" r="1.6" fill="#e8e2d6" opacity="0.8"/><path d="M 300,250 L 218.24,229.13" fill="none" stroke="#e8e2d6" stroke-width="0.7" stroke-linecap="round" stroke-linejoin="round" opacity="0.55"/><circle cx="218.24" cy="229.13" r="1.6" fill="#e8e2d6" opacity="0.8"/><path d="M 300,250 L 212.4,210.24" fill="none" stroke="#e8e2d6" stroke-width="0.7" stroke-linecap="round" stroke-linejoin="round" opacity="0.55"/><circle cx="212.4" cy="210.24" r="1.6" fill="#e8e2d6" opacity="0.8"/><path d="M 300,250 L 216.05,192.3" fill="none" stroke="#e8e2d6" stroke-width="0.7" stroke-linecap="round" stroke-linejoin="round" opacity="0.55"/><circle cx="216.05" cy="192.3" r="1.6" fill="#e8e2d6" opacity="0.8"/><path d="M 300,250 L 233.72,184.66" fill="none" stroke="#e8e2d6" stroke-width="0.7" stroke-linecap="round" stroke-linejoin="round" opacity="0.55"/><circle cx="233.72" cy="184.66" r="1.6" fill="#e8e2d6" opacity="0.8"/><path d="M 300,250 L 252.18,182.51" fill="none" stroke="#e8e2d6" stroke-width="0.7" stroke-linecap="round" stroke-linejoin="round" opacity="0.55"/><circle cx="252.18" cy="182.51" r="1.6" fill="#e8e2d6" opacity="0.8"/><path d="M 300,250 L 263.37,172.25" fill="none" stroke="#e8e2d6" stroke-width="0.7" stroke-linecap="round" stroke-linejoin="round" opacity="0.55"/><circle cx="263.37" cy="172.25" r="1.6" fill="#e8e2d6" opacity="0.8"/><path d="M 300,250 L 274.4,155.35" fill="none" stroke="#e8e2d6" stroke-width="0.7" stroke-linecap="round" stroke-linejoin="round" opacity="0.55"/><circle cx="274.4" cy="155.35" r="1.6" fill="#e8e2d6" opacity="0.8"/><path d="M 300,250 L 291.09,149.1" fill="none" stroke="#e8e2d6" stroke-width="0.7" stroke-linecap="round" stroke-linejoin="round" opacity="0.55"/><circle cx="291.09" cy="149.1" r="1.6" fill="#e8e2d6" opacity="0.8"/><path d="M 300,250 L 308,159.44" fill="none" stroke="#e8e2d6" stroke-width="0.7" stroke-linecap="round" stroke-linejoin="round" opacity="0.55"/><circle cx="308" cy="159.44" r="1.6" fill="#e8e2d6" opacity="0.8"/><path d="M 300,250 L 321.45,170.72" fill="none" stroke="#e8e2d6" stroke-width="0.7" stroke-linecap="round" stroke-linejoin="round" opacity="0.55"/><circle cx="321.45" cy="170.72" r="1.6" fill="#e8e2d6" opacity="0.8"/><path d="M 300,250 L 337.42,170.57" fill="none" stroke="#e8e2d6" stroke-width="0.7" stroke-linecap="round" stroke-linejoin="round" opacity="0.55"/><circle cx="337.42" cy="170.57" r="1.6" fill="#e8e2d6" opacity="0.8"/><path d="M 300,250 L 357.6,168.71" fill="none" stroke="#e8e2d6" stroke-width="0.7" stroke-linecap="round" stroke-linejoin="round" opacity="0.55"/><circle cx="357.6" cy="168.71" r="1.6" fill="#e8e2d6" opacity="0.8"/><path d="M 300,250 L 371.41,179.6" fill="none" stroke="#e8e2d6" stroke-width="0.7" stroke-linecap="round" stroke-linejoin="round" opacity="0.55"/><circle cx="371.41" cy="179.6" r="1.6" fill="#e8e2d6" opacity="0.8"/><path d="M 300,250 L 373.18,199.7" fill="none" stroke="#e8e2d6" stroke-width="0.7" stroke-linecap="round" stroke-linejoin="round" opacity="0.55"/><circle cx="373.18" cy="199.7" r="1.6" fill="#e8e2d6" opacity="0.8"/><path d="M 300,250 L 374.68,216.11" fill="none" stroke="#e8e2d6" stroke-width="0.7" stroke-linecap="round" stroke-linejoin="round" opacity="0.55"/><circle cx="374.68" cy="216.11" r="1.6" fill="#e8e2d6" opacity="0.8"/><path d="M 300,250 L 387.07,227.78" fill="none" stroke="#e8e2d6" stroke-width="0.7" stroke-linecap="round" stroke-linejoin="round" opacity="0.55"/><circle cx="387.07" cy="227.78" r="1.6" fill="#e8e2d6" opacity="0.8"/><path d="M 300,250 L 400.56,242.57" fill="none" stroke="#e8e2d6" stroke-width="0.7" stroke-linecap="round" stroke-linejoin="round" opacity="0.55"/><circle cx="400.56" cy="242.57" r="1.6" fill="#e8e2d6" opacity="0.8"/><path d="M 300,250 L 398.35,260.1" fill="none" stroke="#e8e2d6" stroke-width="0.7" stroke-linecap="round" stroke-linejoin="round" opacity="0.55"/><circle cx="398.35" cy="260.1" r="1.6" fill="#e8e2d6" opacity="0.8"/><path d="M 300,250 L 383.49,273.87" fill="none" stroke="#e8e2d6" stroke-width="0.7" stroke-linecap="round" stroke-linejoin="round" opacity="0.55"/><circle cx="383.49" cy="273.87" r="1.6" fill="#e8e2d6" opacity="0.8"/><path d="M 300,250 L 374,286.17" fill="none" stroke="#e8e2d6" stroke-width="0.7" stroke-linecap="round" stroke-linejoin="round" opacity="0.55"/><circle cx="374" cy="286.17" r="1.6" fill="#e8e2d6" opacity="0.8"/><path d="M 300,250 L 374.31,304.26" fill="none" stroke="#e8e2d6" stroke-width="0.7" stroke-linecap="round" stroke-linejoin="round" opacity="0.55"/><circle cx="374.31" cy="304.26" r="1.6" fill="#e8e2d6" opacity="0.8"/><path d="M 300,250 L 370.31,323.39" fill="none" stroke="#e8e2d6" stroke-width="0.7" stroke-linecap="round" stroke-linejoin="round" opacity="0.55"/><circle cx="370.31" cy="323.39" r="1.6" fill="#e8e2d6" opacity="0.8"/><path d="M 300,250 L 353.88,330.84" fill="none" stroke="#e8e2d6" stroke-width="0.7" stroke-linecap="round" stroke-linejoin="round" opacity="0.55"/><circle cx="353.88" cy="330.84" r="1.6" fill="#e8e2d6" opacity="0.8"/><path d="M 300,250 L 334.06,328" fill="none" stroke="#e8e2d6" stroke-width="0.7" stroke-linecap="round" stroke-linejoin="round" opacity="0.55"/><circle cx="334.06" cy="328" r="1.6" fill="#e8e2d6" opacity="0.8"/><path d="M 300,250 L 319.42,330.87" fill="none" stroke="#e8e2d6" stroke-width="0.7" stroke-linecap="round" stroke-linejoin="round" opacity="0.55"/><circle cx="319.42" cy="330.87" r="1.6" fill="#e8e2d6" opacity="0.8"/><circle cx="300" cy="250" r="4" fill="#e8e2d6" opacity="0.95"/><path d="M 300,555 Q 331.76,554.74 361.43,521.44 Q 317.38,528.41 300,555 Z" fill="none" stroke="#e8e2d6" stroke-width="1.1" opacity="0.85"/><path d="M 300,555 L 361.43,521.44" fill="none" stroke="#e8e2d6" stroke-width="0.7" stroke-linecap="round" stroke-linejoin="round" opacity="0.5"/><path d="M 300,595 Q 284.95,570.82 245.59,565.28 Q 271.52,595.4 300,595 Z" fill="none" stroke="#e8e2d6" stroke-width="1.1" opacity="0.85"/><path d="M 300,595 L 245.59,565.28" fill="none" stroke="#e8e2d6" stroke-width="0.7" stroke-linecap="round" stroke-linejoin="round" opacity="0.5"/></svg>