<svg xmlns="http://www.w3.org/2000/svg" viewBox="0 0 600 800" width="600" height="800"><rect width="600" height="800" fill="#0e0d0b"/><rect x="14" y="14" width="572" height="772" fill="none" stroke="#e8e2d6" stroke-width="0.6" opacity="0.14"/><path d="M 123.5 760 C 138.9 592.3, 125.2 436, 196.1 226" stroke="#e8e2d6" stroke-width="1.4" fill="none" opacity="0.85"/><path d="M 168.2 473.8 q -24.4 -24.5 -58.2 -13.9" stroke="#e8e2d6" stroke-width="1" fill="none" opacity="0.6"/><path d="M 44.3 192.4 q -16.2 -15 -56.2 -13" stroke="#e8e2d6" stroke-width="1" fill="none" opacity="0.4"/><path d="M 203.9 260.7 q -34.2 -12.2 -48.5 -7.6" stroke="#e8e2d6" stroke-width="1" fill="none" opacity="0.6"/><path d="M 122.5 575.9 q 19.4 -10.1 32.5 -11.8" stroke="#e8e2d6" stroke-width="1" fill="none" opacity="0.6"/><path d="M 199.9 281.3 q -31 -12.5 -24.2 -12.9" stroke="#e8e2d6" stroke-width="1" fill="none" opacity="0.7"/><path d="M 172.4 118.8 q 33.6 -14.1 30.1 -8.6" stroke="#e8e2d6" stroke-width="1" fill="none" opacity="0.6"/><path d="M 171.6 121.1 q 12.2 -17.5 40.8 -11.7" stroke="#e8e2d6" stroke-width="1" fill="none" opacity="0.4"/><path d="M 147.8 760 C 35.3 654.6, 121.9 451.4, 57.7 183.1" stroke="#e8e2d6" stroke-width="1.4" fill="none" opacity="0.85"/><path d="M 164.5 525.6 q -32 -9.4 -32.6 -12.5" stroke="#e8e2d6" stroke-width="1" fill="none" opacity="0.5"/><path d="M 149.5 129.9 q -26.6 -21 -54.2 -4.3" stroke="#e8e2d6" stroke-width="1" fill="none" opacity="0.6"/><path d="M 198.4 639.1 q -28.9 -15.5 -63.9 -6.6" stroke="#e8e2d6" stroke-width="1" fill="none" opacity="0.7"/><path d="M 66.9 554.7 q -37.2 -17.1 -62.7 -9.7" stroke="#e8e2d6" stroke-width="1" fill="none" opacity="0.6"/><path d="M 100.9 630.7 q -26.8 -14.2 -56.5 -11.2" stroke="#e8e2d6" stroke-width="1" fill="none" opacity="0.6"/><path d="M 70.5 448.1 q 19.3 -25.2 54.7 -13.3" stroke="#e8e2d6" stroke-width="1" fill="none" opacity="0.7"/><path d="M 80.6 539.1 q -14.2 -10.2 -48.7 -7" stroke="#e8e2d6" stroke-width="1" fill="none" opacity="0.5"/><path d="M 445.5 760 C 344 513.5, 356.7 271.2, 340.9 123.5" stroke="#e8e2d6" stroke-width="1.4" fill="none" opacity="0.85"/><path d="M 415.1 195.6 q 21.1 -20.6 56.6 -10" stroke="#e8e2d6" stroke-width="1" fill="none" opacity="0.5"/><path d="M 412.9 232.7 q 27.3 -24.9 54.8 -9.9" stroke="#e8e2d6" stroke-width="1" fill="none" opacity="0.5"/><path d="M 468.6 99.1 q 27.6 -19.4 42.2 -4.6" stroke="#e8e2d6" stroke-width="1" fill="none" opacity="0.4"/><path d="M 455.7 508.1 q 33.3 -21.4 43.4 -11.1" stroke="#e8e2d6" stroke-width="1" fill="none" opacity="0.5"/><path d="M 463.9 548 q -20.3 -13 -37.2 -4.6" stroke="#e8e2d6" stroke-width="1" fill="none" opacity="0.7"/><path d="M 387.7 585.9 q 24.3 -17 42.2 -7.1" stroke="#e8e2d6" stroke-width="1" fill="none" opacity="0.7"/><path d="M 362.2 444.2 q -13.3 -20.5 -37.5 -8.2" stroke="#e8e2d6" stroke-width="1" fill="none" opacity="0.5"/><path d="M 479.4 760 C 518.6 547.7, 548.5 360.1, 559.7 230" stroke="#e8e2d6" stroke-width="1.4" fill="none" opacity="0.85"/><path d="M 455.6 434.6 q 12.3 -20.6 28.1 -4.2" stroke="#e8e2d6" stroke-width="1" fill="none" opacity="0.7"/><path d="M 451.6 521.2 q 24.8 -19.5 41.1 -8.4" stroke="#e8e2d6" stroke-width="1" fill="none" opacity="0.7"/><path d="M 482.8 510.1 q -35.5 -16.8 -31.1 -9.3" stroke="#e8e2d6" stroke-width="1" fill="none" opacity="0.6"/><path d="M 488.4 86.5 q 35.7 -16.3 53.5 -9.6" stroke="#e8e2d6" stroke-width="1" fill="none" opacity="0.7"/><path d="M 543 618.6 q -29 -22.8 -34.3 -10.8" stroke="#e8e2d6" stroke-width="1" fill="none" opacity="0.5"/><path d="M 404.8 414.6 q -25.7 -19 -36 -9" stroke="#e8e2d6" stroke-width="1" fill="none" opacity="0.4"/><path d="M 479 148.2 q -24 -16.3 -39.3 -10.8" stroke="#e8e2d6" stroke-width="1" fill="none" opacity="0.6"/><circle cx="221.1" cy="221.8" r="10.2" fill="none" stroke="#c0392b" stroke-width="1.6" opacity="0.9"/><circle cx="294.4" cy="360.3" r="0.8" fill="#e8e2d6" opacity="0.3"/><circle cx="238.8" cy="568.9" r="1.5" fill="#e8e2d6" opacity="0.3"/><circle cx="284.8" cy="622.8" r="0.8" fill="#e8e2d6" opacity="0.1"/><circle cx="326" cy="778.6" r="1.3" fill="#e8e2d6" opacity="0.2"/><circle cx="457.9" cy="33.2" r="1.9" fill="#e8e2d6" opacity="0.3"/><circle cx="387.9" cy="442" r="1.1" fill="#e8e2d6" opacity="0.2"/><circle cx="165.1" cy="574.1" r="1.8" fill="#e8e2d6" opacity="0.3"/><circle cx="584.3" cy="649.6" r="1.6" fill="#e8e2d6" opacity="0.3"/><circle cx="187.8" cy="515.5" r="0.7" fill="#e8e2d6" opacity="0.2"/><circle cx="260.4" cy="310.8" r="0.6" fill="#e8e2d6" opacity="0.2"/><circle cx="450.7" cy="191.8" r="1.4" fill="#e8e2d6" opacity="0.3"/><circle cx="4.8" cy="693.6" r="0.7" fill="#e8e2d6" opacity="0.3"/><circle cx="427.4" cy="604.8" r="1" fill="#e8e2d6" opacity="0.2"/><circle cx="297.7" cy="317" r="1.3" fill="#e8e2d6" opacity="0.3"/><circle cx="449.1" cy="631.8" r="0.8" fill="#e8e2d6" opacity="0.2"/><circle cx="412" cy="477.2" r="1.6" fill="#e8e2d6" opacity="0.3"/><circle cx="467.9" cy="66.5" r="1.9" fill="#e8e2d6" opacity="0.2"/><circle cx="43.3" cy="528.3" r="1.5" fill="#e8e2d6" opacity="0.2"/><circle cx="466.7" cy="604.1" r="0.9" fill="#e8e2d6" opacity="0.3"/><circle cx="201" cy="51.3" r="1.1" fill="#e8e2d6" opacity="0.3"/><circle cx="156.6" cy="707.1" r="1.8" fill="#e8e2d6" opacity="0.3"/><circle cx="88.3" cy="546.6" r="1.4" fill="#e8e2d6" opacity="0.3"/><circle cx="522.5" cy="152.6" r="1.1" fill="#e8e2d6" opacity="0.2"/><circle cx="452.4" cy="100.8" r="1.1" fill="#e8e2d6" opacity="0.3"/><circle cx="425.2" cy="390.1" r="0.7" fill="#e8e2d6" opacity="0.3"/><circle cx="318.4" cy="298" r="1.5" fill="#e8e2d6" opacity="0.3"/></svg>