<svg xmlns="http://www.w3.org/2000/svg" viewBox="0 0 600 700" width="600" height="700"><rect width="600" height="700" fill="#0e0d0b"/><rect x="14" y="14" width="572" height="672" fill="none" stroke="#e8e2d6" stroke-width="0.6" opacity="0.14"/><path d="M 397.2 665 C 480.5 567.1, 432.9 357.6, 434.4 138.4" stroke="#e8e2d6" stroke-width="1.4" fill="none" opacity="0.85"/><path d="M 365.7 254.7 q 18.3 -22.4 24.6 -10.7" stroke="#e8e2d6" stroke-width="1" fill="none" opacity="0.7"/><path d="M 320 243.1 q -15.8 -19.9 -52.5 -5" stroke="#e8e2d6" stroke-width="1" fill="none" opacity="0.5"/><path d="M 331.8 406.1 q -21.4 -10.4 -55.9 -9.5" stroke="#e8e2d6" stroke-width="1" fill="none" opacity="0.5"/><path d="M 382.5 468.8 q 31.1 -20.7 24.8 -7.4" stroke="#e8e2d6" stroke-width="1" fill="none" opacity="0.7"/><path d="M 448.3 263.4 q 31.4 -8.9 31.6 -11.9" stroke="#e8e2d6" stroke-width="1" fill="none" opacity="0.5"/><path d="M 380.5 84.1 q -14.1 -18.9 -30.9 -5.1" stroke="#e8e2d6" stroke-width="1" fill="none" opacity="0.7"/><path d="M 464.1 477.3 q -32.9 -25.4 -33.8 -12.8" stroke="#e8e2d6" stroke-width="1" fill="none" opacity="0.7"/><path d="M 242.2 665 C 194.1 488.3, 113.2 351.7, 140.9 140.7" stroke="#e8e2d6" stroke-width="1.4" fill="none" opacity="0.85"/><path d="M 297.2 317.9 q 30.9 -21.3 47 -4" stroke="#e8e2d6" stroke-width="1" fill="none" opacity="0.7"/><path d="M 272.4 116.7 q -31.7 -20.4 -38.2 -11.5" stroke="#e8e2d6" stroke-width="1" fill="none" opacity="0.7"/><path d="M 214.7 397.4 q 26.8 -14.2 39.3 -13.2" stroke="#e8e2d6" stroke-width="1" fill="none" opacity="0.6"/><path d="M 241.5 552.3 q 24.7 -20.9 43.8 -13.9" stroke="#e8e2d6" stroke-width="1" fill="none" opacity="0.6"/><path d="M 185.9 124.3 q -25.5 -23.6 -25.8 -8.5" stroke="#e8e2d6" stroke-width="1" fill="none" opacity="0.4"/><path d="M 269.6 463.3 q 26.4 -15.2 59.5 -4.6" stroke="#e8e2d6" stroke-width="1" fill="none" opacity="0.6"/><path d="M 235.2 329.9 q 30.5 -9.6 53.4 -6.9" stroke="#e8e2d6" stroke-width="1" fill="none" opacity="0.5"/><path d="M 172.8 665 C 55.1 457.9, 71.1 221.2, 58.5 121" stroke="#e8e2d6" stroke-width="1.4" fill="none" opacity="0.85"/><path d="M 102.7 266.1 q 14.6 -19.5 52.6 -7.4" stroke="#e8e2d6" stroke-width="1" fill="none" opacity="0.4"/><path d="M 252.7 221.5 q 32.1 -16.3 55.4 -6.5" stroke="#e8e2d6" stroke-width="1" fill="none" opacity="0.4"/><path d="M 128.1 170.4 q 28.6 -21.5 57.1 -10.1" stroke="#e8e2d6" stroke-width="1" fill="none" opacity="0.5"/><path d="M 230.7 292 q 28.1 -20.8 44 -4.8" stroke="#e8e2d6" stroke-width="1" fill="none" opacity="0.7"/><path d="M 225.5 473.9 q 25.1 -16.1 32 -7.4" stroke="#e8e2d6" stroke-width="1" fill="none" opacity="0.6"/><path d="M 145.6 252.6 q 21.3 -21 39.6 -13.1" stroke="#e8e2d6" stroke-width="1" fill="none" opacity="0.5"/><path d="M 239.7 216.5 q -26.9 -20.7 -24.4 -13.9" stroke="#e8e2d6" stroke-width="1" fill="none" opacity="0.5"/><circle cx="410.2" cy="239.3" r="7.8" fill="none" stroke="#c0392b" stroke-width="1.6" opacity="0.9"/><circle cx="493.5" cy="214.8" r="1" fill="#e8e2d6" opacity="0.3"/><circle cx="216.1" cy="195.5" r="1" fill="#e8e2d6" opacity="0.2"/><circle cx="48.7" cy="351.3" r="0.7" fill="#e8e2d6" opacity="0.3"/><circle cx="254.6" cy="315.4" r="1.9" fill="#e8e2d6" opacity="0.3"/><circle cx="473.1" cy="326.3" r="1.6" fill="#e8e2d6" opacity="0.2"/><circle cx="201.3" cy="83.5" r="1" fill="#e8e2d6" opacity="0.3"/><circle cx="342.2" cy="387.6" r="1.6" fill="#e8e2d6" opacity="0.2"/><circle cx="584.3" cy="367.9" r="0.7" fill="#e8e2d6" opacity="0.2"/><circle cx="167" cy="263.5" r="0.9" fill="#e8e2d6" opacity="0.3"/><circle cx="97.2" cy="380.5" r="1.5" fill="#e8e2d6" opacity="0.1"/><circle cx="170.1" cy="575.4" r="1.1" fill="#e8e2d6" opacity="0.3"/><circle cx="584.1" cy="627.5" r="1.3" fill="#e8e2d6" opacity="0.3"/><circle cx="346.2" cy="449.7" r="1.5" fill="#e8e2d6" opacity="0.2"/><circle cx="483.9" cy="330.8" r="1.1" fill="#e8e2d6" opacity="0.3"/><circle cx="537.5" cy="308.9" r="1.3" fill="#e8e2d6" opacity="0.1"/><circle cx="242.9" cy="67.8" r="0.9" fill="#e8e2d6" opacity="0.2"/><circle cx="140.7" cy="234.4" r="1.5" fill="#e8e2d6" opacity="0.2"/><circle cx="386" cy="485.4" r="2" fill="#e8e2d6" opacity="0.1"/><circle cx="214.4" cy="504.2" r="1.8" fill="#e8e2d6" opacity="0.3"/><circle cx="583.7" cy="248.3" r="1.9" fill="#e8e2d6" opacity="0.3"/><circle cx="332" cy="268.8" r="1.6" fill="#e8e2d6" opacity="0.2"/><circle cx="6.8" cy="325.2" r="1" fill="#e8e2d6" opacity="0.3"/><circle cx="349.6" cy="127.9" r="1.8" fill="#e8e2d6" opacity="0.2"/><circle cx="125.2" cy="304.6" r="1.8" fill="#e8e2d6" opacity="0.2"/><circle cx="426.5" cy="525" r="0.6" fill="#e8e2d6" opacity="0.2"/><circle cx="567.8" cy="61.3" r="1.5" fill="#e8e2d6" opacity="0.2"/></svg>