<svg xmlns="http://www.w3.org/2000/svg" viewBox="0 0 600 620" width="600" height="620"><rect width="600" height="620" fill="#0e0d0b"/><rect x="14" y="14" width="572" height="592" fill="none" stroke="#e8e2d6" stroke-width="0.6" opacity="0.14"/><path d="M 278.1 589 C 325.3 445.8, 141 201.6, 206.6 113.7" stroke="#e8e2d6" stroke-width="1.4" fill="none" opacity="0.85"/><path d="M 250.7 457.5 q -15.1 -19.4 -24.1 -7.1" stroke="#e8e2d6" stroke-width="1" fill="none" opacity="0.7"/><path d="M 334.6 165 q 36.3 -21.9 39.3 -9.9" stroke="#e8e2d6" stroke-width="1" fill="none" opacity="0.6"/><path d="M 285.4 261.8 q 15.2 -16.5 45.2 -8.2" stroke="#e8e2d6" stroke-width="1" fill="none" opacity="0.5"/><path d="M 206.1 361.9 q 20.1 -14 51.3 -9.6" stroke="#e8e2d6" stroke-width="1" fill="none" opacity="0.7"/><path d="M 342.4 136 q -14.9 -13.7 -40.8 -10.5" stroke="#e8e2d6" stroke-width="1" fill="none" opacity="0.6"/><path d="M 262.5 475.5 q -20.7 -10 -44.1 -5.4" stroke="#e8e2d6" stroke-width="1" fill="none" opacity="0.5"/><path d="M 215.3 422.7 q -37.8 -18.2 -25.5 -13.4" stroke="#e8e2d6" stroke-width="1" fill="none" opacity="0.4"/><path d="M 132.3 589 C 55.8 391, 114.4 344.2, 93 174.5" stroke="#e8e2d6" stroke-width="1.4" fill="none" opacity="0.85"/><path d="M 188.8 107.6 q -34.2 -20.6 -32.5 -9.7" stroke="#e8e2d6" stroke-width="1" fill="none" opacity="0.6"/><path d="M 152.1 344.8 q -19 -13.3 -25.4 -8.5" stroke="#e8e2d6" stroke-width="1" fill="none" opacity="0.6"/><path d="M 108.1 254.3 q -31.4 -16.6 -25.6 -13.9" stroke="#e8e2d6" stroke-width="1" fill="none" opacity="0.4"/><path d="M 109 237.7 q -29.7 -8.9 -63.5 -7.3" stroke="#e8e2d6" stroke-width="1" fill="none" opacity="0.7"/><path d="M 164.1 489.3 q 37.3 -13.5 57.7 -8.1" stroke="#e8e2d6" stroke-width="1" fill="none" opacity="0.7"/><path d="M 135.6 82 q -31.1 -12.8 -63.7 -7" stroke="#e8e2d6" stroke-width="1" fill="none" opacity="0.4"/><path d="M 104.6 483.7 q -36.1 -17.5 -29.5 -10.5" stroke="#e8e2d6" stroke-width="1" fill="none" opacity="0.6"/><path d="M 454.8 589 C 370.3 373.5, 394.4 350.6, 340.9 96.5" stroke="#e8e2d6" stroke-width="1.4" fill="none" opacity="0.85"/><path d="M 448.2 227.4 q -17 -23.7 -39.6 -7.7" stroke="#e8e2d6" stroke-width="1" fill="none" opacity="0.6"/><path d="M 490.5 349.7 q 17.4 -22.9 58.7 -8.9" stroke="#e8e2d6" stroke-width="1" fill="none" opacity="0.4"/><path d="M 405.7 207.7 q -26.2 -8.1 -50.9 -12.6" stroke="#e8e2d6" stroke-width="1" fill="none" opacity="0.4"/><path d="M 452.5 438 q -25.6 -21.4 -62.2 -9.9" stroke="#e8e2d6" stroke-width="1" fill="none" opacity="0.5"/><path d="M 456.6 295.9 q -18.3 -9.3 -57.2 -11.8" stroke="#e8e2d6" stroke-width="1" fill="none" opacity="0.6"/><path d="M 493.7 137.9 q 30.5 -16.2 47.5 -13.6" stroke="#e8e2d6" stroke-width="1" fill="none" opacity="0.5"/><path d="M 384.1 82.1 q 36.6 -13.2 43.5 -13.6" stroke="#e8e2d6" stroke-width="1" fill="none" opacity="0.5"/><path d="M 324.6 589 C 391.2 441.1, 288.5 266.3, 278.1 127.9" stroke="#e8e2d6" stroke-width="1.4" fill="none" opacity="0.85"/><path d="M 361.8 440.3 q -12.2 -20.3 -61.2 -10.3" stroke="#e8e2d6" stroke-width="1" fill="none" opacity="0.6"/><path d="M 389.5 163.1 q 36.6 -21.9 26 -7.6" stroke="#e8e2d6" stroke-width="1" fill="none" opacity="0.5"/><path d="M 381.2 480.7 q 25 -9.4 24.6 -10" stroke="#e8e2d6" stroke-width="1" fill="none" opacity="0.5"/><path d="M 332.8 66.4 q -26.8 -20.3 -62.9 -8.9" stroke="#e8e2d6" stroke-width="1" fill="none" opacity="0.4"/><path d="M 256.3 278.7 q -28.1 -8.2 -40.6 -7.4" stroke="#e8e2d6" stroke-width="1" fill="none" opacity="0.4"/><path d="M 406.8 324.4 q 24.8 -17.8 53.2 -5.3" stroke="#e8e2d6" stroke-width="1" fill="none" opacity="0.5"/><path d="M 337.4 288.8 q 21.6 -12.9 57 -7.1" stroke="#e8e2d6" stroke-width="1" fill="none" opacity="0.5"/><path d="M 271.5 589 C 260 420.3, 210.7 232.9, 266.3 146.5" stroke="#e8e2d6" stroke-width="1.4" fill="none" opacity="0.85"/><path d="M 254 456.9 q 12.7 -15.9 27.9 -12.2" stroke="#e8e2d6" stroke-width="1" fill="none" opacity="0.7"/><path d="M 274 75.4 q -17.4 -17.1 -35.6 -10.7" stroke="#e8e2d6" stroke-width="1" fill="none" opacity="0.7"/><path d="M 246.1 488.8 q 27.8 -11.1 61.2 -11.1" stroke="#e8e2d6" stroke-width="1" fill="none" opacity="0.7"/><path d="M 281.2 381.1 q -36.5 -24.6 -44 -12.5" stroke="#e8e2d6" stroke-width="1" fill="none" opacity="0.7"/><path d="M 241.5 103.9 q 34.5 -10.8 61.7 -14" stroke="#e8e2d6" stroke-width="1" fill="none" opacity="0.7"/><path d="M 262.6 180.4 q 22.7 -20.8 46.5 -10.4" stroke="#e8e2d6" stroke-width="1" fill="none" opacity="0.5"/><path d="M 250.9 319.7 q 32.2 -17.2 55.7 -12.8" stroke="#e8e2d6" stroke-width="1" fill="none" opacity="0.6"/><circle cx="419.7" cy="217.4" r="8.1" fill="none" stroke="#c0392b" stroke-width="1.6" opacity="0.9"/><circle cx="519.5" cy="202" r="1.1" fill="#e8e2d6" opacity="0.3"/><circle cx="499.6" cy="95.5" r="1.3" fill="#e8e2d6" opacity="0.2"/><circle cx="98.5" cy="441.9" r="1" fill="#e8e2d6" opacity="0.2"/><circle cx="570.7" cy="593.5" r="1.1" fill="#e8e2d6" opacity="0.3"/><circle cx="329.8" cy="551.2" r="1.5" fill="#e8e2d6" opacity="0.3"/><circle cx="432.3" cy="251.2" r="1" fill="#e8e2d6" opacity="0.3"/><circle cx="8.3" cy="199.5" r="0.7" fill="#e8e2d6" opacity="0.2"/><circle cx="587.1" cy="244.4" r="0.8" fill="#e8e2d6" opacity="0.2"/><circle cx="278.7" cy="268.1" r="1.5" fill="#e8e2d6" opacity="0.1"/><circle cx="140.1" cy="96.4" r="1" fill="#e8e2d6" opacity="0.2"/><circle cx="52.5" cy="579.2" r="1.2" fill="#e8e2d6" opacity="0.2"/><circle cx="582.6" cy="109.4" r="1.1" fill="#e8e2d6" opacity="0.2"/><circle cx="508.9" cy="27.2" r="1.5" fill="#e8e2d6" opacity="0.3"/><circle cx="155.4" cy="401.2" r="1.5" fill="#e8e2d6" opacity="0.3"/><circle cx="108" cy="187.1" r="1" fill="#e8e2d6" opacity="0.2"/><circle cx="255.1" cy="107.8" r="0.9" fill="#e8e2d6" opacity="0.3"/><circle cx="168.5" cy="488.7" r="0.7" fill="#e8e2d6" opacity="0.2"/><circle cx="527.2" cy="369.9" r="1.7" fill="#e8e2d6" opacity="0.3"/><circle cx="438.4" cy="144.8" r="1.2" fill="#e8e2d6" opacity="0.3"/><circle cx="9.5" cy="402.1" r="0.9" fill="#e8e2d6" opacity="0.2"/><circle cx="367" cy="21.5" r="0.6" fill="#e8e2d6" opacity="0.3"/><circle cx="410.9" cy="109.9" r="0.7" fill="#e8e2d6" opacity="0.2"/><circle cx="449.9" cy="342.9" r="1.8" fill="#e8e2d6" opacity="0.3"/><circle cx="334.4" cy="510.5" r="1.1" fill="#e8e2d6" opacity="0.2"/><circle cx="259.2" cy="155" r="1.5" fill="#e8e2d6" opacity="0.2"/><circle cx="443.1" cy="202.4" r="1.9" fill="#e8e2d6" opacity="0.2"/></svg>