<svg xmlns="http://www.w3.org/2000/svg" viewBox="0 0 600 620" width="600" height="620"><rect width="600" height="620" fill="#0e0d0b"/><rect x="10" y="10" width="580" height="600" fill="none" stroke="#e8e2d6" stroke-width="0.5" opacity="0.12"/><circle cx="300" cy="310" r="40" fill="none" stroke="#e8e2d6" stroke-width="1.3" opacity="0.75"/><circle cx="300" cy="310" r="74" fill="none" stroke="#e8e2d6" stroke-width="0.8" opacity="0.69"/><circle cx="300" cy="310" r="108" fill="none" stroke="#e8e2d6" stroke-width="1.3" opacity="0.63"/><circle cx="300" cy="310" r="150" fill="none" stroke="#e8e2d6" stroke-width="0.8" opacity="0.5700000000000001"/><circle cx="300" cy="310" r="190" fill="none" stroke="#e8e2d6" stroke-width="1.3" opacity="0.51"/><path d="M 374,310 Q 425.54,334.97 450,310" fill="none" stroke="#e8e2d6" stroke-width="1" stroke-linecap="round" stroke-linejoin="round" opacity="0.7"/><path d="M 374,310 Q 425.54,285.03 450,310" fill="none" stroke="#e8e2d6" stroke-width="1" stroke-linecap="round" stroke-linejoin="round" opacity="0.7"/><path d="M 368.37,338.32 Q 406.43,381.11 438.58,367.4" fill="none" stroke="#e8e2d6" stroke-width="1" stroke-linecap="round" stroke-linejoin="round" opacity="0.7"/><path d="M 368.37,338.32 Q 425.54,334.97 438.58,367.4" fill="none" stroke="#e8e2d6" stroke-width="1" stroke-linecap="round" stroke-linejoin="round" opacity="0.7"/><path d="M 352.33,362.33 Q 371.11,416.43 406.07,416.07" fill="none" stroke="#e8e2d6" stroke-width="1" stroke-linecap="round" stroke-linejoin="round" opacity="0.7"/><path d="M 352.33,362.33 Q 406.43,381.11 406.07,416.07" fill="none" stroke="#e8e2d6" stroke-width="1" stroke-linecap="round" stroke-linejoin="round" opacity="0.7"/><path d="M 328.32,378.37 Q 324.97,435.54 357.4,448.58" fill="none" stroke="#e8e2d6" stroke-width="1" stroke-linecap="round" stroke-linejoin="round" opacity="0.7"/><path d="M 328.32,378.37 Q 371.11,416.43 357.4,448.58" fill="none" stroke="#e8e2d6" stroke-width="1" stroke-linecap="round" stroke-linejoin="round" opacity="0.7"/><path d="M 300,384 Q 275.03,435.54 300,460" fill="none" stroke="#e8e2d6" stroke-width="1" stroke-linecap="round" stroke-linejoin="round" opacity="0.7"/><path d="M 300,384 Q 324.97,435.54 300,460" fill="none" stroke="#e8e2d6" stroke-width="1" stroke-linecap="round" stroke-linejoin="round" opacity="0.7"/><path d="M 271.68,378.37 Q 228.89,416.43 242.6,448.58" fill="none" stroke="#e8e2d6" stroke-width="1" stroke-linecap="round" stroke-linejoin="round" opacity="0.7"/><path d="M 271.68,378.37 Q 275.03,435.54 242.6,448.58" fill="none" stroke="#e8e2d6" stroke-width="1" stroke-linecap="round" stroke-linejoin="round" opacity="0.7"/><path d="M 247.67,362.33 Q 193.57,381.11 193.93,416.07" fill="none" stroke="#e8e2d6" stroke-width="1" stroke-linecap="round" stroke-linejoin="round" opacity="0.7"/><path d="M 247.67,362.33 Q 228.89,416.43 193.93,416.07" fill="none" stroke="#e8e2d6" stroke-width="1" stroke-linecap="round" stroke-linejoin="round" opacity="0.7"/><path d="M 231.63,338.32 Q 174.46,334.97 161.42,367.4" fill="none" stroke="#e8e2d6" stroke-width="1" stroke-linecap="round" stroke-linejoin="round" opacity="0.7"/><path d="M 231.63,338.32 Q 193.57,381.11 161.42,367.4" fill="none" stroke="#e8e2d6" stroke-width="1" stroke-linecap="round" stroke-linejoin="round" opacity="0.7"/><path d="M 226,310 Q 174.46,285.03 150,310" fill="none" stroke="#e8e2d6" stroke-width="1" stroke-linecap="round" stroke-linejoin="round" opacity="0.7"/><path d="M 226,310 Q 174.46,334.97 150,310" fill="none" stroke="#e8e2d6" stroke-width="1" stroke-linecap="round" stroke-linejoin="round" opacity="0.7"/><path d="M 231.63,281.68 Q 193.57,238.89 161.42,252.6" fill="none" stroke="#e8e2d6" stroke-width="1" stroke-linecap="round" stroke-linejoin="round" opacity="0.7"/><path d="M 231.63,281.68 Q 174.46,285.03 161.42,252.6" fill="none" stroke="#e8e2d6" stroke-width="1" stroke-linecap="round" stroke-linejoin="round" opacity="0.7"/><path d="M 247.67,257.67 Q 228.89,203.57 193.93,203.93" fill="none" stroke="#e8e2d6" stroke-width="1" stroke-linecap="round" stroke-linejoin="round" opacity="0.7"/><path d="M 247.67,257.67 Q 193.57,238.89 193.93,203.93" fill="none" stroke="#e8e2d6" stroke-width="1" stroke-linecap="round" stroke-linejoin="round" opacity="0.7"/><path d="M 271.68,241.63 Q 275.03,184.46 242.6,171.42" fill="none" stroke="#e8e2d6" stroke-width="1" stroke-linecap="round" stroke-linejoin="round" opacity="0.7"/><path d="M 271.68,241.63 Q 228.89,203.57 242.6,171.42" fill="none" stroke="#e8e2d6" stroke-width="1" stroke-linecap="round" stroke-linejoin="round" opacity="0.7"/><path d="M 300,236 Q 324.97,184.46 300,160" fill="none" stroke="#e8e2d6" stroke-width="1" stroke-linecap="round" stroke-linejoin="round" opacity="0.7"/><path d="M 300,236 Q 275.03,184.46 300,160" fill="none" stroke="#e8e2d6" stroke-width="1" stroke-linecap="round" stroke-linejoin="round" opacity="0.7"/><path d="M 328.32,241.63 Q 371.11,203.57 357.4,171.42" fill="none" stroke="#e8e2d6" stroke-width="1" stroke-linecap="round" stroke-linejoin="round" opacity="0.7"/><path d="M 328.32,241.63 Q 324.97,184.46 357.4,171.42" fill="none" stroke="#e8e2d6" stroke-width="1" stroke-linecap="round" stroke-linejoin="round" opacity="0.7"/><path d="M 352.33,257.67 Q 406.43,238.89 406.07,203.93" fill="none" stroke="#e8e2d6" stroke-width="1" stroke-linecap="round" stroke-linejoin="round" opacity="0.7"/><path d="M 352.33,257.67 Q 371.11,203.57 406.07,203.93" fill="none" stroke="#e8e2d6" stroke-width="1" stroke-linecap="round" stroke-linejoin="round" opacity="0.7"/><path d="M 368.37,281.68 Q 425.54,285.03 438.58,252.6" fill="none" stroke="#e8e2d6" stroke-width="1" stroke-linecap="round" stroke-linejoin="round" opacity="0.7"/><path d="M 368.37,281.68 Q 406.43,238.89 438.58,252.6" fill="none" stroke="#e8e2d6" stroke-width="1" stroke-linecap="round" stroke-linejoin="round" opacity="0.7"/><circle cx="470" cy="310" r="2.1" fill="#e8e2d6" opacity="0.8"/><circle cx="468.55" cy="332.19" r="2.1" fill="#e8e2d6" opacity="0.8"/><circle cx="464.21" cy="354" r="2.1" fill="#e8e2d6" opacity="0.8"/><circle cx="457.06" cy="375.06" r="2.1" fill="#e8e2d6" opacity="0.8"/><circle cx="447.22" cy="395" r="2.1" fill="#e8e2d6" opacity="0.8"/><circle cx="434.87" cy="413.49" r="2.1" fill="#e8e2d6" opacity="0.8"/><circle cx="420.21" cy="430.21" r="2.1" fill="#e8e2d6" opacity="0.8"/><circle cx="403.49" cy="444.87" r="2.1" fill="#e8e2d6" opacity="0.8"/><circle cx="385" cy="457.22" r="2.1" fill="#e8e2d6" opacity="0.8"/><circle cx="365.06" cy="467.06" r="2.1" fill="#e8e2d6" opacity="0.8"/><circle cx="344" cy="474.21" r="2.1" fill="#e8e2d6" opacity="0.8"/><circle cx="322.19" cy="478.55" r="2.1" fill="#e8e2d6" opacity="0.8"/><circle cx="300" cy="480" r="2.1" fill="#e8e2d6" opacity="0.8"/><circle cx="277.81" cy="478.55" r="2.1" fill="#e8e2d6" opacity="0.8"/><circle cx="256" cy="474.21" r="2.1" fill="#e8e2d6" opacity="0.8"/><circle cx="234.94" cy="467.06" r="2.1" fill="#e8e2d6" opacity="0.8"/><circle cx="215" cy="457.22" r="2.1" fill="#e8e2d6" opacity="0.8"/><circle cx="196.51" cy="444.87" r="2.1" fill="#e8e2d6" opacity="0.8"/><circle cx="179.79" cy="430.21" r="2.1" fill="#e8e2d6" opacity="0.8"/><circle cx="165.13" cy="413.49" r="2.1" fill="#e8e2d6" opacity="0.8"/><circle cx="152.78" cy="395" r="2.1" fill="#e8e2d6" opacity="0.8"/><circle cx="142.94" cy="375.06" r="2.1" fill="#e8e2d6" opacity="0.8"/><circle cx="135.79" cy="354" r="2.1" fill="#e8e2d6" opacity="0.8"/><circle cx="131.45" cy="332.19" r="2.1" fill="#e8e2d6" opacity="0.8"/><circle cx="130" cy="310" r="2.1" fill="#e8e2d6" opacity="0.8"/><circle cx="131.45" cy="287.81" r="2.1" fill="#e8e2d6" opacity="0.8"/><circle cx="135.79" cy="266" r="2.1" fill="#e8e2d6" opacity="0.8"/><circle cx="142.94" cy="244.94" r="2.1" fill="#e8e2d6" opacity="0.8"/><circle cx="152.78" cy="225" r="2.1" fill="#e8e2d6" opacity="0.8"/><circle cx="165.13" cy="206.51" r="2.1" fill="#e8e2d6" opacity="0.8"/><circle cx="179.79" cy="189.79" r="2.1" fill="#e8e2d6" opacity="0.8"/><circle cx="196.51" cy="175.13" r="2.1" fill="#e8e2d6" opacity="0.8"/><circle cx="215" cy="162.78" r="2.1" fill="#e8e2d6" opacity="0.8"/><circle cx="234.94" cy="152.94" r="2.1" fill="#e8e2d6" opacity="0.8"/><circle cx="256" cy="145.79" r="2.1" fill="#e8e2d6" opacity="0.8"/><circle cx="277.81" cy="141.45" r="2.1" fill="#e8e2d6" opacity="0.8"/><circle cx="300" cy="140" r="2.1" fill="#e8e2d6" opacity="0.8"/><circle cx="322.19" cy="141.45" r="2.1" fill="#e8e2d6" opacity="0.8"/><circle cx="344" cy="145.79" r="2.1" fill="#e8e2d6" opacity="0.8"/><circle cx="365.06" cy="152.94" r="2.1" fill="#e8e2d6" opacity="0.8"/><circle cx="385" cy="162.78" r="2.1" fill="#e8e2d6" opacity="0.8"/><circle cx="403.49" cy="175.13" r="2.1" fill="#e8e2d6" opacity="0.8"/><circle cx="420.21" cy="189.79" r="2.1" fill="#e8e2d6" opacity="0.8"/><circle cx="434.87" cy="206.51" r="2.1" fill="#e8e2d6" opacity="0.8"/><circle cx="447.22" cy="225" r="2.1" fill="#e8e2d6" opacity="0.8"/><circle cx="457.06" cy="244.94" r="2.1" fill="#e8e2d6" opacity="0.8"/><circle cx="464.21" cy="266" r="2.1" fill="#e8e2d6" opacity="0.8"/><circle cx="468.55" cy="287.81" r="2.1" fill="#e8e2d6" opacity="0.8"/><path d="M 300,310 L 340,310" fill="none" stroke="#e8e2d6" stroke-width="0.7" stroke-linecap="round" stroke-linejoin="round" opacity="0.5"/><path d="M 300,310 L 328.28,338.28" fill="none" stroke="#e8e2d6" stroke-width="0.7" stroke-linecap="round" stroke-linejoin="round" opacity="0.5"/><path d="M 300,310 L 300,350" fill="none" stroke="#e8e2d6" stroke-width="0.7" stroke-linecap="round" stroke-linejoin="round" opacity="0.5"/><path d="M 300,310 L 271.72,338.28" fill="none" stroke="#e8e2d6" stroke-width="0.7" stroke-linecap="round" stroke-linejoin="round" opacity="0.5"/><path d="M 300,310 L 260,310" fill="none" stroke="#e8e2d6" stroke-width="0.7" stroke-linecap="round" stroke-linejoin="round" opacity="0.5"/><path d="M 300,310 L 271.72,281.72" fill="none" stroke="#e8e2d6" stroke-width="0.7" stroke-linecap="round" stroke-linejoin="round" opacity="0.5"/><path d="M 300,310 L 300,270" fill="none" stroke="#e8e2d6" stroke-width="0.7" stroke-linecap="round" stroke-linejoin="round" opacity="0.5"/><path d="M 300,310 L 328.28,281.72" fill="none" stroke="#e8e2d6" stroke-width="0.7" stroke-linecap="round" stroke-linejoin="round" opacity="0.5"/><circle cx="300" cy="310" r="16" fill="none" stroke="#e8e2d6" stroke-width="1.2" opacity="0.9"/><circle cx="300" cy="310" r="5" fill="#c0392b" opacity="0.95"/></svg>