<svg xmlns="http://www.w3.org/2000/svg" viewBox="0 0 600 750" width="600" height="750"><rect width="600" height="750" fill="#0e0d0b"/><rect x="14" y="14" width="572" height="722" fill="none" stroke="#e8e2d6" stroke-width="0.6" opacity="0.14"/><circle cx="382.4" cy="326.2" r="77.7" fill="none" stroke="#e8e2d6" stroke-width="1.6" opacity="0.8"/><circle cx="382.4" cy="326.2" r="131" fill="none" stroke="#e8e2d6" stroke-width="0.9" opacity="0.6"/><circle cx="382.4" cy="326.2" r="184.2" fill="none" stroke="#e8e2d6" stroke-width="0.9" opacity="0.5"/><circle cx="382.4" cy="326.2" r="237.5" fill="none" stroke="#e8e2d6" stroke-width="0.9" opacity="0.4"/><polygon points="160.5,326.7 271,134.2 493,133.7 604.4,325.7 493.8,518.2 271.9,518.7" fill="none" stroke="#e8e2d6" stroke-width="1.2" opacity="0.8"/><line x1="138.3" y1="326.7" x2="50.2" y2="326.9" stroke="#e8e2d6" stroke-width="0.8" opacity="0.5"/><line x1="195.1" y1="169.7" x2="153.6" y2="104" stroke="#e8e2d6" stroke-width="0.8" opacity="0.5"/><line x1="339.5" y1="85.8" x2="327.6" y2="20.1" stroke="#e8e2d6" stroke-width="0.8" opacity="0.5"/><line x1="504.1" y1="114.5" x2="556.6" y2="46.1" stroke="#e8e2d6" stroke-width="0.8" opacity="0.5"/><line x1="611.7" y1="242.2" x2="714.9" y2="211.1" stroke="#e8e2d6" stroke-width="0.8" opacity="0.5"/><line x1="612" y1="409.2" x2="713.8" y2="428.4" stroke="#e8e2d6" stroke-width="0.8" opacity="0.5"/><line x1="505" y1="537.4" x2="539.1" y2="576.7" stroke="#e8e2d6" stroke-width="0.8" opacity="0.5"/><line x1="340.6" y1="566.7" x2="331.1" y2="618.7" stroke="#e8e2d6" stroke-width="0.8" opacity="0.5"/><line x1="195.7" y1="483.5" x2="121.7" y2="524.7" stroke="#e8e2d6" stroke-width="0.8" opacity="0.5"/><circle cx="498.9" cy="515.2" r="4.1" fill="#c0392b" opacity="0.9"/><circle cx="185.9" cy="678.1" r="1.3" fill="#e8e2d6" opacity="0.1"/><circle cx="466" cy="107.9" r="1.6" fill="#e8e2d6" opacity="0.1"/><circle cx="325.7" cy="297.4" r="0.9" fill="#e8e2d6" opacity="0.1"/><circle cx="525.6" cy="302.5" r="0.8" fill="#e8e2d6" opacity="0.2"/><circle cx="503" cy="107.9" r="1" fill="#e8e2d6" opacity="0.2"/><circle cx="377.9" cy="670.8" r="1.2" fill="#e8e2d6" opacity="0.1"/><circle cx="215.8" cy="221.7" r="0.8" fill="#e8e2d6" opacity="0.1"/><circle cx="341.4" cy="240.1" r="0.8" fill="#e8e2d6" opacity="0.2"/><circle cx="96.4" cy="489.9" r="1.1" fill="#e8e2d6" opacity="0.1"/><circle cx="498.7" cy="678.5" r="1.6" fill="#e8e2d6" opacity="0.3"/><circle cx="187.4" cy="582.3" r="1" fill="#e8e2d6" opacity="0.3"/><circle cx="165.1" cy="563.2" r="1.1" fill="#e8e2d6" opacity="0.1"/><circle cx="231.9" cy="723.9" r="1.7" fill="#e8e2d6" opacity="0.3"/><circle cx="352.6" cy="545.4" r="0.6" fill="#e8e2d6" opacity="0.2"/><circle cx="180.9" cy="655.7" r="1" fill="#e8e2d6" opacity="0.2"/><circle cx="533.7" cy="33.4" r="1.6" fill="#e8e2d6" opacity="0.2"/><circle cx="474.3" cy="595.1" r="1.1" fill="#e8e2d6" opacity="0.3"/><circle cx="414.3" cy="613.4" r="1" fill="#e8e2d6" opacity="0.2"/><circle cx="458.9" cy="56.8" r="1.1" fill="#e8e2d6" opacity="0.2"/><circle cx="54.9" cy="350.4" r="1.6" fill="#e8e2d6" opacity="0.2"/><circle cx="459.5" cy="116.7" r="0.6" fill="#e8e2d6" opacity="0.3"/><circle cx="56.1" cy="29.1" r="1.4" fill="#e8e2d6" opacity="0.1"/><circle cx="383.4" cy="337" r="1" fill="#e8e2d6" opacity="0.2"/><circle cx="71.6" cy="312.5" r="1.5" fill="#e8e2d6" opacity="0.2"/><circle cx="61.7" cy="160.9" r="1.6" fill="#e8e2d6" opacity="0.2"/><circle cx="163.3" cy="446.1" r="1" fill="#e8e2d6" opacity="0.2"/><circle cx="268.2" cy="439.2" r="1.3" fill="#e8e2d6" opacity="0.2"/><circle cx="471.8" cy="702.9" r="1.1" fill="#e8e2d6" opacity="0.2"/><circle cx="344.7" cy="304.7" r="1.4" fill="#e8e2d6" opacity="0.2"/><circle cx="237.3" cy="650.9" r="0.8" fill="#e8e2d6" opacity="0.1"/></svg>