<svg xmlns="http://www.w3.org/2000/svg" viewBox="0 0 600 600" width="600" height="600"><rect width="600" height="600" fill="#0e0d0b"/><rect x="14" y="14" width="572" height="572" fill="none" stroke="#e8e2d6" stroke-width="0.6" opacity="0.14"/><circle cx="229.5" cy="359.5" r="64.9" fill="none" stroke="#e8e2d6" stroke-width="1.6" opacity="0.8"/><circle cx="229.5" cy="359.5" r="109.4" fill="none" stroke="#e8e2d6" stroke-width="0.9" opacity="0.6"/><circle cx="229.5" cy="359.5" r="153.9" fill="none" stroke="#e8e2d6" stroke-width="0.9" opacity="0.5"/><circle cx="229.5" cy="359.5" r="198.4" fill="none" stroke="#e8e2d6" stroke-width="0.9" opacity="0.4"/><polygon points="328.7,516.1 44.3,367.1 315.5,195.2" fill="none" stroke="#e8e2d6" stroke-width="1.2" opacity="0.8"/><line x1="338.7" y1="531.7" x2="378.5" y2="566.7" stroke="#e8e2d6" stroke-width="0.8" opacity="0.5"/><line x1="253.1" y1="562" x2="261.4" y2="632.8" stroke="#e8e2d6" stroke-width="0.8" opacity="0.5"/><line x1="162.9" y1="552.2" x2="146.8" y2="631.9" stroke="#e8e2d6" stroke-width="0.8" opacity="0.5"/><line x1="85.9" y1="504.2" x2="44.1" y2="558" stroke="#e8e2d6" stroke-width="0.8" opacity="0.5"/><line x1="37.3" y1="427.5" x2="-34.9" y2="444.5" stroke="#e8e2d6" stroke-width="0.8" opacity="0.5"/><line x1="26.8" y1="337.4" x2="-30.9" y2="331.9" stroke="#e8e2d6" stroke-width="0.8" opacity="0.5"/><line x1="56.4" y1="251.6" x2="-21.7" y2="207.3" stroke="#e8e2d6" stroke-width="0.8" opacity="0.5"/><line x1="120.4" y1="187.2" x2="72.7" y2="146.2" stroke="#e8e2d6" stroke-width="0.8" opacity="0.5"/><line x1="205.9" y1="156.9" x2="199.5" y2="73.2" stroke="#e8e2d6" stroke-width="0.8" opacity="0.5"/><line x1="296.2" y1="166.7" x2="324.7" y2="112" stroke="#e8e2d6" stroke-width="0.8" opacity="0.5"/><line x1="373.2" y1="214.7" x2="403.1" y2="149.4" stroke="#e8e2d6" stroke-width="0.8" opacity="0.5"/><line x1="421.8" y1="291.4" x2="476.9" y2="261.6" stroke="#e8e2d6" stroke-width="0.8" opacity="0.5"/><line x1="432.3" y1="381.6" x2="503.9" y2="386.9" stroke="#e8e2d6" stroke-width="0.8" opacity="0.5"/><line x1="402.6" y1="467.3" x2="460.4" y2="490.4" stroke="#e8e2d6" stroke-width="0.8" opacity="0.5"/><circle cx="51.8" cy="306.6" r="4.5" fill="#c0392b" opacity="0.9"/><circle cx="110" cy="559.3" r="1.6" fill="#e8e2d6" opacity="0.2"/><circle cx="384.9" cy="16.1" r="0.6" fill="#e8e2d6" opacity="0.3"/><circle cx="0.9" cy="474.6" r="1.5" fill="#e8e2d6" opacity="0.1"/><circle cx="574.9" cy="137.8" r="0.7" fill="#e8e2d6" opacity="0.2"/><circle cx="541.4" cy="350.3" r="0.9" fill="#e8e2d6" opacity="0.2"/><circle cx="541.9" cy="407" r="0.7" fill="#e8e2d6" opacity="0.3"/><circle cx="441.5" cy="78.7" r="1.7" fill="#e8e2d6" opacity="0.2"/><circle cx="525.9" cy="591.7" r="0.8" fill="#e8e2d6" opacity="0.2"/><circle cx="595" cy="313.5" r="1.4" fill="#e8e2d6" opacity="0.2"/><circle cx="446.1" cy="154.9" r="1.7" fill="#e8e2d6" opacity="0.2"/><circle cx="137.5" cy="276" r="1.6" fill="#e8e2d6" opacity="0.3"/><circle cx="511.7" cy="107" r="1.7" fill="#e8e2d6" opacity="0.3"/><circle cx="253.6" cy="568.7" r="0.7" fill="#e8e2d6" opacity="0.2"/><circle cx="40" cy="397.2" r="1.5" fill="#e8e2d6" opacity="0.2"/><circle cx="129.6" cy="533.8" r="0.6" fill="#e8e2d6" opacity="0.3"/><circle cx="383.4" cy="77" r="0.7" fill="#e8e2d6" opacity="0.2"/><circle cx="184.5" cy="527.5" r="1.2" fill="#e8e2d6" opacity="0.2"/><circle cx="546.5" cy="497.9" r="0.9" fill="#e8e2d6" opacity="0.2"/><circle cx="62.7" cy="189.4" r="0.6" fill="#e8e2d6" opacity="0.3"/><circle cx="279.2" cy="79.3" r="0.8" fill="#e8e2d6" opacity="0.1"/><circle cx="166.6" cy="333.3" r="1.5" fill="#e8e2d6" opacity="0.3"/><circle cx="487" cy="51.3" r="1.1" fill="#e8e2d6" opacity="0.2"/><circle cx="419.8" cy="446.5" r="1.5" fill="#e8e2d6" opacity="0.2"/><circle cx="592.4" cy="594.8" r="0.6" fill="#e8e2d6" opacity="0.2"/><circle cx="234" cy="409.3" r="1.1" fill="#e8e2d6" opacity="0.1"/><circle cx="185.3" cy="408.9" r="1.3" fill="#e8e2d6" opacity="0.1"/><circle cx="556.2" cy="366.5" r="1.1" fill="#e8e2d6" opacity="0.1"/><circle cx="46.6" cy="184.5" r="1.2" fill="#e8e2d6" opacity="0.2"/><circle cx="90.2" cy="307.7" r="1.4" fill="#e8e2d6" opacity="0.2"/><circle cx="528.2" cy="332.5" r="1.1" fill="#e8e2d6" opacity="0.2"/></svg>