<svg xmlns="http://www.w3.org/2000/svg" viewBox="0 0 600 620" width="600" height="620"><rect width="600" height="620" fill="#0e0d0b"/><rect x="10" y="10" width="580" height="600" fill="none" stroke="#e8e2d6" stroke-width="0.5" opacity="0.12"/><circle cx="300" cy="310" r="60" fill="none" stroke="#e8e2d6" stroke-width="1" opacity="0.7"/><circle cx="360" cy="310" r="60" fill="none" stroke="#e8e2d6" stroke-width="1" opacity="0.7"/><circle cx="330" cy="361.96" r="60" fill="none" stroke="#e8e2d6" stroke-width="1" opacity="0.7"/><circle cx="270" cy="361.96" r="60" fill="none" stroke="#e8e2d6" stroke-width="1" opacity="0.7"/><circle cx="240" cy="310" r="60" fill="none" stroke="#e8e2d6" stroke-width="1" opacity="0.7"/><circle cx="270" cy="258.04" r="60" fill="none" stroke="#e8e2d6" stroke-width="1" opacity="0.7"/><circle cx="330" cy="258.04" r="60" fill="none" stroke="#e8e2d6" stroke-width="1" opacity="0.7"/><path d="M 420,310 L 360,413.92 L 240,413.92 L 180,310 L 240,206.08 L 360,206.08 L 420,310 Z" fill="none" stroke="#e8e2d6" stroke-width="1.3" stroke-linecap="round" stroke-linejoin="round" opacity="0.8"/><circle cx="300" cy="310" r="136" fill="none" stroke="#e8e2d6" stroke-width="0.9" opacity="0.5"/><path d="M 300,190 L 403.92,370 L 196.08,370 Z" fill="none" stroke="#e8e2d6" stroke-width="1" stroke-linecap="round" stroke-linejoin="round" opacity="0.55"/><path d="M 300,430 L 196.08,250 L 403.92,250 Z" fill="none" stroke="#e8e2d6" stroke-width="1" stroke-linecap="round" stroke-linejoin="round" opacity="0.55"/><circle cx="300" cy="310" r="4" fill="#c0392b" opacity="0.95"/></svg>