<svg xmlns="http://www.w3.org/2000/svg" viewBox="0 0 600 800" width="600" height="800"><rect width="600" height="800" fill="#0e0d0b"/><rect x="14" y="14" width="572" height="772" fill="none" stroke="#e8e2d6" stroke-width="0.6" opacity="0.14"/><circle cx="345" cy="288.7" r="63.2" fill="none" stroke="#e8e2d6" stroke-width="1.6" opacity="0.8"/><circle cx="345" cy="288.7" r="106.6" fill="none" stroke="#e8e2d6" stroke-width="0.9" opacity="0.6"/><circle cx="345" cy="288.7" r="150" fill="none" stroke="#e8e2d6" stroke-width="0.9" opacity="0.5"/><circle cx="345" cy="288.7" r="193.3" fill="none" stroke="#e8e2d6" stroke-width="0.9" opacity="0.4"/><polygon points="308.7,465.7 209.8,168.8 516.4,231.6" fill="none" stroke="#e8e2d6" stroke-width="1.2" opacity="0.8"/><line x1="305.1" y1="483.4" x2="294.4" y2="554.1" stroke="#e8e2d6" stroke-width="0.8" opacity="0.5"/><line x1="219.2" y1="442.6" x2="192.9" y2="473.6" stroke="#e8e2d6" stroke-width="0.8" opacity="0.5"/><line x1="162.1" y1="366.5" x2="94.9" y2="401.5" stroke="#e8e2d6" stroke-width="0.8" opacity="0.5"/><line x1="146.9" y1="272.6" x2="91.9" y2="268.5" stroke="#e8e2d6" stroke-width="0.8" opacity="0.5"/><line x1="177.1" y1="182.4" x2="132.8" y2="157.5" stroke="#e8e2d6" stroke-width="0.8" opacity="0.5"/><line x1="245.7" y1="116.5" x2="225.4" y2="49.2" stroke="#e8e2d6" stroke-width="0.8" opacity="0.5"/><line x1="337.1" y1="90.1" x2="334" y2="40.7" stroke="#e8e2d6" stroke-width="0.8" opacity="0.5"/><line x1="430.3" y1="109.2" x2="468" y2="42.5" stroke="#e8e2d6" stroke-width="0.8" opacity="0.5"/><line x1="503.9" y1="169.4" x2="541.9" y2="141.2" stroke="#e8e2d6" stroke-width="0.8" opacity="0.5"/><line x1="541.2" y1="256.9" x2="629.3" y2="243.7" stroke="#e8e2d6" stroke-width="0.8" opacity="0.5"/><line x1="533.5" y1="351.7" x2="576.2" y2="378.8" stroke="#e8e2d6" stroke-width="0.8" opacity="0.5"/><line x1="482.6" y1="432.1" x2="524.5" y2="475.3" stroke="#e8e2d6" stroke-width="0.8" opacity="0.5"/><line x1="400.1" y1="479.6" x2="411.9" y2="534.8" stroke="#e8e2d6" stroke-width="0.8" opacity="0.5"/><circle cx="276.6" cy="455.9" r="7.5" fill="#c0392b" opacity="0.9"/><circle cx="422.7" cy="136.1" r="1.3" fill="#e8e2d6" opacity="0.1"/><circle cx="183.4" cy="725" r="0.7" fill="#e8e2d6" opacity="0.2"/><circle cx="132.7" cy="243.2" r="1.4" fill="#e8e2d6" opacity="0.1"/><circle cx="550.3" cy="1.2" r="1.4" fill="#e8e2d6" opacity="0.2"/><circle cx="298.1" cy="261.3" r="1.6" fill="#e8e2d6" opacity="0.1"/><circle cx="453.7" cy="779.5" r="1.5" fill="#e8e2d6" opacity="0.2"/><circle cx="29.7" cy="696.4" r="1" fill="#e8e2d6" opacity="0.2"/><circle cx="243.1" cy="367.6" r="0.9" fill="#e8e2d6" opacity="0.3"/><circle cx="504.7" cy="564.8" r="1.1" fill="#e8e2d6" opacity="0.2"/><circle cx="149.9" cy="748" r="1.2" fill="#e8e2d6" opacity="0.2"/><circle cx="405" cy="630.5" r="0.7" fill="#e8e2d6" opacity="0.2"/><circle cx="12.5" cy="105" r="1" fill="#e8e2d6" opacity="0.1"/><circle cx="479.3" cy="739.4" r="0.7" fill="#e8e2d6" opacity="0.2"/><circle cx="473.6" cy="756.5" r="1.5" fill="#e8e2d6" opacity="0.2"/><circle cx="245.2" cy="285.3" r="1.4" fill="#e8e2d6" opacity="0.2"/><circle cx="467" cy="498.4" r="0.9" fill="#e8e2d6" opacity="0.3"/><circle cx="77.5" cy="624.6" r="1.2" fill="#e8e2d6" opacity="0.2"/><circle cx="159.8" cy="673.7" r="1.2" fill="#e8e2d6" opacity="0.3"/><circle cx="332.8" cy="193.3" r="1.6" fill="#e8e2d6" opacity="0.3"/><circle cx="245.1" cy="197.2" r="0.9" fill="#e8e2d6" opacity="0.1"/><circle cx="127" cy="243.9" r="0.6" fill="#e8e2d6" opacity="0.2"/><circle cx="174.8" cy="347.3" r="1.5" fill="#e8e2d6" opacity="0.2"/><circle cx="382.2" cy="319.5" r="1.1" fill="#e8e2d6" opacity="0.2"/><circle cx="454.5" cy="477.7" r="1.1" fill="#e8e2d6" opacity="0.2"/><circle cx="368" cy="71.4" r="1.4" fill="#e8e2d6" opacity="0.3"/><circle cx="95.7" cy="302.4" r="0.6" fill="#e8e2d6" opacity="0.2"/><circle cx="113.3" cy="121.7" r="0.9" fill="#e8e2d6" opacity="0.1"/><circle cx="168.4" cy="561.2" r="1.2" fill="#e8e2d6" opacity="0.2"/><circle cx="197.3" cy="527.4" r="1" fill="#e8e2d6" opacity="0.2"/><circle cx="498.8" cy="465.2" r="1.3" fill="#e8e2d6" opacity="0.2"/></svg>