<svg xmlns="http://www.w3.org/2000/svg" viewBox="0 0 600 760" width="600" height="760"><rect width="600" height="760" fill="#0e0d0b"/><rect x="10" y="10" width="580" height="740" fill="none" stroke="#e8e2d6" stroke-width="0.5" opacity="0.12"/><circle cx="300" cy="296" r="10" fill="#e8e2d6" opacity="0.9"/><path d="M 292,308 q 8,-8 16,0 l -3,150 q -5,7 -10,0 Z" fill="#e8e2d6" opacity="0.9"/><path d="M 293,340 h 14" fill="none" stroke="#0e0d0b" stroke-width="0.7" stroke-linecap="round" stroke-linejoin="round" opacity="0.4"/><path d="M 293,374 h 14" fill="none" stroke="#0e0d0b" stroke-width="0.7" stroke-linecap="round" stroke-linejoin="round" opacity="0.4"/><path d="M 293,408 h 14" fill="none" stroke="#0e0d0b" stroke-width="0.7" stroke-linecap="round" stroke-linejoin="round" opacity="0.4"/><path d="M 293,442 h 14" fill="none" stroke="#0e0d0b" stroke-width="0.7" stroke-linecap="round" stroke-linejoin="round" opacity="0.4"/><path d="M 300,288 q -20,-14 -34,-42 M 300,288 q 20,-14 34,-42" fill="none" stroke="#e8e2d6" stroke-width="1.1" stroke-linecap="round" stroke-linejoin="round" opacity="0.8"/><path d="M 312,316 L 462,270 L 452,368 L 344,358 Z" fill="none" stroke="#e8e2d6" stroke-width="1.3" stroke-linecap="round" stroke-linejoin="round" opacity="0.9"/><path d="M 312,321.32 L 405,292.8 L 398.8,353.56 L 331.84,347.36 Z" fill="none" stroke="#e8e2d6" stroke-width="0.85" stroke-linecap="round" stroke-linejoin="round" opacity="0.55"/><path d="M 310,374 L 428,400 L 372,492 Z" fill="none" stroke="#e8e2d6" stroke-width="1.3" stroke-linecap="round" stroke-linejoin="round" opacity="0.9"/><circle cx="356" cy="296" r="2" fill="#e8e2d6" opacity="0.75"/><circle cx="378" cy="308" r="2" fill="#e8e2d6" opacity="0.75"/><circle cx="378" cy="323" r="2" fill="#e8e2d6" opacity="0.75"/><circle cx="400" cy="320" r="2" fill="#e8e2d6" opacity="0.75"/><circle cx="400" cy="335" r="2" fill="#e8e2d6" opacity="0.75"/><circle cx="400" cy="350" r="2" fill="#e8e2d6" opacity="0.75"/><circle cx="422" cy="332" r="2" fill="#e8e2d6" opacity="0.75"/><circle cx="422" cy="347" r="2" fill="#e8e2d6" opacity="0.75"/><circle cx="422" cy="362" r="2" fill="#e8e2d6" opacity="0.75"/><circle cx="422" cy="377" r="2" fill="#e8e2d6" opacity="0.75"/><circle cx="416" cy="318" r="12" fill="none" stroke="#e8e2d6" stroke-width="1" opacity="0.8"/><circle cx="416" cy="318" r="4" fill="#c0392b" opacity="0.9"/><path d="M 288,316 L 138,270 L 148,368 L 256,358 Z" fill="none" stroke="#e8e2d6" stroke-width="1.3" stroke-linecap="round" stroke-linejoin="round" opacity="0.9"/><path d="M 288,321.32 L 195,292.8 L 201.2,353.56 L 268.16,347.36 Z" fill="none" stroke="#e8e2d6" stroke-width="0.85" stroke-linecap="round" stroke-linejoin="round" opacity="0.55"/><path d="M 290,374 L 172,400 L 228,492 Z" fill="none" stroke="#e8e2d6" stroke-width="1.3" stroke-linecap="round" stroke-linejoin="round" opacity="0.9"/><circle cx="244" cy="296" r="2" fill="#e8e2d6" opacity="0.75"/><circle cx="222" cy="308" r="2" fill="#e8e2d6" opacity="0.75"/><circle cx="222" cy="323" r="2" fill="#e8e2d6" opacity="0.75"/><circle cx="200" cy="320" r="2" fill="#e8e2d6" opacity="0.75"/><circle cx="200" cy="335" r="2" fill="#e8e2d6" opacity="0.75"/><circle cx="200" cy="350" r="2" fill="#e8e2d6" opacity="0.75"/><circle cx="178" cy="332" r="2" fill="#e8e2d6" opacity="0.75"/><circle cx="178" cy="347" r="2" fill="#e8e2d6" opacity="0.75"/><circle cx="178" cy="362" r="2" fill="#e8e2d6" opacity="0.75"/><circle cx="178" cy="377" r="2" fill="#e8e2d6" opacity="0.75"/><circle cx="184" cy="318" r="12" fill="none" stroke="#e8e2d6" stroke-width="1" opacity="0.8"/><circle cx="184" cy="318" r="4" fill="#c0392b" opacity="0.9"/></svg>