<svg xmlns="http://www.w3.org/2000/svg" viewBox="0 0 600 700" width="600" height="700"><rect width="600" height="700" fill="#0e0d0b"/><rect x="14" y="14" width="572" height="672" fill="none" stroke="#e8e2d6" stroke-width="0.6" opacity="0.14"/><circle cx="348.6" cy="260.7" r="65.3" fill="none" stroke="#e8e2d6" stroke-width="1.6" opacity="0.8"/><circle cx="348.6" cy="260.7" r="110.1" fill="none" stroke="#e8e2d6" stroke-width="0.9" opacity="0.6"/><circle cx="348.6" cy="260.7" r="154.9" fill="none" stroke="#e8e2d6" stroke-width="0.9" opacity="0.5"/><circle cx="348.6" cy="260.7" r="199.7" fill="none" stroke="#e8e2d6" stroke-width="0.9" opacity="0.4"/><polygon points="483.3,389.9 219.4,395.4 213.9,131.5 477.8,126" fill="none" stroke="#e8e2d6" stroke-width="1.2" opacity="0.8"/><line x1="496.8" y1="402.8" x2="549.9" y2="450.1" stroke="#e8e2d6" stroke-width="0.8" opacity="0.5"/><line x1="413.8" y1="455.4" x2="442.4" y2="491.9" stroke="#e8e2d6" stroke-width="0.8" opacity="0.5"/><line x1="315.8" y1="463.4" x2="304.7" y2="545.8" stroke="#e8e2d6" stroke-width="0.8" opacity="0.5"/><line x1="225.4" y1="424.9" x2="191.5" y2="468.1" stroke="#e8e2d6" stroke-width="0.8" opacity="0.5"/><line x1="163.2" y1="348.8" x2="84.8" y2="386.1" stroke="#e8e2d6" stroke-width="0.8" opacity="0.5"/><line x1="143.5" y1="252.6" x2="56.6" y2="250.7" stroke="#e8e2d6" stroke-width="0.8" opacity="0.5"/><line x1="170.8" y1="158.2" x2="97.3" y2="137.4" stroke="#e8e2d6" stroke-width="0.8" opacity="0.5"/><line x1="238.8" y1="87.2" x2="213.4" y2="13.7" stroke="#e8e2d6" stroke-width="0.8" opacity="0.5"/><line x1="332" y1="56.1" x2="325.8" y2="-18.9" stroke="#e8e2d6" stroke-width="0.8" opacity="0.5"/><line x1="429" y1="71.8" x2="450.4" y2="9.4" stroke="#e8e2d6" stroke-width="0.8" opacity="0.5"/><line x1="507.6" y1="130.7" x2="570.6" y2="102.4" stroke="#e8e2d6" stroke-width="0.8" opacity="0.5"/><line x1="549.8" y1="219.5" x2="615.6" y2="209.6" stroke="#e8e2d6" stroke-width="0.8" opacity="0.5"/><line x1="545.9" y1="317.7" x2="594.5" y2="343.2" stroke="#e8e2d6" stroke-width="0.8" opacity="0.5"/><circle cx="490.9" cy="139.9" r="8.4" fill="#c0392b" opacity="0.9"/><circle cx="449.8" cy="396" r="0.9" fill="#e8e2d6" opacity="0.3"/><circle cx="177.9" cy="463.2" r="0.8" fill="#e8e2d6" opacity="0.1"/><circle cx="526.8" cy="15" r="1.3" fill="#e8e2d6" opacity="0.2"/><circle cx="423.5" cy="307.2" r="1.4" fill="#e8e2d6" opacity="0.2"/><circle cx="185.7" cy="563.6" r="1.3" fill="#e8e2d6" opacity="0.1"/><circle cx="30.4" cy="103.8" r="1.2" fill="#e8e2d6" opacity="0.2"/><circle cx="485.3" cy="38.8" r="1.7" fill="#e8e2d6" opacity="0.2"/><circle cx="79.9" cy="491.4" r="1" fill="#e8e2d6" opacity="0.2"/><circle cx="103.9" cy="84.5" r="1.7" fill="#e8e2d6" opacity="0.2"/><circle cx="33.5" cy="438.5" r="1" fill="#e8e2d6" opacity="0.3"/><circle cx="137.2" cy="73.1" r="1.1" fill="#e8e2d6" opacity="0.3"/><circle cx="393" cy="213.9" r="1.4" fill="#e8e2d6" opacity="0.3"/><circle cx="399.7" cy="427.7" r="1.5" fill="#e8e2d6" opacity="0.2"/><circle cx="264.8" cy="142.5" r="0.6" fill="#e8e2d6" opacity="0.2"/><circle cx="359.4" cy="297.7" r="0.8" fill="#e8e2d6" opacity="0.2"/><circle cx="510.8" cy="214.3" r="1.2" fill="#e8e2d6" opacity="0.2"/><circle cx="573.9" cy="486.2" r="0.6" fill="#e8e2d6" opacity="0.3"/><circle cx="99.5" cy="448.6" r="0.9" fill="#e8e2d6" opacity="0.2"/><circle cx="537.8" cy="288.1" r="1.3" fill="#e8e2d6" opacity="0.2"/><circle cx="370.5" cy="102.2" r="1.6" fill="#e8e2d6" opacity="0.2"/><circle cx="452.1" cy="438.8" r="1.6" fill="#e8e2d6" opacity="0.2"/><circle cx="575.2" cy="501.6" r="1.3" fill="#e8e2d6" opacity="0.3"/><circle cx="486.2" cy="198.3" r="1.6" fill="#e8e2d6" opacity="0.3"/><circle cx="436.4" cy="582.1" r="1.4" fill="#e8e2d6" opacity="0.1"/><circle cx="447.7" cy="325.5" r="1.7" fill="#e8e2d6" opacity="0.2"/><circle cx="255.1" cy="420.4" r="1" fill="#e8e2d6" opacity="0.2"/><circle cx="364.9" cy="210.4" r="0.8" fill="#e8e2d6" opacity="0.1"/><circle cx="449.5" cy="186.6" r="1.6" fill="#e8e2d6" opacity="0.2"/><circle cx="506.9" cy="145.6" r="1.5" fill="#e8e2d6" opacity="0.2"/><circle cx="270.5" cy="424.1" r="1.4" fill="#e8e2d6" opacity="0.2"/></svg>