<svg xmlns="http://www.w3.org/2000/svg" viewBox="0 0 600 620" width="600" height="620"><rect width="600" height="620" fill="#0e0d0b"/><rect x="14" y="14" width="572" height="592" fill="none" stroke="#e8e2d6" stroke-width="0.6" opacity="0.14"/><circle cx="329.5" cy="294.2" r="77.3" fill="none" stroke="#e8e2d6" stroke-width="1.6" opacity="0.8"/><circle cx="329.5" cy="294.2" r="130.2" fill="none" stroke="#e8e2d6" stroke-width="0.9" opacity="0.6"/><circle cx="329.5" cy="294.2" r="183.2" fill="none" stroke="#e8e2d6" stroke-width="0.9" opacity="0.5"/><circle cx="329.5" cy="294.2" r="236.2" fill="none" stroke="#e8e2d6" stroke-width="0.9" opacity="0.4"/><polygon points="137,402.3 221.4,101.7 521.9,186.1 437.6,486.7" fill="none" stroke="#e8e2d6" stroke-width="1.2" opacity="0.8"/><line x1="117.7" y1="413.1" x2="62.4" y2="461.6" stroke="#e8e2d6" stroke-width="0.8" opacity="0.5"/><line x1="88.3" y1="266" x2="-16.6" y2="258.5" stroke="#e8e2d6" stroke-width="0.8" opacity="0.5"/><line x1="150.9" y1="129.6" x2="78.4" y2="58.8" stroke="#e8e2d6" stroke-width="0.8" opacity="0.5"/><line x1="281.8" y1="56.1" x2="272.4" y2="-13.7" stroke="#e8e2d6" stroke-width="0.8" opacity="0.5"/><line x1="430.9" y1="73.6" x2="459.1" y2="32.3" stroke="#e8e2d6" stroke-width="0.8" opacity="0.5"/><line x1="541.2" y1="175.3" x2="595.9" y2="148.2" stroke="#e8e2d6" stroke-width="0.8" opacity="0.5"/><line x1="570.6" y1="322.5" x2="657" y2="332.7" stroke="#e8e2d6" stroke-width="0.8" opacity="0.5"/><line x1="508" y1="458.8" x2="549.1" y2="529.5" stroke="#e8e2d6" stroke-width="0.8" opacity="0.5"/><line x1="377.1" y1="532.3" x2="398.7" y2="601.7" stroke="#e8e2d6" stroke-width="0.8" opacity="0.5"/><line x1="228.1" y1="514.9" x2="193" y2="576.4" stroke="#e8e2d6" stroke-width="0.8" opacity="0.5"/><circle cx="203.3" cy="113.1" r="7.3" fill="#c0392b" opacity="0.9"/><circle cx="354.6" cy="416.7" r="1.5" fill="#e8e2d6" opacity="0.2"/><circle cx="519" cy="223" r="1.6" fill="#e8e2d6" opacity="0.2"/><circle cx="172.9" cy="565.7" r="0.6" fill="#e8e2d6" opacity="0.1"/><circle cx="487.7" cy="159.6" r="0.7" fill="#e8e2d6" opacity="0.2"/><circle cx="268.7" cy="199.2" r="0.8" fill="#e8e2d6" opacity="0.2"/><circle cx="325.4" cy="342.8" r="1.3" fill="#e8e2d6" opacity="0.3"/><circle cx="563.5" cy="149.1" r="1" fill="#e8e2d6" opacity="0.2"/><circle cx="52.8" cy="434.9" r="0.9" fill="#e8e2d6" opacity="0.2"/><circle cx="517.6" cy="276.4" r="1.2" fill="#e8e2d6" opacity="0.2"/><circle cx="580.3" cy="455.4" r="1.6" fill="#e8e2d6" opacity="0.2"/><circle cx="155" cy="359.9" r="0.9" fill="#e8e2d6" opacity="0.3"/><circle cx="369.7" cy="545.4" r="1.6" fill="#e8e2d6" opacity="0.2"/><circle cx="203.6" cy="183.5" r="1.2" fill="#e8e2d6" opacity="0.3"/><circle cx="541.3" cy="451.7" r="1.7" fill="#e8e2d6" opacity="0.3"/><circle cx="256.5" cy="544.8" r="0.9" fill="#e8e2d6" opacity="0.2"/><circle cx="141" cy="451.3" r="1.4" fill="#e8e2d6" opacity="0.2"/><circle cx="510.4" cy="237.6" r="1.4" fill="#e8e2d6" opacity="0.3"/><circle cx="252.5" cy="272.5" r="0.7" fill="#e8e2d6" opacity="0.2"/><circle cx="305.5" cy="216.1" r="1" fill="#e8e2d6" opacity="0.2"/><circle cx="449.3" cy="158.1" r="0.7" fill="#e8e2d6" opacity="0.2"/><circle cx="25.5" cy="607.3" r="0.6" fill="#e8e2d6" opacity="0.2"/><circle cx="498.9" cy="530.6" r="1.4" fill="#e8e2d6" opacity="0.2"/><circle cx="351.6" cy="30.4" r="1.3" fill="#e8e2d6" opacity="0.2"/><circle cx="17.2" cy="537.7" r="0.6" fill="#e8e2d6" opacity="0.3"/><circle cx="331.1" cy="253.5" r="1.7" fill="#e8e2d6" opacity="0.2"/><circle cx="24.6" cy="524.5" r="1.3" fill="#e8e2d6" opacity="0.1"/><circle cx="101.6" cy="395.6" r="0.7" fill="#e8e2d6" opacity="0.2"/><circle cx="9.4" cy="525.1" r="1.2" fill="#e8e2d6" opacity="0.3"/><circle cx="436.2" cy="334" r="1.7" fill="#e8e2d6" opacity="0.2"/><circle cx="125.8" cy="616.8" r="1.2" fill="#e8e2d6" opacity="0.2"/></svg>