<svg xmlns="http://www.w3.org/2000/svg" viewBox="0 0 600 760" width="600" height="760"><rect width="600" height="760" fill="#0e0d0b"/><rect x="10" y="10" width="580" height="740" fill="none" stroke="#e8e2d6" stroke-width="0.5" opacity="0.12"/><path d="M 300,110 L 280,540 L 320,540 Z" fill="#e8e2d6" opacity="0.95"/><path d="M 300,110 L 300,540" fill="none" stroke="#0e0d0b" stroke-width="1" stroke-linecap="round" stroke-linejoin="round" opacity="0.5"/><path d="M 230,540 L 370,540 L 360,556 L 240,556 Z" fill="#e8e2d6" opacity="0.95"/><path d="M 288,564 q 12,6 24,0" fill="none" stroke="#e8e2d6" stroke-width="2.4" stroke-linecap="round" stroke-linejoin="round" opacity="0.9"/><path d="M 288,576 q 12,6 24,0" fill="none" stroke="#e8e2d6" stroke-width="2.4" stroke-linecap="round" stroke-linejoin="round" opacity="0.9"/><path d="M 288,588 q 12,6 24,0" fill="none" stroke="#e8e2d6" stroke-width="2.4" stroke-linecap="round" stroke-linejoin="round" opacity="0.9"/><path d="M 288,600 q 12,6 24,0" fill="none" stroke="#e8e2d6" stroke-width="2.4" stroke-linecap="round" stroke-linejoin="round" opacity="0.9"/><path d="M 288,612 q 12,6 24,0" fill="none" stroke="#e8e2d6" stroke-width="2.4" stroke-linecap="round" stroke-linejoin="round" opacity="0.9"/><path d="M 288,624 q 12,6 24,0" fill="none" stroke="#e8e2d6" stroke-width="2.4" stroke-linecap="round" stroke-linejoin="round" opacity="0.9"/><path d="M 288,636 q 12,6 24,0" fill="none" stroke="#e8e2d6" stroke-width="2.4" stroke-linecap="round" stroke-linejoin="round" opacity="0.9"/><circle cx="300" cy="670" r="18" fill="#e8e2d6" opacity="0.95"/><circle cx="300" cy="670" r="7" fill="#0e0d0b" opacity="0.95"/><path d="M 230,548 q -40,-6 -54,-40 q 26,20 54,10" fill="none" stroke="#e8e2d6" stroke-width="1.2" stroke-linecap="round" stroke-linejoin="round" opacity="0.7"/><path d="M 370,548 q 40,-6 54,-40 q -26,20 -54,10" fill="none" stroke="#e8e2d6" stroke-width="1.2" stroke-linecap="round" stroke-linejoin="round" opacity="0.7"/><circle cx="300" cy="116" r="3" fill="#c0392b" opacity="0.9"/></svg>