<svg xmlns="http://www.w3.org/2000/svg" viewBox="0 0 600 750" width="600" height="750"><rect width="600" height="750" fill="#0e0d0b"/><rect x="14" y="14" width="572" height="722" fill="none" stroke="#e8e2d6" stroke-width="0.6" opacity="0.14"/><rect x="0" y="0" width="600" height="750" fill="#161411"/><path d="M 47.7 501.6 C 218.1 481.2, 466.4 523.1, 529.6 453.7" stroke="#e8e2d6" stroke-width="15.1" stroke-linecap="round" fill="none" opacity="0.8"/><path d="M 44.7 504.6 C 319.5 409.3, 267 511, 542.5 420.3" stroke="#161411" stroke-width="4.5" stroke-linecap="round" fill="none" opacity="0.6"/><path d="M 40.5 241 C 130.2 198.9, 449 241.2, 531.3 247.2" stroke="#e8e2d6" stroke-width="27.9" stroke-linecap="round" fill="none" opacity="0.8"/><path d="M 15.9 244 C 88.2 347.9, 382.3 400.2, 483.4 341.3" stroke="#161411" stroke-width="8.4" stroke-linecap="round" fill="none" opacity="0.6"/><path d="M 33.5 630.8 C 276.3 563, 456.8 639.6, 563.2 752.5" stroke="#e8e2d6" stroke-width="25.5" stroke-linecap="round" fill="none" opacity="0.9"/><path d="M 50.3 633.8 C 116.7 526.7, 270 597.6, 532.7 585.4" stroke="#161411" stroke-width="7.6" stroke-linecap="round" fill="none" opacity="0.6"/><path d="M 2.7 555.8 C 234.7 493.6, 420.9 627, 591.8 527.7" stroke="#e8e2d6" stroke-width="8.3" stroke-linecap="round" fill="none" opacity="0.8"/><path d="M 29.5 558.8 C 121.3 481.7, 293.3 525.5, 480.2 499.1" stroke="#161411" stroke-width="2.5" stroke-linecap="round" fill="none" opacity="0.6"/><circle cx="312.8" cy="512.2" r="7" fill="#c0392b" opacity="0.9"/></svg>