<svg xmlns="http://www.w3.org/2000/svg" viewBox="0 0 600 620" width="600" height="620"><rect width="600" height="620" fill="#0e0d0b"/><rect x="10" y="10" width="580" height="600" fill="none" stroke="#e8e2d6" stroke-width="0.5" opacity="0.12"/><circle cx="296" cy="310" r="138" fill="#e8e2d6" opacity="0.95"/><circle cx="352" cy="310" r="138" fill="#0e0d0b" opacity="1"/><circle cx="296" cy="310" r="138" fill="none" stroke="#e8e2d6" stroke-width="1" opacity="0.45"/><path d="M 217.07,430.64 L 199.82,473.86 L 229.14,437.73 Z" fill="#e8e2d6" opacity="0.85"/><path d="M 193.63,411.27 L 177.99,426.74" fill="none" stroke="#e8e2d6" stroke-width="1" stroke-linecap="round" stroke-linejoin="round" opacity="0.6"/><path d="M 167.56,375.48 L 131.11,404.41 L 174.51,387.63 Z" fill="#e8e2d6" opacity="0.85"/><path d="M 156.84,347.02 L 135.58,352.68" fill="none" stroke="#e8e2d6" stroke-width="1" stroke-linecap="round" stroke-linejoin="round" opacity="0.6"/><path d="M 152,303 L 106,310 L 152,317 Z" fill="#e8e2d6" opacity="0.85"/><path d="M 156.84,272.98 L 135.58,267.32" fill="none" stroke="#e8e2d6" stroke-width="1" stroke-linecap="round" stroke-linejoin="round" opacity="0.6"/><path d="M 174.51,232.37 L 131.11,215.59 L 167.56,244.52 Z" fill="#e8e2d6" opacity="0.85"/><path d="M 193.63,208.73 L 177.99,193.26" fill="none" stroke="#e8e2d6" stroke-width="1" stroke-linecap="round" stroke-linejoin="round" opacity="0.6"/><path d="M 229.14,182.27 L 199.82,146.14 L 217.07,189.36 Z" fill="#e8e2d6" opacity="0.85"/><path d="M 340,257 C 342.52,263.48 342.52,263.48 349,266 C 342.52,268.52 342.52,268.52 340,275 C 337.48,268.52 337.48,268.52 331,266 C 337.48,263.48 337.48,263.48 340,257 Z" fill="#c0392b" opacity="0.9"/><path d="M 360,310 C 361.68,314.32 361.68,314.32 366,316 C 361.68,317.68 361.68,317.68 360,322 C 358.32,317.68 358.32,317.68 354,316 C 358.32,314.32 358.32,314.32 360,310 Z" fill="#e8e2d6" opacity="0.7"/><path d="M 336,351 C 337.96,356.04 337.96,356.04 343,358 C 337.96,359.96 337.96,359.96 336,365 C 334.04,359.96 334.04,359.96 329,358 C 334.04,356.04 334.04,356.04 336,351 Z" fill="#e8e2d6" opacity="0.8"/></svg>