<svg xmlns="http://www.w3.org/2000/svg" viewBox="0 0 600 600" width="600" height="600"><rect width="600" height="600" fill="#0e0d0b"/><rect x="14" y="14" width="572" height="572" fill="none" stroke="#e8e2d6" stroke-width="0.6" opacity="0.14"/><rect x="0" y="0" width="600" height="600" fill="#161411"/><path d="M 28.9 473.8 C 177.9 554, 441.2 511.4, 563.2 517.8" stroke="#e8e2d6" stroke-width="24.9" stroke-linecap="round" fill="none" opacity="0.9"/><path d="M 106.9 476.8 C 247.5 394.6, 310.3 356, 505.2 415.5" stroke="#161411" stroke-width="7.5" stroke-linecap="round" fill="none" opacity="0.6"/><path d="M 12.5 240.9 C 152.7 200, 389.6 251.9, 554.4 259" stroke="#e8e2d6" stroke-width="25.5" stroke-linecap="round" fill="none" opacity="0.8"/><path d="M 77.9 243.9 C 258.8 271.8, 326.2 323.9, 581.6 317.5" stroke="#161411" stroke-width="7.7" stroke-linecap="round" fill="none" opacity="0.6"/><path d="M 12.3 223.6 C 274 205.8, 415 317, 540.7 254.3" stroke="#e8e2d6" stroke-width="21.6" stroke-linecap="round" fill="none" opacity="0.8"/><path d="M 105.8 226.6 C 295.9 115.2, 435.6 160, 555.9 160.5" stroke="#161411" stroke-width="6.5" stroke-linecap="round" fill="none" opacity="0.6"/><path d="M 22.5 516.3 C 150.1 562.6, 398.2 620.6, 559.6 546.8" stroke="#e8e2d6" stroke-width="20.1" stroke-linecap="round" fill="none" opacity="0.9"/><path d="M 81.3 519.3 C 208.9 571.7, 406.6 443.5, 572.3 534.9" stroke="#161411" stroke-width="6" stroke-linecap="round" fill="none" opacity="0.6"/><path d="M 87 420.8 C 319.5 445.6, 369.4 546.9, 521.5 505.6" stroke="#e8e2d6" stroke-width="12.1" stroke-linecap="round" fill="none" opacity="0.9"/><path d="M 92.4 423.8 C 233.5 356.9, 406.1 343.3, 516.3 360.5" stroke="#161411" stroke-width="3.6" stroke-linecap="round" fill="none" opacity="0.6"/><circle cx="389.4" cy="305.1" r="7.7" fill="#c0392b" opacity="0.9"/></svg>