<svg xmlns="http://www.w3.org/2000/svg" viewBox="0 0 600 800" width="600" height="800"><rect width="600" height="800" fill="#0e0d0b"/><rect x="14" y="14" width="572" height="772" fill="none" stroke="#e8e2d6" stroke-width="0.6" opacity="0.14"/><rect x="0" y="0" width="600" height="800" fill="#161411"/><path d="M 5.1 560.3 C 90.4 652.7, 379.8 547.2, 571.1 657.5" stroke="#e8e2d6" stroke-width="12.7" stroke-linecap="round" fill="none" opacity="0.8"/><path d="M 82.4 563.3 C 113.6 562, 292.1 437.2, 537.7 518.8" stroke="#161411" stroke-width="3.8" stroke-linecap="round" fill="none" opacity="0.6"/><path d="M 22.4 317 C 113 258.3, 384.4 253, 530.4 212.3" stroke="#e8e2d6" stroke-width="18.1" stroke-linecap="round" fill="none" opacity="0.8"/><path d="M 119.5 320 C 154.2 286.7, 438.9 238.1, 566.3 252.5" stroke="#161411" stroke-width="5.4" stroke-linecap="round" fill="none" opacity="0.6"/><path d="M 0.8 495.7 C 67.2 456.8, 224.6 548.2, 514.9 449" stroke="#e8e2d6" stroke-width="12.6" stroke-linecap="round" fill="none" opacity="0.9"/><path d="M 93.9 498.7 C 227.1 583.9, 387.1 399.6, 481.4 466.5" stroke="#161411" stroke-width="3.8" stroke-linecap="round" fill="none" opacity="0.6"/><path d="M 78.3 342.1 C 138.6 350.8, 408.8 367.3, 542.5 232.1" stroke="#e8e2d6" stroke-width="9" stroke-linecap="round" fill="none" opacity="0.9"/><path d="M 108.1 345.1 C 298.7 375.3, 355.9 214.4, 493.1 303.4" stroke="#161411" stroke-width="2.7" stroke-linecap="round" fill="none" opacity="0.6"/><circle cx="431.2" cy="536.8" r="11.6" fill="#c0392b" opacity="0.9"/></svg>