<svg xmlns="http://www.w3.org/2000/svg" viewBox="0 0 600 760" width="600" height="760"><rect width="600" height="760" fill="#0e0d0b"/><rect x="10" y="10" width="580" height="740" fill="none" stroke="#e8e2d6" stroke-width="0.5" opacity="0.12"/><path d="M 300,90 L 328.72,104 L 337.57,118 L 346.01,132 L 353.49,146 L 359.5,160 L 363.56,174 L 365.31,188 L 364.51,202 L 361.05,216 L 355,230 L 346.57,244 L 336.13,258 L 324.2,272 L 311.41,286 L 298.47,300 L 286.14,314 L 275.17,328 L 266.27,342 L 260.05,356 L 257,370 L 257.43,384 L 261.46,398 L 269.01,412 L 279.8,426 L 293.31,440 L 308.88,454 L 325.68,468 L 342.81,482 L 359.27,496 L 374.09,510 L 386.38,524 L 395.32,538 L 400.3,552 L 400.89,566 L 396.91,580 L 388.44,594 L 375.82,608 L 359.63,622 L 340.69,636 L 320,650 L 280,650 L 300.69,636 L 319.63,622 L 335.82,608 L 348.44,594 L 356.91,580 L 360.89,566 L 360.3,552 L 355.32,538 L 346.38,524 L 334.09,510 L 319.27,496 L 302.81,482 L 285.68,468 L 268.88,454 L 253.31,440 L 239.8,426 L 229.01,412 L 221.46,398 L 217.43,384 L 217,370 L 220.05,356 L 226.27,342 L 235.17,328 L 246.14,314 L 258.47,300 L 271.41,286 L 284.2,272 L 296.13,258 L 306.57,244 L 315,230 L 321.05,216 L 324.51,202 L 325.31,188 L 323.56,174 L 319.5,160 L 313.49,146 L 306.01,132 L 297.57,118 L 288.72,104 L 280,90 Z" fill="#e8e2d6" opacity="0.9"/><path d="M 300.57,118 L 334.57,118" fill="none" stroke="#0e0d0b" stroke-width="0.8" stroke-linecap="round" stroke-linejoin="round" opacity="0.35"/><path d="M 316.49,146 L 350.49,146" fill="none" stroke="#0e0d0b" stroke-width="0.8" stroke-linecap="round" stroke-linejoin="round" opacity="0.35"/><path d="M 326.56,174 L 360.56,174" fill="none" stroke="#0e0d0b" stroke-width="0.8" stroke-linecap="round" stroke-linejoin="round" opacity="0.35"/><path d="M 327.51,202 L 361.51,202" fill="none" stroke="#0e0d0b" stroke-width="0.8" stroke-linecap="round" stroke-linejoin="round" opacity="0.35"/><path d="M 318,230 L 352,230" fill="none" stroke="#0e0d0b" stroke-width="0.8" stroke-linecap="round" stroke-linejoin="round" opacity="0.35"/><path d="M 299.13,258 L 333.13,258" fill="none" stroke="#0e0d0b" stroke-width="0.8" stroke-linecap="round" stroke-linejoin="round" opacity="0.35"/><path d="M 274.41,286 L 308.41,286" fill="none" stroke="#0e0d0b" stroke-width="0.8" stroke-linecap="round" stroke-linejoin="round" opacity="0.35"/><path d="M 249.14,314 L 283.14,314" fill="none" stroke="#0e0d0b" stroke-width="0.8" stroke-linecap="round" stroke-linejoin="round" opacity="0.35"/><path d="M 229.27,342 L 263.27,342" fill="none" stroke="#0e0d0b" stroke-width="0.8" stroke-linecap="round" stroke-linejoin="round" opacity="0.35"/><path d="M 220,370 L 254,370" fill="none" stroke="#0e0d0b" stroke-width="0.8" stroke-linecap="round" stroke-linejoin="round" opacity="0.35"/><path d="M 224.46,398 L 258.46,398" fill="none" stroke="#0e0d0b" stroke-width="0.8" stroke-linecap="round" stroke-linejoin="round" opacity="0.35"/><path d="M 242.8,426 L 276.8,426" fill="none" stroke="#0e0d0b" stroke-width="0.8" stroke-linecap="round" stroke-linejoin="round" opacity="0.35"/><path d="M 271.88,454 L 305.88,454" fill="none" stroke="#0e0d0b" stroke-width="0.8" stroke-linecap="round" stroke-linejoin="round" opacity="0.35"/><path d="M 305.81,482 L 339.81,482" fill="none" stroke="#0e0d0b" stroke-width="0.8" stroke-linecap="round" stroke-linejoin="round" opacity="0.35"/><path d="M 337.09,510 L 371.09,510" fill="none" stroke="#0e0d0b" stroke-width="0.8" stroke-linecap="round" stroke-linejoin="round" opacity="0.35"/><path d="M 358.32,538 L 392.32,538" fill="none" stroke="#0e0d0b" stroke-width="0.8" stroke-linecap="round" stroke-linejoin="round" opacity="0.35"/><path d="M 363.89,566 L 397.89,566" fill="none" stroke="#0e0d0b" stroke-width="0.8" stroke-linecap="round" stroke-linejoin="round" opacity="0.35"/><path d="M 351.44,594 L 385.44,594" fill="none" stroke="#0e0d0b" stroke-width="0.8" stroke-linecap="round" stroke-linejoin="round" opacity="0.35"/><path d="M 322.63,622 L 356.63,622" fill="none" stroke="#0e0d0b" stroke-width="0.8" stroke-linecap="round" stroke-linejoin="round" opacity="0.35"/><path d="M 278,90 q 0,-30 22,-30 q 22,0 22,30 q -6,26 -22,26 q -16,0 -22,-26 Z" fill="#e8e2d6" opacity="0.95"/><circle cx="291" cy="82" r="3" fill="#0e0d0b" opacity="1"/><circle cx="309" cy="82" r="3" fill="#0e0d0b" opacity="1"/><path d="M 300,116 L 300,136 M 300,136 l -7,7 M 300,136 l 7,7" fill="none" stroke="#c0392b" stroke-width="1.4" stroke-linecap="round" stroke-linejoin="round" opacity="0.9"/></svg>