<svg xmlns="http://www.w3.org/2000/svg" viewBox="0 0 600 700" width="600" height="700"><rect width="600" height="700" fill="#0e0d0b"/><rect x="14" y="14" width="572" height="672" fill="none" stroke="#e8e2d6" stroke-width="0.6" opacity="0.14"/><rect x="0" y="0" width="600" height="700" fill="#161411"/><path d="M 52.8 198 C 108.7 254.2, 450.2 175.7, 515 299.3" stroke="#e8e2d6" stroke-width="12.1" stroke-linecap="round" fill="none" opacity="0.8"/><path d="M 10 201 C 96.9 182.8, 406.8 201, 561.8 136.5" stroke="#161411" stroke-width="3.6" stroke-linecap="round" fill="none" opacity="0.6"/><path d="M 78.2 237.8 C 209 212.5, 359 242.3, 564.9 333.7" stroke="#e8e2d6" stroke-width="11.9" stroke-linecap="round" fill="none" opacity="0.8"/><path d="M 46.4 240.8 C 209 228.9, 409.7 280.9, 494.6 241.9" stroke="#161411" stroke-width="3.6" stroke-linecap="round" fill="none" opacity="0.6"/><path d="M 32.4 222.1 C 131 188.7, 397 221.7, 537.4 225.6" stroke="#e8e2d6" stroke-width="20.7" stroke-linecap="round" fill="none" opacity="0.8"/><path d="M 64.7 225.1 C 189.6 185.6, 379.8 81.9, 482.8 124.8" stroke="#161411" stroke-width="6.2" stroke-linecap="round" fill="none" opacity="0.6"/><path d="M 8.4 210.8 C 288.6 151.1, 285.2 136.9, 541.5 93.3" stroke="#e8e2d6" stroke-width="27.5" stroke-linecap="round" fill="none" opacity="0.9"/><path d="M 118.6 213.8 C 199.5 219, 376.2 236.3, 580.1 128.6" stroke="#161411" stroke-width="8.3" stroke-linecap="round" fill="none" opacity="0.6"/><path d="M 38.9 389.8 C 181.9 400.6, 337.6 515.8, 577 465" stroke="#e8e2d6" stroke-width="31.8" stroke-linecap="round" fill="none" opacity="0.8"/><path d="M 54.4 392.8 C 173.6 291.9, 440.4 396.7, 544 306" stroke="#161411" stroke-width="9.5" stroke-linecap="round" fill="none" opacity="0.6"/><circle cx="275.3" cy="169.3" r="8.3" fill="#c0392b" opacity="0.9"/></svg>