<svg xmlns="http://www.w3.org/2000/svg" viewBox="0 0 600 620" width="600" height="620"><rect width="600" height="620" fill="#0e0d0b"/><rect x="14" y="14" width="572" height="592" fill="none" stroke="#e8e2d6" stroke-width="0.6" opacity="0.14"/><rect x="0" y="0" width="600" height="620" fill="#161411"/><path d="M 34.9 270.7 C 249.2 183, 281.2 121, 546.3 162.4" stroke="#e8e2d6" stroke-width="11.2" stroke-linecap="round" fill="none" opacity="0.8"/><path d="M 55.4 273.7 C 269.6 302.7, 439.7 341.5, 576.9 248.6" stroke="#161411" stroke-width="3.4" stroke-linecap="round" fill="none" opacity="0.6"/><path d="M 49.6 92.3 C 202.8 96.5, 403.3 54.6, 581.3 38.8" stroke="#e8e2d6" stroke-width="9.9" stroke-linecap="round" fill="none" opacity="0.9"/><path d="M 30.4 95.3 C 110.1 164.3, 411.3 126.8, 543.7 114.8" stroke="#161411" stroke-width="3" stroke-linecap="round" fill="none" opacity="0.6"/><path d="M 45.3 218.1 C 186.4 166.3, 310 219.9, 583.9 254.2" stroke="#e8e2d6" stroke-width="29.1" stroke-linecap="round" fill="none" opacity="0.8"/><path d="M 108.6 221.1 C 249.1 241.8, 307.8 143.4, 493.3 178.7" stroke="#161411" stroke-width="8.7" stroke-linecap="round" fill="none" opacity="0.6"/><path d="M 7.4 151.7 C 265.3 222.9, 336.5 133.5, 530.8 154.1" stroke="#e8e2d6" stroke-width="24.4" stroke-linecap="round" fill="none" opacity="0.9"/><path d="M 19.4 154.7 C 255 140.7, 399.5 223.5, 485.3 192.3" stroke="#161411" stroke-width="7.3" stroke-linecap="round" fill="none" opacity="0.6"/><circle cx="289.6" cy="444.2" r="13.3" fill="#c0392b" opacity="0.9"/></svg>