<svg xmlns="http://www.w3.org/2000/svg" viewBox="0 0 600 760" width="600" height="760"><rect width="600" height="760" fill="#0e0d0b"/><rect x="10" y="10" width="580" height="740" fill="none" stroke="#e8e2d6" stroke-width="0.5" opacity="0.12"/><circle cx="364.87" cy="448.52" r="1.19" fill="#e8e2d6" opacity="0.16600523227825761"/><circle cx="318.3" cy="461.88" r="1.13" fill="#e8e2d6" opacity="0.3187041344121099"/><circle cx="251.99" cy="509.36" r="0.78" fill="#e8e2d6" opacity="0.1857029146514833"/><circle cx="226.18" cy="442.71" r="1.26" fill="#e8e2d6" opacity="0.2653077500872314"/><circle cx="251.05" cy="641.63" r="1.45" fill="#e8e2d6" opacity="0.21352217234671117"/><circle cx="373.86" cy="191.28" r="1.42" fill="#e8e2d6" opacity="0.3455339701380581"/><circle cx="178.1" cy="111.37" r="0.98" fill="#e8e2d6" opacity="0.2606891905888915"/><circle cx="346" cy="642.58" r="1.53" fill="#e8e2d6" opacity="0.3140574072021991"/><circle cx="230.83" cy="19.32" r="1.53" fill="#e8e2d6" opacity="0.24945178525522352"/><circle cx="315.67" cy="205.53" r="1.41" fill="#e8e2d6" opacity="0.16778008006513118"/><circle cx="386.46" cy="34.28" r="1.3" fill="#e8e2d6" opacity="0.3468746478203684"/><circle cx="211.75" cy="36.69" r="1.06" fill="#e8e2d6" opacity="0.30189227778464556"/><circle cx="180.23" cy="421.65" r="1.53" fill="#e8e2d6" opacity="0.18203464993275703"/><circle cx="71.15" cy="478.97" r="0.74" fill="#e8e2d6" opacity="0.22383530344814062"/><circle cx="226.57" cy="712.35" r="1.29" fill="#e8e2d6" opacity="0.23217524578794838"/><circle cx="551.27" cy="446.24" r="0.94" fill="#e8e2d6" opacity="0.25290130558423696"/><circle cx="5.16" cy="669.34" r="1.05" fill="#e8e2d6" opacity="0.17469844268634915"/><circle cx="47.86" cy="566.28" r="1.17" fill="#e8e2d6" opacity="0.17067253314889969"/><path d="M 335.81,465.87 C 337.74,470.82 337.74,470.82 342.69,472.75 C 337.74,474.68 337.74,474.68 335.81,479.63 C 333.88,474.68 333.88,474.68 328.92,472.75 C 333.88,470.82 333.88,470.82 335.81,465.87 Z" fill="#e8e2d6" opacity="0.6"/><circle cx="358.91" cy="458.84" r="1.14" fill="#e8e2d6" opacity="0.16888651815243066"/><path d="M 391.04,488.48 C 392.76,492.9 392.76,492.9 397.18,494.62 C 392.76,496.33 392.76,496.33 391.04,500.75 C 389.33,496.33 389.33,496.33 384.91,494.62 C 389.33,492.9 389.33,492.9 391.04,488.48 Z" fill="#e8e2d6" opacity="0.6"/><circle cx="81.05" cy="104.51" r="1.67" fill="#e8e2d6" opacity="0.21869570878334343"/><circle cx="456.41" cy="496.91" r="0.92" fill="#e8e2d6" opacity="0.2828023938462138"/><circle cx="295.43" cy="477.12" r="1.39" fill="#e8e2d6" opacity="0.21298330444842578"/><circle cx="55.21" cy="420.99" r="0.8" fill="#e8e2d6" opacity="0.3133250201120973"/><circle cx="561.07" cy="570.46" r="1.08" fill="#e8e2d6" opacity="0.3200785073451698"/><circle cx="341.56" cy="532.2" r="0.6" fill="#e8e2d6" opacity="0.24921233425848185"/><circle cx="294.72" cy="123.98" r="0.67" fill="#e8e2d6" opacity="0.16695539010688662"/><circle cx="598.53" cy="465.73" r="1.52" fill="#e8e2d6" opacity="0.33372807004489"/><circle cx="589.42" cy="38.47" r="1.26" fill="#e8e2d6" opacity="0.22898539425805212"/><circle cx="30.34" cy="46.29" r="0.9" fill="#e8e2d6" opacity="0.233450944442302"/><circle cx="202.89" cy="447.44" r="1.67" fill="#e8e2d6" opacity="0.20937222139909864"/><circle cx="267.34" cy="186.35" r="0.95" fill="#e8e2d6" opacity="0.262489203363657"/><circle cx="386.1" cy="2.13" r="0.78" fill="#e8e2d6" opacity="0.3144017855171114"/><circle cx="81.4" cy="620.81" r="1.3" fill="#e8e2d6" opacity="0.31511713718064127"/><circle cx="443.36" cy="617.42" r="0.7" fill="#e8e2d6" opacity="0.2988176847342402"/><circle cx="129.45" cy="85.8" r="0.71" fill="#e8e2d6" opacity="0.3266953439451754"/><circle cx="383.4" cy="547.69" r="1.43" fill="#e8e2d6" opacity="0.29133287630975246"/><circle cx="230.24" cy="580.57" r="0.82" fill="#e8e2d6" opacity="0.17771530160680413"/><circle cx="375.21" cy="6.42" r="1.66" fill="#e8e2d6" opacity="0.32315154522657397"/><path d="M 60,439.2 Q 300,469.2 540,439.2" fill="none" stroke="#e8e2d6" stroke-width="0.8" stroke-linecap="round" stroke-linejoin="round" opacity="0.35"/><circle cx="76" cy="319.2" r="46" fill="none" stroke="#e8e2d6" stroke-width="1.1" opacity="0.5"/><circle cx="188" cy="319.2" r="46" fill="#e8e2d6" opacity="0.95"/><circle cx="165" cy="319.2" r="46" fill="#0e0d0b" opacity="1"/><circle cx="188" cy="319.2" r="46" fill="none" stroke="#e8e2d6" stroke-width="1" opacity="0.55"/><circle cx="300" cy="319.2" r="46" fill="#e8e2d6" opacity="0.95"/><circle cx="254" cy="319.2" r="46" fill="#0e0d0b" opacity="1"/><circle cx="300" cy="319.2" r="46" fill="none" stroke="#e8e2d6" stroke-width="1" opacity="0.55"/><circle cx="412" cy="319.2" r="46" fill="#e8e2d6" opacity="0.95"/><circle cx="343" cy="319.2" r="46" fill="#0e0d0b" opacity="1"/><circle cx="412" cy="319.2" r="46" fill="none" stroke="#e8e2d6" stroke-width="1" opacity="0.55"/><circle cx="524" cy="319.2" r="46" fill="#e8e2d6" opacity="0.95"/><circle cx="512" cy="305.2" r="5" fill="#0e0d0b" opacity="1"/><circle cx="538" cy="327.2" r="7" fill="#0e0d0b" opacity="1"/><circle cx="520" cy="337.2" r="4" fill="#0e0d0b" opacity="1"/><circle cx="524" cy="319.2" r="46" fill="none" stroke="#e8e2d6" stroke-width="1" opacity="0.6"/><path d="M 528,240.2 C 529.96,245.24 529.96,245.24 535,247.2 C 529.96,249.16 529.96,249.16 528,254.2 C 526.04,249.16 526.04,249.16 521,247.2 C 526.04,245.24 526.04,245.24 528,240.2 Z" fill="#c0392b" opacity="0.9"/></svg>