<svg xmlns="http://www.w3.org/2000/svg" viewBox="0 0 600 750" width="600" height="750"><rect width="600" height="750" fill="#0e0d0b"/><rect x="14" y="14" width="572" height="722" fill="none" stroke="#e8e2d6" stroke-width="0.6" opacity="0.14"/><circle cx="307.9" cy="398.2" r="130.8" fill="none" stroke="#e8e2d6" stroke-width="1.6" opacity="0.9"/><circle cx="353.7" cy="372" r="107.2" fill="#0e0d0b" opacity="0.92"/><path d="M -20 663.2 C 117.6 644.8, 382 670.8, 620 640.3" stroke="#e8e2d6" stroke-width="1.6" fill="none" opacity="0.4"/><path d="M -20 630.6 C 272.1 602.6, 452.8 597.8, 620 598.2" stroke="#e8e2d6" stroke-width="1" fill="none" opacity="0.3"/><path d="M -20 571.1 C 124 623.9, 362.3 606, 620 580.7" stroke="#e8e2d6" stroke-width="1.1" fill="none" opacity="0.6"/><path d="M -20 648.8 C 115.4 754.4, 440 690.1, 620 698" stroke="#e8e2d6" stroke-width="0.9" fill="none" opacity="0.3"/><path d="M -20 481.2 C 147.9 591.2, 487.8 483.9, 620 546.9" stroke="#e8e2d6" stroke-width="1.6" fill="none" opacity="0.4"/><circle cx="366.9" cy="595.2" r="6.1" fill="#c0392b" opacity="0.9"/><circle cx="515.4" cy="120.6" r="2" fill="#e8e2d6" opacity="0.4"/><circle cx="81.9" cy="123.6" r="1.4" fill="#e8e2d6" opacity="0.5"/><circle cx="514.2" cy="601" r="1.2" fill="#e8e2d6" opacity="0.5"/><circle cx="506.6" cy="695.5" r="1.8" fill="#e8e2d6" opacity="0.2"/><circle cx="157.1" cy="552.7" r="1.2" fill="#e8e2d6" opacity="0.3"/><circle cx="371.3" cy="63" r="0.6" fill="#e8e2d6" opacity="0.3"/><circle cx="133.8" cy="255.6" r="1.1" fill="#e8e2d6" opacity="0.3"/><circle cx="392.2" cy="273.7" r="1.7" fill="#e8e2d6" opacity="0.3"/><circle cx="68.5" cy="45" r="1.7" fill="#e8e2d6" opacity="0.2"/><circle cx="71.7" cy="402.8" r="1.9" fill="#e8e2d6" opacity="0.3"/><circle cx="427.5" cy="713.9" r="0.8" fill="#e8e2d6" opacity="0.3"/><circle cx="426.1" cy="710.6" r="1.5" fill="#e8e2d6" opacity="0.2"/><circle cx="405.3" cy="205" r="1.4" fill="#e8e2d6" opacity="0.3"/><circle cx="225.8" cy="160.2" r="1.2" fill="#e8e2d6" opacity="0.4"/><circle cx="426.9" cy="164.6" r="1" fill="#e8e2d6" opacity="0.4"/><circle cx="10.8" cy="575.1" r="1.1" fill="#e8e2d6" opacity="0.5"/><circle cx="586.4" cy="262.6" r="2" fill="#e8e2d6" opacity="0.4"/><circle cx="55.2" cy="320.9" r="1" fill="#e8e2d6" opacity="0.5"/><circle cx="400.7" cy="418.4" r="0.9" fill="#e8e2d6" opacity="0.3"/><circle cx="83" cy="620.7" r="1.8" fill="#e8e2d6" opacity="0.4"/><circle cx="143" cy="567.4" r="1.7" fill="#e8e2d6" opacity="0.2"/><circle cx="106.1" cy="664.9" r="2" fill="#e8e2d6" opacity="0.4"/><circle cx="548.8" cy="134.3" r="1.5" fill="#e8e2d6" opacity="0.3"/><circle cx="27" cy="291.6" r="0.6" fill="#e8e2d6" opacity="0.3"/><circle cx="280.4" cy="501.9" r="1.1" fill="#e8e2d6" opacity="0.2"/><circle cx="20" cy="23.9" r="1.8" fill="#e8e2d6" opacity="0.2"/><circle cx="367.4" cy="668.2" r="2.1" fill="#e8e2d6" opacity="0.3"/><circle cx="209.4" cy="258.2" r="1.4" fill="#e8e2d6" opacity="0.3"/><circle cx="473.7" cy="60.1" r="1.6" fill="#e8e2d6" opacity="0.3"/><circle cx="446.4" cy="519.3" r="1.9" fill="#e8e2d6" opacity="0.3"/><circle cx="476.7" cy="295.8" r="1.9" fill="#e8e2d6" opacity="0.3"/><circle cx="65" cy="341.2" r="1.7" fill="#e8e2d6" opacity="0.3"/><circle cx="67.7" cy="171.9" r="1" fill="#e8e2d6" opacity="0.5"/><circle cx="127.6" cy="620.4" r="1.4" fill="#e8e2d6" opacity="0.5"/><circle cx="94.4" cy="728.1" r="1.9" fill="#e8e2d6" opacity="0.5"/><circle cx="321.4" cy="565.9" r="0.8" fill="#e8e2d6" opacity="0.4"/><circle cx="512.3" cy="725.7" r="1.6" fill="#e8e2d6" opacity="0.2"/><circle cx="237.3" cy="574.4" r="1.9" fill="#e8e2d6" opacity="0.3"/><circle cx="270.8" cy="378.4" r="1.3" fill="#e8e2d6" opacity="0.3"/><circle cx="374.9" cy="350.8" r="2.1" fill="#e8e2d6" opacity="0.3"/><circle cx="493.1" cy="522.5" r="1.1" fill="#e8e2d6" opacity="0.2"/><circle cx="419.1" cy="225.4" r="0.6" fill="#e8e2d6" opacity="0.3"/></svg>