<svg xmlns="http://www.w3.org/2000/svg" viewBox="0 0 600 600" width="600" height="600"><rect width="600" height="600" fill="#0e0d0b"/><rect x="14" y="14" width="572" height="572" fill="none" stroke="#e8e2d6" stroke-width="0.6" opacity="0.14"/><circle cx="389.1" cy="296.2" r="115.3" fill="none" stroke="#e8e2d6" stroke-width="1.6" opacity="0.9"/><circle cx="429.5" cy="273.1" r="94.6" fill="#0e0d0b" opacity="0.92"/><path d="M -20 537.5 C 181.4 529.1, 392.4 482.8, 620 559.4" stroke="#e8e2d6" stroke-width="0.9" fill="none" opacity="0.3"/><path d="M -20 543.7 C 188.4 516.6, 403.6 602.3, 620 571.4" stroke="#e8e2d6" stroke-width="0.8" fill="none" opacity="0.3"/><path d="M -20 354.7 C 246.1 421.7, 437 312.8, 620 345.9" stroke="#e8e2d6" stroke-width="1.8" fill="none" opacity="0.4"/><path d="M -20 544.5 C 207 524.9, 388.5 470.9, 620 525.7" stroke="#e8e2d6" stroke-width="0.8" fill="none" opacity="0.6"/><path d="M -20 495 C 229.1 557.6, 422.3 525.3, 620 544.2" stroke="#e8e2d6" stroke-width="0.9" fill="none" opacity="0.4"/><circle cx="150.2" cy="517.4" r="6.9" fill="#c0392b" opacity="0.9"/><circle cx="509" cy="435.2" r="0.8" fill="#e8e2d6" opacity="0.4"/><circle cx="585.7" cy="507.1" r="0.7" fill="#e8e2d6" opacity="0.2"/><circle cx="472.3" cy="483.9" r="1.6" fill="#e8e2d6" opacity="0.5"/><circle cx="381.7" cy="461.9" r="0.7" fill="#e8e2d6" opacity="0.2"/><circle cx="434.5" cy="344.4" r="1" fill="#e8e2d6" opacity="0.4"/><circle cx="565.7" cy="51.1" r="1.1" fill="#e8e2d6" opacity="0.4"/><circle cx="57.5" cy="480.6" r="1.4" fill="#e8e2d6" opacity="0.4"/><circle cx="5.7" cy="0.1" r="1.8" fill="#e8e2d6" opacity="0.5"/><circle cx="569" cy="294.3" r="0.7" fill="#e8e2d6" opacity="0.3"/><circle cx="329.3" cy="434.4" r="1.9" fill="#e8e2d6" opacity="0.3"/><circle cx="147.1" cy="410.8" r="1" fill="#e8e2d6" opacity="0.3"/><circle cx="298.5" cy="277.3" r="0.7" fill="#e8e2d6" opacity="0.5"/><circle cx="597.6" cy="312.6" r="1.6" fill="#e8e2d6" opacity="0.4"/><circle cx="237.9" cy="238.7" r="0.8" fill="#e8e2d6" opacity="0.4"/><circle cx="146.2" cy="539.8" r="0.6" fill="#e8e2d6" opacity="0.4"/><circle cx="207.2" cy="63.7" r="1.4" fill="#e8e2d6" opacity="0.4"/><circle cx="218.7" cy="307.8" r="1.6" fill="#e8e2d6" opacity="0.5"/><circle cx="439" cy="310.6" r="1.5" fill="#e8e2d6" opacity="0.5"/><circle cx="526" cy="109.4" r="0.7" fill="#e8e2d6" opacity="0.3"/><circle cx="322.6" cy="19.4" r="1.4" fill="#e8e2d6" opacity="0.3"/><circle cx="573.4" cy="334.6" r="0.7" fill="#e8e2d6" opacity="0.2"/><circle cx="587.6" cy="80.5" r="1.1" fill="#e8e2d6" opacity="0.4"/><circle cx="193.3" cy="524.3" r="1.6" fill="#e8e2d6" opacity="0.3"/><circle cx="431" cy="359.6" r="2.1" fill="#e8e2d6" opacity="0.3"/><circle cx="226.8" cy="361.3" r="0.9" fill="#e8e2d6" opacity="0.4"/><circle cx="530.2" cy="460.8" r="0.8" fill="#e8e2d6" opacity="0.4"/><circle cx="558.8" cy="475.1" r="0.9" fill="#e8e2d6" opacity="0.3"/><circle cx="49" cy="51.7" r="1.4" fill="#e8e2d6" opacity="0.2"/><circle cx="399.1" cy="200.7" r="1.8" fill="#e8e2d6" opacity="0.3"/><circle cx="142.8" cy="97.7" r="2" fill="#e8e2d6" opacity="0.4"/><circle cx="92" cy="404.9" r="1.2" fill="#e8e2d6" opacity="0.4"/><circle cx="129.9" cy="461.5" r="1.1" fill="#e8e2d6" opacity="0.3"/><circle cx="82.9" cy="188.1" r="1.8" fill="#e8e2d6" opacity="0.4"/><circle cx="475.1" cy="26.9" r="1" fill="#e8e2d6" opacity="0.4"/><circle cx="280.2" cy="166" r="0.6" fill="#e8e2d6" opacity="0.4"/><circle cx="121.1" cy="568.6" r="0.9" fill="#e8e2d6" opacity="0.3"/><circle cx="429.8" cy="361.2" r="1" fill="#e8e2d6" opacity="0.3"/><circle cx="366.3" cy="169.9" r="1.2" fill="#e8e2d6" opacity="0.4"/><circle cx="477.2" cy="233.5" r="1.3" fill="#e8e2d6" opacity="0.3"/><circle cx="440.2" cy="163.1" r="0.9" fill="#e8e2d6" opacity="0.3"/><circle cx="322.7" cy="55.2" r="1.6" fill="#e8e2d6" opacity="0.5"/><circle cx="152.4" cy="183.5" r="1.5" fill="#e8e2d6" opacity="0.2"/></svg>