<svg xmlns="http://www.w3.org/2000/svg" viewBox="0 0 600 760" width="600" height="760"><rect width="600" height="760" fill="#0e0d0b"/><rect x="10" y="10" width="580" height="740" fill="none" stroke="#e8e2d6" stroke-width="0.5" opacity="0.12"/><path d="M 286.03,672.87 C 287.44,676.5 287.44,676.5 291.06,677.91 C 287.44,679.32 287.44,679.32 286.03,682.95 C 284.61,679.32 284.61,679.32 280.99,677.91 C 284.61,676.5 284.61,676.5 286.03,672.87 Z" fill="#e8e2d6" opacity="0.6"/><circle cx="265.71" cy="590.01" r="0.97" fill="#e8e2d6" opacity="0.2726506698410958"/><path d="M 204.05,69.06 C 205.34,72.39 205.34,72.39 208.67,73.68 C 205.34,74.97 205.34,74.97 204.05,78.3 C 202.75,74.97 202.75,74.97 199.43,73.68 C 202.75,72.39 202.75,72.39 204.05,69.06 Z" fill="#e8e2d6" opacity="0.6"/><circle cx="332.6" cy="625.72" r="1.14" fill="#e8e2d6" opacity="0.1961975340731442"/><circle cx="58.69" cy="508.29" r="1.59" fill="#e8e2d6" opacity="0.2797684178687632"/><circle cx="353.46" cy="139.47" r="1.02" fill="#e8e2d6" opacity="0.21229779860004783"/><circle cx="233.18" cy="704.73" r="1.43" fill="#e8e2d6" opacity="0.2128819276113063"/><circle cx="518.86" cy="700.31" r="1.3" fill="#e8e2d6" opacity="0.17555264974944293"/><circle cx="282.85" cy="45.32" r="1.4" fill="#e8e2d6" opacity="0.22841246421448885"/><circle cx="471.25" cy="212.69" r="1.32" fill="#e8e2d6" opacity="0.3183729540091008"/><circle cx="21.11" cy="18.74" r="0.83" fill="#e8e2d6" opacity="0.2703959059435874"/><path d="M 451.12,202.85 C 452.42,206.19 452.42,206.19 455.76,207.49 C 452.42,208.79 452.42,208.79 451.12,212.14 C 449.82,208.79 449.82,208.79 446.48,207.49 C 449.82,206.19 449.82,206.19 451.12,202.85 Z" fill="#e8e2d6" opacity="0.6"/><circle cx="540.72" cy="738.03" r="0.87" fill="#e8e2d6" opacity="0.15197136760689317"/><circle cx="51.85" cy="576.63" r="1.39" fill="#e8e2d6" opacity="0.23216738463379444"/><circle cx="189.75" cy="170.5" r="1.46" fill="#e8e2d6" opacity="0.19992806962691248"/><circle cx="227.4" cy="123" r="1.04" fill="#e8e2d6" opacity="0.16059036031365395"/><circle cx="334.22" cy="691.07" r="1.06" fill="#e8e2d6" opacity="0.2966272321995348"/><circle cx="201.87" cy="149.69" r="1.52" fill="#e8e2d6" opacity="0.26545328958891334"/><circle cx="561.44" cy="350.87" r="1.35" fill="#e8e2d6" opacity="0.15063934843055904"/><circle cx="407.98" cy="21.18" r="1.31" fill="#e8e2d6" opacity="0.20329702333547175"/><circle cx="306.58" cy="643.66" r="1.25" fill="#e8e2d6" opacity="0.23918460914865136"/><circle cx="546.29" cy="12.53" r="1.05" fill="#e8e2d6" opacity="0.2982468854635954"/><circle cx="364.38" cy="612.81" r="1.32" fill="#e8e2d6" opacity="0.3166068526916206"/><circle cx="281.43" cy="648.04" r="0.66" fill="#e8e2d6" opacity="0.189409164711833"/><circle cx="145.36" cy="497.26" r="1.4" fill="#e8e2d6" opacity="0.2314626538194716"/><circle cx="577.62" cy="225.08" r="1.07" fill="#e8e2d6" opacity="0.17159567307680845"/><circle cx="131.35" cy="325.27" r="0.8" fill="#e8e2d6" opacity="0.32436954672448337"/><path d="M 586.8,463.45 C 588.3,467.3 588.3,467.3 592.15,468.79 C 588.3,470.29 588.3,470.29 586.8,474.14 C 585.3,470.29 585.3,470.29 581.45,468.79 C 585.3,467.3 585.3,467.3 586.8,463.45 Z" fill="#e8e2d6" opacity="0.6"/><circle cx="237.2" cy="112.17" r="1.33" fill="#e8e2d6" opacity="0.24604095607064663"/><circle cx="365.73" cy="31.97" r="1.37" fill="#e8e2d6" opacity="0.23564621843397618"/><circle cx="499.12" cy="457.03" r="1.48" fill="#e8e2d6" opacity="0.20338559439405798"/><circle cx="464.31" cy="670.23" r="1.24" fill="#e8e2d6" opacity="0.29537236168980596"/><circle cx="395.15" cy="533.06" r="1.4" fill="#e8e2d6" opacity="0.30387514638714497"/><path d="M 118.23,465.7 C 119.93,470.09 119.93,470.09 124.32,471.8 C 119.93,473.51 119.93,473.51 118.23,477.9 C 116.52,473.51 116.52,473.51 112.13,471.8 C 116.52,470.09 116.52,470.09 118.23,465.7 Z" fill="#e8e2d6" opacity="0.6"/><path d="M 456.38,374.48 C 457.98,378.58 457.98,378.58 462.09,380.18 C 457.98,381.78 457.98,381.78 456.38,385.89 C 454.79,381.78 454.79,381.78 450.68,380.18 C 454.79,378.58 454.79,378.58 456.38,374.48 Z" fill="#e8e2d6" opacity="0.6"/><path d="M 68.87,570.64 C 70.13,573.91 70.13,573.91 73.4,575.18 C 70.13,576.44 70.13,576.44 68.87,579.71 C 67.6,576.44 67.6,576.44 64.34,575.18 C 67.6,573.91 67.6,573.91 68.87,570.64 Z" fill="#e8e2d6" opacity="0.6"/><circle cx="563.34" cy="111.85" r="1.22" fill="#e8e2d6" opacity="0.3182782977819443"/><circle cx="73.8" cy="637.54" r="1.17" fill="#e8e2d6" opacity="0.3311497832648456"/><circle cx="483.56" cy="434.94" r="1.2" fill="#e8e2d6" opacity="0.2793590242508799"/><circle cx="81.18" cy="415.27" r="1.48" fill="#e8e2d6" opacity="0.2834053156897426"/><circle cx="468.24" cy="463.05" r="1.11" fill="#e8e2d6" opacity="0.18513419390656055"/><circle cx="137.48" cy="615.48" r="1.22" fill="#e8e2d6" opacity="0.1980295268818736"/><circle cx="65.75" cy="689.14" r="1.24" fill="#e8e2d6" opacity="0.3251894332002848"/><path d="M 186.13,61.7 C 187.78,65.96 187.78,65.96 192.05,67.62 C 187.78,69.28 187.78,69.28 186.13,73.54 C 184.47,69.28 184.47,69.28 180.2,67.62 C 184.47,65.96 184.47,65.96 186.13,61.7 Z" fill="#e8e2d6" opacity="0.6"/><circle cx="277.36" cy="101.85" r="0.94" fill="#e8e2d6" opacity="0.1524348829407245"/><circle cx="45.54" cy="318.71" r="1.16" fill="#e8e2d6" opacity="0.2222964678891003"/><circle cx="223.86" cy="60.64" r="0.85" fill="#e8e2d6" opacity="0.16295595620758832"/><circle cx="591.41" cy="426.18" r="1.08" fill="#e8e2d6" opacity="0.30232908646576107"/><circle cx="300" cy="334.4" r="92" fill="#0e0d0b" opacity="1"/><circle cx="300" cy="334.4" r="92" fill="none" stroke="#e8e2d6" stroke-width="1.6" opacity="0.95"/><circle cx="300" cy="334.4" r="102" fill="none" stroke="#c0392b" stroke-width="1" opacity="0.5"/><path d="M 408,334.4 L 424,334.4" fill="none" stroke="#e8e2d6" stroke-width="0.9" stroke-linecap="round" stroke-linejoin="round" opacity="0.6"/><path d="M 406.67,351.29 L 445.24,357.4" fill="none" stroke="#e8e2d6" stroke-width="0.9" stroke-linecap="round" stroke-linejoin="round" opacity="0.6"/><path d="M 402.71,367.77 L 423.12,374.4" fill="none" stroke="#e8e2d6" stroke-width="0.9" stroke-linecap="round" stroke-linejoin="round" opacity="0.6"/><path d="M 396.23,383.43 L 427.28,399.25" fill="none" stroke="#e8e2d6" stroke-width="0.9" stroke-linecap="round" stroke-linejoin="round" opacity="0.6"/><path d="M 387.37,397.88 L 396.64,404.62" fill="none" stroke="#e8e2d6" stroke-width="0.9" stroke-linecap="round" stroke-linejoin="round" opacity="0.6"/><path d="M 376.37,410.77 L 396.34,430.74" fill="none" stroke="#e8e2d6" stroke-width="0.9" stroke-linecap="round" stroke-linejoin="round" opacity="0.6"/><path d="M 363.48,421.77 L 371.9,433.36" fill="none" stroke="#e8e2d6" stroke-width="0.9" stroke-linecap="round" stroke-linejoin="round" opacity="0.6"/><path d="M 349.03,430.63 L 366.26,464.44" fill="none" stroke="#e8e2d6" stroke-width="0.9" stroke-linecap="round" stroke-linejoin="round" opacity="0.6"/><path d="M 333.37,437.11 L 340.15,457.98" fill="none" stroke="#e8e2d6" stroke-width="0.9" stroke-linecap="round" stroke-linejoin="round" opacity="0.6"/><path d="M 316.89,441.07 L 322.6,477.09" fill="none" stroke="#e8e2d6" stroke-width="0.9" stroke-linecap="round" stroke-linejoin="round" opacity="0.6"/><path d="M 300,442.4 L 300,455.14" fill="none" stroke="#e8e2d6" stroke-width="0.9" stroke-linecap="round" stroke-linejoin="round" opacity="0.6"/><path d="M 283.11,441.07 L 278.72,468.73" fill="none" stroke="#e8e2d6" stroke-width="0.9" stroke-linecap="round" stroke-linejoin="round" opacity="0.6"/><path d="M 266.63,437.11 L 262.68,449.27" fill="none" stroke="#e8e2d6" stroke-width="0.9" stroke-linecap="round" stroke-linejoin="round" opacity="0.6"/><path d="M 250.97,430.63 L 234.39,463.17" fill="none" stroke="#e8e2d6" stroke-width="0.9" stroke-linecap="round" stroke-linejoin="round" opacity="0.6"/><path d="M 236.52,421.77 L 223.62,439.53" fill="none" stroke="#e8e2d6" stroke-width="0.9" stroke-linecap="round" stroke-linejoin="round" opacity="0.6"/><path d="M 223.63,410.77 L 196.83,437.57" fill="none" stroke="#e8e2d6" stroke-width="0.9" stroke-linecap="round" stroke-linejoin="round" opacity="0.6"/><path d="M 212.63,397.88 L 201.08,406.27" fill="none" stroke="#e8e2d6" stroke-width="0.9" stroke-linecap="round" stroke-linejoin="round" opacity="0.6"/><path d="M 203.77,383.43 L 178.62,396.25" fill="none" stroke="#e8e2d6" stroke-width="0.9" stroke-linecap="round" stroke-linejoin="round" opacity="0.6"/><path d="M 197.29,367.77 L 186.35,371.33" fill="none" stroke="#e8e2d6" stroke-width="0.9" stroke-linecap="round" stroke-linejoin="round" opacity="0.6"/><path d="M 193.33,351.29 L 158.86,356.75" fill="none" stroke="#e8e2d6" stroke-width="0.9" stroke-linecap="round" stroke-linejoin="round" opacity="0.6"/><path d="M 192,334.4 L 170.52,334.4" fill="none" stroke="#e8e2d6" stroke-width="0.9" stroke-linecap="round" stroke-linejoin="round" opacity="0.6"/><path d="M 193.33,317.51 L 154.79,311.4" fill="none" stroke="#e8e2d6" stroke-width="0.9" stroke-linecap="round" stroke-linejoin="round" opacity="0.6"/><path d="M 197.29,301.03 L 182.12,296.1" fill="none" stroke="#e8e2d6" stroke-width="0.9" stroke-linecap="round" stroke-linejoin="round" opacity="0.6"/><path d="M 203.77,285.37 L 178,272.24" fill="none" stroke="#e8e2d6" stroke-width="0.9" stroke-linecap="round" stroke-linejoin="round" opacity="0.6"/><path d="M 212.63,270.92 L 204.08,264.71" fill="none" stroke="#e8e2d6" stroke-width="0.9" stroke-linecap="round" stroke-linejoin="round" opacity="0.6"/><path d="M 223.63,258.03 L 200.15,234.55" fill="none" stroke="#e8e2d6" stroke-width="0.9" stroke-linecap="round" stroke-linejoin="round" opacity="0.6"/><path d="M 236.52,247.03 L 224.43,230.38" fill="none" stroke="#e8e2d6" stroke-width="0.9" stroke-linecap="round" stroke-linejoin="round" opacity="0.6"/><path d="M 250.97,238.17 L 232.93,202.76" fill="none" stroke="#e8e2d6" stroke-width="0.9" stroke-linecap="round" stroke-linejoin="round" opacity="0.6"/><path d="M 266.63,231.69 L 261.18,214.92" fill="none" stroke="#e8e2d6" stroke-width="0.9" stroke-linecap="round" stroke-linejoin="round" opacity="0.6"/><path d="M 283.11,227.73 L 278.41,198.08" fill="none" stroke="#e8e2d6" stroke-width="0.9" stroke-linecap="round" stroke-linejoin="round" opacity="0.6"/><path d="M 300,226.4 L 300,216.33" fill="none" stroke="#e8e2d6" stroke-width="0.9" stroke-linecap="round" stroke-linejoin="round" opacity="0.6"/><path d="M 316.89,227.73 L 321.83,196.54" fill="none" stroke="#e8e2d6" stroke-width="0.9" stroke-linecap="round" stroke-linejoin="round" opacity="0.6"/><path d="M 333.37,231.69 L 339.34,213.32" fill="none" stroke="#e8e2d6" stroke-width="0.9" stroke-linecap="round" stroke-linejoin="round" opacity="0.6"/><path d="M 349.03,238.17 L 367.19,202.53" fill="none" stroke="#e8e2d6" stroke-width="0.9" stroke-linecap="round" stroke-linejoin="round" opacity="0.6"/><path d="M 363.48,247.03 L 374.75,231.51" fill="none" stroke="#e8e2d6" stroke-width="0.9" stroke-linecap="round" stroke-linejoin="round" opacity="0.6"/><path d="M 376.37,258.03 L 398.59,235.81" fill="none" stroke="#e8e2d6" stroke-width="0.9" stroke-linecap="round" stroke-linejoin="round" opacity="0.6"/><path d="M 387.37,270.92 L 395.5,265.01" fill="none" stroke="#e8e2d6" stroke-width="0.9" stroke-linecap="round" stroke-linejoin="round" opacity="0.6"/><path d="M 396.23,285.37 L 423.08,271.69" fill="none" stroke="#e8e2d6" stroke-width="0.9" stroke-linecap="round" stroke-linejoin="round" opacity="0.6"/><path d="M 402.71,301.03 L 419.62,295.53" fill="none" stroke="#e8e2d6" stroke-width="0.9" stroke-linecap="round" stroke-linejoin="round" opacity="0.6"/><path d="M 406.67,317.51 L 445.96,311.28" fill="none" stroke="#e8e2d6" stroke-width="0.9" stroke-linecap="round" stroke-linejoin="round" opacity="0.6"/><path d="M 60,496.4 q 120,-16 440,0" fill="none" stroke="#e8e2d6" stroke-width="1" stroke-linecap="round" stroke-linejoin="round" opacity="0.35"/><path d="M 80,522.4 q 120,-16 400,0" fill="none" stroke="#e8e2d6" stroke-width="1" stroke-linecap="round" stroke-linejoin="round" opacity="0.35"/><path d="M 100,548.4 q 120,-16 360,0" fill="none" stroke="#e8e2d6" stroke-width="1" stroke-linecap="round" stroke-linejoin="round" opacity="0.35"/></svg>