<svg xmlns="http://www.w3.org/2000/svg" viewBox="0 0 600 620" width="600" height="620"><rect width="600" height="620" fill="#0e0d0b"/><rect x="10" y="10" width="580" height="600" fill="none" stroke="#e8e2d6" stroke-width="0.5" opacity="0.12"/><circle cx="403.35" cy="518.29" r="0.65" fill="#e8e2d6" opacity="0.23334786631166934"/><path d="M 207.38,40.22 C 209.18,44.85 209.18,44.85 213.81,46.66 C 209.18,48.46 209.18,48.46 207.38,53.09 C 205.57,48.46 205.57,48.46 200.94,46.66 C 205.57,44.85 205.57,44.85 207.38,40.22 Z" fill="#e8e2d6" opacity="0.6"/><circle cx="253.11" cy="445.9" r="1.39" fill="#e8e2d6" opacity="0.30206628297455607"/><path d="M 506.76,169.33 C 508.58,174.01 508.58,174.01 513.26,175.83 C 508.58,177.65 508.58,177.65 506.76,182.33 C 504.94,177.65 504.94,177.65 500.26,175.83 C 504.94,174.01 504.94,174.01 506.76,169.33 Z" fill="#e8e2d6" opacity="0.6"/><path d="M 463.4,492.4 C 465.07,496.7 465.07,496.7 469.37,498.37 C 465.07,500.04 465.07,500.04 463.4,504.33 C 461.73,500.04 461.73,500.04 457.44,498.37 C 461.73,496.7 461.73,496.7 463.4,492.4 Z" fill="#e8e2d6" opacity="0.6"/><circle cx="380.87" cy="21.68" r="0.8" fill="#e8e2d6" opacity="0.29063903596252205"/><circle cx="167.32" cy="172.06" r="1.31" fill="#e8e2d6" opacity="0.3466152796987444"/><path d="M 491.13,512.06 C 492.53,515.66 492.53,515.66 496.13,517.06 C 492.53,518.46 492.53,518.46 491.13,522.05 C 489.73,518.46 489.73,518.46 486.14,517.06 C 489.73,515.66 489.73,515.66 491.13,512.06 Z" fill="#e8e2d6" opacity="0.6"/><circle cx="40.91" cy="517.75" r="1.05" fill="#e8e2d6" opacity="0.15906437444500623"/><path d="M 269.7,544.02 C 271.37,548.32 271.37,548.32 275.67,549.99 C 271.37,551.66 271.37,551.66 269.7,555.95 C 268.03,551.66 268.03,551.66 263.74,549.99 C 268.03,548.32 268.03,548.32 269.7,544.02 Z" fill="#e8e2d6" opacity="0.6"/><circle cx="490.31" cy="333.64" r="0.76" fill="#e8e2d6" opacity="0.34136826586909597"/><circle cx="435" cy="596.84" r="0.9" fill="#e8e2d6" opacity="0.30998739022761584"/><circle cx="244.83" cy="539.63" r="1.61" fill="#e8e2d6" opacity="0.24441797733306886"/><circle cx="221.89" cy="536.24" r="1.46" fill="#e8e2d6" opacity="0.22599450442939997"/><path d="M 485.76,63.16 C 487.01,66.38 487.01,66.38 490.24,67.64 C 487.01,68.89 487.01,68.89 485.76,72.12 C 484.5,68.89 484.5,68.89 481.28,67.64 C 484.5,66.38 484.5,66.38 485.76,63.16 Z" fill="#e8e2d6" opacity="0.6"/><path d="M 503.48,325.13 C 505.01,329.05 505.01,329.05 508.93,330.58 C 505.01,332.1 505.01,332.1 503.48,336.02 C 501.96,332.1 501.96,332.1 498.04,330.58 C 501.96,329.05 501.96,329.05 503.48,325.13 Z" fill="#e8e2d6" opacity="0.6"/><circle cx="198.86" cy="73.69" r="1.11" fill="#e8e2d6" opacity="0.2532066314481199"/><path d="M 109.41,326.81 C 110.92,330.7 110.92,330.7 114.81,332.21 C 110.92,333.72 110.92,333.72 109.41,337.6 C 107.9,333.72 107.9,333.72 104.02,332.21 C 107.9,330.7 107.9,330.7 109.41,326.81 Z" fill="#e8e2d6" opacity="0.6"/><circle cx="272.27" cy="496.75" r="0.73" fill="#e8e2d6" opacity="0.21542849829420446"/><circle cx="108.49" cy="566.14" r="0.63" fill="#e8e2d6" opacity="0.21651090518571436"/><circle cx="244.02" cy="66.77" r="1.37" fill="#e8e2d6" opacity="0.24783128323033451"/><circle cx="233.37" cy="584.24" r="1.12" fill="#e8e2d6" opacity="0.2195558168925345"/><circle cx="559.42" cy="424.32" r="1.34" fill="#e8e2d6" opacity="0.191265422757715"/><circle cx="502.5" cy="305.75" r="1.05" fill="#e8e2d6" opacity="0.2034014670178294"/><circle cx="110.3" cy="365.22" r="0.62" fill="#e8e2d6" opacity="0.2831366813741624"/><path d="M 370.08,132.68 C 371.85,137.24 371.85,137.24 376.4,139.01 C 371.85,140.78 371.85,140.78 370.08,145.33 C 368.31,140.78 368.31,140.78 363.76,139.01 C 368.31,137.24 368.31,137.24 370.08,132.68 Z" fill="#e8e2d6" opacity="0.6"/><circle cx="280.67" cy="8.77" r="0.88" fill="#e8e2d6" opacity="0.20133612575009466"/><path d="M 356.64,116.98 C 358.59,121.99 358.59,121.99 363.6,123.94 C 358.59,125.88 358.59,125.88 356.64,130.89 C 354.7,125.88 354.7,125.88 349.69,123.94 C 354.7,121.99 354.7,121.99 356.64,116.98 Z" fill="#e8e2d6" opacity="0.6"/><circle cx="290.57" cy="608.73" r="1.22" fill="#e8e2d6" opacity="0.22693260884843766"/><circle cx="449.33" cy="194.73" r="1.16" fill="#e8e2d6" opacity="0.17748156944289803"/><circle cx="291.47" cy="513.16" r="1.68" fill="#e8e2d6" opacity="0.17018994833342732"/><circle cx="439.82" cy="173.75" r="0.64" fill="#e8e2d6" opacity="0.18933994295075535"/><circle cx="483.12" cy="101.98" r="1.1" fill="#e8e2d6" opacity="0.3163266334217042"/><circle cx="206.85" cy="127.91" r="0.98" fill="#e8e2d6" opacity="0.2590576348360628"/><circle cx="236.26" cy="52.48" r="1.12" fill="#e8e2d6" opacity="0.28358246125280856"/><circle cx="163.76" cy="331.6" r="1.14" fill="#e8e2d6" opacity="0.17746441694907844"/><circle cx="453.62" cy="147.04" r="0.87" fill="#e8e2d6" opacity="0.20723390206694603"/><circle cx="175.01" cy="265.12" r="0.79" fill="#e8e2d6" opacity="0.3202470807358623"/><path d="M 214.85,5.77 C 216.24,9.33 216.24,9.33 219.79,10.71 C 216.24,12.09 216.24,12.09 214.85,15.64 C 213.47,12.09 213.47,12.09 209.92,10.71 C 213.47,9.33 213.47,9.33 214.85,5.77 Z" fill="#e8e2d6" opacity="0.6"/><circle cx="159.02" cy="172.53" r="1.26" fill="#e8e2d6" opacity="0.2756268267519772"/><circle cx="330" cy="310" r="150" fill="#e8e2d6" opacity="0.95"/><circle cx="384" cy="288" r="150" fill="#0e0d0b" opacity="1"/><path d="M 322,168 A 150,150 0 1 0 322,452" fill="none" stroke="#e8e2d6" stroke-width="1.2" opacity="0.6"/><path d="M 360,238 C 363.36,246.64 363.36,246.64 372,250 C 363.36,253.36 363.36,253.36 360,262 C 356.64,253.36 356.64,253.36 348,250 C 356.64,246.64 356.64,246.64 360,238 Z" fill="#c0392b" opacity="0.9"/><path d="M 392,282 C 394.24,287.76 394.24,287.76 400,290 C 394.24,292.24 394.24,292.24 392,298 C 389.76,292.24 389.76,292.24 384,290 C 389.76,287.76 389.76,287.76 392,282 Z" fill="#e8e2d6" opacity="0.9"/><path d="M 370,326 C 372.8,333.2 372.8,333.2 380,336 C 372.8,338.8 372.8,338.8 370,346 C 367.2,338.8 367.2,338.8 360,336 C 367.2,333.2 367.2,333.2 370,326 Z" fill="#e8e2d6" opacity="0.9"/><path d="M 408,363 C 409.96,368.04 409.96,368.04 415,370 C 409.96,371.96 409.96,371.96 408,377 C 406.04,371.96 406.04,371.96 401,370 C 406.04,368.04 406.04,368.04 408,363 Z" fill="#e8e2d6" opacity="0.9"/><path d="M 346,296 C 347.68,300.32 347.68,300.32 352,302 C 347.68,303.68 347.68,303.68 346,308 C 344.32,303.68 344.32,303.68 340,302 C 344.32,300.32 344.32,300.32 346,296 Z" fill="#e8e2d6" opacity="0.9"/></svg>