<svg xmlns="http://www.w3.org/2000/svg" viewBox="0 0 600 800" width="600" height="800"><rect width="600" height="800" fill="#0e0d0b"/><rect x="14" y="14" width="572" height="772" fill="none" stroke="#e8e2d6" stroke-width="0.6" opacity="0.14"/><circle cx="342.9" cy="432.7" r="130.4" fill="none" stroke="#e8e2d6" stroke-width="1.6" opacity="0.9"/><circle cx="388.5" cy="406.6" r="106.9" fill="#0e0d0b" opacity="0.92"/><path d="M -20 573.6 C 258.3 593.8, 356.5 471.3, 620 522" stroke="#e8e2d6" stroke-width="1.7" fill="none" opacity="0.4"/><path d="M -20 424.8 C 238.5 383.9, 348.2 366.9, 620 417" stroke="#e8e2d6" stroke-width="1.5" fill="none" opacity="0.4"/><path d="M -20 628.5 C 166.6 619.8, 305.4 627.1, 620 567.5" stroke="#e8e2d6" stroke-width="0.9" fill="none" opacity="0.3"/><path d="M -20 478.7 C 284.1 464.4, 460.9 484.8, 620 546" stroke="#e8e2d6" stroke-width="1.4" fill="none" opacity="0.3"/><path d="M -20 713.2 C 128 653.1, 392.5 669.2, 620 771.4" stroke="#e8e2d6" stroke-width="1.7" fill="none" opacity="0.5"/><circle cx="477.8" cy="649.9" r="4.7" fill="#c0392b" opacity="0.9"/><circle cx="182.8" cy="337.4" r="1" fill="#e8e2d6" opacity="0.3"/><circle cx="418.1" cy="775.6" r="0.6" fill="#e8e2d6" opacity="0.3"/><circle cx="355.6" cy="243.6" r="1.9" fill="#e8e2d6" opacity="0.4"/><circle cx="351" cy="763.7" r="1.3" fill="#e8e2d6" opacity="0.4"/><circle cx="320.3" cy="602.1" r="1.7" fill="#e8e2d6" opacity="0.4"/><circle cx="597.1" cy="576.3" r="1.5" fill="#e8e2d6" opacity="0.5"/><circle cx="241" cy="60.7" r="2.1" fill="#e8e2d6" opacity="0.4"/><circle cx="328.1" cy="308.6" r="1.7" fill="#e8e2d6" opacity="0.5"/><circle cx="91.8" cy="42.7" r="2" fill="#e8e2d6" opacity="0.5"/><circle cx="160.2" cy="266" r="1.2" fill="#e8e2d6" opacity="0.4"/><circle cx="204" cy="16.9" r="1.5" fill="#e8e2d6" opacity="0.5"/><circle cx="212.1" cy="736.9" r="0.6" fill="#e8e2d6" opacity="0.4"/><circle cx="414" cy="571.9" r="0.7" fill="#e8e2d6" opacity="0.5"/><circle cx="135.1" cy="763.4" r="1.2" fill="#e8e2d6" opacity="0.4"/><circle cx="343.9" cy="457.5" r="0.8" fill="#e8e2d6" opacity="0.5"/><circle cx="458.2" cy="414" r="0.8" fill="#e8e2d6" opacity="0.5"/><circle cx="475.1" cy="657" r="1.5" fill="#e8e2d6" opacity="0.5"/><circle cx="293.8" cy="145.2" r="1.1" fill="#e8e2d6" opacity="0.2"/><circle cx="394.9" cy="708.7" r="1.9" fill="#e8e2d6" opacity="0.4"/><circle cx="464" cy="401.1" r="1.4" fill="#e8e2d6" opacity="0.3"/><circle cx="398.4" cy="234.6" r="0.9" fill="#e8e2d6" opacity="0.4"/><circle cx="75.1" cy="267.1" r="0.7" fill="#e8e2d6" opacity="0.4"/><circle cx="176.8" cy="172.7" r="0.7" fill="#e8e2d6" opacity="0.3"/><circle cx="593.2" cy="710.7" r="0.9" fill="#e8e2d6" opacity="0.3"/><circle cx="84" cy="610.8" r="2" fill="#e8e2d6" opacity="0.3"/><circle cx="354.4" cy="339.4" r="1.8" fill="#e8e2d6" opacity="0.5"/><circle cx="552.3" cy="735.6" r="1.3" fill="#e8e2d6" opacity="0.4"/><circle cx="403.2" cy="327" r="0.7" fill="#e8e2d6" opacity="0.5"/><circle cx="461.1" cy="792.9" r="1.4" fill="#e8e2d6" opacity="0.3"/><circle cx="62.8" cy="548.3" r="0.6" fill="#e8e2d6" opacity="0.4"/><circle cx="32.5" cy="487.3" r="1.7" fill="#e8e2d6" opacity="0.2"/><circle cx="17.3" cy="234.9" r="1" fill="#e8e2d6" opacity="0.3"/><circle cx="133.3" cy="497.3" r="1.2" fill="#e8e2d6" opacity="0.4"/><circle cx="27.8" cy="356.1" r="1.1" fill="#e8e2d6" opacity="0.3"/><circle cx="519.9" cy="56.7" r="0.8" fill="#e8e2d6" opacity="0.3"/><circle cx="56.1" cy="9.2" r="1.8" fill="#e8e2d6" opacity="0.3"/><circle cx="284" cy="33.9" r="1.6" fill="#e8e2d6" opacity="0.3"/><circle cx="52.1" cy="504.9" r="1.4" fill="#e8e2d6" opacity="0.4"/><circle cx="27.7" cy="611.1" r="0.9" fill="#e8e2d6" opacity="0.5"/><circle cx="538.5" cy="599.2" r="1.7" fill="#e8e2d6" opacity="0.2"/><circle cx="471.4" cy="67.4" r="1.8" fill="#e8e2d6" opacity="0.3"/><circle cx="424.2" cy="234.1" r="1.4" fill="#e8e2d6" opacity="0.5"/></svg>