<svg xmlns="http://www.w3.org/2000/svg" viewBox="0 0 600 700" width="600" height="700"><rect width="600" height="700" fill="#0e0d0b"/><rect x="14" y="14" width="572" height="672" fill="none" stroke="#e8e2d6" stroke-width="0.6" opacity="0.14"/><circle cx="188.2" cy="318.2" r="116" fill="none" stroke="#e8e2d6" stroke-width="1.6" opacity="0.9"/><circle cx="228.8" cy="295" r="95.1" fill="#0e0d0b" opacity="0.92"/><path d="M -20 485.7 C 252.7 417.7, 362 506.3, 620 499.8" stroke="#e8e2d6" stroke-width="1.1" fill="none" opacity="0.2"/><path d="M -20 449.4 C 238.4 474.8, 379.5 478.9, 620 401.6" stroke="#e8e2d6" stroke-width="1" fill="none" opacity="0.3"/><path d="M -20 474.9 C 230.6 518, 369.1 393.4, 620 481.3" stroke="#e8e2d6" stroke-width="0.8" fill="none" opacity="0.5"/><path d="M -20 394.3 C 179.9 359.2, 325.2 310.2, 620 339.4" stroke="#e8e2d6" stroke-width="1" fill="none" opacity="0.3"/><path d="M -20 578.2 C 277.6 559.4, 367.7 475.5, 620 540.8" stroke="#e8e2d6" stroke-width="1.2" fill="none" opacity="0.3"/><circle cx="321.7" cy="585.1" r="3.2" fill="#c0392b" opacity="0.9"/><circle cx="80.1" cy="610.6" r="1.4" fill="#e8e2d6" opacity="0.4"/><circle cx="358.3" cy="468.7" r="1.9" fill="#e8e2d6" opacity="0.5"/><circle cx="91.1" cy="533.3" r="1.8" fill="#e8e2d6" opacity="0.3"/><circle cx="132.1" cy="426.7" r="1.4" fill="#e8e2d6" opacity="0.3"/><circle cx="99.3" cy="328.3" r="1.5" fill="#e8e2d6" opacity="0.4"/><circle cx="349" cy="311.2" r="0.8" fill="#e8e2d6" opacity="0.3"/><circle cx="103" cy="482.5" r="1" fill="#e8e2d6" opacity="0.3"/><circle cx="527" cy="259.4" r="1.3" fill="#e8e2d6" opacity="0.3"/><circle cx="67.8" cy="217.8" r="0.7" fill="#e8e2d6" opacity="0.3"/><circle cx="261.7" cy="242.1" r="1" fill="#e8e2d6" opacity="0.4"/><circle cx="598.1" cy="236.9" r="1.7" fill="#e8e2d6" opacity="0.2"/><circle cx="550.3" cy="120.4" r="1.2" fill="#e8e2d6" opacity="0.3"/><circle cx="529.6" cy="543.5" r="1.9" fill="#e8e2d6" opacity="0.5"/><circle cx="175.7" cy="228" r="1.6" fill="#e8e2d6" opacity="0.3"/><circle cx="159.3" cy="564.9" r="2" fill="#e8e2d6" opacity="0.2"/><circle cx="304.6" cy="616.7" r="1.3" fill="#e8e2d6" opacity="0.3"/><circle cx="575.2" cy="344.5" r="1.5" fill="#e8e2d6" opacity="0.3"/><circle cx="419" cy="254.7" r="1.6" fill="#e8e2d6" opacity="0.4"/><circle cx="249.6" cy="621.7" r="2" fill="#e8e2d6" opacity="0.2"/><circle cx="312.4" cy="668" r="2.1" fill="#e8e2d6" opacity="0.3"/><circle cx="381.1" cy="284.4" r="1.7" fill="#e8e2d6" opacity="0.4"/><circle cx="224.3" cy="545.7" r="1.3" fill="#e8e2d6" opacity="0.4"/><circle cx="227" cy="440.2" r="1.9" fill="#e8e2d6" opacity="0.5"/><circle cx="280.2" cy="650.6" r="1.2" fill="#e8e2d6" opacity="0.2"/><circle cx="353.5" cy="396.8" r="1.9" fill="#e8e2d6" opacity="0.3"/><circle cx="188.6" cy="61.3" r="0.9" fill="#e8e2d6" opacity="0.2"/><circle cx="22.6" cy="457.3" r="2.1" fill="#e8e2d6" opacity="0.4"/><circle cx="224.8" cy="598.2" r="1.7" fill="#e8e2d6" opacity="0.4"/><circle cx="306.9" cy="166.7" r="2" fill="#e8e2d6" opacity="0.3"/><circle cx="115.2" cy="591.4" r="0.8" fill="#e8e2d6" opacity="0.4"/><circle cx="139.1" cy="426.2" r="0.6" fill="#e8e2d6" opacity="0.3"/><circle cx="340.2" cy="371.2" r="0.7" fill="#e8e2d6" opacity="0.3"/><circle cx="544.4" cy="660.9" r="1.9" fill="#e8e2d6" opacity="0.5"/><circle cx="464" cy="485.9" r="1.5" fill="#e8e2d6" opacity="0.2"/><circle cx="160.8" cy="41.4" r="1.1" fill="#e8e2d6" opacity="0.2"/><circle cx="209.2" cy="529" r="0.7" fill="#e8e2d6" opacity="0.3"/><circle cx="319.1" cy="78.2" r="1.3" fill="#e8e2d6" opacity="0.5"/><circle cx="564.5" cy="59.8" r="1.4" fill="#e8e2d6" opacity="0.4"/><circle cx="100.9" cy="193.2" r="1.9" fill="#e8e2d6" opacity="0.2"/><circle cx="353" cy="274.6" r="2.1" fill="#e8e2d6" opacity="0.3"/><circle cx="41.9" cy="608.9" r="2" fill="#e8e2d6" opacity="0.3"/><circle cx="214.7" cy="239.6" r="1.9" fill="#e8e2d6" opacity="0.5"/></svg>