<svg xmlns="http://www.w3.org/2000/svg" viewBox="0 0 600 620" width="600" height="620"><rect width="600" height="620" fill="#0e0d0b"/><rect x="14" y="14" width="572" height="592" fill="none" stroke="#e8e2d6" stroke-width="0.6" opacity="0.14"/><circle cx="202.8" cy="273.7" r="127.7" fill="none" stroke="#e8e2d6" stroke-width="1.6" opacity="0.9"/><circle cx="247.5" cy="248.1" r="104.7" fill="#0e0d0b" opacity="0.92"/><path d="M -20 486.5 C 145.1 452.8, 442 505.7, 620 502" stroke="#e8e2d6" stroke-width="1.6" fill="none" opacity="0.3"/><path d="M -20 441.1 C 174.3 421.7, 425.3 412.3, 620 458.8" stroke="#e8e2d6" stroke-width="0.9" fill="none" opacity="0.4"/><path d="M -20 307 C 236.6 363.4, 458.5 342.7, 620 358.8" stroke="#e8e2d6" stroke-width="1.5" fill="none" opacity="0.5"/><path d="M -20 479.9 C 198.2 474.8, 413 384, 620 442" stroke="#e8e2d6" stroke-width="1.3" fill="none" opacity="0.4"/><path d="M -20 393 C 245.1 431, 473.9 488.4, 620 435" stroke="#e8e2d6" stroke-width="0.8" fill="none" opacity="0.2"/><circle cx="282.9" cy="457.8" r="6.2" fill="#c0392b" opacity="0.9"/><circle cx="322.6" cy="37.9" r="1.8" fill="#e8e2d6" opacity="0.5"/><circle cx="543.6" cy="366.4" r="1.1" fill="#e8e2d6" opacity="0.3"/><circle cx="64.4" cy="186.1" r="0.6" fill="#e8e2d6" opacity="0.3"/><circle cx="419.7" cy="431.9" r="1.8" fill="#e8e2d6" opacity="0.3"/><circle cx="286.1" cy="10.6" r="0.8" fill="#e8e2d6" opacity="0.2"/><circle cx="495.5" cy="536.9" r="1.7" fill="#e8e2d6" opacity="0.5"/><circle cx="273.6" cy="255.1" r="1.8" fill="#e8e2d6" opacity="0.3"/><circle cx="352" cy="261.3" r="2.1" fill="#e8e2d6" opacity="0.3"/><circle cx="350.1" cy="157.3" r="1.2" fill="#e8e2d6" opacity="0.4"/><circle cx="500.5" cy="516.4" r="1.7" fill="#e8e2d6" opacity="0.5"/><circle cx="406.5" cy="128" r="1.1" fill="#e8e2d6" opacity="0.4"/><circle cx="88.9" cy="217.4" r="1.5" fill="#e8e2d6" opacity="0.2"/><circle cx="465.6" cy="483.5" r="0.8" fill="#e8e2d6" opacity="0.4"/><circle cx="196.1" cy="327.4" r="1.9" fill="#e8e2d6" opacity="0.4"/><circle cx="53.4" cy="319.2" r="0.9" fill="#e8e2d6" opacity="0.5"/><circle cx="424" cy="414.3" r="1.5" fill="#e8e2d6" opacity="0.3"/><circle cx="238.2" cy="123.6" r="1.8" fill="#e8e2d6" opacity="0.3"/><circle cx="237.7" cy="269.7" r="1.3" fill="#e8e2d6" opacity="0.4"/><circle cx="389.1" cy="359.6" r="1.7" fill="#e8e2d6" opacity="0.3"/><circle cx="555.4" cy="440.1" r="1.3" fill="#e8e2d6" opacity="0.3"/><circle cx="379.5" cy="246.3" r="1.5" fill="#e8e2d6" opacity="0.3"/><circle cx="497.8" cy="170" r="1" fill="#e8e2d6" opacity="0.5"/><circle cx="23.2" cy="186.1" r="1.8" fill="#e8e2d6" opacity="0.4"/><circle cx="65.1" cy="390" r="1.6" fill="#e8e2d6" opacity="0.5"/><circle cx="292" cy="469" r="1.2" fill="#e8e2d6" opacity="0.3"/><circle cx="156.9" cy="9.1" r="1.2" fill="#e8e2d6" opacity="0.3"/><circle cx="137" cy="565.5" r="1.7" fill="#e8e2d6" opacity="0.2"/><circle cx="569.4" cy="68" r="1.3" fill="#e8e2d6" opacity="0.3"/><circle cx="558.8" cy="31" r="1.8" fill="#e8e2d6" opacity="0.4"/><circle cx="83.7" cy="462.5" r="1.9" fill="#e8e2d6" opacity="0.4"/><circle cx="235.9" cy="314.3" r="0.6" fill="#e8e2d6" opacity="0.3"/><circle cx="292.5" cy="579.1" r="1.2" fill="#e8e2d6" opacity="0.4"/><circle cx="205.2" cy="593.6" r="2.1" fill="#e8e2d6" opacity="0.3"/><circle cx="568.7" cy="497.7" r="1.1" fill="#e8e2d6" opacity="0.3"/><circle cx="307.6" cy="169.9" r="1.1" fill="#e8e2d6" opacity="0.2"/><circle cx="96" cy="72.9" r="1.9" fill="#e8e2d6" opacity="0.5"/><circle cx="294.4" cy="258.1" r="1.5" fill="#e8e2d6" opacity="0.4"/><circle cx="84.8" cy="547.7" r="1.7" fill="#e8e2d6" opacity="0.3"/><circle cx="588" cy="369.7" r="2.1" fill="#e8e2d6" opacity="0.4"/><circle cx="573.4" cy="264.8" r="1.9" fill="#e8e2d6" opacity="0.5"/><circle cx="331.5" cy="362.4" r="1.8" fill="#e8e2d6" opacity="0.2"/><circle cx="502.6" cy="576.3" r="0.7" fill="#e8e2d6" opacity="0.4"/></svg>